<svg xmlns="http://www.w3.org/2000/svg" xmlns:xlink="http://www.w3.org/1999/xlink" width="512" zoomAndPan="magnify" viewBox="0 0 384 112.499997" height="150" preserveAspectRatio="xMidYMid meet" version="1.0"><defs><g/><clipPath id="92f4f7eb60"><path d="M 0.847656 0 L 383.148438 0 L 383.148438 112.003906 L 0.847656 112.003906 Z M 0.847656 0 " clip-rule="nonzero"/></clipPath><linearGradient x1="0" gradientTransform="matrix(0.746681, 0, 0, 0.746681, 0.849563, 0)" y1="75" x2="511.999979" gradientUnits="userSpaceOnUse" y2="75" id="03c8749f6e"><stop stop-opacity="1" stop-color="rgb(8.628845%, 38.038635%, 45.878601%)" offset="0"/><stop stop-opacity="1" stop-color="rgb(8.772278%, 38.194275%, 45.951843%)" offset="0.015625"/><stop stop-opacity="1" stop-color="rgb(9.060669%, 38.50708%, 46.099854%)" offset="0.03125"/><stop stop-opacity="1" stop-color="rgb(9.34906%, 38.819885%, 46.246338%)" offset="0.046875"/><stop stop-opacity="1" stop-color="rgb(9.635925%, 39.13269%, 46.392822%)" offset="0.0625"/><stop stop-opacity="1" stop-color="rgb(9.924316%, 39.445496%, 46.540833%)" offset="0.078125"/><stop stop-opacity="1" stop-color="rgb(10.212708%, 39.756775%, 46.687317%)" offset="0.09375"/><stop stop-opacity="1" stop-color="rgb(10.501099%, 40.06958%, 46.835327%)" offset="0.109375"/><stop stop-opacity="1" stop-color="rgb(10.787964%, 40.382385%, 46.981812%)" offset="0.125"/><stop stop-opacity="1" stop-color="rgb(11.076355%, 40.69519%, 47.128296%)" offset="0.140625"/><stop stop-opacity="1" stop-color="rgb(11.364746%, 41.007996%, 47.276306%)" offset="0.15625"/><stop stop-opacity="1" stop-color="rgb(11.651611%, 41.319275%, 47.422791%)" offset="0.171875"/><stop stop-opacity="1" stop-color="rgb(11.940002%, 41.63208%, 47.569275%)" offset="0.1875"/><stop stop-opacity="1" stop-color="rgb(12.228394%, 41.944885%, 47.717285%)" offset="0.203125"/><stop stop-opacity="1" stop-color="rgb(12.516785%, 42.25769%, 47.86377%)" offset="0.21875"/><stop stop-opacity="1" stop-color="rgb(12.80365%, 42.570496%, 48.010254%)" offset="0.234375"/><stop stop-opacity="1" stop-color="rgb(13.092041%, 42.881775%, 48.158264%)" offset="0.25"/><stop stop-opacity="1" stop-color="rgb(13.380432%, 43.19458%, 48.304749%)" offset="0.265625"/><stop stop-opacity="1" stop-color="rgb(13.668823%, 43.507385%, 48.452759%)" offset="0.28125"/><stop stop-opacity="1" stop-color="rgb(13.955688%, 43.82019%, 48.599243%)" offset="0.296875"/><stop stop-opacity="1" stop-color="rgb(14.24408%, 44.132996%, 48.745728%)" offset="0.3125"/><stop stop-opacity="1" stop-color="rgb(14.532471%, 44.444275%, 48.893738%)" offset="0.328125"/><stop stop-opacity="1" stop-color="rgb(14.819336%, 44.75708%, 49.040222%)" offset="0.34375"/><stop stop-opacity="1" stop-color="rgb(15.107727%, 45.069885%, 49.186707%)" offset="0.359375"/><stop stop-opacity="1" stop-color="rgb(15.396118%, 45.38269%, 49.334717%)" offset="0.375"/><stop stop-opacity="1" stop-color="rgb(15.684509%, 45.695496%, 49.481201%)" offset="0.390625"/><stop stop-opacity="1" stop-color="rgb(15.971375%, 46.006775%, 49.627686%)" offset="0.40625"/><stop stop-opacity="1" stop-color="rgb(16.259766%, 46.31958%, 49.775696%)" offset="0.421875"/><stop stop-opacity="1" stop-color="rgb(16.548157%, 46.632385%, 49.92218%)" offset="0.4375"/><stop stop-opacity="1" stop-color="rgb(16.836548%, 46.94519%, 50.068665%)" offset="0.453125"/><stop stop-opacity="1" stop-color="rgb(17.123413%, 47.257996%, 50.216675%)" offset="0.46875"/><stop stop-opacity="1" stop-color="rgb(17.411804%, 47.569275%, 50.363159%)" offset="0.484375"/><stop stop-opacity="1" stop-color="rgb(17.700195%, 47.88208%, 50.511169%)" offset="0.5"/><stop stop-opacity="1" stop-color="rgb(17.987061%, 48.194885%, 50.657654%)" offset="0.515625"/><stop stop-opacity="1" stop-color="rgb(18.275452%, 48.50769%, 50.804138%)" offset="0.53125"/><stop stop-opacity="1" stop-color="rgb(18.563843%, 48.820496%, 50.952148%)" offset="0.546875"/><stop stop-opacity="1" stop-color="rgb(18.852234%, 49.131775%, 51.098633%)" offset="0.5625"/><stop stop-opacity="1" stop-color="rgb(19.139099%, 49.44458%, 51.245117%)" offset="0.578125"/><stop stop-opacity="1" stop-color="rgb(19.42749%, 49.757385%, 51.393127%)" offset="0.59375"/><stop stop-opacity="1" stop-color="rgb(19.715881%, 50.07019%, 51.539612%)" offset="0.609375"/><stop stop-opacity="1" stop-color="rgb(20.002747%, 50.382996%, 51.686096%)" offset="0.625"/><stop stop-opacity="1" stop-color="rgb(20.291138%, 50.694275%, 51.834106%)" offset="0.640625"/><stop stop-opacity="1" stop-color="rgb(20.579529%, 51.00708%, 51.980591%)" offset="0.65625"/><stop stop-opacity="1" stop-color="rgb(20.86792%, 51.319885%, 52.127075%)" offset="0.671875"/><stop stop-opacity="1" stop-color="rgb(21.154785%, 51.63269%, 52.275085%)" offset="0.6875"/><stop stop-opacity="1" stop-color="rgb(21.443176%, 51.945496%, 52.42157%)" offset="0.703125"/><stop stop-opacity="1" stop-color="rgb(21.731567%, 52.256775%, 52.56958%)" offset="0.71875"/><stop stop-opacity="1" stop-color="rgb(22.019958%, 52.56958%, 52.716064%)" offset="0.734375"/><stop stop-opacity="1" stop-color="rgb(22.306824%, 52.882385%, 52.862549%)" offset="0.75"/><stop stop-opacity="1" stop-color="rgb(22.595215%, 53.19519%, 53.010559%)" offset="0.765625"/><stop stop-opacity="1" stop-color="rgb(22.883606%, 53.507996%, 53.157043%)" offset="0.78125"/><stop stop-opacity="1" stop-color="rgb(23.170471%, 53.819275%, 53.303528%)" offset="0.796875"/><stop stop-opacity="1" stop-color="rgb(23.458862%, 54.13208%, 53.451538%)" offset="0.8125"/><stop stop-opacity="1" stop-color="rgb(23.747253%, 54.444885%, 53.598022%)" offset="0.828125"/><stop stop-opacity="1" stop-color="rgb(24.035645%, 54.75769%, 53.744507%)" offset="0.84375"/><stop stop-opacity="1" stop-color="rgb(24.32251%, 55.070496%, 53.892517%)" offset="0.859375"/><stop stop-opacity="1" stop-color="rgb(24.610901%, 55.381775%, 54.039001%)" offset="0.875"/><stop stop-opacity="1" stop-color="rgb(24.899292%, 55.69458%, 54.185486%)" offset="0.890625"/><stop stop-opacity="1" stop-color="rgb(25.186157%, 56.007385%, 54.333496%)" offset="0.90625"/><stop stop-opacity="1" stop-color="rgb(25.474548%, 56.32019%, 54.47998%)" offset="0.921875"/><stop stop-opacity="1" stop-color="rgb(25.762939%, 56.632996%, 54.627991%)" offset="0.9375"/><stop stop-opacity="1" stop-color="rgb(26.051331%, 56.944275%, 54.774475%)" offset="0.953125"/><stop stop-opacity="1" stop-color="rgb(26.338196%, 57.25708%, 54.920959%)" offset="0.96875"/><stop stop-opacity="1" stop-color="rgb(26.626587%, 57.569885%, 55.06897%)" offset="0.984375"/><stop stop-opacity="1" stop-color="rgb(26.914978%, 57.88269%, 55.215454%)" offset="1"/></linearGradient><clipPath id="5550a4c7fa"><path d="M 12.832031 0.773438 L 25.527344 0.773438 L 25.527344 61.234375 L 12.832031 61.234375 Z M 12.832031 0.773438 " clip-rule="nonzero"/></clipPath><clipPath id="0ae5af2f70"><path d="M 25.527344 7.121094 L 25.527344 54.878906 C 25.527344 56.5625 24.859375 58.175781 23.667969 59.367188 C 22.476562 60.558594 20.863281 61.226562 19.179688 61.226562 C 17.496094 61.226562 15.878906 60.558594 14.691406 59.367188 C 13.5 58.175781 12.832031 56.5625 12.832031 54.878906 L 12.832031 7.121094 C 12.832031 5.4375 13.5 3.820312 14.691406 2.632812 C 15.878906 1.441406 17.496094 0.773438 19.179688 0.773438 C 20.863281 0.773438 22.476562 1.441406 23.667969 2.632812 C 24.859375 3.820312 25.527344 5.4375 25.527344 7.121094 Z M 25.527344 7.121094 " clip-rule="nonzero"/></clipPath><clipPath id="3f55ef63fe"><path d="M 0.832031 0.773438 L 13.527344 0.773438 L 13.527344 61.234375 L 0.832031 61.234375 Z M 0.832031 0.773438 " clip-rule="nonzero"/></clipPath><clipPath id="72d6cb2a7a"><path d="M 13.527344 7.121094 L 13.527344 54.878906 C 13.527344 56.5625 12.859375 58.175781 11.667969 59.367188 C 10.476562 60.558594 8.863281 61.226562 7.179688 61.226562 C 5.496094 61.226562 3.878906 60.558594 2.691406 59.367188 C 1.5 58.175781 0.832031 56.5625 0.832031 54.878906 L 0.832031 7.121094 C 0.832031 5.4375 1.5 3.820312 2.691406 2.632812 C 3.878906 1.441406 5.496094 0.773438 7.179688 0.773438 C 8.863281 0.773438 10.476562 1.441406 11.667969 2.632812 C 12.859375 3.820312 13.527344 5.4375 13.527344 7.121094 Z M 13.527344 7.121094 " clip-rule="nonzero"/></clipPath><clipPath id="0b6bf07d55"><rect x="0" width="14" y="0" height="62"/></clipPath><clipPath id="ee32355f2a"><path d="M 0.285156 25.738281 L 25.351562 25.738281 L 25.351562 38.785156 L 0.285156 38.785156 Z M 0.285156 25.738281 " clip-rule="nonzero"/></clipPath><clipPath id="fa96d0b6bb"><path d="M 18.832031 38.785156 L 6.847656 38.785156 C 5.117188 38.785156 3.460938 38.097656 2.238281 36.875 C 1.015625 35.652344 0.328125 33.992188 0.328125 32.261719 C 0.328125 30.53125 1.015625 28.875 2.238281 27.648438 C 3.460938 26.425781 5.117188 25.738281 6.847656 25.738281 L 18.832031 25.738281 C 20.5625 25.738281 22.21875 26.425781 23.441406 27.648438 C 24.664062 28.875 25.351562 30.53125 25.351562 32.261719 C 25.351562 33.992188 24.664062 35.652344 23.441406 36.875 C 22.21875 38.097656 20.5625 38.785156 18.832031 38.785156 Z M 18.832031 38.785156 " clip-rule="nonzero"/></clipPath><clipPath id="7ccec83562"><path d="M 0.285156 0.738281 L 25.351562 0.738281 L 25.351562 13.785156 L 0.285156 13.785156 Z M 0.285156 0.738281 " clip-rule="nonzero"/></clipPath><clipPath id="2b9b447aca"><path d="M 18.832031 13.785156 L 6.847656 13.785156 C 5.117188 13.785156 3.460938 13.097656 2.238281 11.875 C 1.015625 10.652344 0.328125 8.992188 0.328125 7.261719 C 0.328125 5.53125 1.015625 3.875 2.238281 2.648438 C 3.460938 1.425781 5.117188 0.738281 6.847656 0.738281 L 18.832031 0.738281 C 20.5625 0.738281 22.21875 1.425781 23.441406 2.648438 C 24.664062 3.875 25.351562 5.53125 25.351562 7.261719 C 25.351562 8.992188 24.664062 10.652344 23.441406 11.875 C 22.21875 13.097656 20.5625 13.785156 18.832031 13.785156 Z M 18.832031 13.785156 " clip-rule="nonzero"/></clipPath><clipPath id="d29b0c9ebb"><rect x="0" width="26" y="0" height="14"/></clipPath><clipPath id="63642cc438"><path d="M 35.476562 0.753906 L 48.171875 0.753906 L 48.171875 27.136719 L 35.476562 27.136719 Z M 35.476562 0.753906 " clip-rule="nonzero"/></clipPath><clipPath id="8aa9acdf6e"><path d="M 35.476562 20.789062 L 35.476562 7.117188 C 35.476562 5.433594 36.144531 3.820312 37.335938 2.628906 C 38.523438 1.441406 40.140625 0.769531 41.824219 0.769531 C 43.507812 0.769531 45.121094 1.441406 46.3125 2.628906 C 47.5 3.820312 48.171875 5.433594 48.171875 7.117188 L 48.171875 20.789062 C 48.171875 22.472656 47.5 24.085938 46.3125 25.277344 C 45.121094 26.46875 43.507812 27.136719 41.824219 27.136719 C 40.140625 27.136719 38.523438 26.46875 37.335938 25.277344 C 36.144531 24.085938 35.476562 22.472656 35.476562 20.789062 Z M 35.476562 20.789062 " clip-rule="nonzero"/></clipPath><clipPath id="c8a1ed311a"><path d="M 0.476562 0.753906 L 13.171875 0.753906 L 13.171875 27.136719 L 0.476562 27.136719 Z M 0.476562 0.753906 " clip-rule="nonzero"/></clipPath><clipPath id="87da474ca7"><path d="M 0.476562 20.789062 L 0.476562 7.117188 C 0.476562 5.433594 1.144531 3.820312 2.335938 2.628906 C 3.523438 1.441406 5.140625 0.769531 6.824219 0.769531 C 8.507812 0.769531 10.121094 1.441406 11.3125 2.628906 C 12.5 3.820312 13.171875 5.433594 13.171875 7.117188 L 13.171875 20.789062 C 13.171875 22.472656 12.5 24.085938 11.3125 25.277344 C 10.121094 26.46875 8.507812 27.136719 6.824219 27.136719 C 5.140625 27.136719 3.523438 26.46875 2.335938 25.277344 C 1.144531 24.085938 0.476562 22.472656 0.476562 20.789062 Z M 0.476562 20.789062 " clip-rule="nonzero"/></clipPath><clipPath id="b5f143cf9d"><rect x="0" width="14" y="0" height="28"/></clipPath><clipPath id="d9a1a5fe60"><path d="M 20.109375 22.183594 L 45.148438 22.183594 L 45.148438 31.851562 L 20.109375 31.851562 Z M 20.109375 22.183594 " clip-rule="nonzero"/></clipPath><clipPath id="785ee817fc"><path d="M 40.316406 31.851562 L 24.957031 31.851562 C 22.289062 31.851562 20.121094 29.6875 20.121094 27.019531 C 20.121094 24.347656 22.289062 22.183594 24.957031 22.183594 L 40.316406 22.183594 C 42.984375 22.183594 45.148438 24.347656 45.148438 27.019531 C 45.148438 29.6875 42.984375 31.851562 40.316406 31.851562 Z M 40.316406 31.851562 " clip-rule="nonzero"/></clipPath><clipPath id="c121701e0e"><path d="M 0.109375 0.183594 L 25.148438 0.183594 L 25.148438 9.851562 L 0.109375 9.851562 Z M 0.109375 0.183594 " clip-rule="nonzero"/></clipPath><clipPath id="ab0aaf7e0d"><path d="M 20.316406 9.851562 L 4.957031 9.851562 C 2.289062 9.851562 0.121094 7.6875 0.121094 5.019531 C 0.121094 2.347656 2.289062 0.183594 4.957031 0.183594 L 20.316406 0.183594 C 22.984375 0.183594 25.148438 2.347656 25.148438 5.019531 C 25.148438 7.6875 22.984375 9.851562 20.316406 9.851562 Z M 20.316406 9.851562 " clip-rule="nonzero"/></clipPath><clipPath id="cf0884c80a"><rect x="0" width="26" y="0" height="10"/></clipPath><clipPath id="9073c5f3de"><path d="M 35.535156 37.277344 L 48.257812 37.277344 L 48.257812 61.226562 L 35.535156 61.226562 Z M 35.535156 37.277344 " clip-rule="nonzero"/></clipPath><clipPath id="8e8aa0e2d3"><path d="M 35.535156 54.867188 L 35.535156 43.675781 C 35.535156 41.988281 36.207031 40.371094 37.398438 39.179688 C 38.59375 37.988281 40.210938 37.316406 41.894531 37.316406 C 43.582031 37.316406 45.199219 37.988281 46.394531 39.179688 C 47.585938 40.371094 48.257812 41.988281 48.257812 43.675781 L 48.257812 54.867188 C 48.257812 56.550781 47.585938 58.171875 46.394531 59.363281 C 45.199219 60.554688 43.582031 61.226562 41.894531 61.226562 C 40.210938 61.226562 38.59375 60.554688 37.398438 59.363281 C 36.207031 58.171875 35.535156 56.550781 35.535156 54.867188 Z M 35.535156 54.867188 " clip-rule="nonzero"/></clipPath><clipPath id="704ab943f6"><path d="M 0.535156 0.277344 L 13.257812 0.277344 L 13.257812 24.226562 L 0.535156 24.226562 Z M 0.535156 0.277344 " clip-rule="nonzero"/></clipPath><clipPath id="32334365f4"><path d="M 0.535156 17.867188 L 0.535156 6.675781 C 0.535156 4.988281 1.207031 3.371094 2.398438 2.179688 C 3.59375 0.988281 5.210938 0.316406 6.894531 0.316406 C 8.582031 0.316406 10.199219 0.988281 11.394531 2.179688 C 12.585938 3.371094 13.257812 4.988281 13.257812 6.675781 L 13.257812 17.867188 C 13.257812 19.550781 12.585938 21.171875 11.394531 22.363281 C 10.199219 23.554688 8.582031 24.226562 6.894531 24.226562 C 5.210938 24.226562 3.59375 23.554688 2.398438 22.363281 C 1.207031 21.171875 0.535156 19.550781 0.535156 17.867188 Z M 0.535156 17.867188 " clip-rule="nonzero"/></clipPath><clipPath id="1091278f03"><rect x="0" width="14" y="0" height="25"/></clipPath><clipPath id="15576d2ebf"><path d="M 7 23 L 17 23 L 17 30 L 7 30 Z M 7 23 " clip-rule="nonzero"/></clipPath><clipPath id="ccf098e03c"><path d="M 14.683594 31.300781 L 7.859375 29.445312 L 9.71875 22.621094 L 16.542969 24.476562 Z M 14.683594 31.300781 " clip-rule="nonzero"/></clipPath><clipPath id="817e639c3a"><path d="M 16.542969 24.476562 C 16.054688 26.273438 14.847656 27.835938 13.230469 28.757812 C 11.613281 29.683594 9.65625 29.933594 7.859375 29.445312 L 8.808594 25.960938 C 9.6875 26.203125 10.644531 26.078125 11.4375 25.625 C 12.230469 25.171875 12.820312 24.410156 13.0625 23.53125 Z M 16.542969 24.476562 " clip-rule="nonzero"/></clipPath><clipPath id="96abb71b16"><path d="M 0.8125 0.503906 L 9.65625 0.503906 L 9.65625 6.957031 L 0.8125 6.957031 Z M 0.8125 0.503906 " clip-rule="nonzero"/></clipPath><clipPath id="1b875a1a70"><path d="M 7.683594 8.300781 L 0.859375 6.445312 L 2.71875 -0.378906 L 9.542969 1.476562 Z M 7.683594 8.300781 " clip-rule="nonzero"/></clipPath><clipPath id="42f8271de3"><path d="M 9.542969 1.476562 C 9.054688 3.273438 7.847656 4.835938 6.230469 5.757812 C 4.613281 6.683594 2.65625 6.933594 0.859375 6.445312 L 1.808594 2.960938 C 2.6875 3.203125 3.644531 3.078125 4.4375 2.625 C 5.230469 2.171875 5.820312 1.410156 6.0625 0.53125 Z M 9.542969 1.476562 " clip-rule="nonzero"/></clipPath><clipPath id="d0e175f11d"><rect x="0" width="10" y="0" height="7"/></clipPath><clipPath id="468ca91501"><path d="M 9 34 L 17 34 L 17 43 L 9 43 Z M 9 34 " clip-rule="nonzero"/></clipPath><clipPath id="ddd41f2896"><path d="M 17.28125 35.675781 L 16.472656 42.703125 L 9.445312 41.894531 L 10.253906 34.867188 Z M 17.28125 35.675781 " clip-rule="nonzero"/></clipPath><clipPath id="0edaf35a49"><path d="M 10.253906 34.867188 C 12.105469 35.078125 13.828125 36.039062 14.988281 37.496094 C 16.144531 38.957031 16.683594 40.851562 16.472656 42.703125 L 12.886719 42.289062 C 12.992188 41.382812 12.726562 40.453125 12.160156 39.738281 C 11.59375 39.023438 10.746094 38.554688 9.839844 38.449219 Z M 10.253906 34.867188 " clip-rule="nonzero"/></clipPath><clipPath id="bb75029acd"><path d="M 0.726562 0.734375 L 7.894531 0.734375 L 7.894531 8.859375 L 0.726562 8.859375 Z M 0.726562 0.734375 " clip-rule="nonzero"/></clipPath><clipPath id="03b4fd9a8e"><path d="M 8.28125 1.675781 L 7.472656 8.703125 L 0.445312 7.894531 L 1.253906 0.867188 Z M 8.28125 1.675781 " clip-rule="nonzero"/></clipPath><clipPath id="35e4624781"><path d="M 1.253906 0.867188 C 3.105469 1.078125 4.828125 2.039062 5.988281 3.496094 C 7.144531 4.957031 7.683594 6.851562 7.472656 8.703125 L 3.886719 8.289062 C 3.992188 7.382812 3.726562 6.453125 3.160156 5.738281 C 2.59375 5.023438 1.746094 4.554688 0.839844 4.449219 Z M 1.253906 0.867188 " clip-rule="nonzero"/></clipPath><clipPath id="ff865ab198"><rect x="0" width="8" y="0" height="9"/></clipPath><clipPath id="a8e8b7f1d5"><path d="M 21.820312 28.007812 L 28.894531 28.007812 L 28.894531 35.082031 L 21.820312 35.082031 Z M 21.820312 28.007812 " clip-rule="nonzero"/></clipPath><clipPath id="eeadf11054"><path d="M 21.820312 35.082031 C 21.820312 33.21875 22.574219 31.398438 23.890625 30.078125 C 25.207031 28.761719 27.03125 28.007812 28.894531 28.007812 L 28.894531 31.617188 C 27.980469 31.617188 27.089844 31.984375 26.441406 32.632812 C 25.796875 33.277344 25.429688 34.167969 25.429688 35.082031 Z M 21.820312 35.082031 " clip-rule="nonzero"/></clipPath><clipPath id="33688f148b"><path d="M 0.820312 0.0078125 L 7.894531 0.0078125 L 7.894531 7.082031 L 0.820312 7.082031 Z M 0.820312 0.0078125 " clip-rule="nonzero"/></clipPath><clipPath id="456c339c0a"><path d="M 0.820312 7.082031 C 0.820312 5.21875 1.574219 3.398438 2.890625 2.078125 C 4.207031 0.761719 6.03125 0.0078125 7.894531 0.0078125 L 7.894531 3.617188 C 6.980469 3.617188 6.089844 3.984375 5.441406 4.632812 C 4.796875 5.277344 4.429688 6.167969 4.429688 7.082031 Z M 0.820312 7.082031 " clip-rule="nonzero"/></clipPath><clipPath id="8fbf5bf46c"><rect x="0" width="8" y="0" height="8"/></clipPath><clipPath id="ae3cdd1fb0"><path d="M 21 19 L 30 19 L 30 26 L 21 26 Z M 21 19 " clip-rule="nonzero"/></clipPath><clipPath id="03ea83d1ab"><path d="M 22.257812 26.402344 L 21.75 19.347656 L 28.804688 18.835938 L 29.3125 25.894531 Z M 22.257812 26.402344 " clip-rule="nonzero"/></clipPath><clipPath id="041efa96cc"><path d="M 29.3125 25.894531 C 27.453125 26.027344 25.582031 25.40625 24.175781 24.1875 C 22.765625 22.964844 21.882812 21.203125 21.75 19.347656 L 25.347656 19.085938 C 25.414062 19.996094 25.847656 20.859375 26.535156 21.457031 C 27.226562 22.054688 28.144531 22.359375 29.054688 22.292969 Z M 29.3125 25.894531 " clip-rule="nonzero"/></clipPath><clipPath id="8abfe19bbd"><path d="M 0.671875 0 L 8.320312 0 L 8.320312 7 L 0.671875 7 Z M 0.671875 0 " clip-rule="nonzero"/></clipPath><clipPath id="b2336def80"><path d="M 1.257812 7.402344 L 0.75 0.347656 L 7.804688 -0.164062 L 8.3125 6.894531 Z M 1.257812 7.402344 " clip-rule="nonzero"/></clipPath><clipPath id="9ba9cf4ba8"><path d="M 8.3125 6.894531 C 6.453125 7.027344 4.582031 6.40625 3.175781 5.1875 C 1.765625 3.964844 0.882812 2.203125 0.75 0.347656 L 4.347656 0.0859375 C 4.414062 0.996094 4.847656 1.859375 5.535156 2.457031 C 6.226562 3.054688 7.144531 3.359375 8.054688 3.292969 Z M 8.3125 6.894531 " clip-rule="nonzero"/></clipPath><clipPath id="315a1715f0"><rect x="0" width="9" y="0" height="7"/></clipPath><clipPath id="a3c0f7af8b"><path d="M 40.890625 24.234375 L 48.167969 24.234375 L 48.167969 31.851562 L 40.890625 31.851562 Z M 40.890625 24.234375 " clip-rule="nonzero"/></clipPath><clipPath id="3436d587fa"><path d="M 48.167969 24.257812 C 48.167969 26.257812 47.390625 28.214844 46.039062 29.628906 C 44.683594 31.042969 42.808594 31.851562 40.890625 31.851562 L 40.890625 27.976562 C 41.832031 27.976562 42.75 27.582031 43.414062 26.886719 C 44.074219 26.195312 44.457031 25.234375 44.457031 24.257812 Z M 48.167969 24.257812 " clip-rule="nonzero"/></clipPath><clipPath id="665ab42cf8"><path d="M 0.890625 0.234375 L 8.167969 0.234375 L 8.167969 7.851562 L 0.890625 7.851562 Z M 0.890625 0.234375 " clip-rule="nonzero"/></clipPath><clipPath id="e54fc42f47"><path d="M 8.167969 0.257812 C 8.167969 2.257812 7.390625 4.214844 6.039062 5.628906 C 4.683594 7.042969 2.808594 7.851562 0.890625 7.851562 L 0.890625 3.976562 C 1.832031 3.976562 2.75 3.582031 3.414062 2.886719 C 4.074219 2.195312 4.457031 1.234375 4.457031 0.257812 Z M 8.167969 0.257812 " clip-rule="nonzero"/></clipPath><clipPath id="10af966717"><rect x="0" width="9" y="0" height="8"/></clipPath><clipPath id="238f9b04dc"><path d="M 35.882812 16.5 L 48.171875 16.5 L 48.171875 24.609375 L 35.882812 24.609375 Z M 35.882812 16.5 " clip-rule="nonzero"/></clipPath><clipPath id="80eb300406"><path d="M 0.882812 0.5 L 13.171875 0.5 L 13.171875 8.609375 L 0.882812 8.609375 Z M 0.882812 0.5 " clip-rule="nonzero"/></clipPath><clipPath id="dc357809a7"><rect x="0" width="14" y="0" height="9"/></clipPath><clipPath id="cb426d8b62"><path d="M 35.476562 37.253906 L 48.191406 37.253906 L 48.191406 50.066406 L 35.476562 50.066406 Z M 35.476562 37.253906 " clip-rule="nonzero"/></clipPath><clipPath id="266cedb5b9"><path d="M 48.191406 43.613281 L 48.191406 43.679688 C 48.191406 47.191406 45.34375 50.035156 41.832031 50.035156 C 38.320312 50.035156 35.476562 47.191406 35.476562 43.679688 L 35.476562 43.613281 C 35.476562 40.101562 38.320312 37.253906 41.832031 37.253906 C 45.34375 37.253906 48.191406 40.101562 48.191406 43.613281 Z M 48.191406 43.613281 " clip-rule="nonzero"/></clipPath><clipPath id="ad2a3e5ff3"><path d="M 0.476562 0.253906 L 13.191406 0.253906 L 13.191406 13.066406 L 0.476562 13.066406 Z M 0.476562 0.253906 " clip-rule="nonzero"/></clipPath><clipPath id="4aed959198"><path d="M 13.191406 6.613281 L 13.191406 6.679688 C 13.191406 10.191406 10.34375 13.035156 6.832031 13.035156 C 3.320312 13.035156 0.476562 10.191406 0.476562 6.679688 L 0.476562 6.613281 C 0.476562 3.101562 3.320312 0.253906 6.832031 0.253906 C 10.34375 0.253906 13.191406 3.101562 13.191406 6.613281 Z M 13.191406 6.613281 " clip-rule="nonzero"/></clipPath><clipPath id="cb96106e53"><rect x="0" width="14" y="0" height="14"/></clipPath><clipPath id="a874cba973"><path d="M 54 6 L 250.335938 6 L 250.335938 56 L 54 56 Z M 54 6 " clip-rule="nonzero"/></clipPath><clipPath id="94e01d2da1"><rect x="0" width="197" y="0" height="50"/></clipPath><clipPath id="2a1dbddd0c"><rect x="0" width="251" y="0" height="62"/></clipPath></defs><g clip-path="url(#92f4f7eb60)"><path fill="#ffffff" d="M 0.847656 0 L 383.152344 0 L 383.152344 112.003906 L 0.847656 112.003906 Z M 0.847656 0 " fill-opacity="1" fill-rule="nonzero"/><path fill="url(#03c8749f6e)" d="M 0.847656 0 L 0.847656 112.003906 L 383.152344 112.003906 L 383.152344 0 Z M 0.847656 0 " fill-rule="nonzero"/></g><g transform="matrix(1, 0, 0, 1, 64, 25)"><g clip-path="url(#2a1dbddd0c)"><g clip-path="url(#5550a4c7fa)"><g clip-path="url(#0ae5af2f70)"><g transform="matrix(1, 0, 0, 1, 12, 0)"><g clip-path="url(#0b6bf07d55)"><g clip-path="url(#3f55ef63fe)"><g clip-path="url(#72d6cb2a7a)"><path fill="#fefefe" d="M 13.527344 0.773438 L 13.527344 61.234375 L 0.832031 61.234375 L 0.832031 0.773438 Z M 13.527344 0.773438 " fill-opacity="1" fill-rule="nonzero"/></g></g></g></g></g></g><g clip-path="url(#ee32355f2a)"><g clip-path="url(#fa96d0b6bb)"><g transform="matrix(1, 0, 0, 1, 0, 25)"><g clip-path="url(#d29b0c9ebb)"><g clip-path="url(#7ccec83562)"><g clip-path="url(#2b9b447aca)"><path fill="#fefefe" d="M 25.351562 13.785156 L 0.335938 13.785156 L 0.335938 0.738281 L 25.351562 0.738281 Z M 25.351562 13.785156 " fill-opacity="1" fill-rule="nonzero"/></g></g></g></g></g></g><g clip-path="url(#63642cc438)"><g clip-path="url(#8aa9acdf6e)"><g transform="matrix(1, 0, 0, 1, 35, 0)"><g clip-path="url(#b5f143cf9d)"><g clip-path="url(#c8a1ed311a)"><g clip-path="url(#87da474ca7)"><path fill="#fefefe" d="M 0.476562 27.136719 L 0.476562 0.753906 L 13.171875 0.753906 L 13.171875 27.136719 Z M 0.476562 27.136719 " fill-opacity="1" fill-rule="nonzero"/></g></g></g></g></g></g><g clip-path="url(#d9a1a5fe60)"><g clip-path="url(#785ee817fc)"><g transform="matrix(1, 0, 0, 1, 20, 22)"><g clip-path="url(#cf0884c80a)"><g clip-path="url(#c121701e0e)"><g clip-path="url(#ab0aaf7e0d)"><path fill="#fefefe" d="M 25.148438 9.851562 L 0.109375 9.851562 L 0.109375 0.183594 L 25.148438 0.183594 Z M 25.148438 9.851562 " fill-opacity="1" fill-rule="nonzero"/></g></g></g></g></g></g><g clip-path="url(#9073c5f3de)"><g clip-path="url(#8e8aa0e2d3)"><g transform="matrix(1, 0, 0, 1, 35, 37)"><g clip-path="url(#1091278f03)"><g clip-path="url(#704ab943f6)"><g clip-path="url(#32334365f4)"><path fill="#fefefe" d="M 0.535156 24.226562 L 0.535156 0.324219 L 13.257812 0.324219 L 13.257812 24.226562 Z M 0.535156 24.226562 " fill-opacity="1" fill-rule="nonzero"/></g></g></g></g></g></g><g clip-path="url(#15576d2ebf)"><g clip-path="url(#ccf098e03c)"><g clip-path="url(#817e639c3a)"><g transform="matrix(1, 0, 0, 1, 7, 23)"><g clip-path="url(#d0e175f11d)"><g clip-path="url(#96abb71b16)"><g clip-path="url(#1b875a1a70)"><g clip-path="url(#42f8271de3)"><path fill="#fefefe" d="M 7.683594 8.300781 L 0.859375 6.445312 L 2.71875 -0.378906 L 9.542969 1.476562 Z M 7.683594 8.300781 " fill-opacity="1" fill-rule="nonzero"/></g></g></g></g></g></g></g></g><g clip-path="url(#468ca91501)"><g clip-path="url(#ddd41f2896)"><g clip-path="url(#0edaf35a49)"><g transform="matrix(1, 0, 0, 1, 9, 34)"><g clip-path="url(#ff865ab198)"><g clip-path="url(#bb75029acd)"><g clip-path="url(#03b4fd9a8e)"><g clip-path="url(#35e4624781)"><path fill="#fefefe" d="M 8.28125 1.675781 L 7.472656 8.703125 L 0.445312 7.894531 L 1.253906 0.867188 Z M 8.28125 1.675781 " fill-opacity="1" fill-rule="nonzero"/></g></g></g></g></g></g></g></g><g clip-path="url(#a8e8b7f1d5)"><g clip-path="url(#eeadf11054)"><g transform="matrix(1, 0, 0, 1, 21, 28)"><g clip-path="url(#8fbf5bf46c)"><g clip-path="url(#33688f148b)"><g clip-path="url(#456c339c0a)"><path fill="#fefefe" d="M 0.820312 0.0078125 L 7.894531 0.0078125 L 7.894531 7.082031 L 0.820312 7.082031 Z M 0.820312 0.0078125 " fill-opacity="1" fill-rule="nonzero"/></g></g></g></g></g></g><g clip-path="url(#ae3cdd1fb0)"><g clip-path="url(#03ea83d1ab)"><g clip-path="url(#041efa96cc)"><g transform="matrix(1, 0, 0, 1, 21, 19)"><g clip-path="url(#315a1715f0)"><g clip-path="url(#8abfe19bbd)"><g clip-path="url(#b2336def80)"><g clip-path="url(#9ba9cf4ba8)"><path fill="#fefefe" d="M 1.257812 7.402344 L 0.75 0.347656 L 7.804688 -0.164062 L 8.3125 6.894531 Z M 1.257812 7.402344 " fill-opacity="1" fill-rule="nonzero"/></g></g></g></g></g></g></g></g><g clip-path="url(#a3c0f7af8b)"><g clip-path="url(#3436d587fa)"><g transform="matrix(1, 0, 0, 1, 40, 24)"><g clip-path="url(#10af966717)"><g clip-path="url(#665ab42cf8)"><g clip-path="url(#e54fc42f47)"><path fill="#fefefe" d="M 8.167969 7.851562 L 0.890625 7.851562 L 0.890625 0.261719 L 8.167969 0.261719 Z M 8.167969 7.851562 " fill-opacity="1" fill-rule="nonzero"/></g></g></g></g></g></g><g clip-path="url(#238f9b04dc)"><g transform="matrix(1, 0, 0, 1, 35, 16)"><g clip-path="url(#dc357809a7)"><g clip-path="url(#80eb300406)"><path fill="#fefefe" d="M 0.882812 0.5 L 13.175781 0.5 L 13.175781 8.609375 L 0.882812 8.609375 Z M 0.882812 0.5 " fill-opacity="1" fill-rule="nonzero"/></g></g></g></g><g clip-path="url(#cb426d8b62)"><g clip-path="url(#266cedb5b9)"><g transform="matrix(1, 0, 0, 1, 35, 37)"><g clip-path="url(#cb96106e53)"><g clip-path="url(#ad2a3e5ff3)"><g clip-path="url(#4aed959198)"><path fill="#fefefe" d="M 0.476562 0.253906 L 13.191406 0.253906 L 13.191406 13.019531 L 0.476562 13.019531 Z M 0.476562 0.253906 " fill-opacity="1" fill-rule="nonzero"/></g></g></g></g></g></g><g clip-path="url(#a874cba973)"><g transform="matrix(1, 0, 0, 1, 54, 6)"><g clip-path="url(#94e01d2da1)"><g fill="#fefefe" fill-opacity="1"><g transform="translate(1.002322, 35.850392)"><g><path d="M 4.71875 0.5 C 5.71875 0.5 6.664062 0.226562 7.5625 -0.3125 C 8.46875 -0.851562 8.972656 -1.710938 9.078125 -2.890625 C 9.097656 -3.898438 9.109375 -4.75 9.109375 -5.4375 C 9.109375 -6.125 9.125 -6.632812 9.15625 -6.96875 C 9.1875 -7.3125 9.285156 -7.484375 9.453125 -7.484375 L 10.5625 -7.515625 C 10.75 -7.515625 10.867188 -7.5 10.921875 -7.46875 C 10.972656 -7.4375 11 -7.378906 11 -7.296875 L 11 -6.25 C 11 -4.445312 11.050781 -3.128906 11.15625 -2.296875 C 11.320312 -1.390625 11.765625 -0.703125 12.484375 -0.234375 C 13.210938 0.234375 14.023438 0.46875 14.921875 0.46875 C 15.535156 0.46875 16.144531 0.332031 16.75 0.0625 C 18.070312 -0.519531 18.734375 -1.566406 18.734375 -3.078125 C 18.734375 -6.535156 18.753906 -9.363281 18.796875 -11.5625 C 18.816406 -13.425781 18.828125 -16.210938 18.828125 -19.921875 C 18.828125 -21.242188 18.625 -22.269531 18.21875 -23 C 17.46875 -24.300781 16.316406 -24.953125 14.765625 -24.953125 C 14.140625 -24.953125 13.582031 -24.863281 13.09375 -24.6875 C 12.613281 -24.507812 12.28125 -24.316406 12.09375 -24.109375 C 11.632812 -23.535156 11.347656 -22.816406 11.234375 -21.953125 C 11.117188 -21.097656 11.0625 -20.273438 11.0625 -19.484375 L 11.125 -15.359375 C 11.125 -14.109375 11.019531 -13.484375 10.8125 -13.484375 L 9.859375 -13.453125 C 9.566406 -13.453125 9.390625 -13.488281 9.328125 -13.5625 C 9.265625 -13.632812 9.234375 -13.785156 9.234375 -14.015625 L 9.296875 -19.296875 L 9.265625 -21.21875 C 9.265625 -22.132812 9.023438 -22.875 8.546875 -23.4375 C 8.066406 -24.007812 7.46875 -24.425781 6.75 -24.6875 C 6.039062 -24.945312 5.332031 -25.078125 4.625 -25.078125 C 3.632812 -25.078125 2.828125 -24.644531 2.203125 -23.78125 C 1.585938 -22.925781 1.257812 -21.773438 1.21875 -20.328125 L 1.09375 -8.921875 C 1.113281 -7.660156 1.125 -6.125 1.125 -4.3125 C 1.125 -3.28125 1.171875 -2.472656 1.265625 -1.890625 C 1.367188 -1.316406 1.628906 -0.8125 2.046875 -0.375 C 2.734375 0.207031 3.625 0.5 4.71875 0.5 Z M 4.71875 0.5 "/></g></g></g><g fill="#fefefe" fill-opacity="1"><g transform="translate(21.421797, 35.850392)"><g><path d="M 6.6875 0.6875 C 7.570312 0.6875 8.617188 0.664062 9.828125 0.625 C 10.691406 0.601562 11.648438 0.585938 12.703125 0.578125 C 13.765625 0.566406 14.679688 0.242188 15.453125 -0.390625 C 16.234375 -1.023438 16.625 -1.910156 16.625 -3.046875 C 16.625 -4.179688 16.328125 -5.132812 15.734375 -5.90625 C 15.148438 -6.675781 14.398438 -7.117188 13.484375 -7.234375 C 11.597656 -7.234375 10.117188 -7.242188 9.046875 -7.265625 C 8.898438 -7.285156 8.8125 -7.359375 8.78125 -7.484375 C 8.75 -7.609375 8.734375 -7.773438 8.734375 -7.984375 C 8.734375 -8.191406 8.753906 -8.335938 8.796875 -8.421875 C 8.835938 -8.503906 8.953125 -8.554688 9.140625 -8.578125 C 9.328125 -8.597656 9.632812 -8.617188 10.0625 -8.640625 L 11.5 -8.703125 C 11.769531 -8.703125 12.144531 -8.703125 12.625 -8.703125 C 13.113281 -8.703125 13.609375 -8.773438 14.109375 -8.921875 C 15.222656 -9.253906 15.78125 -10.425781 15.78125 -12.4375 C 15.78125 -13.300781 15.617188 -13.941406 15.296875 -14.359375 C 14.734375 -15.023438 13.820312 -15.359375 12.5625 -15.359375 C 11.1875 -15.359375 10.28125 -15.375 9.84375 -15.40625 C 9.414062 -15.4375 9.160156 -15.5 9.078125 -15.59375 C 8.992188 -15.695312 8.953125 -15.851562 8.953125 -16.0625 L 8.953125 -16.1875 L 8.921875 -16.6875 C 8.921875 -16.832031 9.015625 -16.925781 9.203125 -16.96875 C 9.617188 -16.96875 10.226562 -17 11.03125 -17.0625 C 12.09375 -17.144531 13.023438 -17.1875 13.828125 -17.1875 C 14.765625 -17.1875 15.457031 -17.425781 15.90625 -17.90625 C 16.613281 -18.644531 16.96875 -19.609375 16.96875 -20.796875 C 16.96875 -21.890625 16.726562 -22.75 16.25 -23.375 C 15.34375 -24.488281 13.894531 -25.046875 11.90625 -25.046875 L 4.4375 -25.046875 C 2.445312 -24.921875 1.351562 -24.101562 1.15625 -22.59375 C 1.113281 -22.257812 1.09375 -21.210938 1.09375 -19.453125 C 1.09375 -18.503906 1.097656 -17.53125 1.109375 -16.53125 C 1.117188 -15.539062 1.128906 -14.703125 1.140625 -14.015625 C 1.148438 -13.328125 1.164062 -12.984375 1.1875 -12.984375 L 1.15625 -6.65625 C 1.15625 -4.519531 1.265625 -2.925781 1.484375 -1.875 C 1.710938 -0.832031 2.222656 -0.144531 3.015625 0.1875 C 3.804688 0.519531 5.03125 0.6875 6.6875 0.6875 Z M 6.6875 0.6875 "/></g></g></g><g fill="#fefefe" fill-opacity="1"><g transform="translate(39.013001, 35.850392)"><g><path d="M 4.75 0.28125 C 5.476562 0.28125 6.160156 0.140625 6.796875 -0.140625 C 7.441406 -0.421875 7.96875 -0.929688 8.375 -1.671875 C 8.78125 -2.421875 8.984375 -3.476562 8.984375 -4.84375 C 9.066406 -7 9.109375 -9.363281 9.109375 -11.9375 C 9.109375 -16.550781 9.054688 -19.820312 8.953125 -21.75 C 8.867188 -22.75 8.457031 -23.570312 7.71875 -24.21875 C 6.988281 -24.875 6.082031 -25.203125 5 -25.203125 C 3.925781 -25.203125 3.046875 -24.859375 2.359375 -24.171875 C 1.679688 -23.492188 1.289062 -22.601562 1.1875 -21.5 C 1.144531 -21.195312 1.113281 -20.894531 1.09375 -20.59375 C 1.070312 -20.289062 1.054688 -19.910156 1.046875 -19.453125 C 1.035156 -18.992188 1.03125 -18.332031 1.03125 -17.46875 L 1.125 -5.53125 L 1.09375 -4.6875 C 1.09375 -3.195312 1.347656 -1.992188 1.859375 -1.078125 C 2.378906 -0.171875 3.34375 0.28125 4.75 0.28125 Z M 4.75 0.28125 "/></g></g></g><g fill="#fefefe" fill-opacity="1"><g transform="translate(49.76663, 35.850392)"><g><path d="M 5.15625 -8.703125 L 6.78125 -8.734375 L 6.78125 -8.765625 L 8.765625 -8.765625 C 9.429688 -8.765625 9.925781 -8.785156 10.25 -8.828125 C 10.582031 -8.867188 10.914062 -8.972656 11.25 -9.140625 C 11.8125 -9.429688 12.234375 -9.8125 12.515625 -10.28125 C 12.804688 -10.757812 12.953125 -11.269531 12.953125 -11.8125 C 12.953125 -12.570312 12.660156 -13.269531 12.078125 -13.90625 C 11.503906 -14.539062 10.660156 -14.859375 9.546875 -14.859375 L 8.359375 -14.859375 C 6.847656 -14.859375 5.707031 -14.847656 4.9375 -14.828125 C 4.175781 -14.804688 3.617188 -14.765625 3.265625 -14.703125 C 2.910156 -14.640625 2.609375 -14.546875 2.359375 -14.421875 C 1.753906 -14.109375 1.3125 -13.710938 1.03125 -13.234375 C 0.757812 -12.765625 0.625 -12.269531 0.625 -11.75 C 0.625 -11.1875 0.78125 -10.65625 1.09375 -10.15625 C 1.414062 -9.664062 1.890625 -9.296875 2.515625 -9.046875 C 3.304688 -8.816406 4.1875 -8.703125 5.15625 -8.703125 Z M 5.15625 -8.703125 "/></g></g></g><g fill="#fefefe" fill-opacity="1"><g transform="translate(63.348531, 35.850392)"><g><path d="M 4.53125 0.5625 C 9.238281 0.5625 12.734375 -0.828125 15.015625 -3.609375 C 16.984375 -5.984375 17.976562 -8.988281 18 -12.625 C 18 -14.664062 17.582031 -16.640625 16.75 -18.546875 C 15.925781 -20.453125 14.59375 -22.003906 12.75 -23.203125 C 10.914062 -24.410156 8.5 -25.035156 5.5 -25.078125 C 4.425781 -25.078125 3.457031 -24.625 2.59375 -23.71875 C 1.738281 -22.820312 1.269531 -21.734375 1.1875 -20.453125 C 1.125 -18.898438 1.09375 -16.238281 1.09375 -12.46875 L 1.125 -8.390625 C 1.125 -5.691406 1.132812 -4.179688 1.15625 -3.859375 C 1.21875 -3.234375 1.390625 -2.582031 1.671875 -1.90625 C 1.960938 -1.238281 2.359375 -0.660156 2.859375 -0.171875 C 3.359375 0.316406 3.914062 0.5625 4.53125 0.5625 Z M 8.609375 -9.578125 C 8.546875 -9.578125 8.515625 -9.585938 8.515625 -9.609375 C 8.535156 -9.847656 8.546875 -11.679688 8.546875 -15.109375 C 8.566406 -15.171875 8.609375 -15.203125 8.671875 -15.203125 C 8.816406 -15.203125 9.019531 -15.109375 9.28125 -14.921875 C 9.539062 -14.734375 9.769531 -14.429688 9.96875 -14.015625 C 10.175781 -13.597656 10.28125 -13.03125 10.28125 -12.3125 C 10.28125 -11.625 10.164062 -11.078125 9.9375 -10.671875 C 9.71875 -10.265625 9.46875 -9.976562 9.1875 -9.8125 C 8.90625 -9.65625 8.710938 -9.578125 8.609375 -9.578125 Z M 8.609375 -9.578125 "/></g></g></g><g fill="#fefefe" fill-opacity="1"><g transform="translate(81.530167, 35.850392)"><g><path d="M 2.640625 0.28125 C 3.472656 0.28125 4.195312 0.0234375 4.8125 -0.484375 C 5.4375 -0.992188 5.945312 -1.671875 6.34375 -2.515625 C 6.382812 -2.640625 6.445312 -2.742188 6.53125 -2.828125 C 6.613281 -2.910156 6.910156 -2.953125 7.421875 -2.953125 L 9.734375 -2.921875 L 12.3125 -2.921875 C 12.800781 -2.921875 13.140625 -2.679688 13.328125 -2.203125 C 13.722656 -1.421875 14.238281 -0.835938 14.875 -0.453125 C 15.519531 -0.0664062 16.175781 0.125 16.84375 0.125 C 17.46875 0.125 18.035156 -0.0195312 18.546875 -0.3125 C 19.066406 -0.601562 19.472656 -1.023438 19.765625 -1.578125 C 19.972656 -2.015625 20.078125 -2.453125 20.078125 -2.890625 C 20.078125 -3.429688 19.878906 -4.195312 19.484375 -5.1875 C 18.941406 -6.59375 18.03125 -9.253906 16.75 -13.171875 C 15.84375 -15.890625 15.046875 -18.175781 14.359375 -20.03125 C 13.671875 -21.882812 13.0625 -23.15625 12.53125 -23.84375 C 11.757812 -24.6875 10.867188 -25.109375 9.859375 -25.109375 C 8.984375 -25.109375 8.191406 -24.773438 7.484375 -24.109375 C 7.359375 -23.992188 7.242188 -23.863281 7.140625 -23.71875 C 6.941406 -23.425781 6.5625 -22.582031 6 -21.1875 C 5.726562 -20.570312 3.539062 -15.09375 -0.5625 -4.75 C -0.769531 -4.21875 -0.875 -3.679688 -0.875 -3.140625 C -0.875 -2.472656 -0.71875 -1.8125 -0.40625 -1.15625 C -0.132812 -0.613281 0.191406 -0.265625 0.578125 -0.109375 C 0.960938 0.046875 1.328125 0.144531 1.671875 0.1875 L 1.921875 0.21875 C 2.171875 0.257812 2.410156 0.28125 2.640625 0.28125 Z M 9.734375 -9.234375 C 9.378906 -9.234375 9.203125 -9.273438 9.203125 -9.359375 C 9.304688 -9.566406 9.445312 -9.832031 9.625 -10.15625 C 9.8125 -10.488281 9.957031 -10.789062 10.0625 -11.0625 C 10.125 -11.0625 10.175781 -11.050781 10.21875 -11.03125 C 10.382812 -10.53125 10.550781 -10.128906 10.71875 -9.828125 C 10.84375 -9.597656 10.90625 -9.441406 10.90625 -9.359375 C 10.90625 -9.316406 10.882812 -9.296875 10.84375 -9.296875 Z M 9.734375 -9.234375 "/></g></g></g><g fill="#fefefe" fill-opacity="1"><g transform="translate(98.188392, 35.850392)"><g><path d="M 9.90625 0.28125 C 11.050781 0.28125 11.988281 -0.0820312 12.71875 -0.8125 C 13.457031 -1.550781 13.859375 -2.585938 13.921875 -3.921875 L 13.953125 -8.921875 L 13.921875 -13.484375 C 13.921875 -15.015625 13.953125 -16 14.015625 -16.4375 C 14.035156 -16.707031 14.117188 -16.890625 14.265625 -16.984375 C 14.410156 -17.078125 14.523438 -17.125 14.609375 -17.125 C 15.210938 -17.125 15.867188 -17.15625 16.578125 -17.21875 C 17.296875 -17.28125 17.921875 -17.457031 18.453125 -17.75 C 19.703125 -18.46875 20.328125 -19.738281 20.328125 -21.5625 C 20.328125 -22.625 20.046875 -23.425781 19.484375 -23.96875 C 18.921875 -24.519531 18.296875 -24.890625 17.609375 -25.078125 C 16.929688 -25.265625 16.382812 -25.359375 15.96875 -25.359375 L 5.15625 -25.359375 C 4.0625 -25.359375 3.003906 -25.128906 1.984375 -24.671875 C 0.453125 -23.992188 -0.3125 -22.816406 -0.3125 -21.140625 C -0.3125 -20.242188 -0.0234375 -19.460938 0.546875 -18.796875 C 1.128906 -18.140625 1.722656 -17.695312 2.328125 -17.46875 C 2.640625 -17.34375 2.984375 -17.253906 3.359375 -17.203125 C 3.734375 -17.148438 4.3125 -17.125 5.09375 -17.125 C 5.300781 -17.125 5.515625 -17.09375 5.734375 -17.03125 C 5.953125 -16.96875 6.070312 -16.8125 6.09375 -16.5625 C 6.238281 -13.75 6.3125 -9.882812 6.3125 -4.96875 L 6.3125 -3.609375 C 6.3125 -3.585938 6.351562 -3.375 6.4375 -2.96875 C 6.519531 -2.5625 6.679688 -2.109375 6.921875 -1.609375 C 7.171875 -1.117188 7.535156 -0.679688 8.015625 -0.296875 C 8.492188 0.0859375 9.125 0.28125 9.90625 0.28125 Z M 9.90625 0.28125 "/></g></g></g><g fill="#fefefe" fill-opacity="1"><g transform="translate(115.654742, 35.850392)"><g><path d="M 2.640625 0.28125 C 3.472656 0.28125 4.195312 0.0234375 4.8125 -0.484375 C 5.4375 -0.992188 5.945312 -1.671875 6.34375 -2.515625 C 6.382812 -2.640625 6.445312 -2.742188 6.53125 -2.828125 C 6.613281 -2.910156 6.910156 -2.953125 7.421875 -2.953125 L 9.734375 -2.921875 L 12.3125 -2.921875 C 12.800781 -2.921875 13.140625 -2.679688 13.328125 -2.203125 C 13.722656 -1.421875 14.238281 -0.835938 14.875 -0.453125 C 15.519531 -0.0664062 16.175781 0.125 16.84375 0.125 C 17.46875 0.125 18.035156 -0.0195312 18.546875 -0.3125 C 19.066406 -0.601562 19.472656 -1.023438 19.765625 -1.578125 C 19.972656 -2.015625 20.078125 -2.453125 20.078125 -2.890625 C 20.078125 -3.429688 19.878906 -4.195312 19.484375 -5.1875 C 18.941406 -6.59375 18.03125 -9.253906 16.75 -13.171875 C 15.84375 -15.890625 15.046875 -18.175781 14.359375 -20.03125 C 13.671875 -21.882812 13.0625 -23.15625 12.53125 -23.84375 C 11.757812 -24.6875 10.867188 -25.109375 9.859375 -25.109375 C 8.984375 -25.109375 8.191406 -24.773438 7.484375 -24.109375 C 7.359375 -23.992188 7.242188 -23.863281 7.140625 -23.71875 C 6.941406 -23.425781 6.5625 -22.582031 6 -21.1875 C 5.726562 -20.570312 3.539062 -15.09375 -0.5625 -4.75 C -0.769531 -4.21875 -0.875 -3.679688 -0.875 -3.140625 C -0.875 -2.472656 -0.71875 -1.8125 -0.40625 -1.15625 C -0.132812 -0.613281 0.191406 -0.265625 0.578125 -0.109375 C 0.960938 0.046875 1.328125 0.144531 1.671875 0.1875 L 1.921875 0.21875 C 2.171875 0.257812 2.410156 0.28125 2.640625 0.28125 Z M 9.734375 -9.234375 C 9.378906 -9.234375 9.203125 -9.273438 9.203125 -9.359375 C 9.304688 -9.566406 9.445312 -9.832031 9.625 -10.15625 C 9.8125 -10.488281 9.957031 -10.789062 10.0625 -11.0625 C 10.125 -11.0625 10.175781 -11.050781 10.21875 -11.03125 C 10.382812 -10.53125 10.550781 -10.128906 10.71875 -9.828125 C 10.84375 -9.597656 10.90625 -9.441406 10.90625 -9.359375 C 10.90625 -9.316406 10.882812 -9.296875 10.84375 -9.296875 Z M 9.734375 -9.234375 "/></g></g></g><g fill="#fefefe" fill-opacity="1"><g transform="translate(135.514777, 35.850392)"><g><path d="M 4.71875 0.5 C 5.71875 0.5 6.664062 0.226562 7.5625 -0.3125 C 8.46875 -0.851562 8.972656 -1.710938 9.078125 -2.890625 C 9.097656 -3.898438 9.109375 -4.75 9.109375 -5.4375 C 9.109375 -6.125 9.125 -6.632812 9.15625 -6.96875 C 9.1875 -7.3125 9.285156 -7.484375 9.453125 -7.484375 L 10.5625 -7.515625 C 10.75 -7.515625 10.867188 -7.5 10.921875 -7.46875 C 10.972656 -7.4375 11 -7.378906 11 -7.296875 L 11 -6.25 C 11 -4.445312 11.050781 -3.128906 11.15625 -2.296875 C 11.320312 -1.390625 11.765625 -0.703125 12.484375 -0.234375 C 13.210938 0.234375 14.023438 0.46875 14.921875 0.46875 C 15.535156 0.46875 16.144531 0.332031 16.75 0.0625 C 18.070312 -0.519531 18.734375 -1.566406 18.734375 -3.078125 C 18.734375 -6.535156 18.753906 -9.363281 18.796875 -11.5625 C 18.816406 -13.425781 18.828125 -16.210938 18.828125 -19.921875 C 18.828125 -21.242188 18.625 -22.269531 18.21875 -23 C 17.46875 -24.300781 16.316406 -24.953125 14.765625 -24.953125 C 14.140625 -24.953125 13.582031 -24.863281 13.09375 -24.6875 C 12.613281 -24.507812 12.28125 -24.316406 12.09375 -24.109375 C 11.632812 -23.535156 11.347656 -22.816406 11.234375 -21.953125 C 11.117188 -21.097656 11.0625 -20.273438 11.0625 -19.484375 L 11.125 -15.359375 C 11.125 -14.109375 11.019531 -13.484375 10.8125 -13.484375 L 9.859375 -13.453125 C 9.566406 -13.453125 9.390625 -13.488281 9.328125 -13.5625 C 9.265625 -13.632812 9.234375 -13.785156 9.234375 -14.015625 L 9.296875 -19.296875 L 9.265625 -21.21875 C 9.265625 -22.132812 9.023438 -22.875 8.546875 -23.4375 C 8.066406 -24.007812 7.46875 -24.425781 6.75 -24.6875 C 6.039062 -24.945312 5.332031 -25.078125 4.625 -25.078125 C 3.632812 -25.078125 2.828125 -24.644531 2.203125 -23.78125 C 1.585938 -22.925781 1.257812 -21.773438 1.21875 -20.328125 L 1.09375 -8.921875 C 1.113281 -7.660156 1.125 -6.125 1.125 -4.3125 C 1.125 -3.28125 1.171875 -2.472656 1.265625 -1.890625 C 1.367188 -1.316406 1.628906 -0.8125 2.046875 -0.375 C 2.734375 0.207031 3.625 0.5 4.71875 0.5 Z M 4.71875 0.5 "/></g></g></g><g fill="#fefefe" fill-opacity="1"><g transform="translate(155.934243, 35.850392)"><g><path d="M 10.0625 0.59375 C 11.96875 0.59375 13.597656 0.0820312 14.953125 -0.9375 C 16.316406 -1.96875 17.363281 -3.238281 18.09375 -4.75 C 18.832031 -6.269531 19.203125 -7.773438 19.203125 -9.265625 C 19.347656 -11.441406 19.421875 -13.367188 19.421875 -15.046875 C 19.421875 -16.304688 19.398438 -17.421875 19.359375 -18.390625 L 19.328125 -20.453125 C 19.328125 -21.441406 19.09375 -22.269531 18.625 -22.9375 C 18.164062 -23.601562 17.617188 -24.09375 16.984375 -24.40625 C 16.347656 -24.726562 15.773438 -24.890625 15.265625 -24.890625 C 14.285156 -24.890625 13.414062 -24.453125 12.65625 -23.578125 C 11.90625 -22.710938 11.5 -21.710938 11.4375 -20.578125 C 11.375 -18.359375 11.34375 -16.265625 11.34375 -14.296875 C 11.34375 -12.222656 11.300781 -10.828125 11.21875 -10.109375 C 11.132812 -9.398438 10.851562 -9.046875 10.375 -9.046875 C 9.925781 -9.046875 9.644531 -9.367188 9.53125 -10.015625 C 9.414062 -10.671875 9.359375 -11.476562 9.359375 -12.4375 L 9.359375 -14.515625 L 9.328125 -16.0625 L 9.359375 -18.125 C 9.359375 -19.425781 9.234375 -20.550781 8.984375 -21.5 C 8.878906 -21.75 8.722656 -22.082031 8.515625 -22.5 C 7.703125 -24.050781 6.625 -24.828125 5.28125 -24.828125 C 3.4375 -24.828125 2.179688 -24.070312 1.515625 -22.5625 C 0.984375 -21.34375 0.71875 -18.984375 0.71875 -15.484375 C 0.71875 -13.578125 0.789062 -11.597656 0.9375 -9.546875 C 1 -8.503906 1.207031 -7.394531 1.5625 -6.21875 C 1.925781 -5.050781 2.460938 -3.957031 3.171875 -2.9375 C 3.890625 -1.914062 4.8125 -1.070312 5.9375 -0.40625 C 7.070312 0.257812 8.445312 0.59375 10.0625 0.59375 Z M 10.0625 0.59375 "/></g></g></g><g fill="#fefefe" fill-opacity="1"><g transform="translate(176.633447, 35.850392)"><g><path d="M 9.96875 -0.0625 C 11.257812 -0.0625 12.359375 -0.164062 13.265625 -0.375 C 15.171875 -0.894531 16.597656 -1.867188 17.546875 -3.296875 C 18.503906 -4.722656 18.984375 -6.265625 18.984375 -7.921875 C 18.984375 -9.171875 18.71875 -10.378906 18.1875 -11.546875 C 17.664062 -12.710938 16.875 -13.703125 15.8125 -14.515625 C 15.644531 -14.640625 15.519531 -14.742188 15.4375 -14.828125 C 15.363281 -14.910156 15.328125 -15.003906 15.328125 -15.109375 C 15.328125 -15.234375 15.390625 -15.414062 15.515625 -15.65625 C 15.921875 -16.632812 16.125 -17.597656 16.125 -18.546875 C 16.125 -20.023438 15.671875 -21.34375 14.765625 -22.5 C 13.867188 -23.65625 12.613281 -24.460938 11 -24.921875 C 10.195312 -25.128906 9.398438 -25.234375 8.609375 -25.234375 C 8.066406 -25.234375 7.523438 -25.210938 6.984375 -25.171875 C 6.453125 -25.128906 5.882812 -25.097656 5.28125 -25.078125 C 4.269531 -25.035156 3.390625 -24.769531 2.640625 -24.28125 C 1.890625 -23.800781 1.425781 -23.039062 1.25 -22 C 1.164062 -21.476562 1.113281 -18.929688 1.09375 -14.359375 L 1.0625 -12.28125 L 1.09375 -3.515625 C 1.09375 -2.328125 1.398438 -1.457031 2.015625 -0.90625 C 2.640625 -0.363281 3.328125 -0.09375 4.078125 -0.09375 Z M 9.171875 -6.71875 C 9.066406 -6.71875 9.015625 -6.78125 9.015625 -6.90625 L 8.984375 -9.703125 C 8.984375 -9.960938 8.992188 -10.164062 9.015625 -10.3125 C 9.035156 -10.457031 9.109375 -10.53125 9.234375 -10.53125 C 9.628906 -10.507812 9.945312 -10.320312 10.1875 -9.96875 C 10.4375 -9.625 10.5625 -9.203125 10.5625 -8.703125 C 10.5625 -8.304688 10.460938 -7.925781 10.265625 -7.5625 C 10.066406 -7.207031 9.742188 -6.9375 9.296875 -6.75 Z M 9.046875 -16.1875 L 9.046875 -19.015625 C 9.703125 -19.015625 10.03125 -18.539062 10.03125 -17.59375 C 10.03125 -17.257812 9.96875 -16.941406 9.84375 -16.640625 C 9.726562 -16.335938 9.460938 -16.1875 9.046875 -16.1875 Z M 9.046875 -16.1875 "/></g></g></g></g></g></g></g></g></svg>