<svg xmlns="http://www.w3.org/2000/svg" xmlns:xlink="http://www.w3.org/1999/xlink" width="512" zoomAndPan="magnify" viewBox="0 0 384 383.999986" height="512" preserveAspectRatio="xMidYMid meet" version="1.0"><defs><g/><linearGradient x1="0" gradientTransform="matrix(0.75, 0, 0, 0.75, 0.0000072, 0)" y1="256" x2="511.999979" gradientUnits="userSpaceOnUse" y2="256" id="6a28646941"><stop stop-opacity="1" stop-color="rgb(8.628845%, 38.038635%, 45.878601%)" offset="0"/><stop stop-opacity="1" stop-color="rgb(8.772278%, 38.194275%, 45.951843%)" offset="0.015625"/><stop stop-opacity="1" stop-color="rgb(9.060669%, 38.50708%, 46.099854%)" offset="0.03125"/><stop stop-opacity="1" stop-color="rgb(9.34906%, 38.819885%, 46.246338%)" offset="0.046875"/><stop stop-opacity="1" stop-color="rgb(9.635925%, 39.13269%, 46.392822%)" offset="0.0625"/><stop stop-opacity="1" stop-color="rgb(9.924316%, 39.445496%, 46.540833%)" offset="0.078125"/><stop stop-opacity="1" stop-color="rgb(10.212708%, 39.756775%, 46.687317%)" offset="0.09375"/><stop stop-opacity="1" stop-color="rgb(10.501099%, 40.06958%, 46.835327%)" offset="0.109375"/><stop stop-opacity="1" stop-color="rgb(10.787964%, 40.382385%, 46.981812%)" offset="0.125"/><stop stop-opacity="1" stop-color="rgb(11.076355%, 40.69519%, 47.128296%)" offset="0.140625"/><stop stop-opacity="1" stop-color="rgb(11.364746%, 41.007996%, 47.276306%)" offset="0.15625"/><stop stop-opacity="1" stop-color="rgb(11.651611%, 41.319275%, 47.422791%)" offset="0.171875"/><stop stop-opacity="1" stop-color="rgb(11.940002%, 41.63208%, 47.569275%)" offset="0.1875"/><stop stop-opacity="1" stop-color="rgb(12.228394%, 41.944885%, 47.717285%)" offset="0.203125"/><stop stop-opacity="1" stop-color="rgb(12.516785%, 42.25769%, 47.86377%)" offset="0.21875"/><stop stop-opacity="1" stop-color="rgb(12.80365%, 42.570496%, 48.010254%)" offset="0.234375"/><stop stop-opacity="1" stop-color="rgb(13.092041%, 42.881775%, 48.158264%)" offset="0.25"/><stop stop-opacity="1" stop-color="rgb(13.380432%, 43.19458%, 48.304749%)" offset="0.265625"/><stop stop-opacity="1" stop-color="rgb(13.668823%, 43.507385%, 48.452759%)" offset="0.28125"/><stop stop-opacity="1" stop-color="rgb(13.955688%, 43.82019%, 48.599243%)" offset="0.296875"/><stop stop-opacity="1" stop-color="rgb(14.24408%, 44.132996%, 48.745728%)" offset="0.3125"/><stop stop-opacity="1" stop-color="rgb(14.532471%, 44.444275%, 48.893738%)" offset="0.328125"/><stop stop-opacity="1" stop-color="rgb(14.819336%, 44.75708%, 49.040222%)" offset="0.34375"/><stop stop-opacity="1" stop-color="rgb(15.107727%, 45.069885%, 49.186707%)" offset="0.359375"/><stop stop-opacity="1" stop-color="rgb(15.396118%, 45.38269%, 49.334717%)" offset="0.375"/><stop stop-opacity="1" stop-color="rgb(15.684509%, 45.695496%, 49.481201%)" offset="0.390625"/><stop stop-opacity="1" stop-color="rgb(15.971375%, 46.006775%, 49.627686%)" offset="0.40625"/><stop stop-opacity="1" stop-color="rgb(16.259766%, 46.31958%, 49.775696%)" offset="0.421875"/><stop stop-opacity="1" stop-color="rgb(16.548157%, 46.632385%, 49.92218%)" offset="0.4375"/><stop stop-opacity="1" stop-color="rgb(16.836548%, 46.94519%, 50.068665%)" offset="0.453125"/><stop stop-opacity="1" stop-color="rgb(17.123413%, 47.257996%, 50.216675%)" offset="0.46875"/><stop stop-opacity="1" stop-color="rgb(17.411804%, 47.569275%, 50.363159%)" offset="0.484375"/><stop stop-opacity="1" stop-color="rgb(17.700195%, 47.88208%, 50.511169%)" offset="0.5"/><stop stop-opacity="1" stop-color="rgb(17.987061%, 48.194885%, 50.657654%)" offset="0.515625"/><stop stop-opacity="1" stop-color="rgb(18.275452%, 48.50769%, 50.804138%)" offset="0.53125"/><stop stop-opacity="1" stop-color="rgb(18.563843%, 48.820496%, 50.952148%)" offset="0.546875"/><stop stop-opacity="1" stop-color="rgb(18.852234%, 49.131775%, 51.098633%)" offset="0.5625"/><stop stop-opacity="1" stop-color="rgb(19.139099%, 49.44458%, 51.245117%)" offset="0.578125"/><stop stop-opacity="1" stop-color="rgb(19.42749%, 49.757385%, 51.393127%)" offset="0.59375"/><stop stop-opacity="1" stop-color="rgb(19.715881%, 50.07019%, 51.539612%)" offset="0.609375"/><stop stop-opacity="1" stop-color="rgb(20.002747%, 50.382996%, 51.686096%)" offset="0.625"/><stop stop-opacity="1" stop-color="rgb(20.291138%, 50.694275%, 51.834106%)" offset="0.640625"/><stop stop-opacity="1" stop-color="rgb(20.579529%, 51.00708%, 51.980591%)" offset="0.65625"/><stop stop-opacity="1" stop-color="rgb(20.86792%, 51.319885%, 52.127075%)" offset="0.671875"/><stop stop-opacity="1" stop-color="rgb(21.154785%, 51.63269%, 52.275085%)" offset="0.6875"/><stop stop-opacity="1" stop-color="rgb(21.443176%, 51.945496%, 52.42157%)" offset="0.703125"/><stop stop-opacity="1" stop-color="rgb(21.731567%, 52.256775%, 52.56958%)" offset="0.71875"/><stop stop-opacity="1" stop-color="rgb(22.019958%, 52.56958%, 52.716064%)" offset="0.734375"/><stop stop-opacity="1" stop-color="rgb(22.306824%, 52.882385%, 52.862549%)" offset="0.75"/><stop stop-opacity="1" stop-color="rgb(22.595215%, 53.19519%, 53.010559%)" offset="0.765625"/><stop stop-opacity="1" stop-color="rgb(22.883606%, 53.507996%, 53.157043%)" offset="0.78125"/><stop stop-opacity="1" stop-color="rgb(23.170471%, 53.819275%, 53.303528%)" offset="0.796875"/><stop stop-opacity="1" stop-color="rgb(23.458862%, 54.13208%, 53.451538%)" offset="0.8125"/><stop stop-opacity="1" stop-color="rgb(23.747253%, 54.444885%, 53.598022%)" offset="0.828125"/><stop stop-opacity="1" stop-color="rgb(24.035645%, 54.75769%, 53.744507%)" offset="0.84375"/><stop stop-opacity="1" stop-color="rgb(24.32251%, 55.070496%, 53.892517%)" offset="0.859375"/><stop stop-opacity="1" stop-color="rgb(24.610901%, 55.381775%, 54.039001%)" offset="0.875"/><stop stop-opacity="1" stop-color="rgb(24.899292%, 55.69458%, 54.185486%)" offset="0.890625"/><stop stop-opacity="1" stop-color="rgb(25.186157%, 56.007385%, 54.333496%)" offset="0.90625"/><stop stop-opacity="1" stop-color="rgb(25.474548%, 56.32019%, 54.47998%)" offset="0.921875"/><stop stop-opacity="1" stop-color="rgb(25.762939%, 56.632996%, 54.627991%)" offset="0.9375"/><stop stop-opacity="1" stop-color="rgb(26.051331%, 56.944275%, 54.774475%)" offset="0.953125"/><stop stop-opacity="1" stop-color="rgb(26.338196%, 57.25708%, 54.920959%)" offset="0.96875"/><stop stop-opacity="1" stop-color="rgb(26.626587%, 57.569885%, 55.06897%)" offset="0.984375"/><stop stop-opacity="1" stop-color="rgb(26.914978%, 57.88269%, 55.215454%)" offset="1"/></linearGradient><clipPath id="d4744dc46f"><path d="M 33.808594 5.023438 L 67.359375 5.023438 L 67.359375 164.789062 L 33.808594 164.789062 Z M 33.808594 5.023438 " clip-rule="nonzero"/></clipPath><clipPath id="81d71088f7"><path d="M 67.359375 21.800781 L 67.359375 147.996094 C 67.359375 152.445312 65.59375 156.710938 62.445312 159.859375 C 59.300781 163.003906 55.035156 164.769531 50.585938 164.769531 C 46.136719 164.769531 41.867188 163.003906 38.722656 159.859375 C 35.574219 156.710938 33.808594 152.445312 33.808594 147.996094 L 33.808594 21.800781 C 33.808594 17.351562 35.574219 13.085938 38.722656 9.9375 C 41.867188 6.792969 46.136719 5.023438 50.585938 5.023438 C 55.035156 5.023438 59.300781 6.792969 62.445312 9.9375 C 65.59375 13.085938 67.359375 17.351562 67.359375 21.800781 Z M 67.359375 21.800781 " clip-rule="nonzero"/></clipPath><clipPath id="b6fd44379b"><path d="M 0.808594 0.0234375 L 34.359375 0.0234375 L 34.359375 159.789062 L 0.808594 159.789062 Z M 0.808594 0.0234375 " clip-rule="nonzero"/></clipPath><clipPath id="4deb53d356"><path d="M 34.359375 16.800781 L 34.359375 142.996094 C 34.359375 147.445312 32.59375 151.710938 29.445312 154.859375 C 26.300781 158.003906 22.035156 159.769531 17.585938 159.769531 C 13.136719 159.769531 8.867188 158.003906 5.722656 154.859375 C 2.574219 151.710938 0.808594 147.445312 0.808594 142.996094 L 0.808594 16.800781 C 0.808594 12.351562 2.574219 8.085938 5.722656 4.9375 C 8.867188 1.792969 13.136719 0.0234375 17.585938 0.0234375 C 22.035156 0.0234375 26.300781 1.792969 29.445312 4.9375 C 32.59375 8.085938 34.359375 12.351562 34.359375 16.800781 Z M 34.359375 16.800781 " clip-rule="nonzero"/></clipPath><clipPath id="6f13971db0"><rect x="0" width="35" y="0" height="160"/></clipPath><clipPath id="3164cb4920"><path d="M 0.65625 71 L 66.898438 71 L 66.898438 105.46875 L 0.65625 105.46875 Z M 0.65625 71 " clip-rule="nonzero"/></clipPath><clipPath id="3d3c391efe"><path d="M 49.664062 105.46875 L 18.003906 105.46875 C 13.433594 105.46875 9.050781 103.652344 5.816406 100.417969 C 2.585938 97.1875 0.769531 92.804688 0.769531 88.234375 C 0.769531 83.664062 2.585938 79.28125 5.816406 76.046875 C 9.050781 72.816406 13.433594 71 18.003906 71 L 49.664062 71 C 54.234375 71 58.617188 72.816406 61.851562 76.046875 C 65.082031 79.28125 66.898438 83.664062 66.898438 88.234375 C 66.898438 92.804688 65.082031 97.1875 61.851562 100.417969 C 58.617188 103.652344 54.234375 105.46875 49.664062 105.46875 Z M 49.664062 105.46875 " clip-rule="nonzero"/></clipPath><clipPath id="c95fe7435d"><path d="M 0.71875 0 L 66.898438 0 L 66.898438 34.46875 L 0.71875 34.46875 Z M 0.71875 0 " clip-rule="nonzero"/></clipPath><clipPath id="ef37082482"><path d="M 49.664062 34.46875 L 18.003906 34.46875 C 13.433594 34.46875 9.050781 32.652344 5.816406 29.417969 C 2.585938 26.1875 0.769531 21.804688 0.769531 17.234375 C 0.769531 12.664062 2.585938 8.28125 5.816406 5.046875 C 9.050781 1.816406 13.433594 0 18.003906 0 L 49.664062 0 C 54.234375 0 58.617188 1.816406 61.851562 5.046875 C 65.082031 8.28125 66.898438 12.664062 66.898438 17.234375 C 66.898438 21.804688 65.082031 26.1875 61.851562 29.417969 C 58.617188 32.652344 54.234375 34.46875 49.664062 34.46875 Z M 49.664062 34.46875 " clip-rule="nonzero"/></clipPath><clipPath id="aa8a0256ff"><rect x="0" width="67" y="0" height="35"/></clipPath><clipPath id="d55f2048e8"><path d="M 93.644531 5 L 127.191406 5 L 127.191406 74.6875 L 93.644531 74.6875 Z M 93.644531 5 " clip-rule="nonzero"/></clipPath><clipPath id="2b5aa1c517"><path d="M 93.644531 57.917969 L 93.644531 21.796875 C 93.644531 17.347656 95.410156 13.082031 98.558594 9.933594 C 101.703125 6.789062 105.96875 5.023438 110.417969 5.023438 C 114.867188 5.023438 119.132812 6.789062 122.277344 9.933594 C 125.421875 13.082031 127.191406 17.347656 127.191406 21.796875 L 127.191406 57.917969 C 127.191406 62.363281 125.421875 66.632812 122.277344 69.777344 C 119.132812 72.921875 114.867188 74.6875 110.417969 74.6875 C 105.96875 74.6875 101.703125 72.921875 98.558594 69.777344 C 95.410156 66.632812 93.644531 62.363281 93.644531 57.917969 Z M 93.644531 57.917969 " clip-rule="nonzero"/></clipPath><clipPath id="70d3a6f3d7"><path d="M 0.644531 0 L 34.191406 0 L 34.191406 69.6875 L 0.644531 69.6875 Z M 0.644531 0 " clip-rule="nonzero"/></clipPath><clipPath id="ea28dfcf04"><path d="M 0.644531 52.917969 L 0.644531 16.796875 C 0.644531 12.347656 2.410156 8.082031 5.558594 4.933594 C 8.703125 1.789062 12.96875 0.0234375 17.417969 0.0234375 C 21.867188 0.0234375 26.132812 1.789062 29.277344 4.933594 C 32.421875 8.082031 34.191406 12.347656 34.191406 16.796875 L 34.191406 52.917969 C 34.191406 57.363281 32.421875 61.632812 29.277344 64.777344 C 26.132812 67.921875 21.867188 69.6875 17.417969 69.6875 C 12.96875 69.6875 8.703125 67.921875 5.558594 64.777344 C 2.410156 61.632812 0.644531 57.363281 0.644531 52.917969 Z M 0.644531 52.917969 " clip-rule="nonzero"/></clipPath><clipPath id="d9d71c19a7"><rect x="0" width="35" y="0" height="70"/></clipPath><clipPath id="f4ed5fd8d3"><path d="M 53.042969 61.601562 L 119.207031 61.601562 L 119.207031 87.148438 L 53.042969 87.148438 Z M 53.042969 61.601562 " clip-rule="nonzero"/></clipPath><clipPath id="57424bcc6b"><path d="M 106.433594 87.148438 L 65.851562 87.148438 C 58.796875 87.148438 53.078125 81.429688 53.078125 74.375 C 53.078125 67.320312 58.796875 61.601562 65.851562 61.601562 L 106.433594 61.601562 C 113.488281 61.601562 119.207031 67.320312 119.207031 74.375 C 119.207031 81.429688 113.488281 87.148438 106.433594 87.148438 Z M 106.433594 87.148438 " clip-rule="nonzero"/></clipPath><clipPath id="b9db2a494d"><path d="M 0.0429688 0.601562 L 66.207031 0.601562 L 66.207031 26.148438 L 0.0429688 26.148438 Z M 0.0429688 0.601562 " clip-rule="nonzero"/></clipPath><clipPath id="ed583c29a6"><path d="M 53.433594 26.148438 L 12.851562 26.148438 C 5.796875 26.148438 0.078125 20.429688 0.078125 13.375 C 0.078125 6.320312 5.796875 0.601562 12.851562 0.601562 L 53.433594 0.601562 C 60.488281 0.601562 66.207031 6.320312 66.207031 13.375 C 66.207031 20.429688 60.488281 26.148438 53.433594 26.148438 Z M 53.433594 26.148438 " clip-rule="nonzero"/></clipPath><clipPath id="fe8c1d96f5"><rect x="0" width="67" y="0" height="27"/></clipPath><clipPath id="4ac062ad49"><path d="M 93.808594 101.484375 L 127.417969 101.484375 L 127.417969 164.765625 L 93.808594 164.765625 Z M 93.808594 101.484375 " clip-rule="nonzero"/></clipPath><clipPath id="0d5f990deb"><path d="M 93.808594 147.960938 L 93.808594 118.394531 C 93.808594 113.9375 95.578125 109.664062 98.730469 106.511719 C 101.878906 103.363281 106.15625 101.589844 110.613281 101.589844 C 115.070312 101.589844 119.34375 103.363281 122.496094 106.511719 C 125.648438 109.664062 127.417969 113.9375 127.417969 118.394531 L 127.417969 147.960938 C 127.417969 152.417969 125.648438 156.691406 122.496094 159.84375 C 119.34375 162.996094 115.070312 164.765625 110.613281 164.765625 C 106.15625 164.765625 101.878906 162.996094 98.730469 159.84375 C 95.578125 156.691406 93.808594 152.417969 93.808594 147.960938 Z M 93.808594 147.960938 " clip-rule="nonzero"/></clipPath><clipPath id="7d6d3becf4"><path d="M 0.808594 0.484375 L 34.417969 0.484375 L 34.417969 63.765625 L 0.808594 63.765625 Z M 0.808594 0.484375 " clip-rule="nonzero"/></clipPath><clipPath id="4dea1a3fae"><path d="M 0.808594 46.960938 L 0.808594 17.394531 C 0.808594 12.9375 2.578125 8.664062 5.730469 5.511719 C 8.878906 2.363281 13.15625 0.589844 17.613281 0.589844 C 22.070312 0.589844 26.34375 2.363281 29.496094 5.511719 C 32.648438 8.664062 34.417969 12.9375 34.417969 17.394531 L 34.417969 46.960938 C 34.417969 51.417969 32.648438 55.691406 29.496094 58.84375 C 26.34375 61.996094 22.070312 63.765625 17.613281 63.765625 C 13.15625 63.765625 8.878906 61.996094 5.730469 58.84375 C 2.578125 55.691406 0.808594 51.417969 0.808594 46.960938 Z M 0.808594 46.960938 " clip-rule="nonzero"/></clipPath><clipPath id="5e70ffb603"><rect x="0" width="35" y="0" height="64"/></clipPath><clipPath id="50e8c98692"><path d="M 20 65 L 44 65 L 44 82 L 20 82 Z M 20 65 " clip-rule="nonzero"/></clipPath><clipPath id="7736bff54f"><path d="M 38.707031 85.699219 L 20.671875 80.789062 L 25.585938 62.753906 L 43.617188 67.664062 Z M 38.707031 85.699219 " clip-rule="nonzero"/></clipPath><clipPath id="cb65395099"><path d="M 43.617188 67.664062 C 42.324219 72.414062 39.136719 76.535156 34.863281 78.980469 C 30.589844 81.421875 25.421875 82.082031 20.671875 80.789062 L 23.179688 71.585938 C 25.503906 72.222656 28.035156 71.898438 30.128906 70.703125 C 32.222656 69.503906 33.785156 67.484375 34.417969 65.160156 Z M 43.617188 67.664062 " clip-rule="nonzero"/></clipPath><clipPath id="793201a7b8"><path d="M 0.640625 0 L 23.679688 0 L 23.679688 17 L 0.640625 17 Z M 0.640625 0 " clip-rule="nonzero"/></clipPath><clipPath id="accf5ea2bf"><path d="M 18.707031 20.699219 L 0.671875 15.789062 L 5.585938 -2.246094 L 23.617188 2.664062 Z M 18.707031 20.699219 " clip-rule="nonzero"/></clipPath><clipPath id="f02d7589ad"><path d="M 23.617188 2.664062 C 22.324219 7.414062 19.136719 11.535156 14.863281 13.980469 C 10.589844 16.421875 5.421875 17.082031 0.671875 15.789062 L 3.179688 6.585938 C 5.503906 7.222656 8.035156 6.898438 10.128906 5.703125 C 12.222656 4.503906 13.785156 2.484375 14.417969 0.160156 Z M 23.617188 2.664062 " clip-rule="nonzero"/></clipPath><clipPath id="af2e8f1cd1"><rect x="0" width="24" y="0" height="17"/></clipPath><clipPath id="25b49940d4"><path d="M 25 95 L 44 95 L 44 116 L 25 116 Z M 25 95 " clip-rule="nonzero"/></clipPath><clipPath id="bb4b9d4657"><path d="M 45.570312 97.257812 L 43.429688 115.824219 L 24.859375 113.683594 L 27.003906 95.113281 Z M 45.570312 97.257812 " clip-rule="nonzero"/></clipPath><clipPath id="4a9b444928"><path d="M 27.003906 95.113281 C 31.894531 95.679688 36.445312 98.210938 39.503906 102.070312 C 42.5625 105.925781 43.992188 110.933594 43.429688 115.824219 L 33.957031 114.730469 C 34.234375 112.335938 33.53125 109.882812 32.035156 107.992188 C 30.535156 106.105469 28.304688 104.863281 25.910156 104.585938 Z M 27.003906 95.113281 " clip-rule="nonzero"/></clipPath><clipPath id="5a9dbc1312"><path d="M 0.679688 0 L 19 0 L 19 20.839844 L 0.679688 20.839844 Z M 0.679688 0 " clip-rule="nonzero"/></clipPath><clipPath id="79ae51aad5"><path d="M 20.570312 2.257812 L 18.429688 20.824219 L -0.140625 18.683594 L 2.003906 0.113281 Z M 20.570312 2.257812 " clip-rule="nonzero"/></clipPath><clipPath id="ceab17d10c"><path d="M 2.003906 0.113281 C 6.894531 0.679688 11.445312 3.210938 14.503906 7.070312 C 17.5625 10.925781 18.992188 15.933594 18.429688 20.824219 L 8.957031 19.730469 C 9.234375 17.335938 8.53125 14.882812 7.035156 12.992188 C 5.535156 11.105469 3.304688 9.863281 0.910156 9.585938 Z M 2.003906 0.113281 " clip-rule="nonzero"/></clipPath><clipPath id="75bae7416d"><rect x="0" width="19" y="0" height="21"/></clipPath><clipPath id="dad9a12766"><path d="M 57.5625 76.992188 L 76.253906 76.992188 L 76.253906 95.683594 L 57.5625 95.683594 Z M 57.5625 76.992188 " clip-rule="nonzero"/></clipPath><clipPath id="3036dd0d67"><path d="M 57.5625 95.683594 C 57.5625 90.761719 59.554688 85.949219 63.035156 82.46875 C 66.515625 78.988281 71.328125 76.992188 76.253906 76.992188 L 76.253906 86.527344 C 73.839844 86.527344 71.484375 87.503906 69.777344 89.210938 C 68.074219 90.914062 67.097656 93.273438 67.097656 95.683594 Z M 57.5625 95.683594 " clip-rule="nonzero"/></clipPath><clipPath id="6a15ba7fc2"><path d="M 0.5625 0.992188 L 19.253906 0.992188 L 19.253906 19.683594 L 0.5625 19.683594 Z M 0.5625 0.992188 " clip-rule="nonzero"/></clipPath><clipPath id="7aa41d813d"><path d="M 0.5625 19.683594 C 0.5625 14.761719 2.554688 9.949219 6.035156 6.46875 C 9.515625 2.988281 14.328125 0.992188 19.253906 0.992188 L 19.253906 10.527344 C 16.839844 10.527344 14.484375 11.503906 12.777344 13.210938 C 11.074219 14.914062 10.097656 17.273438 10.097656 19.683594 Z M 0.5625 19.683594 " clip-rule="nonzero"/></clipPath><clipPath id="572d57e673"><rect x="0" width="20" y="0" height="20"/></clipPath><clipPath id="b83feac078"><path d="M 57 53 L 78 53 L 78 72 L 57 72 Z M 57 53 " clip-rule="nonzero"/></clipPath><clipPath id="e492aec8e7"><path d="M 58.71875 72.746094 L 57.375 54.105469 L 76.015625 52.761719 L 77.359375 71.40625 Z M 58.71875 72.746094 " clip-rule="nonzero"/></clipPath><clipPath id="2b19f2a760"><path d="M 77.359375 71.40625 C 72.449219 71.757812 67.507812 70.117188 63.785156 66.894531 C 60.0625 63.671875 57.726562 59.015625 57.375 54.105469 L 66.886719 53.417969 C 67.058594 55.824219 68.203125 58.105469 70.023438 59.683594 C 71.847656 61.261719 74.269531 62.066406 76.675781 61.894531 Z M 77.359375 71.40625 " clip-rule="nonzero"/></clipPath><clipPath id="7c7642fe3f"><path d="M 0.359375 0.199219 L 20.519531 0.199219 L 20.519531 18.921875 L 0.359375 18.921875 Z M 0.359375 0.199219 " clip-rule="nonzero"/></clipPath><clipPath id="1854116d13"><path d="M 1.71875 19.746094 L 0.375 1.105469 L 19.015625 -0.238281 L 20.359375 18.40625 Z M 1.71875 19.746094 " clip-rule="nonzero"/></clipPath><clipPath id="446228cebd"><path d="M 20.359375 18.40625 C 15.449219 18.757812 10.507812 17.117188 6.785156 13.894531 C 3.0625 10.671875 0.726562 6.015625 0.375 1.105469 L 9.886719 0.417969 C 10.058594 2.824219 11.203125 5.105469 13.023438 6.683594 C 14.847656 8.261719 17.269531 9.066406 19.675781 8.894531 Z M 20.359375 18.40625 " clip-rule="nonzero"/></clipPath><clipPath id="42f5c0cbfb"><rect x="0" width="21" y="0" height="19"/></clipPath><clipPath id="f10b54b5cb"><path d="M 107.957031 67.023438 L 127.1875 67.023438 L 127.1875 87.152344 L 107.957031 87.152344 Z M 107.957031 67.023438 " clip-rule="nonzero"/></clipPath><clipPath id="dc274ae0a5"><path d="M 127.1875 67.078125 C 127.1875 72.367188 125.136719 77.535156 121.554688 81.273438 C 117.972656 85.011719 113.023438 87.152344 107.957031 87.152344 L 107.957031 76.910156 C 110.4375 76.910156 112.863281 75.863281 114.617188 74.03125 C 116.371094 72.199219 117.375 69.667969 117.375 67.078125 Z M 127.1875 67.078125 " clip-rule="nonzero"/></clipPath><clipPath id="2bf44a2c92"><path d="M 0.957031 0.0234375 L 20.1875 0.0234375 L 20.1875 20.152344 L 0.957031 20.152344 Z M 0.957031 0.0234375 " clip-rule="nonzero"/></clipPath><clipPath id="0e6bac542e"><path d="M 20.1875 0.078125 C 20.1875 5.367188 18.136719 10.535156 14.554688 14.273438 C 10.972656 18.011719 6.023438 20.152344 0.957031 20.152344 L 0.957031 9.910156 C 3.4375 9.910156 5.863281 8.863281 7.617188 7.03125 C 9.371094 5.199219 10.375 2.667969 10.375 0.078125 Z M 20.1875 0.078125 " clip-rule="nonzero"/></clipPath><clipPath id="51b13dea2b"><rect x="0" width="21" y="0" height="21"/></clipPath><clipPath id="e0e24a5daf"><path d="M 94.726562 46.582031 L 127.191406 46.582031 L 127.191406 68.011719 L 94.726562 68.011719 Z M 94.726562 46.582031 " clip-rule="nonzero"/></clipPath><clipPath id="23497de176"><path d="M 0.726562 0.582031 L 33.191406 0.582031 L 33.191406 22.011719 L 0.726562 22.011719 Z M 0.726562 0.582031 " clip-rule="nonzero"/></clipPath><clipPath id="9caaeda189"><rect x="0" width="34" y="0" height="23"/></clipPath><clipPath id="3c4a54be47"><path d="M 93.644531 101.425781 L 127.242188 101.425781 L 127.242188 135.285156 L 93.644531 135.285156 Z M 93.644531 101.425781 " clip-rule="nonzero"/></clipPath><clipPath id="69e61241f4"><path d="M 127.242188 108.925781 L 127.242188 127.699219 C 127.242188 131.839844 123.882812 135.199219 119.742188 135.199219 L 101.144531 135.199219 C 97.003906 135.199219 93.644531 131.839844 93.644531 127.699219 L 93.644531 108.925781 C 93.644531 104.785156 97.003906 101.425781 101.144531 101.425781 L 119.742188 101.425781 C 123.882812 101.425781 127.242188 104.785156 127.242188 108.925781 Z M 127.242188 108.925781 " clip-rule="nonzero"/></clipPath><clipPath id="7f482acbd7"><path d="M 0.644531 0.425781 L 34.242188 0.425781 L 34.242188 34.28125 L 0.644531 34.28125 Z M 0.644531 0.425781 " clip-rule="nonzero"/></clipPath><clipPath id="b47f2fdbdd"><path d="M 34.242188 7.925781 L 34.242188 26.699219 C 34.242188 30.839844 30.882812 34.199219 26.742188 34.199219 L 8.144531 34.199219 C 4.003906 34.199219 0.644531 30.839844 0.644531 26.699219 L 0.644531 7.925781 C 0.644531 3.785156 4.003906 0.425781 8.144531 0.425781 L 26.742188 0.425781 C 30.882812 0.425781 34.242188 3.785156 34.242188 7.925781 Z M 34.242188 7.925781 " clip-rule="nonzero"/></clipPath><clipPath id="d673362a43"><rect x="0" width="35" y="0" height="35"/></clipPath><clipPath id="6469e48cc6"><path d="M 143 0.640625 L 240.71875 0.640625 L 240.71875 178.71875 L 143 178.71875 Z M 143 0.640625 " clip-rule="nonzero"/></clipPath><clipPath id="f3f8f41356"><rect x="0" width="98" y="0" height="179"/></clipPath><clipPath id="9053601788"><rect x="0" width="241" y="0" height="179"/></clipPath></defs><rect x="-38.4" width="460.8" fill="#ffffff" y="-38.399999" height="460.799983" fill-opacity="1"/><rect x="-38.4" fill="url(#6a28646941)" width="460.8" y="-38.399999" height="460.799983"/><g transform="matrix(1, 0, 0, 1, 72, 104)"><g clip-path="url(#9053601788)"><g clip-path="url(#d4744dc46f)"><g clip-path="url(#81d71088f7)"><g transform="matrix(1, 0, 0, 1, 33, 5)"><g clip-path="url(#6f13971db0)"><g clip-path="url(#b6fd44379b)"><g clip-path="url(#4deb53d356)"><path fill="#ffffff" d="M 34.359375 0.0234375 L 34.359375 159.789062 L 0.808594 159.789062 L 0.808594 0.0234375 Z M 34.359375 0.0234375 " fill-opacity="1" fill-rule="nonzero"/></g></g></g></g></g></g><g clip-path="url(#3164cb4920)"><g clip-path="url(#3d3c391efe)"><g transform="matrix(1, 0, 0, 1, 0, 71)"><g clip-path="url(#aa8a0256ff)"><g clip-path="url(#c95fe7435d)"><g clip-path="url(#ef37082482)"><path fill="#ffffff" d="M 66.898438 34.46875 L 0.789062 34.46875 L 0.789062 0 L 66.898438 0 Z M 66.898438 34.46875 " fill-opacity="1" fill-rule="nonzero"/></g></g></g></g></g></g><g clip-path="url(#d55f2048e8)"><g clip-path="url(#2b5aa1c517)"><g transform="matrix(1, 0, 0, 1, 93, 5)"><g clip-path="url(#d9d71c19a7)"><g clip-path="url(#70d3a6f3d7)"><g clip-path="url(#ea28dfcf04)"><path fill="#ffffff" d="M 0.644531 69.6875 L 0.644531 -0.0234375 L 34.191406 -0.0234375 L 34.191406 69.6875 Z M 0.644531 69.6875 " fill-opacity="1" fill-rule="nonzero"/></g></g></g></g></g></g><g clip-path="url(#f4ed5fd8d3)"><g clip-path="url(#57424bcc6b)"><g transform="matrix(1, 0, 0, 1, 53, 61)"><g clip-path="url(#fe8c1d96f5)"><g clip-path="url(#b9db2a494d)"><g clip-path="url(#ed583c29a6)"><path fill="#ffffff" d="M 66.207031 26.148438 L 0.0429688 26.148438 L 0.0429688 0.601562 L 66.207031 0.601562 Z M 66.207031 26.148438 " fill-opacity="1" fill-rule="nonzero"/></g></g></g></g></g></g><g clip-path="url(#4ac062ad49)"><g clip-path="url(#0d5f990deb)"><g transform="matrix(1, 0, 0, 1, 93, 101)"><g clip-path="url(#5e70ffb603)"><g clip-path="url(#7d6d3becf4)"><g clip-path="url(#4dea1a3fae)"><path fill="#ffffff" d="M 0.808594 63.765625 L 0.808594 0.617188 L 34.417969 0.617188 L 34.417969 63.765625 Z M 0.808594 63.765625 " fill-opacity="1" fill-rule="nonzero"/></g></g></g></g></g></g><g clip-path="url(#50e8c98692)"><g clip-path="url(#7736bff54f)"><g clip-path="url(#cb65395099)"><g transform="matrix(1, 0, 0, 1, 20, 65)"><g clip-path="url(#af2e8f1cd1)"><g clip-path="url(#793201a7b8)"><g clip-path="url(#accf5ea2bf)"><g clip-path="url(#f02d7589ad)"><path fill="#ffffff" d="M 18.707031 20.699219 L 0.671875 15.789062 L 5.585938 -2.246094 L 23.617188 2.664062 Z M 18.707031 20.699219 " fill-opacity="1" fill-rule="nonzero"/></g></g></g></g></g></g></g></g><g clip-path="url(#25b49940d4)"><g clip-path="url(#bb4b9d4657)"><g clip-path="url(#4a9b444928)"><g transform="matrix(1, 0, 0, 1, 25, 95)"><g clip-path="url(#75bae7416d)"><g clip-path="url(#5a9dbc1312)"><g clip-path="url(#79ae51aad5)"><g clip-path="url(#ceab17d10c)"><path fill="#ffffff" d="M 20.570312 2.257812 L 18.429688 20.824219 L -0.140625 18.683594 L 2.003906 0.113281 Z M 20.570312 2.257812 " fill-opacity="1" fill-rule="nonzero"/></g></g></g></g></g></g></g></g><g clip-path="url(#dad9a12766)"><g clip-path="url(#3036dd0d67)"><g transform="matrix(1, 0, 0, 1, 57, 76)"><g clip-path="url(#572d57e673)"><g clip-path="url(#6a15ba7fc2)"><g clip-path="url(#7aa41d813d)"><path fill="#ffffff" d="M 0.5625 0.992188 L 19.253906 0.992188 L 19.253906 19.683594 L 0.5625 19.683594 Z M 0.5625 0.992188 " fill-opacity="1" fill-rule="nonzero"/></g></g></g></g></g></g><g clip-path="url(#b83feac078)"><g clip-path="url(#e492aec8e7)"><g clip-path="url(#2b19f2a760)"><g transform="matrix(1, 0, 0, 1, 57, 53)"><g clip-path="url(#42f5c0cbfb)"><g clip-path="url(#7c7642fe3f)"><g clip-path="url(#1854116d13)"><g clip-path="url(#446228cebd)"><path fill="#ffffff" d="M 1.71875 19.746094 L 0.375 1.105469 L 19.015625 -0.238281 L 20.359375 18.40625 Z M 1.71875 19.746094 " fill-opacity="1" fill-rule="nonzero"/></g></g></g></g></g></g></g></g><g clip-path="url(#f10b54b5cb)"><g clip-path="url(#dc274ae0a5)"><g transform="matrix(1, 0, 0, 1, 107, 67)"><g clip-path="url(#51b13dea2b)"><g clip-path="url(#2bf44a2c92)"><g clip-path="url(#0e6bac542e)"><path fill="#ffffff" d="M 20.1875 20.152344 L 0.957031 20.152344 L 0.957031 0.0976562 L 20.1875 0.0976562 Z M 20.1875 20.152344 " fill-opacity="1" fill-rule="nonzero"/></g></g></g></g></g></g><g clip-path="url(#e0e24a5daf)"><g transform="matrix(1, 0, 0, 1, 94, 46)"><g clip-path="url(#9caaeda189)"><g clip-path="url(#23497de176)"><path fill="#ffffff" d="M 0.726562 0.582031 L 33.203125 0.582031 L 33.203125 22.011719 L 0.726562 22.011719 Z M 0.726562 0.582031 " fill-opacity="1" fill-rule="nonzero"/></g></g></g></g><g clip-path="url(#3c4a54be47)"><g clip-path="url(#69e61241f4)"><g transform="matrix(1, 0, 0, 1, 93, 101)"><g clip-path="url(#d673362a43)"><g clip-path="url(#7f482acbd7)"><g clip-path="url(#b47f2fdbdd)"><path fill="#ffffff" d="M 0.644531 0.425781 L 34.242188 0.425781 L 34.242188 34.152344 L 0.644531 34.152344 Z M 0.644531 0.425781 " fill-opacity="1" fill-rule="nonzero"/></g></g></g></g></g></g><g clip-path="url(#6469e48cc6)"><g transform="matrix(1, 0, 0, 1, 143, 0)"><g clip-path="url(#f3f8f41356)"><g fill="#fefefe" fill-opacity="1"><g transform="translate(0.836191, 47.332773)"><g><path d="M 6.234375 0.65625 C 7.554688 0.65625 8.8125 0.300781 10 -0.40625 C 11.1875 -1.125 11.847656 -2.257812 11.984375 -3.8125 C 12.015625 -5.15625 12.03125 -6.28125 12.03125 -7.1875 C 12.03125 -8.09375 12.050781 -8.769531 12.09375 -9.21875 C 12.132812 -9.664062 12.265625 -9.890625 12.484375 -9.890625 L 13.96875 -9.9375 C 14.207031 -9.9375 14.359375 -9.914062 14.421875 -9.875 C 14.492188 -9.832031 14.53125 -9.757812 14.53125 -9.65625 L 14.53125 -8.25 C 14.53125 -5.875 14.597656 -4.132812 14.734375 -3.03125 C 14.953125 -1.832031 15.539062 -0.925781 16.5 -0.3125 C 17.457031 0.300781 18.523438 0.609375 19.703125 0.609375 C 20.523438 0.609375 21.332031 0.429688 22.125 0.078125 C 23.882812 -0.679688 24.765625 -2.0625 24.765625 -4.0625 C 24.765625 -8.632812 24.789062 -12.375 24.84375 -15.28125 C 24.875 -17.738281 24.890625 -21.421875 24.890625 -26.328125 C 24.890625 -28.078125 24.613281 -29.429688 24.0625 -30.390625 C 23.070312 -32.109375 21.550781 -32.96875 19.5 -32.96875 C 18.675781 -32.96875 17.941406 -32.851562 17.296875 -32.625 C 16.660156 -32.394531 16.21875 -32.140625 15.96875 -31.859375 C 15.363281 -31.097656 14.988281 -30.148438 14.84375 -29.015625 C 14.695312 -27.878906 14.625 -26.789062 14.625 -25.75 L 14.703125 -20.28125 C 14.703125 -18.644531 14.566406 -17.828125 14.296875 -17.828125 L 13.015625 -17.78125 C 12.628906 -17.78125 12.394531 -17.828125 12.3125 -17.921875 C 12.238281 -18.015625 12.203125 -18.210938 12.203125 -18.515625 L 12.28125 -25.5 L 12.234375 -28.046875 C 12.234375 -29.253906 11.914062 -30.234375 11.28125 -30.984375 C 10.65625 -31.734375 9.867188 -32.28125 8.921875 -32.625 C 7.984375 -32.96875 7.050781 -33.140625 6.125 -33.140625 C 4.800781 -33.140625 3.726562 -32.570312 2.90625 -31.4375 C 2.09375 -30.300781 1.65625 -28.773438 1.59375 -26.859375 L 1.4375 -11.78125 C 1.46875 -10.113281 1.484375 -8.085938 1.484375 -5.703125 C 1.484375 -4.335938 1.550781 -3.269531 1.6875 -2.5 C 1.820312 -1.738281 2.160156 -1.070312 2.703125 -0.5 C 3.609375 0.269531 4.785156 0.65625 6.234375 0.65625 Z M 6.234375 0.65625 "/></g></g></g><g fill="#fefefe" fill-opacity="1"><g transform="translate(27.814238, 47.332773)"><g><path d="M 8.828125 0.90625 C 10.003906 0.90625 11.382812 0.878906 12.96875 0.828125 C 14.125 0.796875 15.398438 0.769531 16.796875 0.75 C 18.191406 0.738281 19.398438 0.316406 20.421875 -0.515625 C 21.453125 -1.347656 21.96875 -2.519531 21.96875 -4.03125 C 21.96875 -5.53125 21.578125 -6.785156 20.796875 -7.796875 C 20.015625 -8.816406 19.023438 -9.40625 17.828125 -9.5625 C 15.328125 -9.5625 13.367188 -9.578125 11.953125 -9.609375 C 11.753906 -9.640625 11.632812 -9.734375 11.59375 -9.890625 C 11.550781 -10.054688 11.53125 -10.273438 11.53125 -10.546875 C 11.53125 -10.828125 11.554688 -11.019531 11.609375 -11.125 C 11.671875 -11.238281 11.820312 -11.304688 12.0625 -11.328125 C 12.3125 -11.359375 12.722656 -11.390625 13.296875 -11.421875 L 15.1875 -11.5 C 15.550781 -11.5 16.050781 -11.5 16.6875 -11.5 C 17.332031 -11.5 17.984375 -11.59375 18.640625 -11.78125 C 20.117188 -12.21875 20.859375 -13.765625 20.859375 -16.421875 C 20.859375 -17.578125 20.640625 -18.425781 20.203125 -18.96875 C 19.460938 -19.84375 18.257812 -20.28125 16.59375 -20.28125 C 14.78125 -20.28125 13.585938 -20.300781 13.015625 -20.34375 C 12.441406 -20.382812 12.097656 -20.472656 11.984375 -20.609375 C 11.878906 -20.742188 11.828125 -20.953125 11.828125 -21.234375 L 11.828125 -21.390625 L 11.78125 -22.046875 C 11.78125 -22.242188 11.90625 -22.367188 12.15625 -22.421875 C 12.695312 -22.421875 13.503906 -22.460938 14.578125 -22.546875 C 15.972656 -22.648438 17.203125 -22.703125 18.265625 -22.703125 C 19.503906 -22.703125 20.425781 -23.019531 21.03125 -23.65625 C 21.957031 -24.632812 22.421875 -25.90625 22.421875 -27.46875 C 22.421875 -28.914062 22.101562 -30.050781 21.46875 -30.875 C 20.269531 -32.351562 18.359375 -33.09375 15.734375 -33.09375 L 5.875 -33.09375 C 3.25 -32.925781 1.796875 -31.847656 1.515625 -29.859375 C 1.460938 -29.421875 1.4375 -28.035156 1.4375 -25.703125 C 1.4375 -24.441406 1.441406 -23.15625 1.453125 -21.84375 C 1.472656 -20.53125 1.488281 -19.421875 1.5 -18.515625 C 1.507812 -17.617188 1.53125 -17.171875 1.5625 -17.171875 L 1.515625 -8.78125 C 1.515625 -5.96875 1.664062 -3.867188 1.96875 -2.484375 C 2.269531 -1.097656 2.941406 -0.1875 3.984375 0.25 C 5.023438 0.6875 6.640625 0.90625 8.828125 0.90625 Z M 8.828125 0.90625 "/></g></g></g><g fill="#fefefe" fill-opacity="1"><g transform="translate(51.055595, 47.332773)"><g><path d="M 6.28125 0.375 C 7.238281 0.375 8.140625 0.191406 8.984375 -0.171875 C 9.835938 -0.546875 10.53125 -1.226562 11.0625 -2.21875 C 11.59375 -3.207031 11.859375 -4.601562 11.859375 -6.40625 C 11.972656 -9.25 12.03125 -12.367188 12.03125 -15.765625 C 12.03125 -21.867188 11.960938 -26.195312 11.828125 -28.75 C 11.710938 -30.0625 11.171875 -31.144531 10.203125 -32 C 9.234375 -32.863281 8.035156 -33.296875 6.609375 -33.296875 C 5.179688 -33.296875 4.015625 -32.84375 3.109375 -31.9375 C 2.210938 -31.039062 1.695312 -29.867188 1.5625 -28.421875 C 1.507812 -28.003906 1.46875 -27.597656 1.4375 -27.203125 C 1.40625 -26.804688 1.382812 -26.304688 1.375 -25.703125 C 1.363281 -25.097656 1.359375 -24.222656 1.359375 -23.078125 L 1.484375 -7.3125 L 1.4375 -6.203125 C 1.4375 -4.234375 1.773438 -2.644531 2.453125 -1.4375 C 3.140625 -0.226562 4.414062 0.375 6.28125 0.375 Z M 6.28125 0.375 "/></g></g></g><g fill="#fefefe" fill-opacity="1"><g transform="translate(0.836191, 104.332765)"><g><path d="M 6 0.734375 C 12.207031 0.734375 16.816406 -1.097656 19.828125 -4.765625 C 22.429688 -7.910156 23.75 -11.878906 23.78125 -16.671875 C 23.78125 -19.378906 23.226562 -21.992188 22.125 -24.515625 C 21.03125 -27.035156 19.269531 -29.085938 16.84375 -30.671875 C 14.425781 -32.265625 11.234375 -33.085938 7.265625 -33.140625 C 5.847656 -33.140625 4.566406 -32.539062 3.421875 -31.34375 C 2.285156 -30.15625 1.664062 -28.710938 1.5625 -27.015625 C 1.476562 -24.960938 1.4375 -21.445312 1.4375 -16.46875 L 1.484375 -11.09375 C 1.484375 -7.53125 1.492188 -5.53125 1.515625 -5.09375 C 1.597656 -4.269531 1.832031 -3.410156 2.21875 -2.515625 C 2.601562 -1.628906 3.125 -0.863281 3.78125 -0.21875 C 4.4375 0.414062 5.175781 0.734375 6 0.734375 Z M 11.375 -12.640625 C 11.289062 -12.640625 11.25 -12.65625 11.25 -12.6875 C 11.28125 -13.019531 11.296875 -15.441406 11.296875 -19.953125 C 11.316406 -20.035156 11.367188 -20.078125 11.453125 -20.078125 C 11.648438 -20.078125 11.914062 -19.953125 12.25 -19.703125 C 12.59375 -19.460938 12.898438 -19.066406 13.171875 -18.515625 C 13.453125 -17.972656 13.59375 -17.222656 13.59375 -16.265625 C 13.59375 -15.359375 13.441406 -14.632812 13.140625 -14.09375 C 12.835938 -13.5625 12.5 -13.1875 12.125 -12.96875 C 11.757812 -12.75 11.507812 -12.640625 11.375 -12.640625 Z M 11.375 -12.640625 "/></g></g></g><g fill="#fefefe" fill-opacity="1"><g transform="translate(24.857623, 104.332765)"><g><path d="M 3.484375 0.375 C 4.585938 0.375 5.546875 0.0390625 6.359375 -0.625 C 7.179688 -1.300781 7.851562 -2.203125 8.375 -3.328125 C 8.425781 -3.492188 8.503906 -3.628906 8.609375 -3.734375 C 8.722656 -3.847656 9.125 -3.90625 9.8125 -3.90625 L 12.859375 -3.859375 L 16.265625 -3.859375 C 16.921875 -3.859375 17.367188 -3.546875 17.609375 -2.921875 C 18.128906 -1.878906 18.8125 -1.101562 19.65625 -0.59375 C 20.507812 -0.0820312 21.375 0.171875 22.25 0.171875 C 23.070312 0.171875 23.828125 -0.0195312 24.515625 -0.40625 C 25.203125 -0.789062 25.734375 -1.351562 26.109375 -2.09375 C 26.390625 -2.664062 26.53125 -3.238281 26.53125 -3.8125 C 26.53125 -4.53125 26.269531 -5.546875 25.75 -6.859375 C 25.03125 -8.722656 23.820312 -12.238281 22.125 -17.40625 C 20.925781 -21 19.875 -24.019531 18.96875 -26.46875 C 18.0625 -28.914062 17.253906 -30.59375 16.546875 -31.5 C 15.535156 -32.613281 14.359375 -33.171875 13.015625 -33.171875 C 11.867188 -33.171875 10.828125 -32.734375 9.890625 -31.859375 C 9.734375 -31.703125 9.582031 -31.523438 9.4375 -31.328125 C 9.164062 -30.941406 8.660156 -29.832031 7.921875 -28 C 7.566406 -27.175781 4.679688 -19.9375 -0.734375 -6.28125 C -1.015625 -5.570312 -1.15625 -4.859375 -1.15625 -4.140625 C -1.15625 -3.265625 -0.945312 -2.390625 -0.53125 -1.515625 C -0.175781 -0.804688 0.25 -0.347656 0.75 -0.140625 C 1.257812 0.0664062 1.75 0.195312 2.21875 0.25 L 2.546875 0.28125 C 2.867188 0.34375 3.179688 0.375 3.484375 0.375 Z M 12.859375 -12.203125 C 12.390625 -12.203125 12.15625 -12.253906 12.15625 -12.359375 C 12.289062 -12.628906 12.476562 -12.984375 12.71875 -13.421875 C 12.96875 -13.859375 13.160156 -14.257812 13.296875 -14.625 C 13.378906 -14.625 13.453125 -14.609375 13.515625 -14.578125 C 13.734375 -13.921875 13.953125 -13.382812 14.171875 -12.96875 C 14.328125 -12.675781 14.40625 -12.472656 14.40625 -12.359375 C 14.40625 -12.304688 14.378906 -12.28125 14.328125 -12.28125 Z M 12.859375 -12.203125 "/></g></g></g><g fill="#fefefe" fill-opacity="1"><g transform="translate(46.866336, 104.332765)"><g><path d="M 13.09375 0.375 C 14.601562 0.375 15.84375 -0.109375 16.8125 -1.078125 C 17.78125 -2.054688 18.304688 -3.421875 18.390625 -5.171875 L 18.4375 -11.78125 L 18.390625 -17.828125 C 18.390625 -19.847656 18.429688 -21.144531 18.515625 -21.71875 C 18.546875 -22.070312 18.65625 -22.3125 18.84375 -22.4375 C 19.039062 -22.5625 19.191406 -22.625 19.296875 -22.625 C 20.085938 -22.625 20.957031 -22.664062 21.90625 -22.75 C 22.851562 -22.832031 23.679688 -23.066406 24.390625 -23.453125 C 26.035156 -24.410156 26.859375 -26.09375 26.859375 -28.5 C 26.859375 -29.894531 26.488281 -30.953125 25.75 -31.671875 C 25.007812 -32.398438 24.1875 -32.882812 23.28125 -33.125 C 22.375 -33.375 21.648438 -33.5 21.109375 -33.5 L 6.8125 -33.5 C 5.363281 -33.5 3.96875 -33.203125 2.625 -32.609375 C 0.601562 -31.703125 -0.40625 -30.140625 -0.40625 -27.921875 C -0.40625 -26.742188 -0.0234375 -25.71875 0.734375 -24.84375 C 1.503906 -23.96875 2.285156 -23.378906 3.078125 -23.078125 C 3.492188 -22.910156 3.945312 -22.789062 4.4375 -22.71875 C 4.925781 -22.65625 5.691406 -22.625 6.734375 -22.625 C 7.003906 -22.625 7.28125 -22.582031 7.5625 -22.5 C 7.851562 -22.414062 8.015625 -22.210938 8.046875 -21.890625 C 8.234375 -18.160156 8.328125 -13.050781 8.328125 -6.5625 L 8.328125 -4.765625 C 8.328125 -4.734375 8.382812 -4.453125 8.5 -3.921875 C 8.613281 -3.390625 8.832031 -2.796875 9.15625 -2.140625 C 9.488281 -1.484375 9.96875 -0.898438 10.59375 -0.390625 C 11.21875 0.117188 12.050781 0.375 13.09375 0.375 Z M 13.09375 0.375 "/></g></g></g><g fill="#fefefe" fill-opacity="1"><g transform="translate(69.942737, 104.332765)"><g><path d="M 3.484375 0.375 C 4.585938 0.375 5.546875 0.0390625 6.359375 -0.625 C 7.179688 -1.300781 7.851562 -2.203125 8.375 -3.328125 C 8.425781 -3.492188 8.503906 -3.628906 8.609375 -3.734375 C 8.722656 -3.847656 9.125 -3.90625 9.8125 -3.90625 L 12.859375 -3.859375 L 16.265625 -3.859375 C 16.921875 -3.859375 17.367188 -3.546875 17.609375 -2.921875 C 18.128906 -1.878906 18.8125 -1.101562 19.65625 -0.59375 C 20.507812 -0.0820312 21.375 0.171875 22.25 0.171875 C 23.070312 0.171875 23.828125 -0.0195312 24.515625 -0.40625 C 25.203125 -0.789062 25.734375 -1.351562 26.109375 -2.09375 C 26.390625 -2.664062 26.53125 -3.238281 26.53125 -3.8125 C 26.53125 -4.53125 26.269531 -5.546875 25.75 -6.859375 C 25.03125 -8.722656 23.820312 -12.238281 22.125 -17.40625 C 20.925781 -21 19.875 -24.019531 18.96875 -26.46875 C 18.0625 -28.914062 17.253906 -30.59375 16.546875 -31.5 C 15.535156 -32.613281 14.359375 -33.171875 13.015625 -33.171875 C 11.867188 -33.171875 10.828125 -32.734375 9.890625 -31.859375 C 9.734375 -31.703125 9.582031 -31.523438 9.4375 -31.328125 C 9.164062 -30.941406 8.660156 -29.832031 7.921875 -28 C 7.566406 -27.175781 4.679688 -19.9375 -0.734375 -6.28125 C -1.015625 -5.570312 -1.15625 -4.859375 -1.15625 -4.140625 C -1.15625 -3.265625 -0.945312 -2.390625 -0.53125 -1.515625 C -0.175781 -0.804688 0.25 -0.347656 0.75 -0.140625 C 1.257812 0.0664062 1.75 0.195312 2.21875 0.25 L 2.546875 0.28125 C 2.867188 0.34375 3.179688 0.375 3.484375 0.375 Z M 12.859375 -12.203125 C 12.390625 -12.203125 12.15625 -12.253906 12.15625 -12.359375 C 12.289062 -12.628906 12.476562 -12.984375 12.71875 -13.421875 C 12.96875 -13.859375 13.160156 -14.257812 13.296875 -14.625 C 13.378906 -14.625 13.453125 -14.609375 13.515625 -14.578125 C 13.734375 -13.921875 13.953125 -13.382812 14.171875 -12.96875 C 14.328125 -12.675781 14.40625 -12.472656 14.40625 -12.359375 C 14.40625 -12.304688 14.378906 -12.28125 14.328125 -12.28125 Z M 12.859375 -12.203125 "/></g></g></g><g fill="#fefefe" fill-opacity="1"><g transform="translate(0.836191, 161.332757)"><g><path d="M 6.234375 0.65625 C 7.554688 0.65625 8.8125 0.300781 10 -0.40625 C 11.1875 -1.125 11.847656 -2.257812 11.984375 -3.8125 C 12.015625 -5.15625 12.03125 -6.28125 12.03125 -7.1875 C 12.03125 -8.09375 12.050781 -8.769531 12.09375 -9.21875 C 12.132812 -9.664062 12.265625 -9.890625 12.484375 -9.890625 L 13.96875 -9.9375 C 14.207031 -9.9375 14.359375 -9.914062 14.421875 -9.875 C 14.492188 -9.832031 14.53125 -9.757812 14.53125 -9.65625 L 14.53125 -8.25 C 14.53125 -5.875 14.597656 -4.132812 14.734375 -3.03125 C 14.953125 -1.832031 15.539062 -0.925781 16.5 -0.3125 C 17.457031 0.300781 18.523438 0.609375 19.703125 0.609375 C 20.523438 0.609375 21.332031 0.429688 22.125 0.078125 C 23.882812 -0.679688 24.765625 -2.0625 24.765625 -4.0625 C 24.765625 -8.632812 24.789062 -12.375 24.84375 -15.28125 C 24.875 -17.738281 24.890625 -21.421875 24.890625 -26.328125 C 24.890625 -28.078125 24.613281 -29.429688 24.0625 -30.390625 C 23.070312 -32.109375 21.550781 -32.96875 19.5 -32.96875 C 18.675781 -32.96875 17.941406 -32.851562 17.296875 -32.625 C 16.660156 -32.394531 16.21875 -32.140625 15.96875 -31.859375 C 15.363281 -31.097656 14.988281 -30.148438 14.84375 -29.015625 C 14.695312 -27.878906 14.625 -26.789062 14.625 -25.75 L 14.703125 -20.28125 C 14.703125 -18.644531 14.566406 -17.828125 14.296875 -17.828125 L 13.015625 -17.78125 C 12.628906 -17.78125 12.394531 -17.828125 12.3125 -17.921875 C 12.238281 -18.015625 12.203125 -18.210938 12.203125 -18.515625 L 12.28125 -25.5 L 12.234375 -28.046875 C 12.234375 -29.253906 11.914062 -30.234375 11.28125 -30.984375 C 10.65625 -31.734375 9.867188 -32.28125 8.921875 -32.625 C 7.984375 -32.96875 7.050781 -33.140625 6.125 -33.140625 C 4.800781 -33.140625 3.726562 -32.570312 2.90625 -31.4375 C 2.09375 -30.300781 1.65625 -28.773438 1.59375 -26.859375 L 1.4375 -11.78125 C 1.46875 -10.113281 1.484375 -8.085938 1.484375 -5.703125 C 1.484375 -4.335938 1.550781 -3.269531 1.6875 -2.5 C 1.820312 -1.738281 2.160156 -1.070312 2.703125 -0.5 C 3.609375 0.269531 4.785156 0.65625 6.234375 0.65625 Z M 6.234375 0.65625 "/></g></g></g><g fill="#fefefe" fill-opacity="1"><g transform="translate(27.814238, 161.332757)"><g><path d="M 13.296875 0.78125 C 15.816406 0.78125 17.972656 0.101562 19.765625 -1.25 C 21.566406 -2.601562 22.953125 -4.28125 23.921875 -6.28125 C 24.890625 -8.28125 25.375 -10.265625 25.375 -12.234375 C 25.570312 -15.109375 25.671875 -17.65625 25.671875 -19.875 C 25.671875 -21.539062 25.640625 -23.019531 25.578125 -24.3125 L 25.546875 -27.015625 C 25.546875 -28.328125 25.234375 -29.421875 24.609375 -30.296875 C 23.992188 -31.179688 23.269531 -31.832031 22.4375 -32.25 C 21.601562 -32.675781 20.84375 -32.890625 20.15625 -32.890625 C 18.875 -32.890625 17.734375 -32.3125 16.734375 -31.15625 C 15.734375 -30.007812 15.191406 -28.6875 15.109375 -27.1875 C 15.023438 -24.257812 14.984375 -21.492188 14.984375 -18.890625 C 14.984375 -16.148438 14.925781 -14.304688 14.8125 -13.359375 C 14.707031 -12.421875 14.34375 -11.953125 13.71875 -11.953125 C 13.113281 -11.953125 12.734375 -12.378906 12.578125 -13.234375 C 12.429688 -14.097656 12.359375 -15.160156 12.359375 -16.421875 L 12.359375 -19.171875 L 12.3125 -21.234375 L 12.359375 -23.9375 C 12.359375 -25.664062 12.191406 -27.160156 11.859375 -28.421875 C 11.722656 -28.742188 11.519531 -29.179688 11.25 -29.734375 C 10.1875 -31.785156 8.765625 -32.8125 6.984375 -32.8125 C 4.546875 -32.8125 2.890625 -31.8125 2.015625 -29.8125 C 1.296875 -28.195312 0.9375 -25.078125 0.9375 -20.453125 C 0.9375 -17.929688 1.035156 -15.316406 1.234375 -12.609375 C 1.316406 -11.234375 1.597656 -9.769531 2.078125 -8.21875 C 2.554688 -6.675781 3.265625 -5.226562 4.203125 -3.875 C 5.148438 -2.519531 6.367188 -1.40625 7.859375 -0.53125 C 9.347656 0.34375 11.160156 0.78125 13.296875 0.78125 Z M 13.296875 0.78125 "/></g></g></g><g fill="#fefefe" fill-opacity="1"><g transform="translate(55.161837, 161.332757)"><g><path d="M 13.1875 -0.078125 C 14.882812 -0.078125 16.332031 -0.21875 17.53125 -0.5 C 20.050781 -1.175781 21.941406 -2.457031 23.203125 -4.34375 C 24.460938 -6.238281 25.09375 -8.28125 25.09375 -10.46875 C 25.09375 -12.113281 24.742188 -13.707031 24.046875 -15.25 C 23.347656 -16.800781 22.300781 -18.109375 20.90625 -19.171875 C 20.6875 -19.335938 20.519531 -19.472656 20.40625 -19.578125 C 20.300781 -19.691406 20.25 -19.816406 20.25 -19.953125 C 20.25 -20.117188 20.328125 -20.367188 20.484375 -20.703125 C 21.035156 -21.984375 21.3125 -23.253906 21.3125 -24.515625 C 21.3125 -26.460938 20.710938 -28.203125 19.515625 -29.734375 C 18.328125 -31.265625 16.664062 -32.332031 14.53125 -32.9375 C 13.46875 -33.207031 12.414062 -33.34375 11.375 -33.34375 C 10.664062 -33.34375 9.953125 -33.3125 9.234375 -33.25 C 8.523438 -33.195312 7.773438 -33.160156 6.984375 -33.140625 C 5.640625 -33.085938 4.472656 -32.738281 3.484375 -32.09375 C 2.503906 -31.445312 1.890625 -30.441406 1.640625 -29.078125 C 1.535156 -28.390625 1.46875 -25.019531 1.4375 -18.96875 L 1.390625 -16.21875 L 1.4375 -4.640625 C 1.4375 -3.078125 1.847656 -1.929688 2.671875 -1.203125 C 3.492188 -0.484375 4.394531 -0.125 5.375 -0.125 Z M 12.109375 -8.875 C 11.972656 -8.875 11.90625 -8.953125 11.90625 -9.109375 L 11.859375 -12.8125 C 11.859375 -13.164062 11.875 -13.4375 11.90625 -13.625 C 11.9375 -13.820312 12.035156 -13.921875 12.203125 -13.921875 C 12.710938 -13.890625 13.132812 -13.640625 13.46875 -13.171875 C 13.800781 -12.710938 13.96875 -12.15625 13.96875 -11.5 C 13.96875 -10.976562 13.835938 -10.476562 13.578125 -10 C 13.316406 -9.519531 12.882812 -9.15625 12.28125 -8.90625 Z M 11.953125 -21.390625 L 11.953125 -25.125 C 12.828125 -25.125 13.265625 -24.492188 13.265625 -23.234375 C 13.265625 -22.796875 13.179688 -22.378906 13.015625 -21.984375 C 12.847656 -21.585938 12.492188 -21.390625 11.953125 -21.390625 Z M 11.953125 -21.390625 "/></g></g></g></g></g></g></g></g></svg>