<svg xmlns="http://www.w3.org/2000/svg" xmlns:xlink="http://www.w3.org/1999/xlink" width="500" zoomAndPan="magnify" viewBox="0 0 375 74.999997" height="100" preserveAspectRatio="xMidYMid meet" version="1.0"><defs><g/><clipPath id="01b576f466"><path d="M 12.277344 0.832031 L 24.320312 0.832031 L 24.320312 58.171875 L 12.277344 58.171875 Z M 12.277344 0.832031 " clip-rule="nonzero"/></clipPath><clipPath id="1b7b2caef8"><path d="M 24.320312 6.851562 L 24.320312 52.144531 C 24.320312 53.742188 23.6875 55.273438 22.558594 56.402344 C 21.429688 57.53125 19.898438 58.164062 18.300781 58.164062 C 16.703125 58.164062 15.171875 57.53125 14.042969 56.402344 C 12.914062 55.273438 12.277344 53.742188 12.277344 52.144531 L 12.277344 6.851562 C 12.277344 5.257812 12.914062 3.722656 14.042969 2.59375 C 15.171875 1.464844 16.703125 0.832031 18.300781 0.832031 C 19.898438 0.832031 21.429688 1.464844 22.558594 2.59375 C 23.6875 3.722656 24.320312 5.257812 24.320312 6.851562 Z M 24.320312 6.851562 " clip-rule="nonzero"/></clipPath><clipPath id="1e17e7b995"><path d="M 0.277344 0.832031 L 12.320312 0.832031 L 12.320312 58.171875 L 0.277344 58.171875 Z M 0.277344 0.832031 " clip-rule="nonzero"/></clipPath><clipPath id="79ff42d22f"><path d="M 12.320312 6.851562 L 12.320312 52.144531 C 12.320312 53.742188 11.6875 55.273438 10.558594 56.402344 C 9.429688 57.53125 7.898438 58.164062 6.300781 58.164062 C 4.703125 58.164062 3.171875 57.53125 2.042969 56.402344 C 0.914062 55.273438 0.277344 53.742188 0.277344 52.144531 L 0.277344 6.851562 C 0.277344 5.257812 0.914062 3.722656 2.042969 2.59375 C 3.171875 1.464844 4.703125 0.832031 6.300781 0.832031 C 7.898438 0.832031 9.429688 1.464844 10.558594 2.59375 C 11.6875 3.722656 12.320312 5.257812 12.320312 6.851562 Z M 12.320312 6.851562 " clip-rule="nonzero"/></clipPath><clipPath id="13625d6b0b"><rect x="0" width="13" y="0" height="59"/></clipPath><clipPath id="f5f28aaeaa"><path d="M 0.378906 24.511719 L 24.15625 24.511719 L 24.15625 36.878906 L 0.378906 36.878906 Z M 0.378906 24.511719 " clip-rule="nonzero"/></clipPath><clipPath id="a239d1eaae"><path d="M 17.96875 36.878906 L 6.605469 36.878906 C 4.964844 36.878906 3.394531 36.230469 2.234375 35.070312 C 1.074219 33.910156 0.421875 32.335938 0.421875 30.695312 C 0.421875 29.054688 1.074219 27.480469 2.234375 26.320312 C 3.394531 25.160156 4.964844 24.511719 6.605469 24.511719 L 17.96875 24.511719 C 19.609375 24.511719 21.183594 25.160156 22.34375 26.320312 C 23.503906 27.480469 24.15625 29.054688 24.15625 30.695312 C 24.15625 32.335938 23.503906 33.910156 22.34375 35.070312 C 21.183594 36.230469 19.609375 36.878906 17.96875 36.878906 Z M 17.96875 36.878906 " clip-rule="nonzero"/></clipPath><clipPath id="7c47309017"><path d="M 0.378906 0.511719 L 24.15625 0.511719 L 24.15625 12.878906 L 0.378906 12.878906 Z M 0.378906 0.511719 " clip-rule="nonzero"/></clipPath><clipPath id="850150148e"><path d="M 17.96875 12.878906 L 6.605469 12.878906 C 4.964844 12.878906 3.394531 12.230469 2.234375 11.070312 C 1.074219 9.910156 0.421875 8.335938 0.421875 6.695312 C 0.421875 5.054688 1.074219 3.480469 2.234375 2.320312 C 3.394531 1.160156 4.964844 0.511719 6.605469 0.511719 L 17.96875 0.511719 C 19.609375 0.511719 21.183594 1.160156 22.34375 2.320312 C 23.503906 3.480469 24.15625 5.054688 24.15625 6.695312 C 24.15625 8.335938 23.503906 9.910156 22.34375 11.070312 C 21.183594 12.230469 19.609375 12.878906 17.96875 12.878906 Z M 17.96875 12.878906 " clip-rule="nonzero"/></clipPath><clipPath id="29608a4c67"><rect x="0" width="25" y="0" height="13"/></clipPath><clipPath id="831ba0d8ea"><path d="M 33.753906 0.816406 L 45.792969 0.816406 L 45.792969 25.835938 L 33.753906 25.835938 Z M 33.753906 0.816406 " clip-rule="nonzero"/></clipPath><clipPath id="0af2331493"><path d="M 33.753906 19.816406 L 33.753906 6.851562 C 33.753906 5.253906 34.386719 3.722656 35.515625 2.59375 C 36.644531 1.464844 38.175781 0.832031 39.773438 0.832031 C 41.371094 0.832031 42.902344 1.464844 44.03125 2.59375 C 45.160156 3.722656 45.792969 5.253906 45.792969 6.851562 L 45.792969 19.816406 C 45.792969 21.410156 45.160156 22.941406 44.03125 24.070312 C 42.902344 25.199219 41.371094 25.835938 39.773438 25.835938 C 38.175781 25.835938 36.644531 25.199219 35.515625 24.070312 C 34.386719 22.941406 33.753906 21.410156 33.753906 19.816406 Z M 33.753906 19.816406 " clip-rule="nonzero"/></clipPath><clipPath id="8120f1ff7b"><path d="M 0.753906 0.816406 L 12.792969 0.816406 L 12.792969 25.835938 L 0.753906 25.835938 Z M 0.753906 0.816406 " clip-rule="nonzero"/></clipPath><clipPath id="0675b8c2d8"><path d="M 0.753906 19.816406 L 0.753906 6.851562 C 0.753906 5.253906 1.386719 3.722656 2.515625 2.59375 C 3.644531 1.464844 5.175781 0.832031 6.773438 0.832031 C 8.371094 0.832031 9.902344 1.464844 11.03125 2.59375 C 12.160156 3.722656 12.792969 5.253906 12.792969 6.851562 L 12.792969 19.816406 C 12.792969 21.410156 12.160156 22.941406 11.03125 24.070312 C 9.902344 25.199219 8.371094 25.835938 6.773438 25.835938 C 5.175781 25.835938 3.644531 25.199219 2.515625 24.070312 C 1.386719 22.941406 0.753906 21.410156 0.753906 19.816406 Z M 0.753906 19.816406 " clip-rule="nonzero"/></clipPath><clipPath id="4525d398db"><rect x="0" width="13" y="0" height="26"/></clipPath><clipPath id="47ee6a0c8f"><path d="M 19.183594 21.136719 L 42.929688 21.136719 L 42.929688 30.308594 L 19.183594 30.308594 Z M 19.183594 21.136719 " clip-rule="nonzero"/></clipPath><clipPath id="f5c0279998"><path d="M 38.34375 30.308594 L 23.78125 30.308594 C 21.246094 30.308594 19.195312 28.253906 19.195312 25.722656 C 19.195312 23.191406 21.246094 21.136719 23.78125 21.136719 L 38.34375 21.136719 C 40.875 21.136719 42.929688 23.191406 42.929688 25.722656 C 42.929688 28.253906 40.875 30.308594 38.34375 30.308594 Z M 38.34375 30.308594 " clip-rule="nonzero"/></clipPath><clipPath id="77757b0e4a"><path d="M 0.183594 0.136719 L 23.929688 0.136719 L 23.929688 9.308594 L 0.183594 9.308594 Z M 0.183594 0.136719 " clip-rule="nonzero"/></clipPath><clipPath id="d03af0b34a"><path d="M 19.34375 9.308594 L 4.78125 9.308594 C 2.246094 9.308594 0.195312 7.253906 0.195312 4.722656 C 0.195312 2.191406 2.246094 0.136719 4.78125 0.136719 L 19.34375 0.136719 C 21.875 0.136719 23.929688 2.191406 23.929688 4.722656 C 23.929688 7.253906 21.875 9.308594 19.34375 9.308594 Z M 19.34375 9.308594 " clip-rule="nonzero"/></clipPath><clipPath id="087fb6db91"><rect x="0" width="24" y="0" height="10"/></clipPath><clipPath id="20b64dbe19"><path d="M 33.8125 35.449219 L 45.875 35.449219 L 45.875 58.164062 L 33.8125 58.164062 Z M 33.8125 35.449219 " clip-rule="nonzero"/></clipPath><clipPath id="31cbe19cf7"><path d="M 33.8125 52.132812 L 33.8125 41.519531 C 33.8125 39.921875 34.449219 38.386719 35.578125 37.257812 C 36.710938 36.125 38.246094 35.488281 39.84375 35.488281 C 41.445312 35.488281 42.976562 36.125 44.109375 37.257812 C 45.238281 38.386719 45.875 39.921875 45.875 41.519531 L 45.875 52.132812 C 45.875 53.730469 45.238281 55.265625 44.109375 56.398438 C 42.976562 57.527344 41.445312 58.164062 39.84375 58.164062 C 38.246094 58.164062 36.710938 57.527344 35.578125 56.398438 C 34.449219 55.265625 33.8125 53.730469 33.8125 52.132812 Z M 33.8125 52.132812 " clip-rule="nonzero"/></clipPath><clipPath id="ee2b65290f"><path d="M 0.8125 0.449219 L 12.875 0.449219 L 12.875 23.164062 L 0.8125 23.164062 Z M 0.8125 0.449219 " clip-rule="nonzero"/></clipPath><clipPath id="dcb6ea1faa"><path d="M 0.8125 17.132812 L 0.8125 6.519531 C 0.8125 4.921875 1.449219 3.386719 2.578125 2.257812 C 3.710938 1.125 5.246094 0.488281 6.84375 0.488281 C 8.445312 0.488281 9.976562 1.125 11.109375 2.257812 C 12.238281 3.386719 12.875 4.921875 12.875 6.519531 L 12.875 17.132812 C 12.875 18.730469 12.238281 20.265625 11.109375 21.398438 C 9.976562 22.527344 8.445312 23.164062 6.84375 23.164062 C 5.246094 23.164062 3.710938 22.527344 2.578125 21.398438 C 1.449219 20.265625 0.8125 18.730469 0.8125 17.132812 Z M 0.8125 17.132812 " clip-rule="nonzero"/></clipPath><clipPath id="94f137ebe8"><rect x="0" width="13" y="0" height="24"/></clipPath><clipPath id="81c2730780"><path d="M 7 22 L 16 22 L 16 29 L 7 29 Z M 7 22 " clip-rule="nonzero"/></clipPath><clipPath id="5562428ea5"><path d="M 14.039062 29.785156 L 7.566406 28.023438 L 9.328125 21.550781 L 15.800781 23.3125 Z M 14.039062 29.785156 " clip-rule="nonzero"/></clipPath><clipPath id="c2b3cd01aa"><path d="M 15.800781 23.3125 C 15.335938 25.019531 14.191406 26.496094 12.65625 27.375 C 11.125 28.25 9.269531 28.488281 7.566406 28.023438 L 8.464844 24.722656 C 9.300781 24.949219 10.207031 24.832031 10.957031 24.402344 C 11.710938 23.972656 12.269531 23.25 12.496094 22.414062 Z M 15.800781 23.3125 " clip-rule="nonzero"/></clipPath><clipPath id="43e39484d9"><path d="M 0.441406 0.238281 L 8.839844 0.238281 L 8.839844 6.71875 L 0.441406 6.71875 Z M 0.441406 0.238281 " clip-rule="nonzero"/></clipPath><clipPath id="5b84eca6ab"><path d="M 7.039062 7.785156 L 0.566406 6.023438 L 2.328125 -0.449219 L 8.800781 1.3125 Z M 7.039062 7.785156 " clip-rule="nonzero"/></clipPath><clipPath id="4106542085"><path d="M 8.800781 1.3125 C 8.335938 3.019531 7.191406 4.496094 5.65625 5.375 C 4.125 6.25 2.269531 6.488281 0.566406 6.023438 L 1.464844 2.722656 C 2.300781 2.949219 3.207031 2.832031 3.957031 2.402344 C 4.710938 1.972656 5.269531 1.25 5.496094 0.414062 Z M 8.800781 1.3125 " clip-rule="nonzero"/></clipPath><clipPath id="e91934a886"><rect x="0" width="9" y="0" height="7"/></clipPath><clipPath id="85a4faa82f"><path d="M 9 33 L 16 33 L 16 41 L 9 41 Z M 9 33 " clip-rule="nonzero"/></clipPath><clipPath id="977d87ee14"><path d="M 16.5 33.933594 L 15.730469 40.597656 L 9.066406 39.828125 L 9.835938 33.164062 Z M 16.5 33.933594 " clip-rule="nonzero"/></clipPath><clipPath id="9cf4d9e46c"><path d="M 9.835938 33.164062 C 11.59375 33.367188 13.226562 34.277344 14.324219 35.660156 C 15.421875 37.046875 15.933594 38.84375 15.730469 40.597656 L 12.332031 40.207031 C 12.429688 39.347656 12.179688 38.464844 11.640625 37.789062 C 11.105469 37.109375 10.304688 36.664062 9.445312 36.566406 Z M 9.835938 33.164062 " clip-rule="nonzero"/></clipPath><clipPath id="063915cd5e"><path d="M 0.359375 0.0390625 L 7 0.0390625 L 7 7.71875 L 0.359375 7.71875 Z M 0.359375 0.0390625 " clip-rule="nonzero"/></clipPath><clipPath id="d1b93f6440"><path d="M 7.5 0.933594 L 6.730469 7.597656 L 0.0664062 6.828125 L 0.835938 0.164062 Z M 7.5 0.933594 " clip-rule="nonzero"/></clipPath><clipPath id="e0ad382f8b"><path d="M 0.835938 0.164062 C 2.59375 0.367188 4.226562 1.277344 5.324219 2.660156 C 6.421875 4.046875 6.933594 5.84375 6.730469 7.597656 L 3.332031 7.207031 C 3.429688 6.347656 3.179688 5.464844 2.640625 4.789062 C 2.105469 4.109375 1.304688 3.664062 0.445312 3.566406 Z M 0.835938 0.164062 " clip-rule="nonzero"/></clipPath><clipPath id="8142a13442"><rect x="0" width="7" y="0" height="8"/></clipPath><clipPath id="71f98ca703"><path d="M 20.804688 26.660156 L 27.511719 26.660156 L 27.511719 33.371094 L 20.804688 33.371094 Z M 20.804688 26.660156 " clip-rule="nonzero"/></clipPath><clipPath id="bb3e88e150"><path d="M 20.804688 33.371094 C 20.804688 31.601562 21.519531 29.875 22.769531 28.625 C 24.019531 27.375 25.746094 26.660156 27.511719 26.660156 L 27.511719 30.082031 C 26.648438 30.082031 25.800781 30.433594 25.1875 31.046875 C 24.578125 31.65625 24.226562 32.503906 24.226562 33.371094 Z M 20.804688 33.371094 " clip-rule="nonzero"/></clipPath><clipPath id="c8630092ea"><path d="M 0.804688 0.660156 L 7.511719 0.660156 L 7.511719 7.371094 L 0.804688 7.371094 Z M 0.804688 0.660156 " clip-rule="nonzero"/></clipPath><clipPath id="f18766b0f0"><path d="M 0.804688 7.371094 C 0.804688 5.601562 1.519531 3.875 2.769531 2.625 C 4.019531 1.375 5.746094 0.660156 7.511719 0.660156 L 7.511719 4.082031 C 6.648438 4.082031 5.800781 4.433594 5.1875 5.046875 C 4.578125 5.65625 4.226562 6.503906 4.226562 7.371094 Z M 0.804688 7.371094 " clip-rule="nonzero"/></clipPath><clipPath id="80557f43c8"><rect x="0" width="8" y="0" height="8"/></clipPath><clipPath id="5573150ce6"><path d="M 20 18 L 28 18 L 28 25 L 20 25 Z M 20 18 " clip-rule="nonzero"/></clipPath><clipPath id="4ee71d7c2e"><path d="M 21.21875 25.136719 L 20.738281 18.445312 L 27.429688 17.964844 L 27.910156 24.65625 Z M 21.21875 25.136719 " clip-rule="nonzero"/></clipPath><clipPath id="5045248e03"><path d="M 27.910156 24.65625 C 26.148438 24.78125 24.375 24.191406 23.039062 23.035156 C 21.703125 21.878906 20.863281 20.207031 20.738281 18.445312 L 24.152344 18.199219 C 24.210938 19.0625 24.621094 19.882812 25.277344 20.449219 C 25.929688 21.015625 26.800781 21.304688 27.664062 21.242188 Z M 27.910156 24.65625 " clip-rule="nonzero"/></clipPath><clipPath id="f987fbfcc5"><path d="M 0.640625 0.160156 L 8 0.160156 L 8 6.878906 L 0.640625 6.878906 Z M 0.640625 0.160156 " clip-rule="nonzero"/></clipPath><clipPath id="9ceed26ffe"><path d="M 1.21875 7.136719 L 0.738281 0.445312 L 7.429688 -0.0351562 L 7.910156 6.65625 Z M 1.21875 7.136719 " clip-rule="nonzero"/></clipPath><clipPath id="b14d48b112"><path d="M 7.910156 6.65625 C 6.148438 6.78125 4.375 6.191406 3.039062 5.035156 C 1.703125 3.878906 0.863281 2.207031 0.738281 0.445312 L 4.152344 0.199219 C 4.210938 1.0625 4.621094 1.882812 5.277344 2.449219 C 5.929688 3.015625 6.800781 3.304688 7.664062 3.242188 Z M 7.910156 6.65625 " clip-rule="nonzero"/></clipPath><clipPath id="116d3f217e"><rect x="0" width="8" y="0" height="7"/></clipPath><clipPath id="a97cc97bad"><path d="M 38.890625 23.082031 L 45.792969 23.082031 L 45.792969 30.308594 L 38.890625 30.308594 Z M 38.890625 23.082031 " clip-rule="nonzero"/></clipPath><clipPath id="1a29520a9e"><path d="M 45.792969 23.101562 C 45.792969 25 45.054688 26.855469 43.769531 28.199219 C 42.484375 29.539062 40.707031 30.308594 38.890625 30.308594 L 38.890625 26.632812 C 39.78125 26.632812 40.652344 26.253906 41.28125 25.597656 C 41.910156 24.941406 42.269531 24.03125 42.269531 23.101562 Z M 45.792969 23.101562 " clip-rule="nonzero"/></clipPath><clipPath id="8ac9843fbc"><path d="M 0.890625 0.0820312 L 7.792969 0.0820312 L 7.792969 7.308594 L 0.890625 7.308594 Z M 0.890625 0.0820312 " clip-rule="nonzero"/></clipPath><clipPath id="962b8b2f65"><path d="M 7.792969 0.101562 C 7.792969 2 7.054688 3.855469 5.769531 5.199219 C 4.484375 6.539062 2.707031 7.308594 0.890625 7.308594 L 0.890625 3.632812 C 1.78125 3.632812 2.652344 3.253906 3.28125 2.597656 C 3.910156 1.941406 4.269531 1.03125 4.269531 0.101562 Z M 7.792969 0.101562 " clip-rule="nonzero"/></clipPath><clipPath id="0ff35d7af7"><rect x="0" width="8" y="0" height="8"/></clipPath><clipPath id="b2fb739969"><path d="M 34.140625 15.746094 L 45.792969 15.746094 L 45.792969 23.4375 L 34.140625 23.4375 Z M 34.140625 15.746094 " clip-rule="nonzero"/></clipPath><clipPath id="1aeb8ed458"><path d="M 0.140625 0.746094 L 11.792969 0.746094 L 11.792969 8.4375 L 0.140625 8.4375 Z M 0.140625 0.746094 " clip-rule="nonzero"/></clipPath><clipPath id="f9f1f3c0f7"><rect x="0" width="12" y="0" height="9"/></clipPath><clipPath id="d0e73207ce"><path d="M 33.753906 35.429688 L 45.8125 35.429688 L 45.8125 47.582031 L 33.753906 47.582031 Z M 33.753906 35.429688 " clip-rule="nonzero"/></clipPath><clipPath id="0b3707e1bb"><path d="M 45.8125 41.460938 L 45.8125 41.523438 C 45.8125 44.851562 43.113281 47.550781 39.78125 47.550781 C 36.453125 47.550781 33.753906 44.851562 33.753906 41.523438 L 33.753906 41.460938 C 33.753906 38.128906 36.453125 35.429688 39.78125 35.429688 C 43.113281 35.429688 45.8125 38.128906 45.8125 41.460938 Z M 45.8125 41.460938 " clip-rule="nonzero"/></clipPath><clipPath id="91432c9c34"><path d="M 0.753906 0.429688 L 12.8125 0.429688 L 12.8125 12.582031 L 0.753906 12.582031 Z M 0.753906 0.429688 " clip-rule="nonzero"/></clipPath><clipPath id="4db88e4804"><path d="M 12.8125 6.460938 L 12.8125 6.523438 C 12.8125 9.851562 10.113281 12.550781 6.78125 12.550781 C 3.453125 12.550781 0.753906 9.851562 0.753906 6.523438 L 0.753906 6.460938 C 0.753906 3.128906 3.453125 0.429688 6.78125 0.429688 C 10.113281 0.429688 12.8125 3.128906 12.8125 6.460938 Z M 12.8125 6.460938 " clip-rule="nonzero"/></clipPath><clipPath id="bf19fd9505"><rect x="0" width="13" y="0" height="13"/></clipPath><clipPath id="3246168f20"><path d="M 52 6 L 237.839844 6 L 237.839844 53 L 52 53 Z M 52 6 " clip-rule="nonzero"/></clipPath><clipPath id="f130388d52"><rect x="0" width="186" y="0" height="47"/></clipPath><clipPath id="c0fa1018ff"><rect x="0" width="238" y="0" height="59"/></clipPath></defs><g transform="matrix(1, 0, 0, 1, 66, 8)"><g clip-path="url(#c0fa1018ff)"><g clip-path="url(#01b576f466)"><g clip-path="url(#1b7b2caef8)"><g transform="matrix(1, 0, 0, 1, 12, -0.000000000000001776)"><g clip-path="url(#13625d6b0b)"><g clip-path="url(#1e17e7b995)"><g clip-path="url(#79ff42d22f)"><path fill="#e2a03b" d="M 12.320312 0.832031 L 12.320312 58.171875 L 0.277344 58.171875 L 0.277344 0.832031 Z M 12.320312 0.832031 " fill-opacity="1" fill-rule="nonzero"/></g></g></g></g></g></g><g clip-path="url(#f5f28aaeaa)"><g clip-path="url(#a239d1eaae)"><g transform="matrix(1, 0, 0, 1, 0, 24)"><g clip-path="url(#29608a4c67)"><g clip-path="url(#7c47309017)"><g clip-path="url(#850150148e)"><path fill="#e2a03b" d="M 24.15625 12.878906 L 0.429688 12.878906 L 0.429688 0.511719 L 24.15625 0.511719 Z M 24.15625 12.878906 " fill-opacity="1" fill-rule="nonzero"/></g></g></g></g></g></g><g clip-path="url(#831ba0d8ea)"><g clip-path="url(#0af2331493)"><g transform="matrix(1, 0, 0, 1, 33, -0.000000000000001776)"><g clip-path="url(#4525d398db)"><g clip-path="url(#8120f1ff7b)"><g clip-path="url(#0675b8c2d8)"><path fill="#e2a03b" d="M 0.753906 25.835938 L 0.753906 0.816406 L 12.792969 0.816406 L 12.792969 25.835938 Z M 0.753906 25.835938 " fill-opacity="1" fill-rule="nonzero"/></g></g></g></g></g></g><g clip-path="url(#47ee6a0c8f)"><g clip-path="url(#f5c0279998)"><g transform="matrix(1, 0, 0, 1, 19, 21)"><g clip-path="url(#087fb6db91)"><g clip-path="url(#77757b0e4a)"><g clip-path="url(#d03af0b34a)"><path fill="#e2a03b" d="M 23.929688 9.308594 L 0.183594 9.308594 L 0.183594 0.136719 L 23.929688 0.136719 Z M 23.929688 9.308594 " fill-opacity="1" fill-rule="nonzero"/></g></g></g></g></g></g><g clip-path="url(#20b64dbe19)"><g clip-path="url(#31cbe19cf7)"><g transform="matrix(1, 0, 0, 1, 33, 35)"><g clip-path="url(#94f137ebe8)"><g clip-path="url(#ee2b65290f)"><g clip-path="url(#dcb6ea1faa)"><path fill="#e2a03b" d="M 0.8125 23.164062 L 0.8125 0.5 L 12.875 0.5 L 12.875 23.164062 Z M 0.8125 23.164062 " fill-opacity="1" fill-rule="nonzero"/></g></g></g></g></g></g><g clip-path="url(#81c2730780)"><g clip-path="url(#5562428ea5)"><g clip-path="url(#c2b3cd01aa)"><g transform="matrix(1, 0, 0, 1, 7, 22)"><g clip-path="url(#e91934a886)"><g clip-path="url(#43e39484d9)"><g clip-path="url(#5b84eca6ab)"><g clip-path="url(#4106542085)"><path fill="#e2a03b" d="M 7.039062 7.785156 L 0.566406 6.023438 L 2.328125 -0.449219 L 8.800781 1.3125 Z M 7.039062 7.785156 " fill-opacity="1" fill-rule="nonzero"/></g></g></g></g></g></g></g></g><g clip-path="url(#85a4faa82f)"><g clip-path="url(#977d87ee14)"><g clip-path="url(#9cf4d9e46c)"><g transform="matrix(1, 0, 0, 1, 9, 33)"><g clip-path="url(#8142a13442)"><g clip-path="url(#063915cd5e)"><g clip-path="url(#d1b93f6440)"><g clip-path="url(#e0ad382f8b)"><path fill="#e2a03b" d="M 7.5 0.933594 L 6.730469 7.597656 L 0.0664062 6.828125 L 0.835938 0.164062 Z M 7.5 0.933594 " fill-opacity="1" fill-rule="nonzero"/></g></g></g></g></g></g></g></g><g clip-path="url(#71f98ca703)"><g clip-path="url(#bb3e88e150)"><g transform="matrix(1, 0, 0, 1, 20, 26)"><g clip-path="url(#80557f43c8)"><g clip-path="url(#c8630092ea)"><g clip-path="url(#f18766b0f0)"><path fill="#e2a03b" d="M 0.804688 0.660156 L 7.511719 0.660156 L 7.511719 7.371094 L 0.804688 7.371094 Z M 0.804688 0.660156 " fill-opacity="1" fill-rule="nonzero"/></g></g></g></g></g></g><g clip-path="url(#5573150ce6)"><g clip-path="url(#4ee71d7c2e)"><g clip-path="url(#5045248e03)"><g transform="matrix(1, 0, 0, 1, 20, 18)"><g clip-path="url(#116d3f217e)"><g clip-path="url(#f987fbfcc5)"><g clip-path="url(#9ceed26ffe)"><g clip-path="url(#b14d48b112)"><path fill="#e2a03b" d="M 1.21875 7.136719 L 0.738281 0.445312 L 7.429688 -0.0351562 L 7.910156 6.65625 Z M 1.21875 7.136719 " fill-opacity="1" fill-rule="nonzero"/></g></g></g></g></g></g></g></g><g clip-path="url(#a97cc97bad)"><g clip-path="url(#1a29520a9e)"><g transform="matrix(1, 0, 0, 1, 38, 23)"><g clip-path="url(#0ff35d7af7)"><g clip-path="url(#8ac9843fbc)"><g clip-path="url(#962b8b2f65)"><path fill="#e2a03b" d="M 7.792969 7.308594 L 0.890625 7.308594 L 0.890625 0.109375 L 7.792969 0.109375 Z M 7.792969 7.308594 " fill-opacity="1" fill-rule="nonzero"/></g></g></g></g></g></g><g clip-path="url(#b2fb739969)"><g transform="matrix(1, 0, 0, 1, 34, 15)"><g clip-path="url(#f9f1f3c0f7)"><g clip-path="url(#1aeb8ed458)"><path fill="#e2a03b" d="M 0.140625 0.746094 L 11.796875 0.746094 L 11.796875 8.4375 L 0.140625 8.4375 Z M 0.140625 0.746094 " fill-opacity="1" fill-rule="nonzero"/></g></g></g></g><g clip-path="url(#d0e73207ce)"><g clip-path="url(#0b3707e1bb)"><g transform="matrix(1, 0, 0, 1, 33, 35)"><g clip-path="url(#bf19fd9505)"><g clip-path="url(#91432c9c34)"><g clip-path="url(#4db88e4804)"><path fill="#e2a03b" d="M 0.753906 0.429688 L 12.8125 0.429688 L 12.8125 12.535156 L 0.753906 12.535156 Z M 0.753906 0.429688 " fill-opacity="1" fill-rule="nonzero"/></g></g></g></g></g></g><g clip-path="url(#3246168f20)"><g transform="matrix(1, 0, 0, 1, 52, 6)"><g clip-path="url(#f130388d52)"><g fill="#e2a03b" fill-opacity="1"><g transform="translate(0.272786, 33.747335)"><g><path d="M 4.484375 0.46875 C 5.421875 0.46875 6.316406 0.210938 7.171875 -0.296875 C 8.035156 -0.804688 8.515625 -1.617188 8.609375 -2.734375 C 8.628906 -3.703125 8.640625 -4.507812 8.640625 -5.15625 C 8.640625 -5.800781 8.65625 -6.285156 8.6875 -6.609375 C 8.71875 -6.941406 8.8125 -7.109375 8.96875 -7.109375 L 10.03125 -7.140625 C 10.207031 -7.140625 10.316406 -7.125 10.359375 -7.09375 C 10.410156 -7.0625 10.4375 -7.003906 10.4375 -6.921875 L 10.4375 -5.921875 C 10.4375 -4.210938 10.484375 -2.96875 10.578125 -2.1875 C 10.742188 -1.320312 11.171875 -0.664062 11.859375 -0.21875 C 12.546875 0.21875 13.3125 0.4375 14.15625 0.4375 C 14.738281 0.4375 15.316406 0.3125 15.890625 0.0625 C 17.148438 -0.488281 17.78125 -1.484375 17.78125 -2.921875 C 17.78125 -6.203125 17.800781 -8.882812 17.84375 -10.96875 C 17.863281 -12.738281 17.875 -15.382812 17.875 -18.90625 C 17.875 -20.15625 17.675781 -21.125 17.28125 -21.8125 C 16.570312 -23.050781 15.476562 -23.671875 14 -23.671875 C 13.414062 -23.671875 12.890625 -23.585938 12.421875 -23.421875 C 11.960938 -23.253906 11.644531 -23.070312 11.46875 -22.875 C 11.039062 -22.320312 10.769531 -21.640625 10.65625 -20.828125 C 10.550781 -20.015625 10.5 -19.234375 10.5 -18.484375 L 10.5625 -14.5625 C 10.5625 -13.382812 10.460938 -12.796875 10.265625 -12.796875 L 9.34375 -12.765625 C 9.070312 -12.765625 8.90625 -12.796875 8.84375 -12.859375 C 8.78125 -12.929688 8.75 -13.078125 8.75 -13.296875 L 8.8125 -18.3125 L 8.78125 -20.140625 C 8.78125 -21.003906 8.554688 -21.707031 8.109375 -22.25 C 7.660156 -22.789062 7.09375 -23.179688 6.40625 -23.421875 C 5.726562 -23.671875 5.054688 -23.796875 4.390625 -23.796875 C 3.453125 -23.796875 2.6875 -23.382812 2.09375 -22.5625 C 1.5 -21.75 1.1875 -20.65625 1.15625 -19.28125 L 1.03125 -8.46875 C 1.050781 -7.257812 1.0625 -5.800781 1.0625 -4.09375 C 1.0625 -3.113281 1.109375 -2.347656 1.203125 -1.796875 C 1.304688 -1.242188 1.554688 -0.765625 1.953125 -0.359375 C 2.597656 0.191406 3.441406 0.46875 4.484375 0.46875 Z M 4.484375 0.46875 "/></g></g></g><g fill="#e2a03b" fill-opacity="1"><g transform="translate(19.63979, 33.747335)"><g><path d="M 6.34375 0.65625 C 7.1875 0.65625 8.175781 0.632812 9.3125 0.59375 C 10.144531 0.570312 11.0625 0.554688 12.0625 0.546875 C 13.0625 0.535156 13.929688 0.234375 14.671875 -0.359375 C 15.410156 -0.960938 15.78125 -1.804688 15.78125 -2.890625 C 15.78125 -3.972656 15.5 -4.875 14.9375 -5.59375 C 14.375 -6.320312 13.660156 -6.75 12.796875 -6.875 C 11.003906 -6.875 9.597656 -6.882812 8.578125 -6.90625 C 8.441406 -6.914062 8.359375 -6.976562 8.328125 -7.09375 C 8.296875 -7.21875 8.28125 -7.378906 8.28125 -7.578125 C 8.28125 -7.773438 8.300781 -7.910156 8.34375 -7.984375 C 8.382812 -8.066406 8.492188 -8.117188 8.671875 -8.140625 C 8.847656 -8.160156 9.140625 -8.179688 9.546875 -8.203125 L 10.90625 -8.25 C 11.164062 -8.25 11.523438 -8.25 11.984375 -8.25 C 12.441406 -8.25 12.910156 -8.320312 13.390625 -8.46875 C 14.453125 -8.78125 14.984375 -9.890625 14.984375 -11.796875 C 14.984375 -12.617188 14.820312 -13.226562 14.5 -13.625 C 13.96875 -14.25 13.101562 -14.5625 11.90625 -14.5625 C 10.613281 -14.5625 9.757812 -14.578125 9.34375 -14.609375 C 8.9375 -14.640625 8.691406 -14.703125 8.609375 -14.796875 C 8.523438 -14.898438 8.484375 -15.050781 8.484375 -15.25 L 8.484375 -15.359375 L 8.46875 -15.828125 C 8.46875 -15.972656 8.554688 -16.0625 8.734375 -16.09375 C 9.117188 -16.09375 9.695312 -16.125 10.46875 -16.1875 C 11.46875 -16.269531 12.351562 -16.3125 13.125 -16.3125 C 14.007812 -16.3125 14.664062 -16.535156 15.09375 -16.984375 C 15.757812 -17.691406 16.09375 -18.601562 16.09375 -19.71875 C 16.09375 -20.757812 15.867188 -21.578125 15.421875 -22.171875 C 14.554688 -23.234375 13.179688 -23.765625 11.296875 -23.765625 L 4.21875 -23.765625 C 2.332031 -23.648438 1.289062 -22.875 1.09375 -21.4375 C 1.050781 -21.125 1.03125 -20.128906 1.03125 -18.453125 C 1.03125 -17.546875 1.035156 -16.617188 1.046875 -15.671875 C 1.054688 -14.734375 1.066406 -13.941406 1.078125 -13.296875 C 1.085938 -12.648438 1.101562 -12.328125 1.125 -12.328125 L 1.09375 -6.3125 C 1.09375 -4.28125 1.195312 -2.769531 1.40625 -1.78125 C 1.625 -0.789062 2.109375 -0.140625 2.859375 0.171875 C 3.609375 0.492188 4.769531 0.65625 6.34375 0.65625 Z M 6.34375 0.65625 "/></g></g></g><g fill="#e2a03b" fill-opacity="1"><g transform="translate(36.324302, 33.747335)"><g><path d="M 4.515625 0.265625 C 5.203125 0.265625 5.847656 0.132812 6.453125 -0.125 C 7.066406 -0.394531 7.5625 -0.882812 7.9375 -1.59375 C 8.320312 -2.300781 8.515625 -3.300781 8.515625 -4.59375 C 8.597656 -6.644531 8.640625 -8.890625 8.640625 -11.328125 C 8.640625 -15.703125 8.585938 -18.804688 8.484375 -20.640625 C 8.410156 -21.578125 8.023438 -22.351562 7.328125 -22.96875 C 6.628906 -23.59375 5.769531 -23.90625 4.75 -23.90625 C 3.726562 -23.90625 2.890625 -23.582031 2.234375 -22.9375 C 1.585938 -22.289062 1.21875 -21.445312 1.125 -20.40625 C 1.082031 -20.101562 1.050781 -19.8125 1.03125 -19.53125 C 1.007812 -19.25 0.992188 -18.890625 0.984375 -18.453125 C 0.972656 -18.023438 0.96875 -17.394531 0.96875 -16.5625 L 1.0625 -5.25 L 1.03125 -4.453125 C 1.03125 -3.035156 1.273438 -1.894531 1.765625 -1.03125 C 2.253906 -0.164062 3.171875 0.265625 4.515625 0.265625 Z M 4.515625 0.265625 "/></g></g></g><g fill="#e2a03b" fill-opacity="1"><g transform="translate(46.523663, 33.747335)"><g><path d="M 4.890625 -8.25 L 6.421875 -8.28125 L 6.421875 -8.3125 L 8.3125 -8.3125 C 8.945312 -8.3125 9.421875 -8.332031 9.734375 -8.375 C 10.046875 -8.414062 10.359375 -8.515625 10.671875 -8.671875 C 11.203125 -8.941406 11.601562 -9.300781 11.875 -9.75 C 12.15625 -10.207031 12.296875 -10.691406 12.296875 -11.203125 C 12.296875 -11.929688 12.019531 -12.59375 11.46875 -13.1875 C 10.914062 -13.789062 10.109375 -14.09375 9.046875 -14.09375 L 7.9375 -14.09375 C 6.5 -14.09375 5.414062 -14.082031 4.6875 -14.0625 C 3.957031 -14.039062 3.425781 -14 3.09375 -13.9375 C 2.757812 -13.882812 2.472656 -13.800781 2.234375 -13.6875 C 1.671875 -13.382812 1.253906 -13.003906 0.984375 -12.546875 C 0.722656 -12.097656 0.59375 -11.628906 0.59375 -11.140625 C 0.59375 -10.609375 0.742188 -10.109375 1.046875 -9.640625 C 1.347656 -9.171875 1.796875 -8.816406 2.390625 -8.578125 C 3.140625 -8.359375 3.972656 -8.25 4.890625 -8.25 Z M 4.890625 -8.25 "/></g></g></g><g fill="#e2a03b" fill-opacity="1"><g transform="translate(59.405517, 33.747335)"><g><path d="M 4.3125 0.53125 C 8.769531 0.53125 12.078125 -0.785156 14.234375 -3.421875 C 16.109375 -5.679688 17.054688 -8.53125 17.078125 -11.96875 C 17.078125 -13.914062 16.679688 -15.789062 15.890625 -17.59375 C 15.109375 -19.40625 13.847656 -20.878906 12.109375 -22.015625 C 10.367188 -23.160156 8.070312 -23.753906 5.21875 -23.796875 C 4.195312 -23.796875 3.273438 -23.367188 2.453125 -22.515625 C 1.640625 -21.660156 1.195312 -20.625 1.125 -19.40625 C 1.0625 -17.925781 1.03125 -15.398438 1.03125 -11.828125 L 1.0625 -7.953125 C 1.0625 -5.398438 1.070312 -3.96875 1.09375 -3.65625 C 1.144531 -3.0625 1.304688 -2.445312 1.578125 -1.8125 C 1.859375 -1.175781 2.234375 -0.625 2.703125 -0.15625 C 3.179688 0.300781 3.71875 0.53125 4.3125 0.53125 Z M 8.171875 -9.078125 C 8.109375 -9.078125 8.078125 -9.085938 8.078125 -9.109375 C 8.097656 -9.347656 8.109375 -11.085938 8.109375 -14.328125 C 8.128906 -14.390625 8.164062 -14.421875 8.21875 -14.421875 C 8.363281 -14.421875 8.554688 -14.332031 8.796875 -14.15625 C 9.046875 -13.976562 9.269531 -13.691406 9.46875 -13.296875 C 9.664062 -12.898438 9.765625 -12.359375 9.765625 -11.671875 C 9.765625 -11.023438 9.65625 -10.507812 9.4375 -10.125 C 9.21875 -9.738281 8.972656 -9.46875 8.703125 -9.3125 C 8.441406 -9.15625 8.265625 -9.078125 8.171875 -9.078125 Z M 8.171875 -9.078125 "/></g></g></g><g fill="#e2a03b" fill-opacity="1"><g transform="translate(76.650051, 33.747335)"><g><path d="M 2.5 0.265625 C 3.289062 0.265625 3.976562 0.0234375 4.5625 -0.453125 C 5.15625 -0.929688 5.640625 -1.578125 6.015625 -2.390625 C 6.054688 -2.503906 6.113281 -2.597656 6.1875 -2.671875 C 6.269531 -2.753906 6.554688 -2.796875 7.046875 -2.796875 L 9.234375 -2.765625 L 11.671875 -2.765625 C 12.148438 -2.765625 12.476562 -2.539062 12.65625 -2.09375 C 13.019531 -1.34375 13.503906 -0.785156 14.109375 -0.421875 C 14.722656 -0.0546875 15.347656 0.125 15.984375 0.125 C 16.566406 0.125 17.101562 -0.0078125 17.59375 -0.28125 C 18.09375 -0.5625 18.476562 -0.96875 18.75 -1.5 C 18.945312 -1.914062 19.046875 -2.328125 19.046875 -2.734375 C 19.046875 -3.253906 18.859375 -3.984375 18.484375 -4.921875 C 17.972656 -6.253906 17.109375 -8.78125 15.890625 -12.5 C 15.023438 -15.070312 14.269531 -17.238281 13.625 -19 C 12.976562 -20.757812 12.394531 -21.960938 11.875 -22.609375 C 11.15625 -23.421875 10.3125 -23.828125 9.34375 -23.828125 C 8.519531 -23.828125 7.773438 -23.507812 7.109375 -22.875 C 6.984375 -22.757812 6.875 -22.632812 6.78125 -22.5 C 6.582031 -22.21875 6.21875 -21.421875 5.6875 -20.109375 C 5.4375 -19.515625 3.363281 -14.316406 -0.53125 -4.515625 C -0.726562 -4.003906 -0.828125 -3.492188 -0.828125 -2.984375 C -0.828125 -2.347656 -0.679688 -1.71875 -0.390625 -1.09375 C -0.128906 -0.582031 0.179688 -0.25 0.546875 -0.09375 C 0.910156 0.0507812 1.257812 0.140625 1.59375 0.171875 L 1.828125 0.203125 C 2.066406 0.242188 2.289062 0.265625 2.5 0.265625 Z M 9.234375 -8.75 C 8.898438 -8.75 8.734375 -8.789062 8.734375 -8.875 C 8.828125 -9.070312 8.960938 -9.328125 9.140625 -9.640625 C 9.316406 -9.953125 9.453125 -10.238281 9.546875 -10.5 C 9.609375 -10.5 9.660156 -10.488281 9.703125 -10.46875 C 9.859375 -10 10.015625 -9.613281 10.171875 -9.3125 C 10.285156 -9.101562 10.34375 -8.957031 10.34375 -8.875 C 10.34375 -8.832031 10.328125 -8.8125 10.296875 -8.8125 Z M 9.234375 -8.75 "/></g></g></g><g fill="#e2a03b" fill-opacity="1"><g transform="translate(92.449862, 33.747335)"><g><path d="M 9.40625 0.265625 C 10.488281 0.265625 11.378906 -0.0820312 12.078125 -0.78125 C 12.773438 -1.476562 13.148438 -2.457031 13.203125 -3.71875 L 13.234375 -8.46875 L 13.203125 -12.796875 C 13.203125 -14.253906 13.234375 -15.1875 13.296875 -15.59375 C 13.316406 -15.851562 13.394531 -16.023438 13.53125 -16.109375 C 13.664062 -16.203125 13.773438 -16.25 13.859375 -16.25 C 14.429688 -16.25 15.054688 -16.273438 15.734375 -16.328125 C 16.410156 -16.390625 17.003906 -16.554688 17.515625 -16.828125 C 18.691406 -17.523438 19.28125 -18.738281 19.28125 -20.46875 C 19.28125 -21.46875 19.015625 -22.226562 18.484375 -22.75 C 17.953125 -23.269531 17.363281 -23.617188 16.71875 -23.796875 C 16.070312 -23.972656 15.550781 -24.0625 15.15625 -24.0625 L 4.890625 -24.0625 C 3.847656 -24.0625 2.847656 -23.84375 1.890625 -23.40625 C 0.429688 -22.757812 -0.296875 -21.640625 -0.296875 -20.046875 C -0.296875 -19.203125 -0.0195312 -18.460938 0.53125 -17.828125 C 1.082031 -17.203125 1.644531 -16.78125 2.21875 -16.5625 C 2.507812 -16.445312 2.832031 -16.363281 3.1875 -16.3125 C 3.539062 -16.269531 4.085938 -16.25 4.828125 -16.25 C 5.023438 -16.25 5.226562 -16.21875 5.4375 -16.15625 C 5.644531 -16.09375 5.757812 -15.945312 5.78125 -15.71875 C 5.914062 -13.039062 5.984375 -9.375 5.984375 -4.71875 L 5.984375 -3.421875 C 5.984375 -3.398438 6.019531 -3.195312 6.09375 -2.8125 C 6.175781 -2.425781 6.332031 -2 6.5625 -1.53125 C 6.800781 -1.0625 7.144531 -0.644531 7.59375 -0.28125 C 8.050781 0.0820312 8.65625 0.265625 9.40625 0.265625 Z M 9.40625 0.265625 "/></g></g></g><g fill="#e2a03b" fill-opacity="1"><g transform="translate(109.016144, 33.747335)"><g><path d="M 2.5 0.265625 C 3.289062 0.265625 3.976562 0.0234375 4.5625 -0.453125 C 5.15625 -0.929688 5.640625 -1.578125 6.015625 -2.390625 C 6.054688 -2.503906 6.113281 -2.597656 6.1875 -2.671875 C 6.269531 -2.753906 6.554688 -2.796875 7.046875 -2.796875 L 9.234375 -2.765625 L 11.671875 -2.765625 C 12.148438 -2.765625 12.476562 -2.539062 12.65625 -2.09375 C 13.019531 -1.34375 13.503906 -0.785156 14.109375 -0.421875 C 14.722656 -0.0546875 15.347656 0.125 15.984375 0.125 C 16.566406 0.125 17.101562 -0.0078125 17.59375 -0.28125 C 18.09375 -0.5625 18.476562 -0.96875 18.75 -1.5 C 18.945312 -1.914062 19.046875 -2.328125 19.046875 -2.734375 C 19.046875 -3.253906 18.859375 -3.984375 18.484375 -4.921875 C 17.972656 -6.253906 17.109375 -8.78125 15.890625 -12.5 C 15.023438 -15.070312 14.269531 -17.238281 13.625 -19 C 12.976562 -20.757812 12.394531 -21.960938 11.875 -22.609375 C 11.15625 -23.421875 10.3125 -23.828125 9.34375 -23.828125 C 8.519531 -23.828125 7.773438 -23.507812 7.109375 -22.875 C 6.984375 -22.757812 6.875 -22.632812 6.78125 -22.5 C 6.582031 -22.21875 6.21875 -21.421875 5.6875 -20.109375 C 5.4375 -19.515625 3.363281 -14.316406 -0.53125 -4.515625 C -0.726562 -4.003906 -0.828125 -3.492188 -0.828125 -2.984375 C -0.828125 -2.347656 -0.679688 -1.71875 -0.390625 -1.09375 C -0.128906 -0.582031 0.179688 -0.25 0.546875 -0.09375 C 0.910156 0.0507812 1.257812 0.140625 1.59375 0.171875 L 1.828125 0.203125 C 2.066406 0.242188 2.289062 0.265625 2.5 0.265625 Z M 9.234375 -8.75 C 8.898438 -8.75 8.734375 -8.789062 8.734375 -8.875 C 8.828125 -9.070312 8.960938 -9.328125 9.140625 -9.640625 C 9.316406 -9.953125 9.453125 -10.238281 9.546875 -10.5 C 9.609375 -10.5 9.660156 -10.488281 9.703125 -10.46875 C 9.859375 -10 10.015625 -9.613281 10.171875 -9.3125 C 10.285156 -9.101562 10.34375 -8.957031 10.34375 -8.875 C 10.34375 -8.832031 10.328125 -8.8125 10.296875 -8.8125 Z M 9.234375 -8.75 "/></g></g></g><g fill="#e2a03b" fill-opacity="1"><g transform="translate(127.852537, 33.747335)"><g><path d="M 4.484375 0.46875 C 5.421875 0.46875 6.316406 0.210938 7.171875 -0.296875 C 8.035156 -0.804688 8.515625 -1.617188 8.609375 -2.734375 C 8.628906 -3.703125 8.640625 -4.507812 8.640625 -5.15625 C 8.640625 -5.800781 8.65625 -6.285156 8.6875 -6.609375 C 8.71875 -6.941406 8.8125 -7.109375 8.96875 -7.109375 L 10.03125 -7.140625 C 10.207031 -7.140625 10.316406 -7.125 10.359375 -7.09375 C 10.410156 -7.0625 10.4375 -7.003906 10.4375 -6.921875 L 10.4375 -5.921875 C 10.4375 -4.210938 10.484375 -2.96875 10.578125 -2.1875 C 10.742188 -1.320312 11.171875 -0.664062 11.859375 -0.21875 C 12.546875 0.21875 13.3125 0.4375 14.15625 0.4375 C 14.738281 0.4375 15.316406 0.3125 15.890625 0.0625 C 17.148438 -0.488281 17.78125 -1.484375 17.78125 -2.921875 C 17.78125 -6.203125 17.800781 -8.882812 17.84375 -10.96875 C 17.863281 -12.738281 17.875 -15.382812 17.875 -18.90625 C 17.875 -20.15625 17.675781 -21.125 17.28125 -21.8125 C 16.570312 -23.050781 15.476562 -23.671875 14 -23.671875 C 13.414062 -23.671875 12.890625 -23.585938 12.421875 -23.421875 C 11.960938 -23.253906 11.644531 -23.070312 11.46875 -22.875 C 11.039062 -22.320312 10.769531 -21.640625 10.65625 -20.828125 C 10.550781 -20.015625 10.5 -19.234375 10.5 -18.484375 L 10.5625 -14.5625 C 10.5625 -13.382812 10.460938 -12.796875 10.265625 -12.796875 L 9.34375 -12.765625 C 9.070312 -12.765625 8.90625 -12.796875 8.84375 -12.859375 C 8.78125 -12.929688 8.75 -13.078125 8.75 -13.296875 L 8.8125 -18.3125 L 8.78125 -20.140625 C 8.78125 -21.003906 8.554688 -21.707031 8.109375 -22.25 C 7.660156 -22.789062 7.09375 -23.179688 6.40625 -23.421875 C 5.726562 -23.671875 5.054688 -23.796875 4.390625 -23.796875 C 3.453125 -23.796875 2.6875 -23.382812 2.09375 -22.5625 C 1.5 -21.75 1.1875 -20.65625 1.15625 -19.28125 L 1.03125 -8.46875 C 1.050781 -7.257812 1.0625 -5.800781 1.0625 -4.09375 C 1.0625 -3.113281 1.109375 -2.347656 1.203125 -1.796875 C 1.304688 -1.242188 1.554688 -0.765625 1.953125 -0.359375 C 2.597656 0.191406 3.441406 0.46875 4.484375 0.46875 Z M 4.484375 0.46875 "/></g></g></g><g fill="#e2a03b" fill-opacity="1"><g transform="translate(147.219541, 33.747335)"><g><path d="M 9.546875 0.5625 C 11.359375 0.5625 12.90625 0.078125 14.1875 -0.890625 C 15.476562 -1.867188 16.472656 -3.070312 17.171875 -4.5 C 17.867188 -5.9375 18.21875 -7.363281 18.21875 -8.78125 C 18.351562 -10.84375 18.421875 -12.671875 18.421875 -14.265625 C 18.421875 -15.460938 18.40625 -16.523438 18.375 -17.453125 L 18.34375 -19.40625 C 18.34375 -20.34375 18.117188 -21.125 17.671875 -21.75 C 17.234375 -22.382812 16.710938 -22.851562 16.109375 -23.15625 C 15.515625 -23.457031 14.972656 -23.609375 14.484375 -23.609375 C 13.554688 -23.609375 12.734375 -23.195312 12.015625 -22.375 C 11.296875 -21.550781 10.90625 -20.597656 10.84375 -19.515625 C 10.789062 -17.410156 10.765625 -15.425781 10.765625 -13.5625 C 10.765625 -11.59375 10.722656 -10.269531 10.640625 -9.59375 C 10.566406 -8.914062 10.300781 -8.578125 9.84375 -8.578125 C 9.414062 -8.578125 9.144531 -8.882812 9.03125 -9.5 C 8.925781 -10.125 8.875 -10.890625 8.875 -11.796875 L 8.875 -13.765625 L 8.84375 -15.25 L 8.875 -17.1875 C 8.875 -18.425781 8.753906 -19.5 8.515625 -20.40625 C 8.421875 -20.632812 8.273438 -20.945312 8.078125 -21.34375 C 7.304688 -22.820312 6.285156 -23.5625 5.015625 -23.5625 C 3.265625 -23.5625 2.070312 -22.84375 1.4375 -21.40625 C 0.925781 -20.25 0.671875 -18.007812 0.671875 -14.6875 C 0.671875 -12.875 0.742188 -10.992188 0.890625 -9.046875 C 0.941406 -8.066406 1.140625 -7.019531 1.484375 -5.90625 C 1.828125 -4.800781 2.335938 -3.757812 3.015625 -2.78125 C 3.703125 -1.8125 4.578125 -1.007812 5.640625 -0.375 C 6.710938 0.25 8.015625 0.5625 9.546875 0.5625 Z M 9.546875 0.5625 "/></g></g></g><g fill="#e2a03b" fill-opacity="1"><g transform="translate(166.85184, 33.747335)"><g><path d="M 9.46875 -0.0625 C 10.6875 -0.0625 11.726562 -0.160156 12.59375 -0.359375 C 14.394531 -0.847656 15.75 -1.769531 16.65625 -3.125 C 17.5625 -4.476562 18.015625 -5.941406 18.015625 -7.515625 C 18.015625 -8.691406 17.765625 -9.835938 17.265625 -10.953125 C 16.765625 -12.066406 16.007812 -13.003906 15 -13.765625 C 14.84375 -13.890625 14.722656 -13.988281 14.640625 -14.0625 C 14.566406 -14.144531 14.53125 -14.234375 14.53125 -14.328125 C 14.53125 -14.441406 14.59375 -14.617188 14.71875 -14.859375 C 15.101562 -15.785156 15.296875 -16.703125 15.296875 -17.609375 C 15.296875 -19.003906 14.867188 -20.25 14.015625 -21.34375 C 13.160156 -22.445312 11.96875 -23.210938 10.4375 -23.640625 C 9.664062 -23.835938 8.910156 -23.9375 8.171875 -23.9375 C 7.660156 -23.9375 7.148438 -23.914062 6.640625 -23.875 C 6.128906 -23.84375 5.585938 -23.816406 5.015625 -23.796875 C 4.046875 -23.753906 3.207031 -23.5 2.5 -23.03125 C 1.789062 -22.570312 1.347656 -21.851562 1.171875 -20.875 C 1.097656 -20.382812 1.050781 -17.96875 1.03125 -13.625 L 1 -11.640625 L 1.03125 -3.328125 C 1.03125 -2.210938 1.320312 -1.394531 1.90625 -0.875 C 2.5 -0.351562 3.148438 -0.09375 3.859375 -0.09375 Z M 8.703125 -6.375 C 8.597656 -6.375 8.546875 -6.429688 8.546875 -6.546875 L 8.515625 -9.203125 C 8.515625 -9.453125 8.523438 -9.644531 8.546875 -9.78125 C 8.566406 -9.925781 8.632812 -10 8.75 -10 C 9.125 -9.976562 9.429688 -9.800781 9.671875 -9.46875 C 9.910156 -9.132812 10.03125 -8.726562 10.03125 -8.25 C 10.03125 -7.882812 9.9375 -7.523438 9.75 -7.171875 C 9.5625 -6.828125 9.25 -6.566406 8.8125 -6.390625 Z M 8.578125 -15.359375 L 8.578125 -18.046875 C 9.203125 -18.046875 9.515625 -17.59375 9.515625 -16.6875 C 9.515625 -16.375 9.457031 -16.070312 9.34375 -15.78125 C 9.226562 -15.5 8.972656 -15.359375 8.578125 -15.359375 Z M 8.578125 -15.359375 "/></g></g></g></g></g></g></g></g></svg>