<svg xmlns="http://www.w3.org/2000/svg" xmlns:xlink="http://www.w3.org/1999/xlink" width="500" zoomAndPan="magnify" viewBox="0 0 375 74.999997" height="100" preserveAspectRatio="xMidYMid meet" version="1.0"><defs><g/><clipPath id="714d70bb1a"><path d="M 12.03125 0.765625 L 24.097656 0.765625 L 24.097656 58.238281 L 12.03125 58.238281 Z M 12.03125 0.765625 " clip-rule="nonzero"/></clipPath><clipPath id="15d7382d41"><path d="M 24.097656 6.800781 L 24.097656 52.195312 C 24.097656 53.796875 23.464844 55.332031 22.332031 56.460938 C 21.199219 57.59375 19.664062 58.230469 18.066406 58.230469 C 16.464844 58.230469 14.929688 57.59375 13.796875 56.460938 C 12.664062 55.332031 12.03125 53.796875 12.03125 52.195312 L 12.03125 6.800781 C 12.03125 5.199219 12.664062 3.664062 13.796875 2.535156 C 14.929688 1.402344 16.464844 0.765625 18.066406 0.765625 C 19.664062 0.765625 21.199219 1.402344 22.332031 2.535156 C 23.464844 3.664062 24.097656 5.199219 24.097656 6.800781 Z M 24.097656 6.800781 " clip-rule="nonzero"/></clipPath><clipPath id="f46cec8707"><path d="M 0.03125 0.765625 L 12.097656 0.765625 L 12.097656 58.238281 L 0.03125 58.238281 Z M 0.03125 0.765625 " clip-rule="nonzero"/></clipPath><clipPath id="e6d49a1b38"><path d="M 12.097656 6.800781 L 12.097656 52.195312 C 12.097656 53.796875 11.464844 55.332031 10.332031 56.460938 C 9.199219 57.59375 7.664062 58.230469 6.066406 58.230469 C 4.464844 58.230469 2.929688 57.59375 1.796875 56.460938 C 0.664062 55.332031 0.03125 53.796875 0.03125 52.195312 L 0.03125 6.800781 C 0.03125 5.199219 0.664062 3.664062 1.796875 2.535156 C 2.929688 1.402344 4.464844 0.765625 6.066406 0.765625 C 7.664062 0.765625 9.199219 1.402344 10.332031 2.535156 C 11.464844 3.664062 12.097656 5.199219 12.097656 6.800781 Z M 12.097656 6.800781 " clip-rule="nonzero"/></clipPath><clipPath id="329734c0de"><rect x="0" width="13" y="0" height="59"/></clipPath><clipPath id="9838892ca2"><path d="M 0.105469 24.5 L 23.933594 24.5 L 23.933594 36.898438 L 0.105469 36.898438 Z M 0.105469 24.5 " clip-rule="nonzero"/></clipPath><clipPath id="64cf3092a1"><path d="M 17.734375 36.898438 L 6.34375 36.898438 C 4.699219 36.898438 3.125 36.246094 1.960938 35.082031 C 0.796875 33.917969 0.144531 32.34375 0.144531 30.699219 C 0.144531 29.054688 0.796875 27.476562 1.960938 26.316406 C 3.125 25.152344 4.699219 24.5 6.34375 24.5 L 17.734375 24.5 C 19.378906 24.5 20.953125 25.152344 22.117188 26.316406 C 23.28125 27.476562 23.933594 29.054688 23.933594 30.699219 C 23.933594 32.34375 23.28125 33.917969 22.117188 35.082031 C 20.953125 36.246094 19.378906 36.898438 17.734375 36.898438 Z M 17.734375 36.898438 " clip-rule="nonzero"/></clipPath><clipPath id="74b9de71ca"><path d="M 0.105469 0.5 L 23.933594 0.5 L 23.933594 12.898438 L 0.105469 12.898438 Z M 0.105469 0.5 " clip-rule="nonzero"/></clipPath><clipPath id="c651458dfa"><path d="M 17.734375 12.898438 L 6.34375 12.898438 C 4.699219 12.898438 3.125 12.246094 1.960938 11.082031 C 0.796875 9.917969 0.144531 8.34375 0.144531 6.699219 C 0.144531 5.054688 0.796875 3.476562 1.960938 2.316406 C 3.125 1.152344 4.699219 0.5 6.34375 0.5 L 17.734375 0.5 C 19.378906 0.5 20.953125 1.152344 22.117188 2.316406 C 23.28125 3.476562 23.933594 5.054688 23.933594 6.699219 C 23.933594 8.34375 23.28125 9.917969 22.117188 11.082031 C 20.953125 12.246094 19.378906 12.898438 17.734375 12.898438 Z M 17.734375 12.898438 " clip-rule="nonzero"/></clipPath><clipPath id="3051100251"><rect x="0" width="24" y="0" height="13"/></clipPath><clipPath id="04f8a0851c"><path d="M 33.554688 0.75 L 45.621094 0.75 L 45.621094 25.824219 L 33.554688 25.824219 Z M 33.554688 0.75 " clip-rule="nonzero"/></clipPath><clipPath id="2c14f5b8cb"><path d="M 33.554688 19.792969 L 33.554688 6.800781 C 33.554688 5.199219 34.191406 3.664062 35.320312 2.53125 C 36.453125 1.402344 37.988281 0.765625 39.585938 0.765625 C 41.1875 0.765625 42.722656 1.402344 43.855469 2.53125 C 44.984375 3.664062 45.621094 5.199219 45.621094 6.800781 L 45.621094 19.792969 C 45.621094 21.394531 44.984375 22.925781 43.855469 24.058594 C 42.722656 25.191406 41.1875 25.824219 39.585938 25.824219 C 37.988281 25.824219 36.453125 25.191406 35.320312 24.058594 C 34.191406 22.925781 33.554688 21.394531 33.554688 19.792969 Z M 33.554688 19.792969 " clip-rule="nonzero"/></clipPath><clipPath id="45ad0d4e62"><path d="M 0.554688 0.75 L 12.621094 0.75 L 12.621094 25.824219 L 0.554688 25.824219 Z M 0.554688 0.75 " clip-rule="nonzero"/></clipPath><clipPath id="d5553bd69c"><path d="M 0.554688 19.792969 L 0.554688 6.800781 C 0.554688 5.199219 1.191406 3.664062 2.320312 2.53125 C 3.453125 1.402344 4.988281 0.765625 6.585938 0.765625 C 8.1875 0.765625 9.722656 1.402344 10.855469 2.53125 C 11.984375 3.664062 12.621094 5.199219 12.621094 6.800781 L 12.621094 19.792969 C 12.621094 21.394531 11.984375 22.925781 10.855469 24.058594 C 9.722656 25.191406 8.1875 25.824219 6.585938 25.824219 C 4.988281 25.824219 3.453125 25.191406 2.320312 24.058594 C 1.191406 22.925781 0.554688 21.394531 0.554688 19.792969 Z M 0.554688 19.792969 " clip-rule="nonzero"/></clipPath><clipPath id="8f07fe22dd"><rect x="0" width="13" y="0" height="26"/></clipPath><clipPath id="c5c73856d4"><path d="M 18.949219 21.117188 L 42.75 21.117188 L 42.75 30.308594 L 18.949219 30.308594 Z M 18.949219 21.117188 " clip-rule="nonzero"/></clipPath><clipPath id="73b38709a9"><path d="M 38.15625 30.308594 L 23.554688 30.308594 C 21.019531 30.308594 18.960938 28.25 18.960938 25.714844 C 18.960938 23.175781 21.019531 21.117188 23.554688 21.117188 L 38.15625 21.117188 C 40.691406 21.117188 42.75 23.175781 42.75 25.714844 C 42.75 28.25 40.691406 30.308594 38.15625 30.308594 Z M 38.15625 30.308594 " clip-rule="nonzero"/></clipPath><clipPath id="d9fcead342"><path d="M 0.960938 0.117188 L 24.75 0.117188 L 24.75 9.308594 L 0.960938 9.308594 Z M 0.960938 0.117188 " clip-rule="nonzero"/></clipPath><clipPath id="3f1fa70332"><path d="M 20.15625 9.308594 L 5.554688 9.308594 C 3.019531 9.308594 0.960938 7.25 0.960938 4.714844 C 0.960938 2.175781 3.019531 0.117188 5.554688 0.117188 L 20.15625 0.117188 C 22.691406 0.117188 24.75 2.175781 24.75 4.714844 C 24.75 7.25 22.691406 9.308594 20.15625 9.308594 Z M 20.15625 9.308594 " clip-rule="nonzero"/></clipPath><clipPath id="00a088e56e"><rect x="0" width="25" y="0" height="10"/></clipPath><clipPath id="122114d416"><path d="M 33.613281 35.464844 L 45.703125 35.464844 L 45.703125 58.230469 L 33.613281 58.230469 Z M 33.613281 35.464844 " clip-rule="nonzero"/></clipPath><clipPath id="b48f1e8c27"><path d="M 33.613281 52.183594 L 33.613281 41.546875 C 33.613281 39.945312 34.25 38.40625 35.382812 37.273438 C 36.515625 36.140625 38.054688 35.503906 39.65625 35.503906 C 41.261719 35.503906 42.796875 36.140625 43.933594 37.273438 C 45.066406 38.40625 45.703125 39.945312 45.703125 41.546875 L 45.703125 52.183594 C 45.703125 53.785156 45.066406 55.324219 43.933594 56.457031 C 42.796875 57.589844 41.261719 58.230469 39.65625 58.230469 C 38.054688 58.230469 36.515625 57.589844 35.382812 56.457031 C 34.25 55.324219 33.613281 53.785156 33.613281 52.183594 Z M 33.613281 52.183594 " clip-rule="nonzero"/></clipPath><clipPath id="483ccf0413"><path d="M 0.613281 0.464844 L 12.703125 0.464844 L 12.703125 23.230469 L 0.613281 23.230469 Z M 0.613281 0.464844 " clip-rule="nonzero"/></clipPath><clipPath id="011ca133f5"><path d="M 0.613281 17.183594 L 0.613281 6.546875 C 0.613281 4.945312 1.25 3.40625 2.382812 2.273438 C 3.515625 1.140625 5.054688 0.503906 6.65625 0.503906 C 8.261719 0.503906 9.796875 1.140625 10.933594 2.273438 C 12.066406 3.40625 12.703125 4.945312 12.703125 6.546875 L 12.703125 17.183594 C 12.703125 18.785156 12.066406 20.324219 10.933594 21.457031 C 9.796875 22.589844 8.261719 23.230469 6.65625 23.230469 C 5.054688 23.230469 3.515625 22.589844 2.382812 21.457031 C 1.25 20.324219 0.613281 18.785156 0.613281 17.183594 Z M 0.613281 17.183594 " clip-rule="nonzero"/></clipPath><clipPath id="e943d3b6d5"><rect x="0" width="13" y="0" height="24"/></clipPath><clipPath id="9a981a87ad"><path d="M 7 22 L 16 22 L 16 29 L 7 29 Z M 7 22 " clip-rule="nonzero"/></clipPath><clipPath id="64d29e74f3"><path d="M 13.792969 29.785156 L 7.304688 28.019531 L 9.070312 21.53125 L 15.558594 23.300781 Z M 13.792969 29.785156 " clip-rule="nonzero"/></clipPath><clipPath id="541ff97929"><path d="M 15.558594 23.300781 C 15.09375 25.007812 13.945312 26.488281 12.410156 27.371094 C 10.871094 28.25 9.011719 28.484375 7.304688 28.019531 L 8.207031 24.710938 C 9.042969 24.9375 9.953125 24.824219 10.707031 24.390625 C 11.460938 23.960938 12.019531 23.234375 12.25 22.398438 Z M 15.558594 23.300781 " clip-rule="nonzero"/></clipPath><clipPath id="8463c1b96f"><path d="M 0.199219 0.238281 L 8.601562 0.238281 L 8.601562 6.71875 L 0.199219 6.71875 Z M 0.199219 0.238281 " clip-rule="nonzero"/></clipPath><clipPath id="987e156e61"><path d="M 6.792969 7.785156 L 0.304688 6.019531 L 2.070312 -0.46875 L 8.558594 1.300781 Z M 6.792969 7.785156 " clip-rule="nonzero"/></clipPath><clipPath id="c7f093c30d"><path d="M 8.558594 1.300781 C 8.09375 3.007812 6.945312 4.488281 5.410156 5.371094 C 3.871094 6.25 2.011719 6.484375 0.304688 6.019531 L 1.207031 2.710938 C 2.042969 2.9375 2.953125 2.824219 3.707031 2.390625 C 4.460938 1.960938 5.019531 1.234375 5.25 0.398438 Z M 8.558594 1.300781 " clip-rule="nonzero"/></clipPath><clipPath id="588e1ebe71"><rect x="0" width="9" y="0" height="7"/></clipPath><clipPath id="18886e18f5"><path d="M 9 33 L 16 33 L 16 41 L 9 41 Z M 9 33 " clip-rule="nonzero"/></clipPath><clipPath id="b1d9c70faf"><path d="M 16.261719 33.945312 L 15.492188 40.625 L 8.8125 39.851562 L 9.582031 33.171875 Z M 16.261719 33.945312 " clip-rule="nonzero"/></clipPath><clipPath id="267227b629"><path d="M 9.582031 33.171875 C 11.339844 33.375 12.980469 34.289062 14.078125 35.675781 C 15.179688 37.0625 15.695312 38.863281 15.492188 40.625 L 12.082031 40.230469 C 12.183594 39.367188 11.929688 38.484375 11.390625 37.804688 C 10.851562 37.125 10.050781 36.679688 9.1875 36.582031 Z M 9.582031 33.171875 " clip-rule="nonzero"/></clipPath><clipPath id="a599b4f748"><path d="M 0.121094 0.0390625 L 6.839844 0.0390625 L 6.839844 7.71875 L 0.121094 7.71875 Z M 0.121094 0.0390625 " clip-rule="nonzero"/></clipPath><clipPath id="29886eda2b"><path d="M 7.261719 0.945312 L 6.492188 7.625 L -0.1875 6.851562 L 0.582031 0.171875 Z M 7.261719 0.945312 " clip-rule="nonzero"/></clipPath><clipPath id="1f45ff79e6"><path d="M 0.582031 0.171875 C 2.339844 0.375 3.980469 1.289062 5.078125 2.675781 C 6.179688 4.0625 6.695312 5.863281 6.492188 7.625 L 3.082031 7.230469 C 3.183594 6.367188 2.929688 5.484375 2.390625 4.804688 C 1.851562 4.125 1.050781 3.679688 0.1875 3.582031 Z M 0.582031 0.171875 " clip-rule="nonzero"/></clipPath><clipPath id="b02405e7c0"><rect x="0" width="7" y="0" height="8"/></clipPath><clipPath id="f648baa5cf"><path d="M 20.574219 26.65625 L 27.296875 26.65625 L 27.296875 33.378906 L 20.574219 33.378906 Z M 20.574219 26.65625 " clip-rule="nonzero"/></clipPath><clipPath id="8938e10616"><path d="M 20.574219 33.378906 C 20.574219 31.609375 21.292969 29.875 22.542969 28.625 C 23.796875 27.371094 25.527344 26.65625 27.296875 26.65625 L 27.296875 30.085938 C 26.429688 30.085938 25.582031 30.4375 24.96875 31.050781 C 24.355469 31.664062 24.003906 32.511719 24.003906 33.378906 Z M 20.574219 33.378906 " clip-rule="nonzero"/></clipPath><clipPath id="b0c6b9fde0"><path d="M 0.574219 0.65625 L 7.296875 0.65625 L 7.296875 7.378906 L 0.574219 7.378906 Z M 0.574219 0.65625 " clip-rule="nonzero"/></clipPath><clipPath id="6ae077537b"><path d="M 0.574219 7.378906 C 0.574219 5.609375 1.292969 3.875 2.542969 2.625 C 3.796875 1.371094 5.527344 0.65625 7.296875 0.65625 L 7.296875 4.085938 C 6.429688 4.085938 5.582031 4.4375 4.96875 5.050781 C 4.355469 5.664062 4.003906 6.511719 4.003906 7.378906 Z M 0.574219 7.378906 " clip-rule="nonzero"/></clipPath><clipPath id="3462c1311e"><rect x="0" width="8" y="0" height="8"/></clipPath><clipPath id="91e67fc3b6"><path d="M 20 18 L 28 18 L 28 25 L 20 25 Z M 20 18 " clip-rule="nonzero"/></clipPath><clipPath id="b39c806bae"><path d="M 20.992188 25.128906 L 20.507812 18.421875 L 27.214844 17.9375 L 27.695312 24.644531 Z M 20.992188 25.128906 " clip-rule="nonzero"/></clipPath><clipPath id="c342d6696f"><path d="M 27.695312 24.644531 C 25.929688 24.773438 24.152344 24.179688 22.8125 23.023438 C 21.472656 21.863281 20.632812 20.1875 20.507812 18.421875 L 23.929688 18.175781 C 23.992188 19.039062 24.402344 19.859375 25.058594 20.429688 C 25.714844 20.996094 26.585938 21.285156 27.449219 21.222656 Z M 27.695312 24.644531 " clip-rule="nonzero"/></clipPath><clipPath id="ee35278d56"><path d="M 0.398438 0.160156 L 7.839844 0.160156 L 7.839844 6.878906 L 0.398438 6.878906 Z M 0.398438 0.160156 " clip-rule="nonzero"/></clipPath><clipPath id="078281c716"><path d="M 0.992188 7.128906 L 0.507812 0.421875 L 7.214844 -0.0625 L 7.695312 6.644531 Z M 0.992188 7.128906 " clip-rule="nonzero"/></clipPath><clipPath id="e27224249d"><path d="M 7.695312 6.644531 C 5.929688 6.773438 4.152344 6.179688 2.8125 5.023438 C 1.472656 3.863281 0.632812 2.1875 0.507812 0.421875 L 3.929688 0.175781 C 3.992188 1.039062 4.402344 1.859375 5.058594 2.429688 C 5.714844 2.996094 6.585938 3.285156 7.449219 3.222656 Z M 7.695312 6.644531 " clip-rule="nonzero"/></clipPath><clipPath id="445a28e9ab"><rect x="0" width="8" y="0" height="7"/></clipPath><clipPath id="07bd9be5dd"><path d="M 38.703125 23.066406 L 45.621094 23.066406 L 45.621094 30.308594 L 38.703125 30.308594 Z M 38.703125 23.066406 " clip-rule="nonzero"/></clipPath><clipPath id="c2cf825def"><path d="M 45.621094 23.089844 C 45.621094 24.992188 44.882812 26.851562 43.59375 28.195312 C 42.304688 29.539062 40.523438 30.308594 38.703125 30.308594 L 38.703125 26.625 C 39.59375 26.625 40.46875 26.25 41.097656 25.589844 C 41.730469 24.929688 42.089844 24.019531 42.089844 23.089844 Z M 45.621094 23.089844 " clip-rule="nonzero"/></clipPath><clipPath id="76ed7075d4"><path d="M 0.703125 0.0664062 L 7.621094 0.0664062 L 7.621094 7.308594 L 0.703125 7.308594 Z M 0.703125 0.0664062 " clip-rule="nonzero"/></clipPath><clipPath id="d05ca319ef"><path d="M 7.621094 0.0898438 C 7.621094 1.992188 6.882812 3.851562 5.59375 5.195312 C 4.304688 6.539062 2.523438 7.308594 0.703125 7.308594 L 0.703125 3.625 C 1.59375 3.625 2.46875 3.25 3.097656 2.589844 C 3.730469 1.929688 4.089844 1.019531 4.089844 0.0898438 Z M 7.621094 0.0898438 " clip-rule="nonzero"/></clipPath><clipPath id="c4c8374245"><rect x="0" width="8" y="0" height="8"/></clipPath><clipPath id="c12acd1463"><path d="M 33.941406 15.714844 L 45.621094 15.714844 L 45.621094 23.421875 L 33.941406 23.421875 Z M 33.941406 15.714844 " clip-rule="nonzero"/></clipPath><clipPath id="179673d809"><path d="M 0.941406 0.714844 L 12.621094 0.714844 L 12.621094 8.421875 L 0.941406 8.421875 Z M 0.941406 0.714844 " clip-rule="nonzero"/></clipPath><clipPath id="547cff6a4d"><rect x="0" width="13" y="0" height="9"/></clipPath><clipPath id="6e5bf8e2ad"><path d="M 33.554688 35.445312 L 45.640625 35.445312 L 45.640625 47.625 L 33.554688 47.625 Z M 33.554688 35.445312 " clip-rule="nonzero"/></clipPath><clipPath id="4d4c939a46"><path d="M 45.640625 41.488281 L 45.640625 41.550781 C 45.640625 44.886719 42.933594 47.59375 39.597656 47.59375 C 36.257812 47.59375 33.554688 44.886719 33.554688 41.550781 L 33.554688 41.488281 C 33.554688 38.148438 36.257812 35.445312 39.597656 35.445312 C 42.933594 35.445312 45.640625 38.148438 45.640625 41.488281 Z M 45.640625 41.488281 " clip-rule="nonzero"/></clipPath><clipPath id="4691fcd043"><path d="M 0.554688 0.445312 L 12.640625 0.445312 L 12.640625 12.625 L 0.554688 12.625 Z M 0.554688 0.445312 " clip-rule="nonzero"/></clipPath><clipPath id="836e85663f"><path d="M 12.640625 6.488281 L 12.640625 6.550781 C 12.640625 9.886719 9.933594 12.59375 6.597656 12.59375 C 3.257812 12.59375 0.554688 9.886719 0.554688 6.550781 L 0.554688 6.488281 C 0.554688 3.148438 3.257812 0.445312 6.597656 0.445312 C 9.933594 0.445312 12.640625 3.148438 12.640625 6.488281 Z M 12.640625 6.488281 " clip-rule="nonzero"/></clipPath><clipPath id="ab5c2d2991"><rect x="0" width="13" y="0" height="13"/></clipPath><clipPath id="e685c93257"><path d="M 52 6 L 237.839844 6 L 237.839844 53 L 52 53 Z M 52 6 " clip-rule="nonzero"/></clipPath><clipPath id="91c2c738ef"><path d="M 168 9 L 185.839844 9 L 185.839844 34 L 168 34 Z M 168 9 " clip-rule="nonzero"/></clipPath><clipPath id="f53fd4fcc5"><rect x="0" width="186" y="0" height="47"/></clipPath><clipPath id="c760247f3a"><rect x="0" width="238" y="0" height="59"/></clipPath></defs><g transform="matrix(1, 0, 0, 1, 66, 8)"><g clip-path="url(#c760247f3a)"><g clip-path="url(#714d70bb1a)"><g clip-path="url(#15d7382d41)"><g transform="matrix(1, 0, 0, 1, 12, -0.000000000000001776)"><g clip-path="url(#329734c0de)"><g clip-path="url(#f46cec8707)"><g clip-path="url(#e6d49a1b38)"><path fill="#392110" d="M 12.097656 0.765625 L 12.097656 58.238281 L 0.03125 58.238281 L 0.03125 0.765625 Z M 12.097656 0.765625 " fill-opacity="1" fill-rule="nonzero"/></g></g></g></g></g></g><g clip-path="url(#9838892ca2)"><g clip-path="url(#64cf3092a1)"><g transform="matrix(1, 0, 0, 1, 0, 24)"><g clip-path="url(#3051100251)"><g clip-path="url(#74b9de71ca)"><g clip-path="url(#c651458dfa)"><path fill="#392110" d="M 23.933594 12.898438 L 0.152344 12.898438 L 0.152344 0.5 L 23.933594 0.5 Z M 23.933594 12.898438 " fill-opacity="1" fill-rule="nonzero"/></g></g></g></g></g></g><g clip-path="url(#04f8a0851c)"><g clip-path="url(#2c14f5b8cb)"><g transform="matrix(1, 0, 0, 1, 33, -0.000000000000001776)"><g clip-path="url(#8f07fe22dd)"><g clip-path="url(#45ad0d4e62)"><g clip-path="url(#d5553bd69c)"><path fill="#392110" d="M 0.554688 25.824219 L 0.554688 0.75 L 12.621094 0.75 L 12.621094 25.824219 Z M 0.554688 25.824219 " fill-opacity="1" fill-rule="nonzero"/></g></g></g></g></g></g><g clip-path="url(#c5c73856d4)"><g clip-path="url(#73b38709a9)"><g transform="matrix(1, 0, 0, 1, 18, 21)"><g clip-path="url(#00a088e56e)"><g clip-path="url(#d9fcead342)"><g clip-path="url(#3f1fa70332)"><path fill="#392110" d="M 24.75 9.308594 L 0.949219 9.308594 L 0.949219 0.117188 L 24.75 0.117188 Z M 24.75 9.308594 " fill-opacity="1" fill-rule="nonzero"/></g></g></g></g></g></g><g clip-path="url(#122114d416)"><g clip-path="url(#b48f1e8c27)"><g transform="matrix(1, 0, 0, 1, 33, 35)"><g clip-path="url(#e943d3b6d5)"><g clip-path="url(#483ccf0413)"><g clip-path="url(#011ca133f5)"><path fill="#392110" d="M 0.613281 23.230469 L 0.613281 0.511719 L 12.703125 0.511719 L 12.703125 23.230469 Z M 0.613281 23.230469 " fill-opacity="1" fill-rule="nonzero"/></g></g></g></g></g></g><g clip-path="url(#9a981a87ad)"><g clip-path="url(#64d29e74f3)"><g clip-path="url(#541ff97929)"><g transform="matrix(1, 0, 0, 1, 7, 22)"><g clip-path="url(#588e1ebe71)"><g clip-path="url(#8463c1b96f)"><g clip-path="url(#987e156e61)"><g clip-path="url(#c7f093c30d)"><path fill="#392110" d="M 6.792969 7.785156 L 0.304688 6.019531 L 2.070312 -0.46875 L 8.558594 1.300781 Z M 6.792969 7.785156 " fill-opacity="1" fill-rule="nonzero"/></g></g></g></g></g></g></g></g><g clip-path="url(#18886e18f5)"><g clip-path="url(#b1d9c70faf)"><g clip-path="url(#267227b629)"><g transform="matrix(1, 0, 0, 1, 9, 33)"><g clip-path="url(#b02405e7c0)"><g clip-path="url(#a599b4f748)"><g clip-path="url(#29886eda2b)"><g clip-path="url(#1f45ff79e6)"><path fill="#392110" d="M 7.261719 0.945312 L 6.492188 7.625 L -0.1875 6.851562 L 0.582031 0.171875 Z M 7.261719 0.945312 " fill-opacity="1" fill-rule="nonzero"/></g></g></g></g></g></g></g></g><g clip-path="url(#f648baa5cf)"><g clip-path="url(#8938e10616)"><g transform="matrix(1, 0, 0, 1, 20, 26)"><g clip-path="url(#3462c1311e)"><g clip-path="url(#b0c6b9fde0)"><g clip-path="url(#6ae077537b)"><path fill="#392110" d="M 0.574219 0.65625 L 7.296875 0.65625 L 7.296875 7.378906 L 0.574219 7.378906 Z M 0.574219 0.65625 " fill-opacity="1" fill-rule="nonzero"/></g></g></g></g></g></g><g clip-path="url(#91e67fc3b6)"><g clip-path="url(#b39c806bae)"><g clip-path="url(#c342d6696f)"><g transform="matrix(1, 0, 0, 1, 20, 18)"><g clip-path="url(#445a28e9ab)"><g clip-path="url(#ee35278d56)"><g clip-path="url(#078281c716)"><g clip-path="url(#e27224249d)"><path fill="#392110" d="M 0.992188 7.128906 L 0.507812 0.421875 L 7.214844 -0.0625 L 7.695312 6.644531 Z M 0.992188 7.128906 " fill-opacity="1" fill-rule="nonzero"/></g></g></g></g></g></g></g></g><g clip-path="url(#07bd9be5dd)"><g clip-path="url(#c2cf825def)"><g transform="matrix(1, 0, 0, 1, 38, 23)"><g clip-path="url(#c4c8374245)"><g clip-path="url(#76ed7075d4)"><g clip-path="url(#d05ca319ef)"><path fill="#392110" d="M 7.621094 7.308594 L 0.703125 7.308594 L 0.703125 0.09375 L 7.621094 0.09375 Z M 7.621094 7.308594 " fill-opacity="1" fill-rule="nonzero"/></g></g></g></g></g></g><g clip-path="url(#c12acd1463)"><g transform="matrix(1, 0, 0, 1, 33, 15)"><g clip-path="url(#547cff6a4d)"><g clip-path="url(#179673d809)"><path fill="#392110" d="M 0.941406 0.714844 L 12.625 0.714844 L 12.625 8.421875 L 0.941406 8.421875 Z M 0.941406 0.714844 " fill-opacity="1" fill-rule="nonzero"/></g></g></g></g><g clip-path="url(#6e5bf8e2ad)"><g clip-path="url(#4d4c939a46)"><g transform="matrix(1, 0, 0, 1, 33, 35)"><g clip-path="url(#ab5c2d2991)"><g clip-path="url(#4691fcd043)"><g clip-path="url(#836e85663f)"><path fill="#392110" d="M 0.554688 0.445312 L 12.640625 0.445312 L 12.640625 12.574219 L 0.554688 12.574219 Z M 0.554688 0.445312 " fill-opacity="1" fill-rule="nonzero"/></g></g></g></g></g></g><g clip-path="url(#e685c93257)"><g transform="matrix(1, 0, 0, 1, 52, 6)"><g clip-path="url(#f53fd4fcc5)"><g fill="#392110" fill-opacity="1"><g transform="translate(0.114949, 33.445448)"><g><path d="M 4.484375 0.46875 C 5.429688 0.46875 6.332031 0.210938 7.1875 -0.296875 C 8.050781 -0.804688 8.53125 -1.625 8.625 -2.75 C 8.644531 -3.71875 8.65625 -4.523438 8.65625 -5.171875 C 8.65625 -5.816406 8.671875 -6.300781 8.703125 -6.625 C 8.734375 -6.957031 8.828125 -7.125 8.984375 -7.125 L 10.046875 -7.15625 C 10.222656 -7.15625 10.332031 -7.140625 10.375 -7.109375 C 10.425781 -7.078125 10.453125 -7.019531 10.453125 -6.9375 L 10.453125 -5.9375 C 10.453125 -4.226562 10.503906 -2.976562 10.609375 -2.1875 C 10.765625 -1.320312 11.1875 -0.664062 11.875 -0.21875 C 12.5625 0.21875 13.332031 0.4375 14.1875 0.4375 C 14.769531 0.4375 15.347656 0.3125 15.921875 0.0625 C 17.179688 -0.488281 17.8125 -1.484375 17.8125 -2.921875 C 17.8125 -6.210938 17.832031 -8.898438 17.875 -10.984375 C 17.894531 -12.765625 17.90625 -15.414062 17.90625 -18.9375 C 17.90625 -20.195312 17.707031 -21.171875 17.3125 -21.859375 C 16.601562 -23.097656 15.507812 -23.71875 14.03125 -23.71875 C 13.4375 -23.71875 12.910156 -23.632812 12.453125 -23.46875 C 11.992188 -23.300781 11.675781 -23.117188 11.5 -22.921875 C 11.0625 -22.367188 10.785156 -21.6875 10.671875 -20.875 C 10.566406 -20.0625 10.515625 -19.28125 10.515625 -18.53125 L 10.578125 -14.59375 C 10.578125 -13.414062 10.476562 -12.828125 10.28125 -12.828125 L 9.359375 -12.796875 C 9.085938 -12.796875 8.921875 -12.828125 8.859375 -12.890625 C 8.804688 -12.960938 8.78125 -13.109375 8.78125 -13.328125 L 8.828125 -18.34375 L 8.8125 -20.1875 C 8.8125 -21.050781 8.582031 -21.753906 8.125 -22.296875 C 7.675781 -22.835938 7.109375 -23.226562 6.421875 -23.46875 C 5.742188 -23.71875 5.070312 -23.84375 4.40625 -23.84375 C 3.457031 -23.84375 2.6875 -23.429688 2.09375 -22.609375 C 1.507812 -21.796875 1.195312 -20.703125 1.15625 -19.328125 L 1.03125 -8.484375 C 1.050781 -7.273438 1.0625 -5.816406 1.0625 -4.109375 C 1.0625 -3.117188 1.109375 -2.347656 1.203125 -1.796875 C 1.304688 -1.242188 1.554688 -0.765625 1.953125 -0.359375 C 2.597656 0.191406 3.441406 0.46875 4.484375 0.46875 Z M 4.484375 0.46875 "/></g></g></g><g fill="#392110" fill-opacity="1"><g transform="translate(19.524573, 33.445448)"><g><path d="M 6.359375 0.65625 C 7.203125 0.65625 8.195312 0.632812 9.34375 0.59375 C 10.164062 0.570312 11.078125 0.554688 12.078125 0.546875 C 13.085938 0.535156 13.960938 0.234375 14.703125 -0.359375 C 15.441406 -0.960938 15.8125 -1.804688 15.8125 -2.890625 C 15.8125 -3.972656 15.53125 -4.878906 14.96875 -5.609375 C 14.40625 -6.335938 13.691406 -6.765625 12.828125 -6.890625 C 11.035156 -6.890625 9.625 -6.894531 8.59375 -6.90625 C 8.457031 -6.925781 8.375 -6.992188 8.34375 -7.109375 C 8.3125 -7.234375 8.296875 -7.394531 8.296875 -7.59375 C 8.296875 -7.789062 8.316406 -7.925781 8.359375 -8 C 8.398438 -8.082031 8.507812 -8.132812 8.6875 -8.15625 C 8.863281 -8.175781 9.160156 -8.195312 9.578125 -8.21875 L 10.9375 -8.265625 C 11.1875 -8.265625 11.539062 -8.265625 12 -8.265625 C 12.46875 -8.265625 12.941406 -8.335938 13.421875 -8.484375 C 14.484375 -8.796875 15.015625 -9.90625 15.015625 -11.8125 C 15.015625 -12.644531 14.851562 -13.257812 14.53125 -13.65625 C 14 -14.28125 13.132812 -14.59375 11.9375 -14.59375 C 10.632812 -14.59375 9.773438 -14.609375 9.359375 -14.640625 C 8.953125 -14.671875 8.707031 -14.734375 8.625 -14.828125 C 8.550781 -14.929688 8.515625 -15.082031 8.515625 -15.28125 L 8.515625 -15.390625 L 8.484375 -15.859375 C 8.484375 -16.003906 8.570312 -16.09375 8.75 -16.125 C 9.144531 -16.125 9.722656 -16.15625 10.484375 -16.21875 C 11.492188 -16.300781 12.378906 -16.34375 13.140625 -16.34375 C 14.035156 -16.34375 14.695312 -16.566406 15.125 -17.015625 C 15.789062 -17.722656 16.125 -18.640625 16.125 -19.765625 C 16.125 -20.804688 15.898438 -21.625 15.453125 -22.21875 C 14.585938 -23.28125 13.207031 -23.8125 11.3125 -23.8125 L 4.21875 -23.8125 C 2.332031 -23.695312 1.289062 -22.921875 1.09375 -21.484375 C 1.050781 -21.171875 1.03125 -20.175781 1.03125 -18.5 C 1.03125 -17.59375 1.035156 -16.664062 1.046875 -15.71875 C 1.054688 -14.769531 1.066406 -13.96875 1.078125 -13.3125 C 1.085938 -12.664062 1.101562 -12.34375 1.125 -12.34375 L 1.09375 -6.328125 C 1.09375 -4.296875 1.203125 -2.78125 1.421875 -1.78125 C 1.640625 -0.789062 2.117188 -0.140625 2.859375 0.171875 C 3.609375 0.492188 4.773438 0.65625 6.359375 0.65625 Z M 6.359375 0.65625 "/></g></g></g><g fill="#392110" fill-opacity="1"><g transform="translate(36.245804, 33.445448)"><g><path d="M 4.515625 0.265625 C 5.210938 0.265625 5.863281 0.132812 6.46875 -0.125 C 7.082031 -0.394531 7.582031 -0.882812 7.96875 -1.59375 C 8.351562 -2.300781 8.546875 -3.304688 8.546875 -4.609375 C 8.617188 -6.660156 8.65625 -8.90625 8.65625 -11.34375 C 8.65625 -15.738281 8.609375 -18.851562 8.515625 -20.6875 C 8.429688 -21.625 8.039062 -22.40625 7.34375 -23.03125 C 6.644531 -23.65625 5.78125 -23.96875 4.75 -23.96875 C 3.726562 -23.96875 2.890625 -23.640625 2.234375 -22.984375 C 1.585938 -22.335938 1.21875 -21.492188 1.125 -20.453125 C 1.082031 -20.148438 1.050781 -19.851562 1.03125 -19.5625 C 1.007812 -19.28125 0.992188 -18.921875 0.984375 -18.484375 C 0.972656 -18.054688 0.96875 -17.429688 0.96875 -16.609375 L 1.0625 -5.265625 L 1.03125 -4.46875 C 1.03125 -3.039062 1.273438 -1.894531 1.765625 -1.03125 C 2.265625 -0.164062 3.179688 0.265625 4.515625 0.265625 Z M 4.515625 0.265625 "/></g></g></g><g fill="#392110" fill-opacity="1"><g transform="translate(46.467613, 33.445448)"><g><path d="M 4.90625 -8.265625 L 6.4375 -8.296875 L 6.4375 -8.328125 L 8.328125 -8.328125 C 8.960938 -8.328125 9.4375 -8.347656 9.75 -8.390625 C 10.0625 -8.429688 10.378906 -8.53125 10.703125 -8.6875 C 11.234375 -8.957031 11.632812 -9.316406 11.90625 -9.765625 C 12.1875 -10.222656 12.328125 -10.710938 12.328125 -11.234375 C 12.328125 -11.960938 12.050781 -12.625 11.5 -13.21875 C 10.945312 -13.820312 10.140625 -14.125 9.078125 -14.125 L 7.953125 -14.125 C 6.515625 -14.125 5.429688 -14.113281 4.703125 -14.09375 C 3.972656 -14.070312 3.4375 -14.03125 3.09375 -13.96875 C 2.757812 -13.914062 2.476562 -13.828125 2.25 -13.703125 C 1.675781 -13.410156 1.253906 -13.035156 0.984375 -12.578125 C 0.722656 -12.128906 0.59375 -11.660156 0.59375 -11.171875 C 0.59375 -10.640625 0.742188 -10.132812 1.046875 -9.65625 C 1.347656 -9.1875 1.796875 -8.832031 2.390625 -8.59375 C 3.140625 -8.375 3.976562 -8.265625 4.90625 -8.265625 Z M 4.90625 -8.265625 "/></g></g></g><g fill="#392110" fill-opacity="1"><g transform="translate(59.377823, 33.445448)"><g><path d="M 4.3125 0.53125 C 8.78125 0.53125 12.097656 -0.785156 14.265625 -3.421875 C 16.140625 -5.691406 17.085938 -8.550781 17.109375 -12 C 17.109375 -13.945312 16.710938 -15.828125 15.921875 -17.640625 C 15.140625 -19.453125 13.875 -20.925781 12.125 -22.0625 C 10.382812 -23.207031 8.085938 -23.800781 5.234375 -23.84375 C 4.203125 -23.84375 3.273438 -23.414062 2.453125 -22.5625 C 1.640625 -21.707031 1.195312 -20.664062 1.125 -19.4375 C 1.0625 -17.957031 1.03125 -15.425781 1.03125 -11.84375 L 1.0625 -7.984375 C 1.0625 -5.421875 1.070312 -3.976562 1.09375 -3.65625 C 1.15625 -3.070312 1.320312 -2.457031 1.59375 -1.8125 C 1.875 -1.175781 2.25 -0.625 2.71875 -0.15625 C 3.1875 0.300781 3.71875 0.53125 4.3125 0.53125 Z M 8.1875 -9.09375 C 8.125 -9.09375 8.09375 -9.101562 8.09375 -9.125 C 8.113281 -9.363281 8.125 -11.109375 8.125 -14.359375 C 8.144531 -14.421875 8.1875 -14.453125 8.25 -14.453125 C 8.382812 -14.453125 8.570312 -14.363281 8.8125 -14.1875 C 9.0625 -14.007812 9.285156 -13.722656 9.484375 -13.328125 C 9.679688 -12.929688 9.78125 -12.390625 9.78125 -11.703125 C 9.78125 -11.046875 9.671875 -10.523438 9.453125 -10.140625 C 9.234375 -9.765625 8.988281 -9.492188 8.71875 -9.328125 C 8.457031 -9.171875 8.28125 -9.09375 8.1875 -9.09375 Z M 8.1875 -9.09375 "/></g></g></g><g fill="#392110" fill-opacity="1"><g transform="translate(76.660279, 33.445448)"><g><path d="M 2.515625 0.265625 C 3.296875 0.265625 3.984375 0.0234375 4.578125 -0.453125 C 5.171875 -0.941406 5.65625 -1.585938 6.03125 -2.390625 C 6.070312 -2.515625 6.128906 -2.613281 6.203125 -2.6875 C 6.285156 -2.769531 6.570312 -2.8125 7.0625 -2.8125 L 9.25 -2.78125 L 11.703125 -2.78125 C 12.171875 -2.78125 12.492188 -2.550781 12.671875 -2.09375 C 13.046875 -1.34375 13.535156 -0.785156 14.140625 -0.421875 C 14.753906 -0.0546875 15.378906 0.125 16.015625 0.125 C 16.609375 0.125 17.148438 -0.0078125 17.640625 -0.28125 C 18.128906 -0.5625 18.515625 -0.96875 18.796875 -1.5 C 18.992188 -1.914062 19.09375 -2.332031 19.09375 -2.75 C 19.09375 -3.257812 18.90625 -3.988281 18.53125 -4.9375 C 18.007812 -6.269531 17.140625 -8.800781 15.921875 -12.53125 C 15.054688 -15.113281 14.296875 -17.285156 13.640625 -19.046875 C 12.992188 -20.804688 12.414062 -22.007812 11.90625 -22.65625 C 11.175781 -23.46875 10.328125 -23.875 9.359375 -23.875 C 8.535156 -23.875 7.789062 -23.554688 7.125 -22.921875 C 7 -22.804688 6.890625 -22.679688 6.796875 -22.546875 C 6.597656 -22.265625 6.234375 -21.46875 5.703125 -20.15625 C 5.441406 -19.5625 3.363281 -14.347656 -0.53125 -4.515625 C -0.726562 -4.003906 -0.828125 -3.492188 -0.828125 -2.984375 C -0.828125 -2.347656 -0.679688 -1.71875 -0.390625 -1.09375 C -0.128906 -0.582031 0.179688 -0.25 0.546875 -0.09375 C 0.910156 0.0507812 1.257812 0.140625 1.59375 0.171875 L 1.828125 0.203125 C 2.066406 0.242188 2.296875 0.265625 2.515625 0.265625 Z M 9.25 -8.78125 C 8.914062 -8.78125 8.75 -8.816406 8.75 -8.890625 C 8.84375 -9.085938 8.976562 -9.34375 9.15625 -9.65625 C 9.332031 -9.976562 9.472656 -10.265625 9.578125 -10.515625 C 9.628906 -10.515625 9.675781 -10.503906 9.71875 -10.484375 C 9.875 -10.015625 10.03125 -9.632812 10.1875 -9.34375 C 10.3125 -9.125 10.375 -8.972656 10.375 -8.890625 C 10.375 -8.847656 10.351562 -8.828125 10.3125 -8.828125 Z M 9.25 -8.78125 "/></g></g></g><g fill="#392110" fill-opacity="1"><g transform="translate(92.494584, 33.445448)"><g><path d="M 9.421875 0.265625 C 10.503906 0.265625 11.394531 -0.0820312 12.09375 -0.78125 C 12.789062 -1.476562 13.171875 -2.457031 13.234375 -3.71875 L 13.265625 -8.484375 L 13.234375 -12.828125 C 13.234375 -14.285156 13.265625 -15.21875 13.328125 -15.625 C 13.347656 -15.882812 13.425781 -16.054688 13.5625 -16.140625 C 13.695312 -16.234375 13.804688 -16.28125 13.890625 -16.28125 C 14.460938 -16.28125 15.085938 -16.304688 15.765625 -16.359375 C 16.441406 -16.421875 17.035156 -16.59375 17.546875 -16.875 C 18.734375 -17.5625 19.328125 -18.769531 19.328125 -20.5 C 19.328125 -21.507812 19.0625 -22.273438 18.53125 -22.796875 C 18 -23.316406 17.40625 -23.664062 16.75 -23.84375 C 16.101562 -24.019531 15.582031 -24.109375 15.1875 -24.109375 L 4.90625 -24.109375 C 3.863281 -24.109375 2.859375 -23.890625 1.890625 -23.453125 C 0.429688 -22.804688 -0.296875 -21.6875 -0.296875 -20.09375 C -0.296875 -19.25 -0.0195312 -18.507812 0.53125 -17.875 C 1.082031 -17.25 1.644531 -16.828125 2.21875 -16.609375 C 2.507812 -16.484375 2.832031 -16.394531 3.1875 -16.34375 C 3.539062 -16.300781 4.09375 -16.28125 4.84375 -16.28125 C 5.039062 -16.28125 5.242188 -16.25 5.453125 -16.1875 C 5.660156 -16.132812 5.773438 -15.988281 5.796875 -15.75 C 5.929688 -13.070312 6 -9.398438 6 -4.734375 L 6 -3.421875 C 6 -3.398438 6.035156 -3.195312 6.109375 -2.8125 C 6.191406 -2.4375 6.347656 -2.007812 6.578125 -1.53125 C 6.816406 -1.0625 7.160156 -0.644531 7.609375 -0.28125 C 8.066406 0.0820312 8.671875 0.265625 9.421875 0.265625 Z M 9.421875 0.265625 "/></g></g></g><g fill="#392110" fill-opacity="1"><g transform="translate(109.097049, 33.445448)"><g><path d="M 2.515625 0.265625 C 3.296875 0.265625 3.984375 0.0234375 4.578125 -0.453125 C 5.171875 -0.941406 5.65625 -1.585938 6.03125 -2.390625 C 6.070312 -2.515625 6.128906 -2.613281 6.203125 -2.6875 C 6.285156 -2.769531 6.570312 -2.8125 7.0625 -2.8125 L 9.25 -2.78125 L 11.703125 -2.78125 C 12.171875 -2.78125 12.492188 -2.550781 12.671875 -2.09375 C 13.046875 -1.34375 13.535156 -0.785156 14.140625 -0.421875 C 14.753906 -0.0546875 15.378906 0.125 16.015625 0.125 C 16.609375 0.125 17.148438 -0.0078125 17.640625 -0.28125 C 18.128906 -0.5625 18.515625 -0.96875 18.796875 -1.5 C 18.992188 -1.914062 19.09375 -2.332031 19.09375 -2.75 C 19.09375 -3.257812 18.90625 -3.988281 18.53125 -4.9375 C 18.007812 -6.269531 17.140625 -8.800781 15.921875 -12.53125 C 15.054688 -15.113281 14.296875 -17.285156 13.640625 -19.046875 C 12.992188 -20.804688 12.414062 -22.007812 11.90625 -22.65625 C 11.175781 -23.46875 10.328125 -23.875 9.359375 -23.875 C 8.535156 -23.875 7.789062 -23.554688 7.125 -22.921875 C 7 -22.804688 6.890625 -22.679688 6.796875 -22.546875 C 6.597656 -22.265625 6.234375 -21.46875 5.703125 -20.15625 C 5.441406 -19.5625 3.363281 -14.347656 -0.53125 -4.515625 C -0.726562 -4.003906 -0.828125 -3.492188 -0.828125 -2.984375 C -0.828125 -2.347656 -0.679688 -1.71875 -0.390625 -1.09375 C -0.128906 -0.582031 0.179688 -0.25 0.546875 -0.09375 C 0.910156 0.0507812 1.257812 0.140625 1.59375 0.171875 L 1.828125 0.203125 C 2.066406 0.242188 2.296875 0.265625 2.515625 0.265625 Z M 9.25 -8.78125 C 8.914062 -8.78125 8.75 -8.816406 8.75 -8.890625 C 8.84375 -9.085938 8.976562 -9.34375 9.15625 -9.65625 C 9.332031 -9.976562 9.472656 -10.265625 9.578125 -10.515625 C 9.628906 -10.515625 9.675781 -10.503906 9.71875 -10.484375 C 9.875 -10.015625 10.03125 -9.632812 10.1875 -9.34375 C 10.3125 -9.125 10.375 -8.972656 10.375 -8.890625 C 10.375 -8.847656 10.351562 -8.828125 10.3125 -8.828125 Z M 9.25 -8.78125 "/></g></g></g><g fill="#392110" fill-opacity="1"><g transform="translate(127.974904, 33.445448)"><g><path d="M 4.484375 0.46875 C 5.429688 0.46875 6.332031 0.210938 7.1875 -0.296875 C 8.050781 -0.804688 8.53125 -1.625 8.625 -2.75 C 8.644531 -3.71875 8.65625 -4.523438 8.65625 -5.171875 C 8.65625 -5.816406 8.671875 -6.300781 8.703125 -6.625 C 8.734375 -6.957031 8.828125 -7.125 8.984375 -7.125 L 10.046875 -7.15625 C 10.222656 -7.15625 10.332031 -7.140625 10.375 -7.109375 C 10.425781 -7.078125 10.453125 -7.019531 10.453125 -6.9375 L 10.453125 -5.9375 C 10.453125 -4.226562 10.503906 -2.976562 10.609375 -2.1875 C 10.765625 -1.320312 11.1875 -0.664062 11.875 -0.21875 C 12.5625 0.21875 13.332031 0.4375 14.1875 0.4375 C 14.769531 0.4375 15.347656 0.3125 15.921875 0.0625 C 17.179688 -0.488281 17.8125 -1.484375 17.8125 -2.921875 C 17.8125 -6.210938 17.832031 -8.898438 17.875 -10.984375 C 17.894531 -12.765625 17.90625 -15.414062 17.90625 -18.9375 C 17.90625 -20.195312 17.707031 -21.171875 17.3125 -21.859375 C 16.601562 -23.097656 15.507812 -23.71875 14.03125 -23.71875 C 13.4375 -23.71875 12.910156 -23.632812 12.453125 -23.46875 C 11.992188 -23.300781 11.675781 -23.117188 11.5 -22.921875 C 11.0625 -22.367188 10.785156 -21.6875 10.671875 -20.875 C 10.566406 -20.0625 10.515625 -19.28125 10.515625 -18.53125 L 10.578125 -14.59375 C 10.578125 -13.414062 10.476562 -12.828125 10.28125 -12.828125 L 9.359375 -12.796875 C 9.085938 -12.796875 8.921875 -12.828125 8.859375 -12.890625 C 8.804688 -12.960938 8.78125 -13.109375 8.78125 -13.328125 L 8.828125 -18.34375 L 8.8125 -20.1875 C 8.8125 -21.050781 8.582031 -21.753906 8.125 -22.296875 C 7.675781 -22.835938 7.109375 -23.226562 6.421875 -23.46875 C 5.742188 -23.71875 5.070312 -23.84375 4.40625 -23.84375 C 3.457031 -23.84375 2.6875 -23.429688 2.09375 -22.609375 C 1.507812 -21.796875 1.195312 -20.703125 1.15625 -19.328125 L 1.03125 -8.484375 C 1.050781 -7.273438 1.0625 -5.816406 1.0625 -4.109375 C 1.0625 -3.117188 1.109375 -2.347656 1.203125 -1.796875 C 1.304688 -1.242188 1.554688 -0.765625 1.953125 -0.359375 C 2.597656 0.191406 3.441406 0.46875 4.484375 0.46875 Z M 4.484375 0.46875 "/></g></g></g><g fill="#392110" fill-opacity="1"><g transform="translate(147.384536, 33.445448)"><g><path d="M 9.578125 0.5625 C 11.390625 0.5625 12.9375 0.078125 14.21875 -0.890625 C 15.507812 -1.867188 16.503906 -3.078125 17.203125 -4.515625 C 17.910156 -5.953125 18.265625 -7.382812 18.265625 -8.8125 C 18.398438 -10.875 18.46875 -12.703125 18.46875 -14.296875 C 18.46875 -15.503906 18.445312 -16.566406 18.40625 -17.484375 L 18.375 -19.4375 C 18.375 -20.382812 18.148438 -21.171875 17.703125 -21.796875 C 17.265625 -22.429688 16.742188 -22.898438 16.140625 -23.203125 C 15.546875 -23.515625 15 -23.671875 14.5 -23.671875 C 13.582031 -23.671875 12.765625 -23.253906 12.046875 -22.421875 C 11.328125 -21.597656 10.9375 -20.644531 10.875 -19.5625 C 10.8125 -17.457031 10.78125 -15.46875 10.78125 -13.59375 C 10.78125 -11.625 10.738281 -10.296875 10.65625 -9.609375 C 10.582031 -8.929688 10.320312 -8.59375 9.875 -8.59375 C 9.4375 -8.59375 9.160156 -8.898438 9.046875 -9.515625 C 8.941406 -10.140625 8.890625 -10.90625 8.890625 -11.8125 L 8.890625 -13.796875 L 8.859375 -15.28125 L 8.890625 -17.21875 C 8.890625 -18.46875 8.773438 -19.546875 8.546875 -20.453125 C 8.441406 -20.679688 8.289062 -20.992188 8.09375 -21.390625 C 7.320312 -22.867188 6.296875 -23.609375 5.015625 -23.609375 C 3.265625 -23.609375 2.078125 -22.890625 1.453125 -21.453125 C 0.929688 -20.285156 0.671875 -18.039062 0.671875 -14.71875 C 0.671875 -12.90625 0.742188 -11.023438 0.890625 -9.078125 C 0.941406 -8.085938 1.140625 -7.035156 1.484375 -5.921875 C 1.835938 -4.804688 2.351562 -3.757812 3.03125 -2.78125 C 3.707031 -1.8125 4.582031 -1.007812 5.65625 -0.375 C 6.726562 0.25 8.035156 0.5625 9.578125 0.5625 Z M 9.578125 0.5625 "/></g></g></g><g clip-path="url(#91c2c738ef)"><g fill="#392110" fill-opacity="1"><g transform="translate(167.060036, 33.445448)"><g><path d="M 9.484375 -0.0625 C 10.703125 -0.0625 11.742188 -0.160156 12.609375 -0.359375 C 14.421875 -0.847656 15.78125 -1.769531 16.6875 -3.125 C 17.59375 -4.488281 18.046875 -5.957031 18.046875 -7.53125 C 18.046875 -8.71875 17.796875 -9.863281 17.296875 -10.96875 C 16.796875 -12.082031 16.046875 -13.023438 15.046875 -13.796875 C 14.878906 -13.910156 14.753906 -14.007812 14.671875 -14.09375 C 14.597656 -14.175781 14.5625 -14.265625 14.5625 -14.359375 C 14.5625 -14.472656 14.625 -14.648438 14.75 -14.890625 C 15.132812 -15.816406 15.328125 -16.734375 15.328125 -17.640625 C 15.328125 -19.035156 14.898438 -20.285156 14.046875 -21.390625 C 13.191406 -22.492188 11.992188 -23.265625 10.453125 -23.703125 C 9.691406 -23.890625 8.9375 -23.984375 8.1875 -23.984375 C 7.675781 -23.984375 7.160156 -23.960938 6.640625 -23.921875 C 6.128906 -23.890625 5.585938 -23.863281 5.015625 -23.84375 C 4.054688 -23.800781 3.222656 -23.546875 2.515625 -23.078125 C 1.804688 -22.617188 1.363281 -21.898438 1.1875 -20.921875 C 1.101562 -20.429688 1.050781 -18.007812 1.03125 -13.65625 L 1 -11.671875 L 1.03125 -3.34375 C 1.03125 -2.21875 1.328125 -1.394531 1.921875 -0.875 C 2.515625 -0.351562 3.164062 -0.09375 3.875 -0.09375 Z M 8.71875 -6.375 C 8.613281 -6.375 8.5625 -6.4375 8.5625 -6.5625 L 8.546875 -9.21875 C 8.546875 -9.476562 8.550781 -9.675781 8.5625 -9.8125 C 8.582031 -9.945312 8.65625 -10.015625 8.78125 -10.015625 C 9.15625 -9.992188 9.457031 -9.816406 9.6875 -9.484375 C 9.925781 -9.148438 10.046875 -8.742188 10.046875 -8.265625 C 10.046875 -7.898438 9.953125 -7.539062 9.765625 -7.1875 C 9.578125 -6.84375 9.265625 -6.582031 8.828125 -6.40625 Z M 8.59375 -15.390625 L 8.59375 -18.078125 C 9.226562 -18.078125 9.546875 -17.625 9.546875 -16.71875 C 9.546875 -16.40625 9.484375 -16.101562 9.359375 -15.8125 C 9.242188 -15.53125 8.988281 -15.390625 8.59375 -15.390625 Z M 8.59375 -15.390625 "/></g></g></g></g></g></g></g></g></g></svg>