<svg xmlns="http://www.w3.org/2000/svg" xmlns:xlink="http://www.w3.org/1999/xlink" width="500" zoomAndPan="magnify" viewBox="0 0 375 374.999991" height="500" preserveAspectRatio="xMidYMid meet" version="1.0"><defs><g/><clipPath id="2a4d46004f"><path d="M 110.933594 106.46875 L 143.699219 106.46875 L 143.699219 262.488281 L 110.933594 262.488281 Z M 110.933594 106.46875 " clip-rule="nonzero"/></clipPath><clipPath id="72ea8bfd4d"><path d="M 143.699219 122.851562 L 143.699219 246.089844 C 143.699219 250.433594 141.972656 254.601562 138.902344 257.671875 C 135.828125 260.746094 131.664062 262.472656 127.316406 262.472656 C 122.972656 262.472656 118.804688 260.746094 115.734375 257.671875 C 112.660156 254.601562 110.933594 250.433594 110.933594 246.089844 L 110.933594 122.851562 C 110.933594 118.507812 112.660156 114.339844 115.734375 111.265625 C 118.804688 108.195312 122.972656 106.46875 127.316406 106.46875 C 131.664062 106.46875 135.828125 108.195312 138.902344 111.265625 C 141.972656 114.339844 143.699219 118.507812 143.699219 122.851562 Z M 143.699219 122.851562 " clip-rule="nonzero"/></clipPath><clipPath id="03f926f9bf"><path d="M 0.933594 0.46875 L 33.699219 0.46875 L 33.699219 156.488281 L 0.933594 156.488281 Z M 0.933594 0.46875 " clip-rule="nonzero"/></clipPath><clipPath id="fa8076b7b9"><path d="M 33.699219 16.851562 L 33.699219 140.089844 C 33.699219 144.433594 31.972656 148.601562 28.902344 151.671875 C 25.828125 154.746094 21.664062 156.472656 17.316406 156.472656 C 12.972656 156.472656 8.804688 154.746094 5.734375 151.671875 C 2.660156 148.601562 0.933594 144.433594 0.933594 140.089844 L 0.933594 16.851562 C 0.933594 12.507812 2.660156 8.339844 5.734375 5.265625 C 8.804688 2.195312 12.972656 0.46875 17.316406 0.46875 C 21.664062 0.46875 25.828125 2.195312 28.902344 5.265625 C 31.972656 8.339844 33.699219 12.507812 33.699219 16.851562 Z M 33.699219 16.851562 " clip-rule="nonzero"/></clipPath><clipPath id="bb56259780"><rect x="0" width="34" y="0" height="157"/></clipPath><clipPath id="8957d2a9d5"><path d="M 78.558594 170.898438 L 143.25 170.898438 L 143.25 204.558594 L 78.558594 204.558594 Z M 78.558594 170.898438 " clip-rule="nonzero"/></clipPath><clipPath id="0c8e1866f6"><path d="M 126.417969 204.558594 L 95.5 204.558594 C 91.035156 204.558594 86.753906 202.785156 83.597656 199.628906 C 80.441406 196.472656 78.671875 192.191406 78.671875 187.726562 C 78.671875 183.265625 80.441406 178.984375 83.597656 175.828125 C 86.753906 172.671875 91.035156 170.898438 95.5 170.898438 L 126.417969 170.898438 C 130.882812 170.898438 135.164062 172.671875 138.320312 175.828125 C 141.476562 178.984375 143.25 183.265625 143.25 187.726562 C 143.25 192.191406 141.476562 196.472656 138.320312 199.628906 C 135.164062 202.785156 130.882812 204.558594 126.417969 204.558594 Z M 126.417969 204.558594 " clip-rule="nonzero"/></clipPath><clipPath id="9fcfdeeb59"><path d="M 0.558594 0.898438 L 65.25 0.898438 L 65.25 34.558594 L 0.558594 34.558594 Z M 0.558594 0.898438 " clip-rule="nonzero"/></clipPath><clipPath id="b0778fc315"><path d="M 48.417969 34.558594 L 17.5 34.558594 C 13.035156 34.558594 8.753906 32.785156 5.597656 29.628906 C 2.441406 26.472656 0.671875 22.191406 0.671875 17.726562 C 0.671875 13.265625 2.441406 8.984375 5.597656 5.828125 C 8.753906 2.671875 13.035156 0.898438 17.5 0.898438 L 48.417969 0.898438 C 52.882812 0.898438 57.164062 2.671875 60.320312 5.828125 C 63.476562 8.984375 65.25 13.265625 65.25 17.726562 C 65.25 22.191406 63.476562 26.472656 60.320312 29.628906 C 57.164062 32.785156 52.882812 34.558594 48.417969 34.558594 Z M 48.417969 34.558594 " clip-rule="nonzero"/></clipPath><clipPath id="5d07194720"><rect x="0" width="66" y="0" height="35"/></clipPath><clipPath id="20912eb07e"><path d="M 169.367188 106.421875 L 202.128906 106.421875 L 202.128906 174.5 L 169.367188 174.5 Z M 169.367188 106.421875 " clip-rule="nonzero"/></clipPath><clipPath id="daa14aeaef"><path d="M 169.367188 158.121094 L 169.367188 122.847656 C 169.367188 118.503906 171.09375 114.335938 174.167969 111.265625 C 177.238281 108.191406 181.402344 106.46875 185.75 106.46875 C 190.09375 106.46875 194.257812 108.191406 197.332031 111.265625 C 200.402344 114.335938 202.128906 118.503906 202.128906 122.847656 L 202.128906 158.121094 C 202.128906 162.464844 200.402344 166.632812 197.332031 169.703125 C 194.257812 172.773438 190.09375 174.5 185.75 174.5 C 181.402344 174.5 177.238281 172.773438 174.167969 169.703125 C 171.09375 166.632812 169.367188 162.464844 169.367188 158.121094 Z M 169.367188 158.121094 " clip-rule="nonzero"/></clipPath><clipPath id="a8d7a20dc9"><path d="M 0.367188 0.421875 L 33.128906 0.421875 L 33.128906 68.5 L 0.367188 68.5 Z M 0.367188 0.421875 " clip-rule="nonzero"/></clipPath><clipPath id="1844f72b4b"><path d="M 0.367188 52.121094 L 0.367188 16.847656 C 0.367188 12.503906 2.09375 8.335938 5.167969 5.265625 C 8.238281 2.191406 12.402344 0.46875 16.75 0.46875 C 21.09375 0.46875 25.257812 2.191406 28.332031 5.265625 C 31.402344 8.335938 33.128906 12.503906 33.128906 16.847656 L 33.128906 52.121094 C 33.128906 56.464844 31.402344 60.632812 28.332031 63.703125 C 25.257812 66.773438 21.09375 68.5 16.75 68.5 C 12.402344 68.5 8.238281 66.773438 5.167969 63.703125 C 2.09375 60.632812 0.367188 56.464844 0.367188 52.121094 Z M 0.367188 52.121094 " clip-rule="nonzero"/></clipPath><clipPath id="b13d529e21"><rect x="0" width="34" y="0" height="69"/></clipPath><clipPath id="2b2086c4a8"><path d="M 129.71875 161.722656 L 194.332031 161.722656 L 194.332031 186.671875 L 129.71875 186.671875 Z M 129.71875 161.722656 " clip-rule="nonzero"/></clipPath><clipPath id="014f5ba6b8"><path d="M 181.855469 186.671875 L 142.226562 186.671875 C 135.335938 186.671875 129.753906 181.085938 129.753906 174.195312 C 129.753906 167.304688 135.335938 161.722656 142.226562 161.722656 L 181.855469 161.722656 C 188.746094 161.722656 194.332031 167.304688 194.332031 174.195312 C 194.332031 181.085938 188.746094 186.671875 181.855469 186.671875 Z M 181.855469 186.671875 " clip-rule="nonzero"/></clipPath><clipPath id="c719dccb94"><path d="M 0.71875 0.722656 L 65.332031 0.722656 L 65.332031 25.671875 L 0.71875 25.671875 Z M 0.71875 0.722656 " clip-rule="nonzero"/></clipPath><clipPath id="ee009aac44"><path d="M 52.855469 25.671875 L 13.226562 25.671875 C 6.335938 25.671875 0.753906 20.085938 0.753906 13.195312 C 0.753906 6.304688 6.335938 0.722656 13.226562 0.722656 L 52.855469 0.722656 C 59.746094 0.722656 65.332031 6.304688 65.332031 13.195312 C 65.332031 20.085938 59.746094 25.671875 52.855469 25.671875 Z M 52.855469 25.671875 " clip-rule="nonzero"/></clipPath><clipPath id="f97ac01262"><rect x="0" width="66" y="0" height="26"/></clipPath><clipPath id="e7121ec12e"><path d="M 169.527344 200.667969 L 202.351562 200.667969 L 202.351562 262.46875 L 169.527344 262.46875 Z M 169.527344 200.667969 " clip-rule="nonzero"/></clipPath><clipPath id="06cc11dad1"><path d="M 169.527344 246.054688 L 169.527344 217.183594 C 169.527344 212.832031 171.257812 208.65625 174.332031 205.578125 C 177.410156 202.5 181.585938 200.773438 185.9375 200.773438 C 190.292969 200.773438 194.464844 202.5 197.542969 205.578125 C 200.621094 208.65625 202.351562 212.832031 202.351562 217.183594 L 202.351562 246.054688 C 202.351562 250.410156 200.621094 254.582031 197.542969 257.660156 C 194.464844 260.738281 190.292969 262.46875 185.9375 262.46875 C 181.585938 262.46875 177.410156 260.738281 174.332031 257.660156 C 171.257812 254.582031 169.527344 250.410156 169.527344 246.054688 Z M 169.527344 246.054688 " clip-rule="nonzero"/></clipPath><clipPath id="78815394ef"><path d="M 0.527344 0.667969 L 33.351562 0.667969 L 33.351562 62.46875 L 0.527344 62.46875 Z M 0.527344 0.667969 " clip-rule="nonzero"/></clipPath><clipPath id="87830885bf"><path d="M 0.527344 46.054688 L 0.527344 17.183594 C 0.527344 12.832031 2.257812 8.65625 5.332031 5.578125 C 8.410156 2.5 12.585938 0.773438 16.9375 0.773438 C 21.292969 0.773438 25.464844 2.5 28.542969 5.578125 C 31.621094 8.65625 33.351562 12.832031 33.351562 17.183594 L 33.351562 46.054688 C 33.351562 50.410156 31.621094 54.582031 28.542969 57.660156 C 25.464844 60.738281 21.292969 62.46875 16.9375 62.46875 C 12.585938 62.46875 8.410156 60.738281 5.332031 57.660156 C 2.257812 54.582031 0.527344 50.410156 0.527344 46.054688 Z M 0.527344 46.054688 " clip-rule="nonzero"/></clipPath><clipPath id="e9f1b1a85f"><rect x="0" width="34" y="0" height="63"/></clipPath><clipPath id="fc6f161512"><path d="M 98 165 L 121 165 L 121 182 L 98 182 Z M 98 165 " clip-rule="nonzero"/></clipPath><clipPath id="e8a4ff9481"><path d="M 115.71875 185.253906 L 98.109375 180.457031 L 102.902344 162.847656 L 120.515625 167.640625 Z M 115.71875 185.253906 " clip-rule="nonzero"/></clipPath><clipPath id="ca6f6280aa"><path d="M 120.515625 167.640625 C 119.25 172.28125 116.136719 176.304688 111.964844 178.691406 C 107.792969 181.078125 102.746094 181.71875 98.109375 180.457031 L 100.554688 171.472656 C 102.824219 172.089844 105.296875 171.777344 107.34375 170.605469 C 109.386719 169.4375 110.910156 167.46875 111.53125 165.195312 Z M 120.515625 167.640625 " clip-rule="nonzero"/></clipPath><clipPath id="8f7562ed69"><path d="M 0 0.121094 L 22.71875 0.121094 L 22.71875 16.921875 L 0 16.921875 Z M 0 0.121094 " clip-rule="nonzero"/></clipPath><clipPath id="bea4589196"><path d="M 17.71875 20.253906 L 0.109375 15.457031 L 4.902344 -2.152344 L 22.515625 2.640625 Z M 17.71875 20.253906 " clip-rule="nonzero"/></clipPath><clipPath id="ca85583d49"><path d="M 22.515625 2.640625 C 21.25 7.28125 18.136719 11.304688 13.964844 13.691406 C 9.792969 16.078125 4.746094 16.71875 0.109375 15.457031 L 2.554688 6.472656 C 4.824219 7.089844 7.296875 6.777344 9.34375 5.605469 C 11.386719 4.4375 12.910156 2.46875 13.53125 0.195312 Z M 22.515625 2.640625 " clip-rule="nonzero"/></clipPath><clipPath id="3b3d789a71"><rect x="0" width="23" y="0" height="17"/></clipPath><clipPath id="1b4fcfc434"><path d="M 103 194 L 121 194 L 121 215 L 103 215 Z M 103 194 " clip-rule="nonzero"/></clipPath><clipPath id="5d26b50ab5"><path d="M 122.421875 196.539062 L 120.328125 214.671875 L 102.195312 212.582031 L 104.289062 194.449219 Z M 122.421875 196.539062 " clip-rule="nonzero"/></clipPath><clipPath id="e83c98f63e"><path d="M 104.289062 194.449219 C 109.066406 195 113.511719 197.472656 116.5 201.238281 C 119.484375 205.003906 120.878906 209.898438 120.328125 214.671875 L 111.078125 213.605469 C 111.347656 211.265625 110.664062 208.871094 109.203125 207.023438 C 107.738281 205.179688 105.5625 203.96875 103.222656 203.699219 Z M 104.289062 194.449219 " clip-rule="nonzero"/></clipPath><clipPath id="8baf54d223"><path d="M 0.199219 0.398438 L 17.960938 0.398438 L 17.960938 20.800781 L 0.199219 20.800781 Z M 0.199219 0.398438 " clip-rule="nonzero"/></clipPath><clipPath id="7d3b652997"><path d="M 19.421875 2.539062 L 17.328125 20.671875 L -0.804688 18.582031 L 1.289062 0.449219 Z M 19.421875 2.539062 " clip-rule="nonzero"/></clipPath><clipPath id="1aea6b4198"><path d="M 1.289062 0.449219 C 6.066406 1 10.511719 3.472656 13.5 7.238281 C 16.484375 11.003906 17.878906 15.898438 17.328125 20.671875 L 8.078125 19.605469 C 8.347656 17.265625 7.664062 14.871094 6.203125 13.023438 C 4.738281 11.179688 2.5625 9.96875 0.222656 9.699219 Z M 1.289062 0.449219 " clip-rule="nonzero"/></clipPath><clipPath id="d750ad0684"><rect x="0" width="18" y="0" height="21"/></clipPath><clipPath id="a64e31ed99"><path d="M 134.132812 176.75 L 152.382812 176.75 L 152.382812 195.003906 L 134.132812 195.003906 Z M 134.132812 176.75 " clip-rule="nonzero"/></clipPath><clipPath id="e4f1bc4125"><path d="M 134.132812 195.003906 C 134.132812 190.195312 136.078125 185.496094 139.476562 182.097656 C 142.875 178.699219 147.578125 176.75 152.382812 176.75 L 152.382812 186.0625 C 150.027344 186.0625 147.726562 187.015625 146.0625 188.679688 C 144.398438 190.347656 143.441406 192.648438 143.441406 195.003906 Z M 134.132812 195.003906 " clip-rule="nonzero"/></clipPath><clipPath id="9a754c000a"><path d="M 0.132812 0.75 L 18.382812 0.75 L 18.382812 19.003906 L 0.132812 19.003906 Z M 0.132812 0.75 " clip-rule="nonzero"/></clipPath><clipPath id="a83f6aaa39"><path d="M 0.132812 19.003906 C 0.132812 14.195312 2.078125 9.496094 5.476562 6.097656 C 8.875 2.699219 13.578125 0.75 18.382812 0.75 L 18.382812 10.0625 C 16.027344 10.0625 13.726562 11.015625 12.0625 12.679688 C 10.398438 14.347656 9.441406 16.648438 9.441406 19.003906 Z M 0.132812 19.003906 " clip-rule="nonzero"/></clipPath><clipPath id="4fbe33f6fc"><rect x="0" width="19" y="0" height="20"/></clipPath><clipPath id="f67538f4e8"><path d="M 133 153 L 154 153 L 154 172 L 133 172 Z M 133 153 " clip-rule="nonzero"/></clipPath><clipPath id="63eab405d7"><path d="M 135.261719 172.605469 L 133.949219 154.398438 L 152.15625 153.089844 L 153.464844 171.292969 Z M 135.261719 172.605469 " clip-rule="nonzero"/></clipPath><clipPath id="0cc15bfca5"><path d="M 153.464844 171.292969 C 148.671875 171.640625 143.84375 170.035156 140.207031 166.886719 C 136.574219 163.742188 134.292969 159.195312 133.949219 154.398438 L 143.238281 153.730469 C 143.40625 156.078125 144.523438 158.308594 146.304688 159.847656 C 148.082031 161.390625 150.449219 162.175781 152.796875 162.003906 Z M 153.464844 171.292969 " clip-rule="nonzero"/></clipPath><clipPath id="85460f3f9d"><path d="M 0.921875 0.601562 L 20.601562 0.601562 L 20.601562 18.839844 L 0.921875 18.839844 Z M 0.921875 0.601562 " clip-rule="nonzero"/></clipPath><clipPath id="4ed4087776"><path d="M 2.261719 19.605469 L 0.949219 1.398438 L 19.15625 0.0898438 L 20.464844 18.292969 Z M 2.261719 19.605469 " clip-rule="nonzero"/></clipPath><clipPath id="c169a9bab9"><path d="M 20.464844 18.292969 C 15.671875 18.640625 10.84375 17.035156 7.207031 13.886719 C 3.574219 10.742188 1.292969 6.195312 0.949219 1.398438 L 10.238281 0.730469 C 10.40625 3.078125 11.523438 5.308594 13.304688 6.847656 C 15.082031 8.390625 17.449219 9.175781 19.796875 9.003906 Z M 20.464844 18.292969 " clip-rule="nonzero"/></clipPath><clipPath id="4098746133"><rect x="0" width="21" y="0" height="19"/></clipPath><clipPath id="fee5d4c99f"><path d="M 183.347656 167.015625 L 202.125 167.015625 L 202.125 186.671875 L 183.347656 186.671875 Z M 183.347656 167.015625 " clip-rule="nonzero"/></clipPath><clipPath id="8b8d455050"><path d="M 202.125 167.070312 C 202.125 172.230469 200.121094 177.28125 196.625 180.929688 C 193.128906 184.582031 188.292969 186.671875 183.347656 186.671875 L 183.347656 176.671875 C 185.769531 176.671875 188.136719 175.648438 189.851562 173.859375 C 191.5625 172.070312 192.542969 169.597656 192.542969 167.070312 Z M 202.125 167.070312 " clip-rule="nonzero"/></clipPath><clipPath id="6373f4ec13"><path d="M 0.347656 0.0390625 L 19.125 0.0390625 L 19.125 19.671875 L 0.347656 19.671875 Z M 0.347656 0.0390625 " clip-rule="nonzero"/></clipPath><clipPath id="a2ce160de3"><path d="M 19.125 0.0703125 C 19.125 5.230469 17.121094 10.28125 13.625 13.929688 C 10.128906 17.582031 5.292969 19.671875 0.347656 19.671875 L 0.347656 9.671875 C 2.769531 9.671875 5.136719 8.648438 6.851562 6.859375 C 8.5625 5.070312 9.542969 2.597656 9.542969 0.0703125 Z M 19.125 0.0703125 " clip-rule="nonzero"/></clipPath><clipPath id="0f56fe00c0"><rect x="0" width="20" y="0" height="20"/></clipPath><clipPath id="4677db905c"><path d="M 170.425781 147.054688 L 202.128906 147.054688 L 202.128906 167.976562 L 170.425781 167.976562 Z M 170.425781 147.054688 " clip-rule="nonzero"/></clipPath><clipPath id="1f85df360a"><path d="M 0.425781 0.0546875 L 32.128906 0.0546875 L 32.128906 20.976562 L 0.425781 20.976562 Z M 0.425781 0.0546875 " clip-rule="nonzero"/></clipPath><clipPath id="9b0ab27520"><rect x="0" width="33" y="0" height="21"/></clipPath><clipPath id="c58c89d908"><path d="M 169.367188 200.609375 L 202.175781 200.609375 L 202.175781 233.675781 L 169.367188 233.675781 Z M 169.367188 200.609375 " clip-rule="nonzero"/></clipPath><clipPath id="adb9211a5b"><path d="M 202.175781 208.109375 L 202.175781 226.09375 C 202.175781 230.234375 198.820312 233.59375 194.675781 233.59375 L 176.867188 233.59375 C 172.726562 233.59375 169.367188 230.234375 169.367188 226.09375 L 169.367188 208.109375 C 169.367188 203.96875 172.726562 200.609375 176.867188 200.609375 L 194.675781 200.609375 C 198.820312 200.609375 202.175781 203.96875 202.175781 208.109375 Z M 202.175781 208.109375 " clip-rule="nonzero"/></clipPath><clipPath id="25e68d056e"><path d="M 0.367188 0.609375 L 33.175781 0.609375 L 33.175781 33.675781 L 0.367188 33.675781 Z M 0.367188 0.609375 " clip-rule="nonzero"/></clipPath><clipPath id="62a89b28fc"><path d="M 33.175781 8.109375 L 33.175781 26.09375 C 33.175781 30.234375 29.820312 33.59375 25.675781 33.59375 L 7.867188 33.59375 C 3.726562 33.59375 0.367188 30.234375 0.367188 26.09375 L 0.367188 8.109375 C 0.367188 3.96875 3.726562 0.609375 7.867188 0.609375 L 25.675781 0.609375 C 29.820312 0.609375 33.175781 3.96875 33.175781 8.109375 Z M 33.175781 8.109375 " clip-rule="nonzero"/></clipPath><clipPath id="2c56bdde51"><rect x="0" width="34" y="0" height="34"/></clipPath></defs><rect x="-37.5" width="450" fill="#ffffff" y="-37.499999" height="449.999989" fill-opacity="1"/><rect x="-37.5" width="450" fill="#e2a03b" y="-37.499999" height="449.999989" fill-opacity="1"/><g clip-path="url(#2a4d46004f)"><g clip-path="url(#72ea8bfd4d)"><g transform="matrix(1, 0, 0, 1, 110, 106)"><g clip-path="url(#bb56259780)"><g clip-path="url(#03f926f9bf)"><g clip-path="url(#fa8076b7b9)"><path fill="#392110" d="M 33.699219 0.46875 L 33.699219 156.488281 L 0.933594 156.488281 L 0.933594 0.46875 Z M 33.699219 0.46875 " fill-opacity="1" fill-rule="nonzero"/></g></g></g></g></g></g><g clip-path="url(#8957d2a9d5)"><g clip-path="url(#0c8e1866f6)"><g transform="matrix(1, 0, 0, 1, 78, 170)"><g clip-path="url(#5d07194720)"><g clip-path="url(#9fcfdeeb59)"><g clip-path="url(#b0778fc315)"><path fill="#392110" d="M 65.25 34.558594 L 0.691406 34.558594 L 0.691406 0.898438 L 65.25 0.898438 Z M 65.25 34.558594 " fill-opacity="1" fill-rule="nonzero"/></g></g></g></g></g></g><g clip-path="url(#20912eb07e)"><g clip-path="url(#daa14aeaef)"><g transform="matrix(1, 0, 0, 1, 169, 106)"><g clip-path="url(#b13d529e21)"><g clip-path="url(#a8d7a20dc9)"><g clip-path="url(#1844f72b4b)"><path fill="#392110" d="M 0.367188 68.5 L 0.367188 0.421875 L 33.128906 0.421875 L 33.128906 68.5 Z M 0.367188 68.5 " fill-opacity="1" fill-rule="nonzero"/></g></g></g></g></g></g><g clip-path="url(#2b2086c4a8)"><g clip-path="url(#014f5ba6b8)"><g transform="matrix(1, 0, 0, 1, 129, 161)"><g clip-path="url(#f97ac01262)"><g clip-path="url(#c719dccb94)"><g clip-path="url(#ee009aac44)"><path fill="#392110" d="M 65.332031 25.671875 L 0.71875 25.671875 L 0.71875 0.722656 L 65.332031 0.722656 Z M 65.332031 25.671875 " fill-opacity="1" fill-rule="nonzero"/></g></g></g></g></g></g><g clip-path="url(#e7121ec12e)"><g clip-path="url(#06cc11dad1)"><g transform="matrix(1, 0, 0, 1, 169, 200)"><g clip-path="url(#e9f1b1a85f)"><g clip-path="url(#78815394ef)"><g clip-path="url(#87830885bf)"><path fill="#392110" d="M 0.527344 62.46875 L 0.527344 0.796875 L 33.351562 0.796875 L 33.351562 62.46875 Z M 0.527344 62.46875 " fill-opacity="1" fill-rule="nonzero"/></g></g></g></g></g></g><g clip-path="url(#fc6f161512)"><g clip-path="url(#e8a4ff9481)"><g clip-path="url(#ca6f6280aa)"><g transform="matrix(1, 0, 0, 1, 98, 165)"><g clip-path="url(#3b3d789a71)"><g clip-path="url(#8f7562ed69)"><g clip-path="url(#bea4589196)"><g clip-path="url(#ca85583d49)"><path fill="#392110" d="M 17.71875 20.253906 L 0.109375 15.457031 L 4.902344 -2.152344 L 22.515625 2.640625 Z M 17.71875 20.253906 " fill-opacity="1" fill-rule="nonzero"/></g></g></g></g></g></g></g></g><g clip-path="url(#1b4fcfc434)"><g clip-path="url(#5d26b50ab5)"><g clip-path="url(#e83c98f63e)"><g transform="matrix(1, 0, 0, 1, 103, 194)"><g clip-path="url(#d750ad0684)"><g clip-path="url(#8baf54d223)"><g clip-path="url(#7d3b652997)"><g clip-path="url(#1aea6b4198)"><path fill="#392110" d="M 19.421875 2.539062 L 17.328125 20.671875 L -0.804688 18.582031 L 1.289062 0.449219 Z M 19.421875 2.539062 " fill-opacity="1" fill-rule="nonzero"/></g></g></g></g></g></g></g></g><g clip-path="url(#a64e31ed99)"><g clip-path="url(#e4f1bc4125)"><g transform="matrix(1, 0, 0, 1, 134, 176)"><g clip-path="url(#4fbe33f6fc)"><g clip-path="url(#9a754c000a)"><g clip-path="url(#a83f6aaa39)"><path fill="#392110" d="M 0.132812 0.75 L 18.382812 0.75 L 18.382812 19.003906 L 0.132812 19.003906 Z M 0.132812 0.75 " fill-opacity="1" fill-rule="nonzero"/></g></g></g></g></g></g><g clip-path="url(#f67538f4e8)"><g clip-path="url(#63eab405d7)"><g clip-path="url(#0cc15bfca5)"><g transform="matrix(1, 0, 0, 1, 133, 153)"><g clip-path="url(#4098746133)"><g clip-path="url(#85460f3f9d)"><g clip-path="url(#4ed4087776)"><g clip-path="url(#c169a9bab9)"><path fill="#392110" d="M 2.261719 19.605469 L 0.949219 1.398438 L 19.15625 0.0898438 L 20.464844 18.292969 Z M 2.261719 19.605469 " fill-opacity="1" fill-rule="nonzero"/></g></g></g></g></g></g></g></g><g clip-path="url(#fee5d4c99f)"><g clip-path="url(#8b8d455050)"><g transform="matrix(1, 0, 0, 1, 183, 167)"><g clip-path="url(#0f56fe00c0)"><g clip-path="url(#6373f4ec13)"><g clip-path="url(#a2ce160de3)"><path fill="#392110" d="M 19.125 19.671875 L 0.347656 19.671875 L 0.347656 0.0859375 L 19.125 0.0859375 Z M 19.125 19.671875 " fill-opacity="1" fill-rule="nonzero"/></g></g></g></g></g></g><g clip-path="url(#4677db905c)"><g transform="matrix(1, 0, 0, 1, 170, 147)"><g clip-path="url(#9b0ab27520)"><g clip-path="url(#1f85df360a)"><path fill="#392110" d="M 0.425781 0.0546875 L 32.140625 0.0546875 L 32.140625 20.976562 L 0.425781 20.976562 Z M 0.425781 0.0546875 " fill-opacity="1" fill-rule="nonzero"/></g></g></g></g><g clip-path="url(#c58c89d908)"><g clip-path="url(#adb9211a5b)"><g transform="matrix(1, 0, 0, 1, 169, 200)"><g clip-path="url(#2c56bdde51)"><g clip-path="url(#25e68d056e)"><g clip-path="url(#62a89b28fc)"><path fill="#392110" d="M 0.367188 0.609375 L 33.175781 0.609375 L 33.175781 33.546875 L 0.367188 33.546875 Z M 0.367188 0.609375 " fill-opacity="1" fill-rule="nonzero"/></g></g></g></g></g></g><g fill="#392110" fill-opacity="1"><g transform="translate(218.38379, 147.287854)"><g><path d="M 6.09375 0.640625 C 7.375 0.640625 8.597656 0.296875 9.765625 -0.390625 C 10.929688 -1.085938 11.582031 -2.203125 11.71875 -3.734375 C 11.738281 -5.046875 11.75 -6.140625 11.75 -7.015625 C 11.75 -7.898438 11.769531 -8.5625 11.8125 -9 C 11.851562 -9.445312 11.976562 -9.671875 12.1875 -9.671875 L 13.640625 -9.703125 C 13.878906 -9.703125 14.03125 -9.679688 14.09375 -9.640625 C 14.164062 -9.609375 14.203125 -9.535156 14.203125 -9.421875 L 14.203125 -8.0625 C 14.203125 -5.738281 14.269531 -4.039062 14.40625 -2.96875 C 14.613281 -1.789062 15.1875 -0.898438 16.125 -0.296875 C 17.0625 0.304688 18.101562 0.609375 19.25 0.609375 C 20.050781 0.609375 20.84375 0.429688 21.625 0.078125 C 23.332031 -0.671875 24.1875 -2.019531 24.1875 -3.96875 C 24.1875 -8.4375 24.210938 -12.085938 24.265625 -14.921875 C 24.296875 -17.328125 24.3125 -20.921875 24.3125 -25.703125 C 24.3125 -27.421875 24.039062 -28.75 23.5 -29.6875 C 22.539062 -31.363281 21.054688 -32.203125 19.046875 -32.203125 C 18.242188 -32.203125 17.53125 -32.085938 16.90625 -31.859375 C 16.28125 -31.640625 15.847656 -31.394531 15.609375 -31.125 C 15.015625 -30.375 14.644531 -29.441406 14.5 -28.328125 C 14.351562 -27.222656 14.28125 -26.164062 14.28125 -25.15625 L 14.359375 -19.8125 C 14.359375 -18.207031 14.222656 -17.40625 13.953125 -17.40625 L 12.71875 -17.375 C 12.34375 -17.375 12.113281 -17.414062 12.03125 -17.5 C 11.945312 -17.59375 11.90625 -17.789062 11.90625 -18.09375 L 12 -24.90625 L 11.953125 -27.390625 C 11.953125 -28.566406 11.644531 -29.519531 11.03125 -30.25 C 10.414062 -30.988281 9.644531 -31.523438 8.71875 -31.859375 C 7.800781 -32.203125 6.882812 -32.375 5.96875 -32.375 C 4.6875 -32.375 3.644531 -31.816406 2.84375 -30.703125 C 2.039062 -29.597656 1.613281 -28.109375 1.5625 -26.234375 L 1.40625 -11.515625 C 1.425781 -9.878906 1.4375 -7.898438 1.4375 -5.578125 C 1.4375 -4.234375 1.503906 -3.1875 1.640625 -2.4375 C 1.773438 -1.695312 2.109375 -1.046875 2.640625 -0.484375 C 3.523438 0.265625 4.675781 0.640625 6.09375 0.640625 Z M 6.09375 0.640625 "/></g></g></g><g fill="#392110" fill-opacity="1"><g transform="translate(244.730491, 147.287854)"><g><path d="M 8.625 0.875 C 9.769531 0.875 11.117188 0.847656 12.671875 0.796875 C 13.796875 0.773438 15.039062 0.753906 16.40625 0.734375 C 17.769531 0.722656 18.953125 0.3125 19.953125 -0.5 C 20.953125 -1.3125 21.453125 -2.457031 21.453125 -3.9375 C 21.453125 -5.40625 21.070312 -6.632812 20.3125 -7.625 C 19.550781 -8.613281 18.582031 -9.1875 17.40625 -9.34375 C 14.96875 -9.34375 13.054688 -9.359375 11.671875 -9.390625 C 11.484375 -9.410156 11.367188 -9.5 11.328125 -9.65625 C 11.285156 -9.820312 11.265625 -10.039062 11.265625 -10.3125 C 11.265625 -10.570312 11.289062 -10.753906 11.34375 -10.859375 C 11.40625 -10.972656 11.554688 -11.039062 11.796875 -11.0625 C 12.035156 -11.09375 12.4375 -11.125 13 -11.15625 L 14.84375 -11.234375 C 15.1875 -11.234375 15.671875 -11.234375 16.296875 -11.234375 C 16.929688 -11.234375 17.566406 -11.328125 18.203125 -11.515625 C 19.648438 -11.941406 20.375 -13.453125 20.375 -16.046875 C 20.375 -17.171875 20.160156 -18 19.734375 -18.53125 C 19.015625 -19.382812 17.835938 -19.8125 16.203125 -19.8125 C 14.441406 -19.8125 13.28125 -19.832031 12.71875 -19.875 C 12.15625 -19.914062 11.816406 -20 11.703125 -20.125 C 11.597656 -20.257812 11.546875 -20.460938 11.546875 -20.734375 L 11.546875 -20.890625 L 11.515625 -21.53125 C 11.515625 -21.71875 11.632812 -21.84375 11.875 -21.90625 C 12.40625 -21.90625 13.191406 -21.941406 14.234375 -22.015625 C 15.597656 -22.128906 16.800781 -22.1875 17.84375 -22.1875 C 19.050781 -22.1875 19.945312 -22.492188 20.53125 -23.109375 C 21.445312 -24.066406 21.90625 -25.304688 21.90625 -26.828125 C 21.90625 -28.242188 21.597656 -29.351562 20.984375 -30.15625 C 19.804688 -31.601562 17.929688 -32.328125 15.359375 -32.328125 L 5.734375 -32.328125 C 3.171875 -32.171875 1.753906 -31.113281 1.484375 -29.15625 C 1.429688 -28.726562 1.40625 -27.378906 1.40625 -25.109375 C 1.40625 -23.878906 1.410156 -22.617188 1.421875 -21.328125 C 1.429688 -20.046875 1.441406 -18.960938 1.453125 -18.078125 C 1.472656 -17.203125 1.5 -16.765625 1.53125 -16.765625 L 1.484375 -8.578125 C 1.484375 -5.828125 1.628906 -3.773438 1.921875 -2.421875 C 2.210938 -1.078125 2.867188 -0.191406 3.890625 0.234375 C 4.910156 0.660156 6.488281 0.875 8.625 0.875 Z M 8.625 0.875 "/></g></g></g><g fill="#392110" fill-opacity="1"><g transform="translate(267.427957, 147.287854)"><g><path d="M 6.140625 0.359375 C 7.078125 0.359375 7.957031 0.179688 8.78125 -0.171875 C 9.613281 -0.535156 10.289062 -1.195312 10.8125 -2.15625 C 11.332031 -3.125 11.59375 -4.488281 11.59375 -6.25 C 11.695312 -9.03125 11.75 -12.082031 11.75 -15.40625 C 11.75 -21.363281 11.679688 -25.585938 11.546875 -28.078125 C 11.441406 -29.359375 10.914062 -30.421875 9.96875 -31.265625 C 9.019531 -32.109375 7.847656 -32.53125 6.453125 -32.53125 C 5.066406 -32.53125 3.929688 -32.085938 3.046875 -31.203125 C 2.160156 -30.316406 1.65625 -29.164062 1.53125 -27.75 C 1.46875 -27.351562 1.421875 -26.957031 1.390625 -26.5625 C 1.367188 -26.175781 1.351562 -25.6875 1.34375 -25.09375 C 1.332031 -24.507812 1.328125 -23.660156 1.328125 -22.546875 L 1.4375 -7.140625 L 1.40625 -6.0625 C 1.40625 -4.132812 1.738281 -2.582031 2.40625 -1.40625 C 3.070312 -0.226562 4.316406 0.359375 6.140625 0.359375 Z M 6.140625 0.359375 "/></g></g></g><g fill="#392110" fill-opacity="1"><g transform="translate(218.38379, 202.78785)"><g><path d="M 5.859375 0.71875 C 11.921875 0.71875 16.425781 -1.070312 19.375 -4.65625 C 21.914062 -7.726562 23.195312 -11.601562 23.21875 -16.28125 C 23.21875 -18.925781 22.679688 -21.476562 21.609375 -23.9375 C 20.546875 -26.40625 18.832031 -28.410156 16.46875 -29.953125 C 14.101562 -31.503906 10.976562 -32.3125 7.09375 -32.375 C 5.707031 -32.375 4.457031 -31.789062 3.34375 -30.625 C 2.238281 -29.457031 1.632812 -28.046875 1.53125 -26.390625 C 1.445312 -24.390625 1.40625 -20.953125 1.40625 -16.078125 L 1.4375 -10.828125 C 1.4375 -7.347656 1.453125 -5.394531 1.484375 -4.96875 C 1.566406 -4.164062 1.796875 -3.328125 2.171875 -2.453125 C 2.546875 -1.585938 3.050781 -0.84375 3.6875 -0.21875 C 4.332031 0.40625 5.054688 0.71875 5.859375 0.71875 Z M 11.109375 -12.359375 C 11.023438 -12.359375 10.984375 -12.367188 10.984375 -12.390625 C 11.015625 -12.710938 11.03125 -15.082031 11.03125 -19.5 C 11.050781 -19.570312 11.101562 -19.609375 11.1875 -19.609375 C 11.375 -19.609375 11.632812 -19.488281 11.96875 -19.25 C 12.300781 -19.007812 12.601562 -18.617188 12.875 -18.078125 C 13.144531 -17.546875 13.28125 -16.816406 13.28125 -15.890625 C 13.28125 -15.003906 13.128906 -14.300781 12.828125 -13.78125 C 12.535156 -13.257812 12.207031 -12.890625 11.84375 -12.671875 C 11.488281 -12.460938 11.242188 -12.359375 11.109375 -12.359375 Z M 11.109375 -12.359375 "/></g></g></g><g fill="#392110" fill-opacity="1"><g transform="translate(241.843066, 202.78785)"><g><path d="M 3.40625 0.359375 C 4.476562 0.359375 5.414062 0.03125 6.21875 -0.625 C 7.019531 -1.28125 7.675781 -2.15625 8.1875 -3.25 C 8.238281 -3.40625 8.316406 -3.535156 8.421875 -3.640625 C 8.523438 -3.753906 8.914062 -3.8125 9.59375 -3.8125 L 12.546875 -3.765625 L 15.890625 -3.765625 C 16.523438 -3.765625 16.960938 -3.457031 17.203125 -2.84375 C 17.710938 -1.832031 18.378906 -1.078125 19.203125 -0.578125 C 20.035156 -0.0859375 20.878906 0.15625 21.734375 0.15625 C 22.535156 0.15625 23.269531 -0.03125 23.9375 -0.40625 C 24.613281 -0.78125 25.140625 -1.328125 25.515625 -2.046875 C 25.773438 -2.609375 25.90625 -3.171875 25.90625 -3.734375 C 25.90625 -4.421875 25.65625 -5.410156 25.15625 -6.703125 C 24.457031 -8.515625 23.28125 -11.945312 21.625 -17 C 20.445312 -20.507812 19.414062 -23.457031 18.53125 -25.84375 C 17.644531 -28.238281 16.859375 -29.878906 16.171875 -30.765625 C 15.179688 -31.859375 14.03125 -32.40625 12.71875 -32.40625 C 11.59375 -32.40625 10.578125 -31.976562 9.671875 -31.125 C 9.503906 -30.96875 9.351562 -30.796875 9.21875 -30.609375 C 8.957031 -30.234375 8.460938 -29.148438 7.734375 -27.359375 C 7.390625 -26.554688 4.570312 -19.484375 -0.71875 -6.140625 C -0.988281 -5.441406 -1.125 -4.742188 -1.125 -4.046875 C -1.125 -3.191406 -0.921875 -2.335938 -0.515625 -1.484375 C -0.171875 -0.785156 0.242188 -0.335938 0.734375 -0.140625 C 1.234375 0.0546875 1.710938 0.179688 2.171875 0.234375 L 2.484375 0.28125 C 2.804688 0.332031 3.113281 0.359375 3.40625 0.359375 Z M 12.546875 -11.90625 C 12.097656 -11.90625 11.875 -11.960938 11.875 -12.078125 C 12.007812 -12.335938 12.195312 -12.679688 12.4375 -13.109375 C 12.675781 -13.535156 12.863281 -13.925781 13 -14.28125 C 13.070312 -14.28125 13.140625 -14.265625 13.203125 -14.234375 C 13.410156 -13.597656 13.625 -13.078125 13.84375 -12.671875 C 14 -12.378906 14.078125 -12.179688 14.078125 -12.078125 C 14.078125 -12.023438 14.050781 -12 14 -12 Z M 12.546875 -11.90625 "/></g></g></g><g fill="#392110" fill-opacity="1"><g transform="translate(263.336614, 202.78785)"><g><path d="M 12.796875 0.359375 C 14.265625 0.359375 15.472656 -0.113281 16.421875 -1.0625 C 17.367188 -2.007812 17.882812 -3.335938 17.96875 -5.046875 L 18.015625 -11.515625 L 17.96875 -17.40625 C 17.96875 -19.382812 18.007812 -20.65625 18.09375 -21.21875 C 18.113281 -21.5625 18.21875 -21.789062 18.40625 -21.90625 C 18.59375 -22.03125 18.738281 -22.09375 18.84375 -22.09375 C 19.625 -22.09375 20.472656 -22.132812 21.390625 -22.21875 C 22.316406 -22.300781 23.128906 -22.53125 23.828125 -22.90625 C 25.429688 -23.84375 26.234375 -25.484375 26.234375 -27.828125 C 26.234375 -29.191406 25.867188 -30.226562 25.140625 -30.9375 C 24.421875 -31.644531 23.617188 -32.117188 22.734375 -32.359375 C 21.859375 -32.609375 21.148438 -32.734375 20.609375 -32.734375 L 6.65625 -32.734375 C 5.238281 -32.734375 3.875 -32.4375 2.5625 -31.84375 C 0.582031 -30.957031 -0.40625 -29.4375 -0.40625 -27.28125 C -0.40625 -26.125 -0.03125 -25.117188 0.71875 -24.265625 C 1.46875 -23.410156 2.234375 -22.835938 3.015625 -22.546875 C 3.410156 -22.378906 3.847656 -22.257812 4.328125 -22.1875 C 4.804688 -22.125 5.554688 -22.09375 6.578125 -22.09375 C 6.847656 -22.09375 7.125 -22.050781 7.40625 -21.96875 C 7.6875 -21.894531 7.835938 -21.695312 7.859375 -21.375 C 8.046875 -17.738281 8.140625 -12.753906 8.140625 -6.421875 L 8.140625 -4.65625 C 8.140625 -4.625 8.191406 -4.347656 8.296875 -3.828125 C 8.410156 -3.304688 8.625 -2.722656 8.9375 -2.078125 C 9.257812 -1.441406 9.726562 -0.875 10.34375 -0.375 C 10.957031 0.113281 11.773438 0.359375 12.796875 0.359375 Z M 12.796875 0.359375 "/></g></g></g><g fill="#392110" fill-opacity="1"><g transform="translate(285.872868, 202.78785)"><g><path d="M 3.40625 0.359375 C 4.476562 0.359375 5.414062 0.03125 6.21875 -0.625 C 7.019531 -1.28125 7.675781 -2.15625 8.1875 -3.25 C 8.238281 -3.40625 8.316406 -3.535156 8.421875 -3.640625 C 8.523438 -3.753906 8.914062 -3.8125 9.59375 -3.8125 L 12.546875 -3.765625 L 15.890625 -3.765625 C 16.523438 -3.765625 16.960938 -3.457031 17.203125 -2.84375 C 17.710938 -1.832031 18.378906 -1.078125 19.203125 -0.578125 C 20.035156 -0.0859375 20.878906 0.15625 21.734375 0.15625 C 22.535156 0.15625 23.269531 -0.03125 23.9375 -0.40625 C 24.613281 -0.78125 25.140625 -1.328125 25.515625 -2.046875 C 25.773438 -2.609375 25.90625 -3.171875 25.90625 -3.734375 C 25.90625 -4.421875 25.65625 -5.410156 25.15625 -6.703125 C 24.457031 -8.515625 23.28125 -11.945312 21.625 -17 C 20.445312 -20.507812 19.414062 -23.457031 18.53125 -25.84375 C 17.644531 -28.238281 16.859375 -29.878906 16.171875 -30.765625 C 15.179688 -31.859375 14.03125 -32.40625 12.71875 -32.40625 C 11.59375 -32.40625 10.578125 -31.976562 9.671875 -31.125 C 9.503906 -30.96875 9.351562 -30.796875 9.21875 -30.609375 C 8.957031 -30.234375 8.460938 -29.148438 7.734375 -27.359375 C 7.390625 -26.554688 4.570312 -19.484375 -0.71875 -6.140625 C -0.988281 -5.441406 -1.125 -4.742188 -1.125 -4.046875 C -1.125 -3.191406 -0.921875 -2.335938 -0.515625 -1.484375 C -0.171875 -0.785156 0.242188 -0.335938 0.734375 -0.140625 C 1.234375 0.0546875 1.710938 0.179688 2.171875 0.234375 L 2.484375 0.28125 C 2.804688 0.332031 3.113281 0.359375 3.40625 0.359375 Z M 12.546875 -11.90625 C 12.097656 -11.90625 11.875 -11.960938 11.875 -12.078125 C 12.007812 -12.335938 12.195312 -12.679688 12.4375 -13.109375 C 12.675781 -13.535156 12.863281 -13.925781 13 -14.28125 C 13.070312 -14.28125 13.140625 -14.265625 13.203125 -14.234375 C 13.410156 -13.597656 13.625 -13.078125 13.84375 -12.671875 C 14 -12.378906 14.078125 -12.179688 14.078125 -12.078125 C 14.078125 -12.023438 14.050781 -12 14 -12 Z M 12.546875 -11.90625 "/></g></g></g><g fill="#392110" fill-opacity="1"><g transform="translate(218.38379, 258.287846)"><g><path d="M 6.09375 0.640625 C 7.375 0.640625 8.597656 0.296875 9.765625 -0.390625 C 10.929688 -1.085938 11.582031 -2.203125 11.71875 -3.734375 C 11.738281 -5.046875 11.75 -6.140625 11.75 -7.015625 C 11.75 -7.898438 11.769531 -8.5625 11.8125 -9 C 11.851562 -9.445312 11.976562 -9.671875 12.1875 -9.671875 L 13.640625 -9.703125 C 13.878906 -9.703125 14.03125 -9.679688 14.09375 -9.640625 C 14.164062 -9.609375 14.203125 -9.535156 14.203125 -9.421875 L 14.203125 -8.0625 C 14.203125 -5.738281 14.269531 -4.039062 14.40625 -2.96875 C 14.613281 -1.789062 15.1875 -0.898438 16.125 -0.296875 C 17.0625 0.304688 18.101562 0.609375 19.25 0.609375 C 20.050781 0.609375 20.84375 0.429688 21.625 0.078125 C 23.332031 -0.671875 24.1875 -2.019531 24.1875 -3.96875 C 24.1875 -8.4375 24.210938 -12.085938 24.265625 -14.921875 C 24.296875 -17.328125 24.3125 -20.921875 24.3125 -25.703125 C 24.3125 -27.421875 24.039062 -28.75 23.5 -29.6875 C 22.539062 -31.363281 21.054688 -32.203125 19.046875 -32.203125 C 18.242188 -32.203125 17.53125 -32.085938 16.90625 -31.859375 C 16.28125 -31.640625 15.847656 -31.394531 15.609375 -31.125 C 15.015625 -30.375 14.644531 -29.441406 14.5 -28.328125 C 14.351562 -27.222656 14.28125 -26.164062 14.28125 -25.15625 L 14.359375 -19.8125 C 14.359375 -18.207031 14.222656 -17.40625 13.953125 -17.40625 L 12.71875 -17.375 C 12.34375 -17.375 12.113281 -17.414062 12.03125 -17.5 C 11.945312 -17.59375 11.90625 -17.789062 11.90625 -18.09375 L 12 -24.90625 L 11.953125 -27.390625 C 11.953125 -28.566406 11.644531 -29.519531 11.03125 -30.25 C 10.414062 -30.988281 9.644531 -31.523438 8.71875 -31.859375 C 7.800781 -32.203125 6.882812 -32.375 5.96875 -32.375 C 4.6875 -32.375 3.644531 -31.816406 2.84375 -30.703125 C 2.039062 -29.597656 1.613281 -28.109375 1.5625 -26.234375 L 1.40625 -11.515625 C 1.425781 -9.878906 1.4375 -7.898438 1.4375 -5.578125 C 1.4375 -4.234375 1.503906 -3.1875 1.640625 -2.4375 C 1.773438 -1.695312 2.109375 -1.046875 2.640625 -0.484375 C 3.523438 0.265625 4.675781 0.640625 6.09375 0.640625 Z M 6.09375 0.640625 "/></g></g></g><g fill="#392110" fill-opacity="1"><g transform="translate(244.730491, 258.287846)"><g><path d="M 13 0.765625 C 15.457031 0.765625 17.5625 0.101562 19.3125 -1.21875 C 21.0625 -2.539062 22.410156 -4.175781 23.359375 -6.125 C 24.304688 -8.082031 24.78125 -10.023438 24.78125 -11.953125 C 24.96875 -14.765625 25.0625 -17.25 25.0625 -19.40625 C 25.0625 -21.039062 25.035156 -22.488281 24.984375 -23.75 L 24.953125 -26.390625 C 24.953125 -27.671875 24.648438 -28.738281 24.046875 -29.59375 C 23.441406 -30.457031 22.734375 -31.09375 21.921875 -31.5 C 21.109375 -31.914062 20.363281 -32.125 19.6875 -32.125 C 18.4375 -32.125 17.320312 -31.5625 16.34375 -30.4375 C 15.363281 -29.320312 14.835938 -28.023438 14.765625 -26.546875 C 14.679688 -23.691406 14.640625 -20.992188 14.640625 -18.453125 C 14.640625 -15.773438 14.582031 -13.972656 14.46875 -13.046875 C 14.363281 -12.128906 14.003906 -11.671875 13.390625 -11.671875 C 12.804688 -11.671875 12.441406 -12.09375 12.296875 -12.9375 C 12.148438 -13.78125 12.078125 -14.816406 12.078125 -16.046875 L 12.078125 -18.734375 L 12.03125 -20.734375 L 12.078125 -23.390625 C 12.078125 -25.066406 11.914062 -26.519531 11.59375 -27.75 C 11.457031 -28.070312 11.253906 -28.503906 10.984375 -29.046875 C 9.941406 -31.046875 8.550781 -32.046875 6.8125 -32.046875 C 4.4375 -32.046875 2.820312 -31.070312 1.96875 -29.125 C 1.269531 -27.539062 0.921875 -24.488281 0.921875 -19.96875 C 0.921875 -17.507812 1.015625 -14.957031 1.203125 -12.3125 C 1.285156 -10.976562 1.5625 -9.554688 2.03125 -8.046875 C 2.5 -6.535156 3.191406 -5.117188 4.109375 -3.796875 C 5.035156 -2.472656 6.222656 -1.378906 7.671875 -0.515625 C 9.128906 0.335938 10.90625 0.765625 13 0.765625 Z M 13 0.765625 "/></g></g></g><g fill="#392110" fill-opacity="1"><g transform="translate(271.438104, 258.287846)"><g><path d="M 12.875 -0.078125 C 14.53125 -0.078125 15.945312 -0.210938 17.125 -0.484375 C 19.582031 -1.148438 21.425781 -2.40625 22.65625 -4.25 C 23.882812 -6.09375 24.5 -8.085938 24.5 -10.234375 C 24.5 -11.835938 24.160156 -13.394531 23.484375 -14.90625 C 22.804688 -16.414062 21.785156 -17.691406 20.421875 -18.734375 C 20.203125 -18.890625 20.039062 -19.019531 19.9375 -19.125 C 19.832031 -19.238281 19.78125 -19.363281 19.78125 -19.5 C 19.78125 -19.65625 19.859375 -19.894531 20.015625 -20.21875 C 20.546875 -21.46875 20.8125 -22.707031 20.8125 -23.9375 C 20.8125 -25.84375 20.226562 -27.539062 19.0625 -29.03125 C 17.90625 -30.53125 16.285156 -31.578125 14.203125 -32.171875 C 13.160156 -32.429688 12.128906 -32.5625 11.109375 -32.5625 C 10.410156 -32.5625 9.710938 -32.535156 9.015625 -32.484375 C 8.328125 -32.429688 7.59375 -32.394531 6.8125 -32.375 C 5.507812 -32.3125 4.375 -31.96875 3.40625 -31.34375 C 2.445312 -30.71875 1.847656 -29.734375 1.609375 -28.390625 C 1.492188 -27.722656 1.425781 -24.4375 1.40625 -18.53125 L 1.359375 -15.84375 L 1.40625 -4.53125 C 1.40625 -3.007812 1.804688 -1.894531 2.609375 -1.1875 C 3.410156 -0.476562 4.289062 -0.125 5.25 -0.125 Z M 11.828125 -8.65625 C 11.691406 -8.65625 11.625 -8.738281 11.625 -8.90625 L 11.59375 -12.515625 C 11.59375 -12.859375 11.601562 -13.125 11.625 -13.3125 C 11.65625 -13.5 11.75 -13.59375 11.90625 -13.59375 C 12.414062 -13.570312 12.832031 -13.332031 13.15625 -12.875 C 13.476562 -12.414062 13.640625 -11.867188 13.640625 -11.234375 C 13.640625 -10.722656 13.507812 -10.234375 13.25 -9.765625 C 13 -9.296875 12.582031 -8.941406 12 -8.703125 Z M 11.671875 -20.890625 L 11.671875 -24.546875 C 12.523438 -24.546875 12.953125 -23.929688 12.953125 -22.703125 C 12.953125 -22.273438 12.867188 -21.863281 12.703125 -21.46875 C 12.546875 -21.082031 12.203125 -20.890625 11.671875 -20.890625 Z M 11.671875 -20.890625 "/></g></g></g></svg>