<svg xmlns="http://www.w3.org/2000/svg" xmlns:xlink="http://www.w3.org/1999/xlink" width="500" zoomAndPan="magnify" viewBox="0 0 375 374.999991" height="500" preserveAspectRatio="xMidYMid meet" version="1.0"><defs><clipPath id="c6c820b46c"><path d="M 53.902344 0.640625 L 108.445312 0.640625 L 108.445312 260.375 L 53.902344 260.375 Z M 53.902344 0.640625 " clip-rule="nonzero"/></clipPath><clipPath id="522bd1f634"><path d="M 108.445312 27.914062 L 108.445312 233.070312 C 108.445312 240.304688 105.574219 247.242188 100.457031 252.355469 C 95.34375 257.472656 88.40625 260.34375 81.175781 260.34375 C 73.941406 260.34375 67.003906 257.472656 61.890625 252.355469 C 56.773438 247.242188 53.902344 240.304688 53.902344 233.070312 L 53.902344 27.914062 C 53.902344 20.679688 56.773438 13.742188 61.890625 8.628906 C 67.003906 3.515625 73.941406 0.640625 81.175781 0.640625 C 88.40625 0.640625 95.34375 3.515625 100.457031 8.628906 C 105.574219 13.742188 108.445312 20.679688 108.445312 27.914062 Z M 108.445312 27.914062 " clip-rule="nonzero"/></clipPath><clipPath id="bfc189bf8c"><path d="M 0.902344 0.640625 L 55.445312 0.640625 L 55.445312 260.375 L 0.902344 260.375 Z M 0.902344 0.640625 " clip-rule="nonzero"/></clipPath><clipPath id="f9ffac212d"><path d="M 55.445312 27.914062 L 55.445312 233.070312 C 55.445312 240.304688 52.574219 247.242188 47.457031 252.355469 C 42.34375 257.472656 35.40625 260.34375 28.175781 260.34375 C 20.941406 260.34375 14.003906 257.472656 8.890625 252.355469 C 3.773438 247.242188 0.902344 240.304688 0.902344 233.070312 L 0.902344 27.914062 C 0.902344 20.679688 3.773438 13.742188 8.890625 8.628906 C 14.003906 3.515625 20.941406 0.640625 28.175781 0.640625 C 35.40625 0.640625 42.34375 3.515625 47.457031 8.628906 C 52.574219 13.742188 55.445312 20.679688 55.445312 27.914062 Z M 55.445312 27.914062 " clip-rule="nonzero"/></clipPath><clipPath id="eae19577a2"><rect x="0" width="56" y="0" height="261"/></clipPath><clipPath id="ac846f7636"><path d="M 0.00390625 107.898438 L 107.695312 107.898438 L 107.695312 163.933594 L 0.00390625 163.933594 Z M 0.00390625 107.898438 " clip-rule="nonzero"/></clipPath><clipPath id="67d4533ffa"><path d="M 79.679688 163.933594 L 28.207031 163.933594 C 20.777344 163.933594 13.648438 160.980469 8.394531 155.726562 C 3.140625 150.472656 0.1875 143.347656 0.1875 135.914062 C 0.1875 128.484375 3.140625 121.359375 8.394531 116.105469 C 13.648438 110.851562 20.777344 107.898438 28.207031 107.898438 L 79.679688 107.898438 C 87.109375 107.898438 94.234375 110.851562 99.488281 116.105469 C 104.742188 121.359375 107.695312 128.484375 107.695312 135.914062 C 107.695312 143.347656 104.742188 150.472656 99.488281 155.726562 C 94.234375 160.980469 87.109375 163.933594 79.679688 163.933594 Z M 79.679688 163.933594 " clip-rule="nonzero"/></clipPath><clipPath id="f07da90d82"><path d="M 0.00390625 0.898438 L 107.695312 0.898438 L 107.695312 56.933594 L 0.00390625 56.933594 Z M 0.00390625 0.898438 " clip-rule="nonzero"/></clipPath><clipPath id="a4603517f6"><path d="M 79.679688 56.933594 L 28.207031 56.933594 C 20.777344 56.933594 13.648438 53.980469 8.394531 48.726562 C 3.140625 43.472656 0.1875 36.347656 0.1875 28.914062 C 0.1875 21.484375 3.140625 14.359375 8.394531 9.105469 C 13.648438 3.851562 20.777344 0.898438 28.207031 0.898438 L 79.679688 0.898438 C 87.109375 0.898438 94.234375 3.851562 99.488281 9.105469 C 104.742188 14.359375 107.695312 21.484375 107.695312 28.914062 C 107.695312 36.347656 104.742188 43.472656 99.488281 48.726562 C 94.234375 53.980469 87.109375 56.933594 79.679688 56.933594 Z M 79.679688 56.933594 " clip-rule="nonzero"/></clipPath><clipPath id="1b4b708d8a"><rect x="0" width="108" y="0" height="57"/></clipPath><clipPath id="84d8b5d070"><path d="M 151.179688 0.5625 L 205.714844 0.5625 L 205.714844 113.894531 L 151.179688 113.894531 Z M 151.179688 0.5625 " clip-rule="nonzero"/></clipPath><clipPath id="cadc03c2f9"><path d="M 151.179688 86.628906 L 151.179688 27.90625 C 151.179688 20.675781 154.050781 13.738281 159.164062 8.625 C 164.277344 3.511719 171.214844 0.636719 178.445312 0.636719 C 185.675781 0.636719 192.613281 3.511719 197.726562 8.625 C 202.839844 13.738281 205.714844 20.675781 205.714844 27.90625 L 205.714844 86.628906 C 205.714844 93.859375 202.839844 100.796875 197.726562 105.910156 C 192.613281 111.023438 185.675781 113.894531 178.445312 113.894531 C 171.214844 113.894531 164.277344 111.023438 159.164062 105.910156 C 154.050781 100.796875 151.179688 93.859375 151.179688 86.628906 Z M 151.179688 86.628906 " clip-rule="nonzero"/></clipPath><clipPath id="784c667e39"><path d="M 0.179688 0.601562 L 54.714844 0.601562 L 54.714844 113.894531 L 0.179688 113.894531 Z M 0.179688 0.601562 " clip-rule="nonzero"/></clipPath><clipPath id="c986c313f1"><path d="M 0.179688 86.628906 L 0.179688 27.90625 C 0.179688 20.675781 3.050781 13.738281 8.164062 8.625 C 13.277344 3.511719 20.214844 0.636719 27.445312 0.636719 C 34.675781 0.636719 41.613281 3.511719 46.726562 8.625 C 51.839844 13.738281 54.714844 20.675781 54.714844 27.90625 L 54.714844 86.628906 C 54.714844 93.859375 51.839844 100.796875 46.726562 105.910156 C 41.613281 111.023438 34.675781 113.894531 27.445312 113.894531 C 20.214844 113.894531 13.277344 111.023438 8.164062 105.910156 C 3.050781 100.796875 0.179688 93.859375 0.179688 86.628906 Z M 0.179688 86.628906 " clip-rule="nonzero"/></clipPath><clipPath id="aedc23614f"><rect x="0" width="55" y="0" height="114"/></clipPath><clipPath id="6354de549a"><path d="M 85.171875 92.621094 L 192.734375 92.621094 L 192.734375 134.15625 L 85.171875 134.15625 Z M 85.171875 92.621094 " clip-rule="nonzero"/></clipPath><clipPath id="10ec0543fa"><path d="M 171.96875 134.15625 L 105.996094 134.15625 C 94.527344 134.15625 85.226562 124.855469 85.226562 113.386719 C 85.226562 101.917969 94.527344 92.621094 105.996094 92.621094 L 171.96875 92.621094 C 183.4375 92.621094 192.734375 101.917969 192.734375 113.386719 C 192.734375 124.855469 183.4375 134.15625 171.96875 134.15625 Z M 171.96875 134.15625 " clip-rule="nonzero"/></clipPath><clipPath id="3dd6d8f561"><path d="M 0.199219 0.621094 L 107.734375 0.621094 L 107.734375 42.15625 L 0.199219 42.15625 Z M 0.199219 0.621094 " clip-rule="nonzero"/></clipPath><clipPath id="0490609acd"><path d="M 86.96875 42.15625 L 20.996094 42.15625 C 9.527344 42.15625 0.226562 32.855469 0.226562 21.386719 C 0.226562 9.917969 9.527344 0.621094 20.996094 0.621094 L 86.96875 0.621094 C 98.4375 0.621094 107.734375 9.917969 107.734375 21.386719 C 107.734375 32.855469 98.4375 42.15625 86.96875 42.15625 Z M 86.96875 42.15625 " clip-rule="nonzero"/></clipPath><clipPath id="ac99df43ba"><rect x="0" width="108" y="0" height="43"/></clipPath><clipPath id="9c26b6f533"><path d="M 151.441406 157.457031 L 206.082031 157.457031 L 206.082031 260.335938 L 151.441406 260.335938 Z M 151.441406 157.457031 " clip-rule="nonzero"/></clipPath><clipPath id="9334c1135b"><path d="M 151.441406 233.015625 L 151.441406 184.953125 C 151.441406 177.707031 154.320312 170.757812 159.445312 165.632812 C 164.566406 160.507812 171.515625 157.628906 178.761719 157.628906 C 186.007812 157.628906 192.957031 160.507812 198.082031 165.632812 C 203.203125 170.757812 206.082031 177.707031 206.082031 184.953125 L 206.082031 233.015625 C 206.082031 240.261719 203.203125 247.210938 198.082031 252.335938 C 192.957031 257.457031 186.007812 260.335938 178.761719 260.335938 C 171.515625 260.335938 164.566406 257.457031 159.445312 252.335938 C 154.320312 247.210938 151.441406 240.261719 151.441406 233.015625 Z M 151.441406 233.015625 " clip-rule="nonzero"/></clipPath><clipPath id="eb591c647e"><path d="M 0.441406 0.558594 L 55.082031 0.558594 L 55.082031 103.335938 L 0.441406 103.335938 Z M 0.441406 0.558594 " clip-rule="nonzero"/></clipPath><clipPath id="92e5e6ed8d"><path d="M 0.441406 76.015625 L 0.441406 27.953125 C 0.441406 20.707031 3.320312 13.757812 8.445312 8.632812 C 13.566406 3.507812 20.515625 0.628906 27.761719 0.628906 C 35.007812 0.628906 41.957031 3.507812 47.082031 8.632812 C 52.203125 13.757812 55.082031 20.707031 55.082031 27.953125 L 55.082031 76.015625 C 55.082031 83.261719 52.203125 90.210938 47.082031 95.335938 C 41.957031 100.457031 35.007812 103.335938 27.761719 103.335938 C 20.515625 103.335938 13.566406 100.457031 8.445312 95.335938 C 3.320312 90.210938 0.441406 83.261719 0.441406 76.015625 Z M 0.441406 76.015625 " clip-rule="nonzero"/></clipPath><clipPath id="82767d747c"><rect x="0" width="56" y="0" height="104"/></clipPath><clipPath id="2adadf3067"><path d="M 32 98 L 70 98 L 70 125 L 32 125 Z M 32 98 " clip-rule="nonzero"/></clipPath><clipPath id="603bb15538"><path d="M 61.867188 131.796875 L 32.546875 123.8125 L 40.53125 94.492188 L 69.847656 102.476562 Z M 61.867188 131.796875 " clip-rule="nonzero"/></clipPath><clipPath id="c1e5638d62"><path d="M 69.847656 102.476562 C 67.746094 110.199219 62.5625 116.898438 55.617188 120.871094 C 48.671875 124.84375 40.269531 125.914062 32.546875 123.8125 L 36.621094 108.855469 C 40.402344 109.882812 44.519531 109.359375 47.921875 107.414062 C 51.324219 105.46875 53.863281 102.1875 54.890625 98.402344 Z M 69.847656 102.476562 " clip-rule="nonzero"/></clipPath><clipPath id="63948301cc"><path d="M 0.398438 0.28125 L 38 0.28125 L 38 27 L 0.398438 27 Z M 0.398438 0.28125 " clip-rule="nonzero"/></clipPath><clipPath id="74b9457bce"><path d="M 29.867188 33.796875 L 0.546875 25.8125 L 8.53125 -3.507812 L 37.847656 4.476562 Z M 29.867188 33.796875 " clip-rule="nonzero"/></clipPath><clipPath id="6211377821"><path d="M 37.847656 4.476562 C 35.746094 12.199219 30.5625 18.898438 23.617188 22.871094 C 16.671875 26.84375 8.269531 27.914062 0.546875 25.8125 L 4.621094 10.855469 C 8.402344 11.882812 12.519531 11.359375 15.921875 9.414062 C 19.324219 7.46875 21.863281 4.1875 22.890625 0.402344 Z M 37.847656 4.476562 " clip-rule="nonzero"/></clipPath><clipPath id="30c5eb8e31"><rect x="0" width="38" y="0" height="27"/></clipPath><clipPath id="f066c6ff64"><path d="M 41 147 L 70 147 L 70 181 L 41 181 Z M 41 147 " clip-rule="nonzero"/></clipPath><clipPath id="a423d837b8"><path d="M 73.023438 150.585938 L 69.539062 180.773438 L 39.355469 177.289062 L 42.839844 147.101562 Z M 73.023438 150.585938 " clip-rule="nonzero"/></clipPath><clipPath id="ec9bf4e208"><path d="M 42.839844 147.101562 C 50.789062 148.019531 58.191406 152.136719 63.164062 158.40625 C 68.136719 164.675781 70.457031 172.824219 69.539062 180.773438 L 54.140625 178.996094 C 54.589844 175.101562 53.453125 171.109375 51.015625 168.039062 C 48.582031 164.96875 44.957031 162.953125 41.0625 162.503906 Z M 42.839844 147.101562 " clip-rule="nonzero"/></clipPath><clipPath id="633467c16a"><path d="M 0.0390625 0 L 29 0 L 29 33.839844 L 0.0390625 33.839844 Z M 0.0390625 0 " clip-rule="nonzero"/></clipPath><clipPath id="c5aac342dd"><path d="M 32.023438 3.585938 L 28.539062 33.773438 L -1.644531 30.289062 L 1.839844 0.101562 Z M 32.023438 3.585938 " clip-rule="nonzero"/></clipPath><clipPath id="0e43e376b3"><path d="M 1.839844 0.101562 C 9.789062 1.019531 17.191406 5.136719 22.164062 11.40625 C 27.136719 17.675781 29.457031 25.824219 28.539062 33.773438 L 13.140625 31.996094 C 13.589844 28.101562 12.453125 24.109375 10.015625 21.039062 C 7.582031 17.96875 3.957031 15.953125 0.0625 15.503906 Z M 1.839844 0.101562 " clip-rule="nonzero"/></clipPath><clipPath id="cf8fdd1ce6"><rect x="0" width="29" y="0" height="34"/></clipPath><clipPath id="969e1197f9"><path d="M 92.515625 117.640625 L 122.902344 117.640625 L 122.902344 148.027344 L 92.515625 148.027344 Z M 92.515625 117.640625 " clip-rule="nonzero"/></clipPath><clipPath id="f09792d577"><path d="M 92.515625 148.027344 C 92.515625 140.023438 95.757812 132.199219 101.417969 126.542969 C 107.074219 120.882812 114.902344 117.640625 122.902344 117.640625 L 122.902344 133.144531 C 118.984375 133.144531 115.148438 134.730469 112.378906 137.503906 C 109.605469 140.273438 108.019531 144.109375 108.019531 148.027344 Z M 92.515625 148.027344 " clip-rule="nonzero"/></clipPath><clipPath id="93754c2b1d"><path d="M 0.515625 0.640625 L 30.902344 0.640625 L 30.902344 31.027344 L 0.515625 31.027344 Z M 0.515625 0.640625 " clip-rule="nonzero"/></clipPath><clipPath id="fd7e410457"><path d="M 0.515625 31.027344 C 0.515625 23.023438 3.757812 15.199219 9.417969 9.542969 C 15.074219 3.882812 22.902344 0.640625 30.902344 0.640625 L 30.902344 16.144531 C 26.984375 16.144531 23.148438 17.730469 20.378906 20.503906 C 17.605469 23.273438 16.019531 27.109375 16.019531 31.027344 Z M 0.515625 31.027344 " clip-rule="nonzero"/></clipPath><clipPath id="7b6d29c69d"><rect x="0" width="31" y="0" height="32"/></clipPath><clipPath id="1cbfe14499"><path d="M 92 79 L 125 79 L 125 109 L 92 109 Z M 92 79 " clip-rule="nonzero"/></clipPath><clipPath id="1f74bbdeb6"><path d="M 94.394531 110.738281 L 92.214844 80.429688 L 122.519531 78.25 L 124.703125 108.558594 Z M 94.394531 110.738281 " clip-rule="nonzero"/></clipPath><clipPath id="20320790c0"><path d="M 124.703125 108.558594 C 116.722656 109.132812 108.683594 106.460938 102.632812 101.222656 C 96.582031 95.984375 92.789062 88.414062 92.214844 80.429688 L 107.675781 79.316406 C 107.957031 83.226562 109.816406 86.9375 112.78125 89.503906 C 115.742188 92.066406 119.679688 93.375 123.589844 93.09375 Z M 124.703125 108.558594 " clip-rule="nonzero"/></clipPath><clipPath id="9eb8a43317"><path d="M 0.160156 0.078125 L 32.800781 0.078125 L 32.800781 30 L 0.160156 30 Z M 0.160156 0.078125 " clip-rule="nonzero"/></clipPath><clipPath id="c94646e0d2"><path d="M 2.394531 31.738281 L 0.214844 1.429688 L 30.519531 -0.75 L 32.703125 29.558594 Z M 2.394531 31.738281 " clip-rule="nonzero"/></clipPath><clipPath id="1df1455554"><path d="M 32.703125 29.558594 C 24.722656 30.132812 16.683594 27.460938 10.632812 22.222656 C 4.582031 16.984375 0.789062 9.414062 0.214844 1.429688 L 15.675781 0.316406 C 15.957031 4.226562 17.816406 7.9375 20.78125 10.503906 C 23.742188 13.066406 27.679688 14.375 31.589844 14.09375 Z M 32.703125 29.558594 " clip-rule="nonzero"/></clipPath><clipPath id="1f3f77c0a8"><rect x="0" width="33" y="0" height="30"/></clipPath><clipPath id="300f4aad3c"><path d="M 174.445312 101.433594 L 205.707031 101.433594 L 205.707031 134.15625 L 174.445312 134.15625 Z M 174.445312 101.433594 " clip-rule="nonzero"/></clipPath><clipPath id="e7158ddcb1"><path d="M 205.707031 101.523438 C 205.707031 110.117188 202.371094 118.523438 196.550781 124.601562 C 190.730469 130.675781 182.679688 134.15625 174.445312 134.15625 L 174.445312 117.507812 C 178.480469 117.507812 182.421875 115.804688 185.273438 112.828125 C 188.125 109.851562 189.757812 105.734375 189.757812 101.523438 Z M 205.707031 101.523438 " clip-rule="nonzero"/></clipPath><clipPath id="4e492d4a5e"><path d="M 0.445312 0.433594 L 31.707031 0.433594 L 31.707031 33.15625 L 0.445312 33.15625 Z M 0.445312 0.433594 " clip-rule="nonzero"/></clipPath><clipPath id="924502aaf4"><path d="M 31.707031 0.523438 C 31.707031 9.117188 28.371094 17.523438 22.550781 23.601562 C 16.730469 29.675781 8.679688 33.15625 0.445312 33.15625 L 0.445312 16.507812 C 4.480469 16.507812 8.421875 14.804688 11.273438 11.828125 C 14.125 8.851562 15.757812 4.734375 15.757812 0.523438 Z M 31.707031 0.523438 " clip-rule="nonzero"/></clipPath><clipPath id="0be4e496db"><rect x="0" width="32" y="0" height="34"/></clipPath><clipPath id="c2c42433bf"><path d="M 152.933594 68.203125 L 205.714844 68.203125 L 205.714844 103.039062 L 152.933594 103.039062 Z M 152.933594 68.203125 " clip-rule="nonzero"/></clipPath><clipPath id="e119df32c2"><path d="M 0.933594 0.203125 L 53.714844 0.203125 L 53.714844 35.039062 L 0.933594 35.039062 Z M 0.933594 0.203125 " clip-rule="nonzero"/></clipPath><clipPath id="4f1dccb76f"><rect x="0" width="54" y="0" height="36"/></clipPath><clipPath id="14cae41242"><path d="M 151.179688 157.363281 L 205.796875 157.363281 L 205.796875 212.40625 L 151.179688 212.40625 Z M 151.179688 157.363281 " clip-rule="nonzero"/></clipPath><clipPath id="67df4d478a"><path d="M 205.796875 164.863281 L 205.796875 204.769531 C 205.796875 206.757812 205.003906 208.664062 203.597656 210.070312 C 202.191406 211.476562 200.285156 212.269531 198.296875 212.269531 L 158.679688 212.269531 C 156.6875 212.269531 154.78125 211.476562 153.375 210.070312 C 151.96875 208.664062 151.179688 206.757812 151.179688 204.769531 L 151.179688 164.863281 C 151.179688 162.875 151.96875 160.964844 153.375 159.558594 C 154.78125 158.152344 156.6875 157.363281 158.679688 157.363281 L 198.296875 157.363281 C 200.285156 157.363281 202.191406 158.152344 203.597656 159.558594 C 205.003906 160.964844 205.796875 162.875 205.796875 164.863281 Z M 205.796875 164.863281 " clip-rule="nonzero"/></clipPath><clipPath id="b71fbe746c"><path d="M 0.179688 0.363281 L 54.796875 0.363281 L 54.796875 55.28125 L 0.179688 55.28125 Z M 0.179688 0.363281 " clip-rule="nonzero"/></clipPath><clipPath id="97003dae1a"><path d="M 54.796875 7.863281 L 54.796875 47.769531 C 54.796875 49.757812 54.003906 51.664062 52.597656 53.070312 C 51.191406 54.476562 49.285156 55.269531 47.296875 55.269531 L 7.679688 55.269531 C 5.6875 55.269531 3.78125 54.476562 2.375 53.070312 C 0.96875 51.664062 0.179688 49.757812 0.179688 47.769531 L 0.179688 7.863281 C 0.179688 5.875 0.96875 3.964844 2.375 2.558594 C 3.78125 1.152344 5.6875 0.363281 7.679688 0.363281 L 47.296875 0.363281 C 49.285156 0.363281 51.191406 1.152344 52.597656 2.558594 C 54.003906 3.964844 54.796875 5.875 54.796875 7.863281 Z M 54.796875 7.863281 " clip-rule="nonzero"/></clipPath><clipPath id="bb95b6df71"><rect x="0" width="55" y="0" height="56"/></clipPath><clipPath id="e332f9855f"><rect x="0" width="207" y="0" height="261"/></clipPath></defs><rect x="-37.5" width="450" fill="#ffffff" y="-37.499999" height="449.999989" fill-opacity="1"/><rect x="-37.5" width="450" fill="#392110" y="-37.499999" height="449.999989" fill-opacity="1"/><g transform="matrix(1, 0, 0, 1, 66, 57)"><g clip-path="url(#e332f9855f)"><g clip-path="url(#c6c820b46c)"><g clip-path="url(#522bd1f634)"><g transform="matrix(1, 0, 0, 1, 53, 0)"><g clip-path="url(#eae19577a2)"><g clip-path="url(#bfc189bf8c)"><g clip-path="url(#f9ffac212d)"><path fill="#e2a03b" d="M 55.445312 0.640625 L 55.445312 260.375 L 0.902344 260.375 L 0.902344 0.640625 Z M 55.445312 0.640625 " fill-opacity="1" fill-rule="nonzero"/></g></g></g></g></g></g><g clip-path="url(#ac846f7636)"><g clip-path="url(#67d4533ffa)"><g transform="matrix(1, 0, 0, 1, 0, 107)"><g clip-path="url(#1b4b708d8a)"><g clip-path="url(#f07da90d82)"><g clip-path="url(#a4603517f6)"><path fill="#e2a03b" d="M 107.695312 56.933594 L 0.222656 56.933594 L 0.222656 0.898438 L 107.695312 0.898438 Z M 107.695312 56.933594 " fill-opacity="1" fill-rule="nonzero"/></g></g></g></g></g></g><g clip-path="url(#84d8b5d070)"><g clip-path="url(#cadc03c2f9)"><g transform="matrix(1, 0, 0, 1, 151, 0)"><g clip-path="url(#aedc23614f)"><g clip-path="url(#784c667e39)"><g clip-path="url(#c986c313f1)"><path fill="#e2a03b" d="M 0.179688 113.894531 L 0.179688 0.5625 L 54.714844 0.5625 L 54.714844 113.894531 Z M 0.179688 113.894531 " fill-opacity="1" fill-rule="nonzero"/></g></g></g></g></g></g><g clip-path="url(#6354de549a)"><g clip-path="url(#10ec0543fa)"><g transform="matrix(1, 0, 0, 1, 85, 92)"><g clip-path="url(#ac99df43ba)"><g clip-path="url(#3dd6d8f561)"><g clip-path="url(#0490609acd)"><path fill="#e2a03b" d="M 107.734375 42.15625 L 0.171875 42.15625 L 0.171875 0.621094 L 107.734375 0.621094 Z M 107.734375 42.15625 " fill-opacity="1" fill-rule="nonzero"/></g></g></g></g></g></g><g clip-path="url(#9c26b6f533)"><g clip-path="url(#9334c1135b)"><g transform="matrix(1, 0, 0, 1, 151, 157)"><g clip-path="url(#82767d747c)"><g clip-path="url(#eb591c647e)"><g clip-path="url(#92e5e6ed8d)"><path fill="#e2a03b" d="M 0.441406 103.335938 L 0.441406 0.671875 L 55.082031 0.671875 L 55.082031 103.335938 Z M 0.441406 103.335938 " fill-opacity="1" fill-rule="nonzero"/></g></g></g></g></g></g><g clip-path="url(#2adadf3067)"><g clip-path="url(#603bb15538)"><g clip-path="url(#c1e5638d62)"><g transform="matrix(1, 0, 0, 1, 32, 98)"><g clip-path="url(#30c5eb8e31)"><g clip-path="url(#63948301cc)"><g clip-path="url(#74b9457bce)"><g clip-path="url(#6211377821)"><path fill="#e2a03b" d="M 29.867188 33.796875 L 0.546875 25.8125 L 8.53125 -3.507812 L 37.847656 4.476562 Z M 29.867188 33.796875 " fill-opacity="1" fill-rule="nonzero"/></g></g></g></g></g></g></g></g><g clip-path="url(#f066c6ff64)"><g clip-path="url(#a423d837b8)"><g clip-path="url(#ec9bf4e208)"><g transform="matrix(1, 0, 0, 1, 41, 147)"><g clip-path="url(#cf8fdd1ce6)"><g clip-path="url(#633467c16a)"><g clip-path="url(#c5aac342dd)"><g clip-path="url(#0e43e376b3)"><path fill="#e2a03b" d="M 32.023438 3.585938 L 28.539062 33.773438 L -1.644531 30.289062 L 1.839844 0.101562 Z M 32.023438 3.585938 " fill-opacity="1" fill-rule="nonzero"/></g></g></g></g></g></g></g></g><g clip-path="url(#969e1197f9)"><g clip-path="url(#f09792d577)"><g transform="matrix(1, 0, 0, 1, 92, 117)"><g clip-path="url(#7b6d29c69d)"><g clip-path="url(#93754c2b1d)"><g clip-path="url(#fd7e410457)"><path fill="#e2a03b" d="M 0.515625 0.640625 L 30.902344 0.640625 L 30.902344 31.027344 L 0.515625 31.027344 Z M 0.515625 0.640625 " fill-opacity="1" fill-rule="nonzero"/></g></g></g></g></g></g><g clip-path="url(#1cbfe14499)"><g clip-path="url(#1f74bbdeb6)"><g clip-path="url(#20320790c0)"><g transform="matrix(1, 0, 0, 1, 92, 79)"><g clip-path="url(#1f3f77c0a8)"><g clip-path="url(#9eb8a43317)"><g clip-path="url(#c94646e0d2)"><g clip-path="url(#1df1455554)"><path fill="#e2a03b" d="M 2.394531 31.738281 L 0.214844 1.429688 L 30.519531 -0.75 L 32.703125 29.558594 Z M 2.394531 31.738281 " fill-opacity="1" fill-rule="nonzero"/></g></g></g></g></g></g></g></g><g clip-path="url(#300f4aad3c)"><g clip-path="url(#e7158ddcb1)"><g transform="matrix(1, 0, 0, 1, 174, 101)"><g clip-path="url(#0be4e496db)"><g clip-path="url(#4e492d4a5e)"><g clip-path="url(#924502aaf4)"><path fill="#e2a03b" d="M 31.707031 33.15625 L 0.445312 33.15625 L 0.445312 0.554688 L 31.707031 0.554688 Z M 31.707031 33.15625 " fill-opacity="1" fill-rule="nonzero"/></g></g></g></g></g></g><g clip-path="url(#c2c42433bf)"><g transform="matrix(1, 0, 0, 1, 152, 68)"><g clip-path="url(#4f1dccb76f)"><g clip-path="url(#e119df32c2)"><path fill="#e2a03b" d="M 0.933594 0.203125 L 53.734375 0.203125 L 53.734375 35.039062 L 0.933594 35.039062 Z M 0.933594 0.203125 " fill-opacity="1" fill-rule="nonzero"/></g></g></g></g><g clip-path="url(#14cae41242)"><g clip-path="url(#67df4d478a)"><g transform="matrix(1, 0, 0, 1, 151, 157)"><g clip-path="url(#bb95b6df71)"><g clip-path="url(#b71fbe746c)"><g clip-path="url(#97003dae1a)"><path fill="#e2a03b" d="M 0.179688 0.363281 L 54.796875 0.363281 L 54.796875 55.195312 L 0.179688 55.195312 Z M 0.179688 0.363281 " fill-opacity="1" fill-rule="nonzero"/></g></g></g></g></g></g></g></g></svg>