<svg xmlns="http://www.w3.org/2000/svg" xmlns:xlink="http://www.w3.org/1999/xlink" width="500" zoomAndPan="magnify" viewBox="0 0 375 374.999991" height="500" preserveAspectRatio="xMidYMid meet" version="1.0"><defs><g/><clipPath id="31e4d521c7"><path d="M 55.878906 55.878906 L 319.121094 55.878906 L 319.121094 319.121094 L 55.878906 319.121094 Z M 55.878906 55.878906 " clip-rule="nonzero"/></clipPath><clipPath id="863af8c9cd"><path d="M 187.5 55.878906 C 114.808594 55.878906 55.878906 114.808594 55.878906 187.5 C 55.878906 260.191406 114.808594 319.121094 187.5 319.121094 C 260.191406 319.121094 319.121094 260.191406 319.121094 187.5 C 319.121094 114.808594 260.191406 55.878906 187.5 55.878906 Z M 187.5 55.878906 " clip-rule="nonzero"/></clipPath><clipPath id="64205e62fa"><path d="M 0.878906 0.878906 L 264.121094 0.878906 L 264.121094 264.121094 L 0.878906 264.121094 Z M 0.878906 0.878906 " clip-rule="nonzero"/></clipPath><clipPath id="2f6e4354f1"><path d="M 132.5 0.878906 C 59.808594 0.878906 0.878906 59.808594 0.878906 132.5 C 0.878906 205.191406 59.808594 264.121094 132.5 264.121094 C 205.191406 264.121094 264.121094 205.191406 264.121094 132.5 C 264.121094 59.808594 205.191406 0.878906 132.5 0.878906 Z M 132.5 0.878906 " clip-rule="nonzero"/></clipPath><clipPath id="fcf4ea962e"><rect x="0" width="265" y="0" height="265"/></clipPath><clipPath id="13e8828da5"><path d="M 103.328125 106.46875 L 136.09375 106.46875 L 136.09375 262.488281 L 103.328125 262.488281 Z M 103.328125 106.46875 " clip-rule="nonzero"/></clipPath><clipPath id="2c178d3df8"><path d="M 136.09375 122.851562 L 136.09375 246.089844 C 136.09375 250.433594 134.367188 254.601562 131.296875 257.671875 C 128.222656 260.746094 124.054688 262.472656 119.710938 262.472656 C 115.367188 262.472656 111.199219 260.746094 108.125 257.671875 C 105.054688 254.601562 103.328125 250.433594 103.328125 246.089844 L 103.328125 122.851562 C 103.328125 118.507812 105.054688 114.339844 108.125 111.265625 C 111.199219 108.195312 115.367188 106.46875 119.710938 106.46875 C 124.054688 106.46875 128.222656 108.195312 131.296875 111.265625 C 134.367188 114.339844 136.09375 118.507812 136.09375 122.851562 Z M 136.09375 122.851562 " clip-rule="nonzero"/></clipPath><clipPath id="4c42b54eb3"><path d="M 0.328125 0.46875 L 33.09375 0.46875 L 33.09375 156.488281 L 0.328125 156.488281 Z M 0.328125 0.46875 " clip-rule="nonzero"/></clipPath><clipPath id="e6c64c6e32"><path d="M 33.09375 16.851562 L 33.09375 140.089844 C 33.09375 144.433594 31.367188 148.601562 28.296875 151.671875 C 25.222656 154.746094 21.054688 156.472656 16.710938 156.472656 C 12.367188 156.472656 8.199219 154.746094 5.125 151.671875 C 2.054688 148.601562 0.328125 144.433594 0.328125 140.089844 L 0.328125 16.851562 C 0.328125 12.507812 2.054688 8.339844 5.125 5.265625 C 8.199219 2.195312 12.367188 0.46875 16.710938 0.46875 C 21.054688 0.46875 25.222656 2.195312 28.296875 5.265625 C 31.367188 8.339844 33.09375 12.507812 33.09375 16.851562 Z M 33.09375 16.851562 " clip-rule="nonzero"/></clipPath><clipPath id="b2604dd611"><rect x="0" width="34" y="0" height="157"/></clipPath><clipPath id="5eeee37d91"><path d="M 71 170.898438 L 135.644531 170.898438 L 135.644531 204.558594 L 71 204.558594 Z M 71 170.898438 " clip-rule="nonzero"/></clipPath><clipPath id="65219561b7"><path d="M 118.8125 204.558594 L 87.894531 204.558594 C 83.429688 204.558594 79.148438 202.785156 75.992188 199.628906 C 72.835938 196.472656 71.0625 192.191406 71.0625 187.726562 C 71.0625 183.265625 72.835938 178.984375 75.992188 175.828125 C 79.148438 172.671875 83.429688 170.898438 87.894531 170.898438 L 118.8125 170.898438 C 123.277344 170.898438 127.558594 172.671875 130.714844 175.828125 C 133.871094 178.984375 135.644531 183.265625 135.644531 187.726562 C 135.644531 192.191406 133.871094 196.472656 130.714844 199.628906 C 127.558594 202.785156 123.277344 204.558594 118.8125 204.558594 Z M 118.8125 204.558594 " clip-rule="nonzero"/></clipPath><clipPath id="c05f870da8"><path d="M 0.0390625 0.898438 L 64.644531 0.898438 L 64.644531 34.558594 L 0.0390625 34.558594 Z M 0.0390625 0.898438 " clip-rule="nonzero"/></clipPath><clipPath id="0ff52fdfe0"><path d="M 47.8125 34.558594 L 16.894531 34.558594 C 12.429688 34.558594 8.148438 32.785156 4.992188 29.628906 C 1.835938 26.472656 0.0625 22.191406 0.0625 17.726562 C 0.0625 13.265625 1.835938 8.984375 4.992188 5.828125 C 8.148438 2.671875 12.429688 0.898438 16.894531 0.898438 L 47.8125 0.898438 C 52.277344 0.898438 56.558594 2.671875 59.714844 5.828125 C 62.871094 8.984375 64.644531 13.265625 64.644531 17.726562 C 64.644531 22.191406 62.871094 26.472656 59.714844 29.628906 C 56.558594 32.785156 52.277344 34.558594 47.8125 34.558594 Z M 47.8125 34.558594 " clip-rule="nonzero"/></clipPath><clipPath id="10fc9d9bf2"><rect x="0" width="65" y="0" height="35"/></clipPath><clipPath id="1ed5b7e3e2"><path d="M 161.761719 106.421875 L 194.523438 106.421875 L 194.523438 174.5 L 161.761719 174.5 Z M 161.761719 106.421875 " clip-rule="nonzero"/></clipPath><clipPath id="08cd7fd122"><path d="M 161.761719 158.121094 L 161.761719 122.847656 C 161.761719 118.503906 163.488281 114.335938 166.558594 111.265625 C 169.632812 108.191406 173.796875 106.46875 178.140625 106.46875 C 182.484375 106.46875 186.652344 108.191406 189.722656 111.265625 C 192.796875 114.335938 194.523438 118.503906 194.523438 122.847656 L 194.523438 158.121094 C 194.523438 162.464844 192.796875 166.632812 189.722656 169.703125 C 186.652344 172.773438 182.484375 174.5 178.140625 174.5 C 173.796875 174.5 169.632812 172.773438 166.558594 169.703125 C 163.488281 166.632812 161.761719 162.464844 161.761719 158.121094 Z M 161.761719 158.121094 " clip-rule="nonzero"/></clipPath><clipPath id="96df2bf1ba"><path d="M 0.761719 0.421875 L 33.523438 0.421875 L 33.523438 68.5 L 0.761719 68.5 Z M 0.761719 0.421875 " clip-rule="nonzero"/></clipPath><clipPath id="766f0e9707"><path d="M 0.761719 52.121094 L 0.761719 16.847656 C 0.761719 12.503906 2.488281 8.335938 5.558594 5.265625 C 8.632812 2.191406 12.796875 0.46875 17.140625 0.46875 C 21.484375 0.46875 25.652344 2.191406 28.722656 5.265625 C 31.796875 8.335938 33.523438 12.503906 33.523438 16.847656 L 33.523438 52.121094 C 33.523438 56.464844 31.796875 60.632812 28.722656 63.703125 C 25.652344 66.773438 21.484375 68.5 17.140625 68.5 C 12.796875 68.5 8.632812 66.773438 5.558594 63.703125 C 2.488281 60.632812 0.761719 56.464844 0.761719 52.121094 Z M 0.761719 52.121094 " clip-rule="nonzero"/></clipPath><clipPath id="b58fe66b8c"><rect x="0" width="34" y="0" height="69"/></clipPath><clipPath id="9cfe4c8044"><path d="M 122.113281 161.722656 L 186.726562 161.722656 L 186.726562 186.671875 L 122.113281 186.671875 Z M 122.113281 161.722656 " clip-rule="nonzero"/></clipPath><clipPath id="7630027cf8"><path d="M 174.25 186.671875 L 134.621094 186.671875 C 127.730469 186.671875 122.148438 181.085938 122.148438 174.195312 C 122.148438 167.304688 127.730469 161.722656 134.621094 161.722656 L 174.25 161.722656 C 181.140625 161.722656 186.726562 167.304688 186.726562 174.195312 C 186.726562 181.085938 181.140625 186.671875 174.25 186.671875 Z M 174.25 186.671875 " clip-rule="nonzero"/></clipPath><clipPath id="cc23c16652"><path d="M 0.113281 0.722656 L 64.726562 0.722656 L 64.726562 25.671875 L 0.113281 25.671875 Z M 0.113281 0.722656 " clip-rule="nonzero"/></clipPath><clipPath id="a3e3500cc8"><path d="M 52.25 25.671875 L 12.621094 25.671875 C 5.730469 25.671875 0.148438 20.085938 0.148438 13.195312 C 0.148438 6.304688 5.730469 0.722656 12.621094 0.722656 L 52.25 0.722656 C 59.140625 0.722656 64.726562 6.304688 64.726562 13.195312 C 64.726562 20.085938 59.140625 25.671875 52.25 25.671875 Z M 52.25 25.671875 " clip-rule="nonzero"/></clipPath><clipPath id="a0764a6aa7"><rect x="0" width="65" y="0" height="26"/></clipPath><clipPath id="ca50e60853"><path d="M 161.921875 200.667969 L 194.742188 200.667969 L 194.742188 262.46875 L 161.921875 262.46875 Z M 161.921875 200.667969 " clip-rule="nonzero"/></clipPath><clipPath id="b62bdb0686"><path d="M 161.921875 246.054688 L 161.921875 217.183594 C 161.921875 212.832031 163.648438 208.65625 166.726562 205.578125 C 169.804688 202.5 173.980469 200.773438 178.332031 200.773438 C 182.683594 200.773438 186.859375 202.5 189.9375 205.578125 C 193.015625 208.65625 194.742188 212.832031 194.742188 217.183594 L 194.742188 246.054688 C 194.742188 250.410156 193.015625 254.582031 189.9375 257.660156 C 186.859375 260.738281 182.683594 262.46875 178.332031 262.46875 C 173.980469 262.46875 169.804688 260.738281 166.726562 257.660156 C 163.648438 254.582031 161.921875 250.410156 161.921875 246.054688 Z M 161.921875 246.054688 " clip-rule="nonzero"/></clipPath><clipPath id="daa1689916"><path d="M 0.921875 0.667969 L 33.742188 0.667969 L 33.742188 62.46875 L 0.921875 62.46875 Z M 0.921875 0.667969 " clip-rule="nonzero"/></clipPath><clipPath id="094f9c8ecb"><path d="M 0.921875 46.054688 L 0.921875 17.183594 C 0.921875 12.832031 2.648438 8.65625 5.726562 5.578125 C 8.804688 2.5 12.980469 0.773438 17.332031 0.773438 C 21.683594 0.773438 25.859375 2.5 28.9375 5.578125 C 32.015625 8.65625 33.742188 12.832031 33.742188 17.183594 L 33.742188 46.054688 C 33.742188 50.410156 32.015625 54.582031 28.9375 57.660156 C 25.859375 60.738281 21.683594 62.46875 17.332031 62.46875 C 12.980469 62.46875 8.804688 60.738281 5.726562 57.660156 C 2.648438 54.582031 0.921875 50.410156 0.921875 46.054688 Z M 0.921875 46.054688 " clip-rule="nonzero"/></clipPath><clipPath id="a69e21ac50"><rect x="0" width="34" y="0" height="63"/></clipPath><clipPath id="046c4f1134"><path d="M 90 165 L 113 165 L 113 182 L 90 182 Z M 90 165 " clip-rule="nonzero"/></clipPath><clipPath id="de0e0ff8f6"><path d="M 108.113281 185.253906 L 90.5 180.457031 L 95.296875 162.847656 L 112.910156 167.640625 Z M 108.113281 185.253906 " clip-rule="nonzero"/></clipPath><clipPath id="7986d2b679"><path d="M 112.910156 167.640625 C 111.644531 172.28125 108.53125 176.304688 104.359375 178.691406 C 100.1875 181.078125 95.140625 181.71875 90.5 180.457031 L 92.949219 171.472656 C 95.21875 172.089844 97.691406 171.777344 99.734375 170.605469 C 101.78125 169.4375 103.304688 167.46875 103.921875 165.195312 Z M 112.910156 167.640625 " clip-rule="nonzero"/></clipPath><clipPath id="9f85240d38"><path d="M 0.480469 0.121094 L 23 0.121094 L 23 16.921875 L 0.480469 16.921875 Z M 0.480469 0.121094 " clip-rule="nonzero"/></clipPath><clipPath id="b2905c58db"><path d="M 18.113281 20.253906 L 0.5 15.457031 L 5.296875 -2.152344 L 22.910156 2.640625 Z M 18.113281 20.253906 " clip-rule="nonzero"/></clipPath><clipPath id="b2976874f6"><path d="M 22.910156 2.640625 C 21.644531 7.28125 18.53125 11.304688 14.359375 13.691406 C 10.1875 16.078125 5.140625 16.71875 0.5 15.457031 L 2.949219 6.472656 C 5.21875 7.089844 7.691406 6.777344 9.734375 5.605469 C 11.78125 4.4375 13.304688 2.46875 13.921875 0.195312 Z M 22.910156 2.640625 " clip-rule="nonzero"/></clipPath><clipPath id="b639598b92"><rect x="0" width="23" y="0" height="17"/></clipPath><clipPath id="bd0f946054"><path d="M 95 194 L 113 194 L 113 215 L 95 215 Z M 95 194 " clip-rule="nonzero"/></clipPath><clipPath id="999b45d708"><path d="M 114.816406 196.539062 L 112.722656 214.671875 L 94.589844 212.582031 L 96.683594 194.449219 Z M 114.816406 196.539062 " clip-rule="nonzero"/></clipPath><clipPath id="2d91324088"><path d="M 96.683594 194.449219 C 101.460938 195 105.90625 197.472656 108.890625 201.238281 C 111.878906 205.003906 113.273438 209.898438 112.722656 214.671875 L 103.472656 213.605469 C 103.742188 211.265625 103.058594 208.871094 101.597656 207.023438 C 100.132812 205.179688 97.957031 203.96875 95.617188 203.699219 Z M 96.683594 194.449219 " clip-rule="nonzero"/></clipPath><clipPath id="2eb6373c95"><path d="M 0.519531 0.398438 L 18 0.398438 L 18 20.800781 L 0.519531 20.800781 Z M 0.519531 0.398438 " clip-rule="nonzero"/></clipPath><clipPath id="d958557ac5"><path d="M 19.816406 2.539062 L 17.722656 20.671875 L -0.410156 18.582031 L 1.683594 0.449219 Z M 19.816406 2.539062 " clip-rule="nonzero"/></clipPath><clipPath id="6420ffa0d5"><path d="M 1.683594 0.449219 C 6.460938 1 10.90625 3.472656 13.890625 7.238281 C 16.878906 11.003906 18.273438 15.898438 17.722656 20.671875 L 8.472656 19.605469 C 8.742188 17.265625 8.058594 14.871094 6.597656 13.023438 C 5.132812 11.179688 2.957031 9.96875 0.617188 9.699219 Z M 1.683594 0.449219 " clip-rule="nonzero"/></clipPath><clipPath id="d829eef56d"><rect x="0" width="18" y="0" height="21"/></clipPath><clipPath id="169ef27a20"><path d="M 126.523438 176.75 L 144.777344 176.75 L 144.777344 195.003906 L 126.523438 195.003906 Z M 126.523438 176.75 " clip-rule="nonzero"/></clipPath><clipPath id="f5f66f4620"><path d="M 126.523438 195.003906 C 126.523438 190.195312 128.472656 185.496094 131.871094 182.097656 C 135.269531 178.699219 139.96875 176.75 144.777344 176.75 L 144.777344 186.0625 C 142.421875 186.0625 140.121094 187.015625 138.457031 188.679688 C 136.789062 190.347656 135.835938 192.648438 135.835938 195.003906 Z M 126.523438 195.003906 " clip-rule="nonzero"/></clipPath><clipPath id="be3dff6a40"><path d="M 0.523438 0.75 L 18.777344 0.75 L 18.777344 19.003906 L 0.523438 19.003906 Z M 0.523438 0.75 " clip-rule="nonzero"/></clipPath><clipPath id="32d93f75dc"><path d="M 0.523438 19.003906 C 0.523438 14.195312 2.472656 9.496094 5.871094 6.097656 C 9.269531 2.699219 13.96875 0.75 18.777344 0.75 L 18.777344 10.0625 C 16.421875 10.0625 14.121094 11.015625 12.457031 12.679688 C 10.789062 14.347656 9.835938 16.648438 9.835938 19.003906 Z M 0.523438 19.003906 " clip-rule="nonzero"/></clipPath><clipPath id="0aff727307"><rect x="0" width="19" y="0" height="20"/></clipPath><clipPath id="621279c7b9"><path d="M 126 153 L 146 153 L 146 172 L 126 172 Z M 126 153 " clip-rule="nonzero"/></clipPath><clipPath id="7952d72f19"><path d="M 127.652344 172.605469 L 126.34375 154.398438 L 144.546875 153.089844 L 145.859375 171.292969 Z M 127.652344 172.605469 " clip-rule="nonzero"/></clipPath><clipPath id="97ee49edca"><path d="M 145.859375 171.292969 C 141.066406 171.640625 136.238281 170.035156 132.601562 166.886719 C 128.96875 163.742188 126.6875 159.195312 126.34375 154.398438 L 135.628906 153.730469 C 135.800781 156.078125 136.917969 158.308594 138.695312 159.847656 C 140.476562 161.390625 142.84375 162.175781 145.191406 162.003906 Z M 145.859375 171.292969 " clip-rule="nonzero"/></clipPath><clipPath id="f0cb7b443d"><path d="M 0.238281 0.601562 L 19.921875 0.601562 L 19.921875 18.839844 L 0.238281 18.839844 Z M 0.238281 0.601562 " clip-rule="nonzero"/></clipPath><clipPath id="22fd97370c"><path d="M 1.652344 19.605469 L 0.34375 1.398438 L 18.546875 0.0898438 L 19.859375 18.292969 Z M 1.652344 19.605469 " clip-rule="nonzero"/></clipPath><clipPath id="a4de43eed1"><path d="M 19.859375 18.292969 C 15.066406 18.640625 10.238281 17.035156 6.601562 13.886719 C 2.96875 10.742188 0.6875 6.195312 0.34375 1.398438 L 9.628906 0.730469 C 9.800781 3.078125 10.917969 5.308594 12.695312 6.847656 C 14.476562 8.390625 16.84375 9.175781 19.191406 9.003906 Z M 19.859375 18.292969 " clip-rule="nonzero"/></clipPath><clipPath id="d01a6a298e"><rect x="0" width="20" y="0" height="19"/></clipPath><clipPath id="114db036c8"><path d="M 175.738281 167.015625 L 194.519531 167.015625 L 194.519531 186.671875 L 175.738281 186.671875 Z M 175.738281 167.015625 " clip-rule="nonzero"/></clipPath><clipPath id="cb2059b1ac"><path d="M 194.519531 167.070312 C 194.519531 172.230469 192.515625 177.28125 189.019531 180.929688 C 185.519531 184.582031 180.683594 186.671875 175.738281 186.671875 L 175.738281 176.671875 C 178.164062 176.671875 180.53125 175.648438 182.242188 173.859375 C 183.957031 172.070312 184.9375 169.597656 184.9375 167.070312 Z M 194.519531 167.070312 " clip-rule="nonzero"/></clipPath><clipPath id="daff65e9e9"><path d="M 0.738281 0.0390625 L 19.519531 0.0390625 L 19.519531 19.671875 L 0.738281 19.671875 Z M 0.738281 0.0390625 " clip-rule="nonzero"/></clipPath><clipPath id="6843d5c8cb"><path d="M 19.519531 0.0703125 C 19.519531 5.230469 17.515625 10.28125 14.019531 13.929688 C 10.519531 17.582031 5.683594 19.671875 0.738281 19.671875 L 0.738281 9.671875 C 3.164062 9.671875 5.53125 8.648438 7.242188 6.859375 C 8.957031 5.070312 9.9375 2.597656 9.9375 0.0703125 Z M 19.519531 0.0703125 " clip-rule="nonzero"/></clipPath><clipPath id="e4bdf09b9c"><rect x="0" width="20" y="0" height="20"/></clipPath><clipPath id="c125e6276d"><path d="M 162.816406 147.054688 L 194.523438 147.054688 L 194.523438 167.976562 L 162.816406 167.976562 Z M 162.816406 147.054688 " clip-rule="nonzero"/></clipPath><clipPath id="50834bb1f8"><path d="M 0.816406 0.0546875 L 32.523438 0.0546875 L 32.523438 20.976562 L 0.816406 20.976562 Z M 0.816406 0.0546875 " clip-rule="nonzero"/></clipPath><clipPath id="a0d8d0f8df"><rect x="0" width="33" y="0" height="21"/></clipPath><clipPath id="7654376bda"><path d="M 161.761719 200.609375 L 194.570312 200.609375 L 194.570312 233.675781 L 161.761719 233.675781 Z M 161.761719 200.609375 " clip-rule="nonzero"/></clipPath><clipPath id="22cfe12de6"><path d="M 194.570312 208.109375 L 194.570312 226.09375 C 194.570312 230.234375 191.214844 233.59375 187.070312 233.59375 L 169.261719 233.59375 C 165.121094 233.59375 161.761719 230.234375 161.761719 226.09375 L 161.761719 208.109375 C 161.761719 203.96875 165.121094 200.609375 169.261719 200.609375 L 187.070312 200.609375 C 191.214844 200.609375 194.570312 203.96875 194.570312 208.109375 Z M 194.570312 208.109375 " clip-rule="nonzero"/></clipPath><clipPath id="01e1d99002"><path d="M 0.761719 0.609375 L 33.570312 0.609375 L 33.570312 33.675781 L 0.761719 33.675781 Z M 0.761719 0.609375 " clip-rule="nonzero"/></clipPath><clipPath id="126ed6679f"><path d="M 33.570312 8.109375 L 33.570312 26.09375 C 33.570312 30.234375 30.214844 33.59375 26.070312 33.59375 L 8.261719 33.59375 C 4.121094 33.59375 0.761719 30.234375 0.761719 26.09375 L 0.761719 8.109375 C 0.761719 3.96875 4.121094 0.609375 8.261719 0.609375 L 26.070312 0.609375 C 30.214844 0.609375 33.570312 3.96875 33.570312 8.109375 Z M 33.570312 8.109375 " clip-rule="nonzero"/></clipPath><clipPath id="912513a1b7"><rect x="0" width="34" y="0" height="34"/></clipPath></defs><rect x="-37.5" width="450" fill="#ffffff" y="-37.499999" height="449.999989" fill-opacity="1"/><rect x="-37.5" width="450" fill="#392110" y="-37.499999" height="449.999989" fill-opacity="1"/><g clip-path="url(#31e4d521c7)"><g clip-path="url(#863af8c9cd)"><g transform="matrix(1, 0, 0, 1, 55, 55)"><g clip-path="url(#fcf4ea962e)"><g clip-path="url(#64205e62fa)"><g clip-path="url(#2f6e4354f1)"><path fill="#e2a03b" d="M 0.878906 0.878906 L 264.121094 0.878906 L 264.121094 264.121094 L 0.878906 264.121094 Z M 0.878906 0.878906 " fill-opacity="1" fill-rule="nonzero"/></g></g></g></g></g></g><g clip-path="url(#13e8828da5)"><g clip-path="url(#2c178d3df8)"><g transform="matrix(1, 0, 0, 1, 103, 106)"><g clip-path="url(#b2604dd611)"><g clip-path="url(#4c42b54eb3)"><g clip-path="url(#e6c64c6e32)"><path fill="#392110" d="M 33.09375 0.46875 L 33.09375 156.488281 L 0.328125 156.488281 L 0.328125 0.46875 Z M 33.09375 0.46875 " fill-opacity="1" fill-rule="nonzero"/></g></g></g></g></g></g><g clip-path="url(#5eeee37d91)"><g clip-path="url(#65219561b7)"><g transform="matrix(1, 0, 0, 1, 71, 170)"><g clip-path="url(#10fc9d9bf2)"><g clip-path="url(#c05f870da8)"><g clip-path="url(#0ff52fdfe0)"><path fill="#392110" d="M 64.644531 34.558594 L 0.0859375 34.558594 L 0.0859375 0.898438 L 64.644531 0.898438 Z M 64.644531 34.558594 " fill-opacity="1" fill-rule="nonzero"/></g></g></g></g></g></g><g clip-path="url(#1ed5b7e3e2)"><g clip-path="url(#08cd7fd122)"><g transform="matrix(1, 0, 0, 1, 161, 106)"><g clip-path="url(#b58fe66b8c)"><g clip-path="url(#96df2bf1ba)"><g clip-path="url(#766f0e9707)"><path fill="#392110" d="M 0.761719 68.5 L 0.761719 0.421875 L 33.523438 0.421875 L 33.523438 68.5 Z M 0.761719 68.5 " fill-opacity="1" fill-rule="nonzero"/></g></g></g></g></g></g><g clip-path="url(#9cfe4c8044)"><g clip-path="url(#7630027cf8)"><g transform="matrix(1, 0, 0, 1, 122, 161)"><g clip-path="url(#a0764a6aa7)"><g clip-path="url(#cc23c16652)"><g clip-path="url(#a3e3500cc8)"><path fill="#392110" d="M 64.726562 25.671875 L 0.113281 25.671875 L 0.113281 0.722656 L 64.726562 0.722656 Z M 64.726562 25.671875 " fill-opacity="1" fill-rule="nonzero"/></g></g></g></g></g></g><g clip-path="url(#ca50e60853)"><g clip-path="url(#b62bdb0686)"><g transform="matrix(1, 0, 0, 1, 161, 200)"><g clip-path="url(#a69e21ac50)"><g clip-path="url(#daa1689916)"><g clip-path="url(#094f9c8ecb)"><path fill="#392110" d="M 0.921875 62.46875 L 0.921875 0.796875 L 33.742188 0.796875 L 33.742188 62.46875 Z M 0.921875 62.46875 " fill-opacity="1" fill-rule="nonzero"/></g></g></g></g></g></g><g clip-path="url(#046c4f1134)"><g clip-path="url(#de0e0ff8f6)"><g clip-path="url(#7986d2b679)"><g transform="matrix(1, 0, 0, 1, 90, 165)"><g clip-path="url(#b639598b92)"><g clip-path="url(#9f85240d38)"><g clip-path="url(#b2905c58db)"><g clip-path="url(#b2976874f6)"><path fill="#392110" d="M 18.113281 20.253906 L 0.5 15.457031 L 5.296875 -2.152344 L 22.910156 2.640625 Z M 18.113281 20.253906 " fill-opacity="1" fill-rule="nonzero"/></g></g></g></g></g></g></g></g><g clip-path="url(#bd0f946054)"><g clip-path="url(#999b45d708)"><g clip-path="url(#2d91324088)"><g transform="matrix(1, 0, 0, 1, 95, 194)"><g clip-path="url(#d829eef56d)"><g clip-path="url(#2eb6373c95)"><g clip-path="url(#d958557ac5)"><g clip-path="url(#6420ffa0d5)"><path fill="#392110" d="M 19.816406 2.539062 L 17.722656 20.671875 L -0.410156 18.582031 L 1.683594 0.449219 Z M 19.816406 2.539062 " fill-opacity="1" fill-rule="nonzero"/></g></g></g></g></g></g></g></g><g clip-path="url(#169ef27a20)"><g clip-path="url(#f5f66f4620)"><g transform="matrix(1, 0, 0, 1, 126, 176)"><g clip-path="url(#0aff727307)"><g clip-path="url(#be3dff6a40)"><g clip-path="url(#32d93f75dc)"><path fill="#392110" d="M 0.523438 0.75 L 18.777344 0.75 L 18.777344 19.003906 L 0.523438 19.003906 Z M 0.523438 0.75 " fill-opacity="1" fill-rule="nonzero"/></g></g></g></g></g></g><g clip-path="url(#621279c7b9)"><g clip-path="url(#7952d72f19)"><g clip-path="url(#97ee49edca)"><g transform="matrix(1, 0, 0, 1, 126, 153)"><g clip-path="url(#d01a6a298e)"><g clip-path="url(#f0cb7b443d)"><g clip-path="url(#22fd97370c)"><g clip-path="url(#a4de43eed1)"><path fill="#392110" d="M 1.652344 19.605469 L 0.34375 1.398438 L 18.546875 0.0898438 L 19.859375 18.292969 Z M 1.652344 19.605469 " fill-opacity="1" fill-rule="nonzero"/></g></g></g></g></g></g></g></g><g clip-path="url(#114db036c8)"><g clip-path="url(#cb2059b1ac)"><g transform="matrix(1, 0, 0, 1, 175, 167)"><g clip-path="url(#e4bdf09b9c)"><g clip-path="url(#daff65e9e9)"><g clip-path="url(#6843d5c8cb)"><path fill="#392110" d="M 19.519531 19.671875 L 0.738281 19.671875 L 0.738281 0.0859375 L 19.519531 0.0859375 Z M 19.519531 19.671875 " fill-opacity="1" fill-rule="nonzero"/></g></g></g></g></g></g><g clip-path="url(#c125e6276d)"><g transform="matrix(1, 0, 0, 1, 162, 147)"><g clip-path="url(#a0d8d0f8df)"><g clip-path="url(#50834bb1f8)"><path fill="#392110" d="M 0.816406 0.0546875 L 32.535156 0.0546875 L 32.535156 20.976562 L 0.816406 20.976562 Z M 0.816406 0.0546875 " fill-opacity="1" fill-rule="nonzero"/></g></g></g></g><g clip-path="url(#7654376bda)"><g clip-path="url(#22cfe12de6)"><g transform="matrix(1, 0, 0, 1, 161, 200)"><g clip-path="url(#912513a1b7)"><g clip-path="url(#01e1d99002)"><g clip-path="url(#126ed6679f)"><path fill="#392110" d="M 0.761719 0.609375 L 33.570312 0.609375 L 33.570312 33.546875 L 0.761719 33.546875 Z M 0.761719 0.609375 " fill-opacity="1" fill-rule="nonzero"/></g></g></g></g></g></g><g fill="#392110" fill-opacity="1"><g transform="translate(210.777545, 147.287854)"><g><path d="M 6.09375 0.640625 C 7.375 0.640625 8.597656 0.296875 9.765625 -0.390625 C 10.929688 -1.085938 11.582031 -2.203125 11.71875 -3.734375 C 11.738281 -5.046875 11.75 -6.140625 11.75 -7.015625 C 11.75 -7.898438 11.769531 -8.5625 11.8125 -9 C 11.851562 -9.445312 11.976562 -9.671875 12.1875 -9.671875 L 13.640625 -9.703125 C 13.878906 -9.703125 14.03125 -9.679688 14.09375 -9.640625 C 14.164062 -9.609375 14.203125 -9.535156 14.203125 -9.421875 L 14.203125 -8.0625 C 14.203125 -5.738281 14.269531 -4.039062 14.40625 -2.96875 C 14.613281 -1.789062 15.1875 -0.898438 16.125 -0.296875 C 17.0625 0.304688 18.101562 0.609375 19.25 0.609375 C 20.050781 0.609375 20.84375 0.429688 21.625 0.078125 C 23.332031 -0.671875 24.1875 -2.019531 24.1875 -3.96875 C 24.1875 -8.4375 24.210938 -12.085938 24.265625 -14.921875 C 24.296875 -17.328125 24.3125 -20.921875 24.3125 -25.703125 C 24.3125 -27.421875 24.039062 -28.75 23.5 -29.6875 C 22.539062 -31.363281 21.054688 -32.203125 19.046875 -32.203125 C 18.242188 -32.203125 17.53125 -32.085938 16.90625 -31.859375 C 16.28125 -31.640625 15.847656 -31.394531 15.609375 -31.125 C 15.015625 -30.375 14.644531 -29.441406 14.5 -28.328125 C 14.351562 -27.222656 14.28125 -26.164062 14.28125 -25.15625 L 14.359375 -19.8125 C 14.359375 -18.207031 14.222656 -17.40625 13.953125 -17.40625 L 12.71875 -17.375 C 12.34375 -17.375 12.113281 -17.414062 12.03125 -17.5 C 11.945312 -17.59375 11.90625 -17.789062 11.90625 -18.09375 L 12 -24.90625 L 11.953125 -27.390625 C 11.953125 -28.566406 11.644531 -29.519531 11.03125 -30.25 C 10.414062 -30.988281 9.644531 -31.523438 8.71875 -31.859375 C 7.800781 -32.203125 6.882812 -32.375 5.96875 -32.375 C 4.6875 -32.375 3.644531 -31.816406 2.84375 -30.703125 C 2.039062 -29.597656 1.613281 -28.109375 1.5625 -26.234375 L 1.40625 -11.515625 C 1.425781 -9.878906 1.4375 -7.898438 1.4375 -5.578125 C 1.4375 -4.234375 1.503906 -3.1875 1.640625 -2.4375 C 1.773438 -1.695312 2.109375 -1.046875 2.640625 -0.484375 C 3.523438 0.265625 4.675781 0.640625 6.09375 0.640625 Z M 6.09375 0.640625 "/></g></g></g><g fill="#392110" fill-opacity="1"><g transform="translate(237.124246, 147.287854)"><g><path d="M 8.625 0.875 C 9.769531 0.875 11.117188 0.847656 12.671875 0.796875 C 13.796875 0.773438 15.039062 0.753906 16.40625 0.734375 C 17.769531 0.722656 18.953125 0.3125 19.953125 -0.5 C 20.953125 -1.3125 21.453125 -2.457031 21.453125 -3.9375 C 21.453125 -5.40625 21.070312 -6.632812 20.3125 -7.625 C 19.550781 -8.613281 18.582031 -9.1875 17.40625 -9.34375 C 14.96875 -9.34375 13.054688 -9.359375 11.671875 -9.390625 C 11.484375 -9.410156 11.367188 -9.5 11.328125 -9.65625 C 11.285156 -9.820312 11.265625 -10.039062 11.265625 -10.3125 C 11.265625 -10.570312 11.289062 -10.753906 11.34375 -10.859375 C 11.40625 -10.972656 11.554688 -11.039062 11.796875 -11.0625 C 12.035156 -11.09375 12.4375 -11.125 13 -11.15625 L 14.84375 -11.234375 C 15.1875 -11.234375 15.671875 -11.234375 16.296875 -11.234375 C 16.929688 -11.234375 17.566406 -11.328125 18.203125 -11.515625 C 19.648438 -11.941406 20.375 -13.453125 20.375 -16.046875 C 20.375 -17.171875 20.160156 -18 19.734375 -18.53125 C 19.015625 -19.382812 17.835938 -19.8125 16.203125 -19.8125 C 14.441406 -19.8125 13.28125 -19.832031 12.71875 -19.875 C 12.15625 -19.914062 11.816406 -20 11.703125 -20.125 C 11.597656 -20.257812 11.546875 -20.460938 11.546875 -20.734375 L 11.546875 -20.890625 L 11.515625 -21.53125 C 11.515625 -21.71875 11.632812 -21.84375 11.875 -21.90625 C 12.40625 -21.90625 13.191406 -21.941406 14.234375 -22.015625 C 15.597656 -22.128906 16.800781 -22.1875 17.84375 -22.1875 C 19.050781 -22.1875 19.945312 -22.492188 20.53125 -23.109375 C 21.445312 -24.066406 21.90625 -25.304688 21.90625 -26.828125 C 21.90625 -28.242188 21.597656 -29.351562 20.984375 -30.15625 C 19.804688 -31.601562 17.929688 -32.328125 15.359375 -32.328125 L 5.734375 -32.328125 C 3.171875 -32.171875 1.753906 -31.113281 1.484375 -29.15625 C 1.429688 -28.726562 1.40625 -27.378906 1.40625 -25.109375 C 1.40625 -23.878906 1.410156 -22.617188 1.421875 -21.328125 C 1.429688 -20.046875 1.441406 -18.960938 1.453125 -18.078125 C 1.472656 -17.203125 1.5 -16.765625 1.53125 -16.765625 L 1.484375 -8.578125 C 1.484375 -5.828125 1.628906 -3.773438 1.921875 -2.421875 C 2.210938 -1.078125 2.867188 -0.191406 3.890625 0.234375 C 4.910156 0.660156 6.488281 0.875 8.625 0.875 Z M 8.625 0.875 "/></g></g></g><g fill="#392110" fill-opacity="1"><g transform="translate(259.821712, 147.287854)"><g><path d="M 6.140625 0.359375 C 7.078125 0.359375 7.957031 0.179688 8.78125 -0.171875 C 9.613281 -0.535156 10.289062 -1.195312 10.8125 -2.15625 C 11.332031 -3.125 11.59375 -4.488281 11.59375 -6.25 C 11.695312 -9.03125 11.75 -12.082031 11.75 -15.40625 C 11.75 -21.363281 11.679688 -25.585938 11.546875 -28.078125 C 11.441406 -29.359375 10.914062 -30.421875 9.96875 -31.265625 C 9.019531 -32.109375 7.847656 -32.53125 6.453125 -32.53125 C 5.066406 -32.53125 3.929688 -32.085938 3.046875 -31.203125 C 2.160156 -30.316406 1.65625 -29.164062 1.53125 -27.75 C 1.46875 -27.351562 1.421875 -26.957031 1.390625 -26.5625 C 1.367188 -26.175781 1.351562 -25.6875 1.34375 -25.09375 C 1.332031 -24.507812 1.328125 -23.660156 1.328125 -22.546875 L 1.4375 -7.140625 L 1.40625 -6.0625 C 1.40625 -4.132812 1.738281 -2.582031 2.40625 -1.40625 C 3.070312 -0.226562 4.316406 0.359375 6.140625 0.359375 Z M 6.140625 0.359375 "/></g></g></g><g fill="#392110" fill-opacity="1"><g transform="translate(210.777545, 202.78785)"><g><path d="M 5.859375 0.71875 C 11.921875 0.71875 16.425781 -1.070312 19.375 -4.65625 C 21.914062 -7.726562 23.195312 -11.601562 23.21875 -16.28125 C 23.21875 -18.925781 22.679688 -21.476562 21.609375 -23.9375 C 20.546875 -26.40625 18.832031 -28.410156 16.46875 -29.953125 C 14.101562 -31.503906 10.976562 -32.3125 7.09375 -32.375 C 5.707031 -32.375 4.457031 -31.789062 3.34375 -30.625 C 2.238281 -29.457031 1.632812 -28.046875 1.53125 -26.390625 C 1.445312 -24.390625 1.40625 -20.953125 1.40625 -16.078125 L 1.4375 -10.828125 C 1.4375 -7.347656 1.453125 -5.394531 1.484375 -4.96875 C 1.566406 -4.164062 1.796875 -3.328125 2.171875 -2.453125 C 2.546875 -1.585938 3.050781 -0.84375 3.6875 -0.21875 C 4.332031 0.40625 5.054688 0.71875 5.859375 0.71875 Z M 11.109375 -12.359375 C 11.023438 -12.359375 10.984375 -12.367188 10.984375 -12.390625 C 11.015625 -12.710938 11.03125 -15.082031 11.03125 -19.5 C 11.050781 -19.570312 11.101562 -19.609375 11.1875 -19.609375 C 11.375 -19.609375 11.632812 -19.488281 11.96875 -19.25 C 12.300781 -19.007812 12.601562 -18.617188 12.875 -18.078125 C 13.144531 -17.546875 13.28125 -16.816406 13.28125 -15.890625 C 13.28125 -15.003906 13.128906 -14.300781 12.828125 -13.78125 C 12.535156 -13.257812 12.207031 -12.890625 11.84375 -12.671875 C 11.488281 -12.460938 11.242188 -12.359375 11.109375 -12.359375 Z M 11.109375 -12.359375 "/></g></g></g><g fill="#392110" fill-opacity="1"><g transform="translate(234.236821, 202.78785)"><g><path d="M 3.40625 0.359375 C 4.476562 0.359375 5.414062 0.03125 6.21875 -0.625 C 7.019531 -1.28125 7.675781 -2.15625 8.1875 -3.25 C 8.238281 -3.40625 8.316406 -3.535156 8.421875 -3.640625 C 8.523438 -3.753906 8.914062 -3.8125 9.59375 -3.8125 L 12.546875 -3.765625 L 15.890625 -3.765625 C 16.523438 -3.765625 16.960938 -3.457031 17.203125 -2.84375 C 17.710938 -1.832031 18.378906 -1.078125 19.203125 -0.578125 C 20.035156 -0.0859375 20.878906 0.15625 21.734375 0.15625 C 22.535156 0.15625 23.269531 -0.03125 23.9375 -0.40625 C 24.613281 -0.78125 25.140625 -1.328125 25.515625 -2.046875 C 25.773438 -2.609375 25.90625 -3.171875 25.90625 -3.734375 C 25.90625 -4.421875 25.65625 -5.410156 25.15625 -6.703125 C 24.457031 -8.515625 23.28125 -11.945312 21.625 -17 C 20.445312 -20.507812 19.414062 -23.457031 18.53125 -25.84375 C 17.644531 -28.238281 16.859375 -29.878906 16.171875 -30.765625 C 15.179688 -31.859375 14.03125 -32.40625 12.71875 -32.40625 C 11.59375 -32.40625 10.578125 -31.976562 9.671875 -31.125 C 9.503906 -30.96875 9.351562 -30.796875 9.21875 -30.609375 C 8.957031 -30.234375 8.460938 -29.148438 7.734375 -27.359375 C 7.390625 -26.554688 4.570312 -19.484375 -0.71875 -6.140625 C -0.988281 -5.441406 -1.125 -4.742188 -1.125 -4.046875 C -1.125 -3.191406 -0.921875 -2.335938 -0.515625 -1.484375 C -0.171875 -0.785156 0.242188 -0.335938 0.734375 -0.140625 C 1.234375 0.0546875 1.710938 0.179688 2.171875 0.234375 L 2.484375 0.28125 C 2.804688 0.332031 3.113281 0.359375 3.40625 0.359375 Z M 12.546875 -11.90625 C 12.097656 -11.90625 11.875 -11.960938 11.875 -12.078125 C 12.007812 -12.335938 12.195312 -12.679688 12.4375 -13.109375 C 12.675781 -13.535156 12.863281 -13.925781 13 -14.28125 C 13.070312 -14.28125 13.140625 -14.265625 13.203125 -14.234375 C 13.410156 -13.597656 13.625 -13.078125 13.84375 -12.671875 C 14 -12.378906 14.078125 -12.179688 14.078125 -12.078125 C 14.078125 -12.023438 14.050781 -12 14 -12 Z M 12.546875 -11.90625 "/></g></g></g><g fill="#392110" fill-opacity="1"><g transform="translate(255.730369, 202.78785)"><g><path d="M 12.796875 0.359375 C 14.265625 0.359375 15.472656 -0.113281 16.421875 -1.0625 C 17.367188 -2.007812 17.882812 -3.335938 17.96875 -5.046875 L 18.015625 -11.515625 L 17.96875 -17.40625 C 17.96875 -19.382812 18.007812 -20.65625 18.09375 -21.21875 C 18.113281 -21.5625 18.21875 -21.789062 18.40625 -21.90625 C 18.59375 -22.03125 18.738281 -22.09375 18.84375 -22.09375 C 19.625 -22.09375 20.472656 -22.132812 21.390625 -22.21875 C 22.316406 -22.300781 23.128906 -22.53125 23.828125 -22.90625 C 25.429688 -23.84375 26.234375 -25.484375 26.234375 -27.828125 C 26.234375 -29.191406 25.867188 -30.226562 25.140625 -30.9375 C 24.421875 -31.644531 23.617188 -32.117188 22.734375 -32.359375 C 21.859375 -32.609375 21.148438 -32.734375 20.609375 -32.734375 L 6.65625 -32.734375 C 5.238281 -32.734375 3.875 -32.4375 2.5625 -31.84375 C 0.582031 -30.957031 -0.40625 -29.4375 -0.40625 -27.28125 C -0.40625 -26.125 -0.03125 -25.117188 0.71875 -24.265625 C 1.46875 -23.410156 2.234375 -22.835938 3.015625 -22.546875 C 3.410156 -22.378906 3.847656 -22.257812 4.328125 -22.1875 C 4.804688 -22.125 5.554688 -22.09375 6.578125 -22.09375 C 6.847656 -22.09375 7.125 -22.050781 7.40625 -21.96875 C 7.6875 -21.894531 7.835938 -21.695312 7.859375 -21.375 C 8.046875 -17.738281 8.140625 -12.753906 8.140625 -6.421875 L 8.140625 -4.65625 C 8.140625 -4.625 8.191406 -4.347656 8.296875 -3.828125 C 8.410156 -3.304688 8.625 -2.722656 8.9375 -2.078125 C 9.257812 -1.441406 9.726562 -0.875 10.34375 -0.375 C 10.957031 0.113281 11.773438 0.359375 12.796875 0.359375 Z M 12.796875 0.359375 "/></g></g></g><g fill="#392110" fill-opacity="1"><g transform="translate(278.266623, 202.78785)"><g><path d="M 3.40625 0.359375 C 4.476562 0.359375 5.414062 0.03125 6.21875 -0.625 C 7.019531 -1.28125 7.675781 -2.15625 8.1875 -3.25 C 8.238281 -3.40625 8.316406 -3.535156 8.421875 -3.640625 C 8.523438 -3.753906 8.914062 -3.8125 9.59375 -3.8125 L 12.546875 -3.765625 L 15.890625 -3.765625 C 16.523438 -3.765625 16.960938 -3.457031 17.203125 -2.84375 C 17.710938 -1.832031 18.378906 -1.078125 19.203125 -0.578125 C 20.035156 -0.0859375 20.878906 0.15625 21.734375 0.15625 C 22.535156 0.15625 23.269531 -0.03125 23.9375 -0.40625 C 24.613281 -0.78125 25.140625 -1.328125 25.515625 -2.046875 C 25.773438 -2.609375 25.90625 -3.171875 25.90625 -3.734375 C 25.90625 -4.421875 25.65625 -5.410156 25.15625 -6.703125 C 24.457031 -8.515625 23.28125 -11.945312 21.625 -17 C 20.445312 -20.507812 19.414062 -23.457031 18.53125 -25.84375 C 17.644531 -28.238281 16.859375 -29.878906 16.171875 -30.765625 C 15.179688 -31.859375 14.03125 -32.40625 12.71875 -32.40625 C 11.59375 -32.40625 10.578125 -31.976562 9.671875 -31.125 C 9.503906 -30.96875 9.351562 -30.796875 9.21875 -30.609375 C 8.957031 -30.234375 8.460938 -29.148438 7.734375 -27.359375 C 7.390625 -26.554688 4.570312 -19.484375 -0.71875 -6.140625 C -0.988281 -5.441406 -1.125 -4.742188 -1.125 -4.046875 C -1.125 -3.191406 -0.921875 -2.335938 -0.515625 -1.484375 C -0.171875 -0.785156 0.242188 -0.335938 0.734375 -0.140625 C 1.234375 0.0546875 1.710938 0.179688 2.171875 0.234375 L 2.484375 0.28125 C 2.804688 0.332031 3.113281 0.359375 3.40625 0.359375 Z M 12.546875 -11.90625 C 12.097656 -11.90625 11.875 -11.960938 11.875 -12.078125 C 12.007812 -12.335938 12.195312 -12.679688 12.4375 -13.109375 C 12.675781 -13.535156 12.863281 -13.925781 13 -14.28125 C 13.070312 -14.28125 13.140625 -14.265625 13.203125 -14.234375 C 13.410156 -13.597656 13.625 -13.078125 13.84375 -12.671875 C 14 -12.378906 14.078125 -12.179688 14.078125 -12.078125 C 14.078125 -12.023438 14.050781 -12 14 -12 Z M 12.546875 -11.90625 "/></g></g></g><g fill="#392110" fill-opacity="1"><g transform="translate(210.777545, 258.287846)"><g><path d="M 6.09375 0.640625 C 7.375 0.640625 8.597656 0.296875 9.765625 -0.390625 C 10.929688 -1.085938 11.582031 -2.203125 11.71875 -3.734375 C 11.738281 -5.046875 11.75 -6.140625 11.75 -7.015625 C 11.75 -7.898438 11.769531 -8.5625 11.8125 -9 C 11.851562 -9.445312 11.976562 -9.671875 12.1875 -9.671875 L 13.640625 -9.703125 C 13.878906 -9.703125 14.03125 -9.679688 14.09375 -9.640625 C 14.164062 -9.609375 14.203125 -9.535156 14.203125 -9.421875 L 14.203125 -8.0625 C 14.203125 -5.738281 14.269531 -4.039062 14.40625 -2.96875 C 14.613281 -1.789062 15.1875 -0.898438 16.125 -0.296875 C 17.0625 0.304688 18.101562 0.609375 19.25 0.609375 C 20.050781 0.609375 20.84375 0.429688 21.625 0.078125 C 23.332031 -0.671875 24.1875 -2.019531 24.1875 -3.96875 C 24.1875 -8.4375 24.210938 -12.085938 24.265625 -14.921875 C 24.296875 -17.328125 24.3125 -20.921875 24.3125 -25.703125 C 24.3125 -27.421875 24.039062 -28.75 23.5 -29.6875 C 22.539062 -31.363281 21.054688 -32.203125 19.046875 -32.203125 C 18.242188 -32.203125 17.53125 -32.085938 16.90625 -31.859375 C 16.28125 -31.640625 15.847656 -31.394531 15.609375 -31.125 C 15.015625 -30.375 14.644531 -29.441406 14.5 -28.328125 C 14.351562 -27.222656 14.28125 -26.164062 14.28125 -25.15625 L 14.359375 -19.8125 C 14.359375 -18.207031 14.222656 -17.40625 13.953125 -17.40625 L 12.71875 -17.375 C 12.34375 -17.375 12.113281 -17.414062 12.03125 -17.5 C 11.945312 -17.59375 11.90625 -17.789062 11.90625 -18.09375 L 12 -24.90625 L 11.953125 -27.390625 C 11.953125 -28.566406 11.644531 -29.519531 11.03125 -30.25 C 10.414062 -30.988281 9.644531 -31.523438 8.71875 -31.859375 C 7.800781 -32.203125 6.882812 -32.375 5.96875 -32.375 C 4.6875 -32.375 3.644531 -31.816406 2.84375 -30.703125 C 2.039062 -29.597656 1.613281 -28.109375 1.5625 -26.234375 L 1.40625 -11.515625 C 1.425781 -9.878906 1.4375 -7.898438 1.4375 -5.578125 C 1.4375 -4.234375 1.503906 -3.1875 1.640625 -2.4375 C 1.773438 -1.695312 2.109375 -1.046875 2.640625 -0.484375 C 3.523438 0.265625 4.675781 0.640625 6.09375 0.640625 Z M 6.09375 0.640625 "/></g></g></g><g fill="#392110" fill-opacity="1"><g transform="translate(237.124246, 258.287846)"><g><path d="M 13 0.765625 C 15.457031 0.765625 17.5625 0.101562 19.3125 -1.21875 C 21.0625 -2.539062 22.410156 -4.175781 23.359375 -6.125 C 24.304688 -8.082031 24.78125 -10.023438 24.78125 -11.953125 C 24.96875 -14.765625 25.0625 -17.25 25.0625 -19.40625 C 25.0625 -21.039062 25.035156 -22.488281 24.984375 -23.75 L 24.953125 -26.390625 C 24.953125 -27.671875 24.648438 -28.738281 24.046875 -29.59375 C 23.441406 -30.457031 22.734375 -31.09375 21.921875 -31.5 C 21.109375 -31.914062 20.363281 -32.125 19.6875 -32.125 C 18.4375 -32.125 17.320312 -31.5625 16.34375 -30.4375 C 15.363281 -29.320312 14.835938 -28.023438 14.765625 -26.546875 C 14.679688 -23.691406 14.640625 -20.992188 14.640625 -18.453125 C 14.640625 -15.773438 14.582031 -13.972656 14.46875 -13.046875 C 14.363281 -12.128906 14.003906 -11.671875 13.390625 -11.671875 C 12.804688 -11.671875 12.441406 -12.09375 12.296875 -12.9375 C 12.148438 -13.78125 12.078125 -14.816406 12.078125 -16.046875 L 12.078125 -18.734375 L 12.03125 -20.734375 L 12.078125 -23.390625 C 12.078125 -25.066406 11.914062 -26.519531 11.59375 -27.75 C 11.457031 -28.070312 11.253906 -28.503906 10.984375 -29.046875 C 9.941406 -31.046875 8.550781 -32.046875 6.8125 -32.046875 C 4.4375 -32.046875 2.820312 -31.070312 1.96875 -29.125 C 1.269531 -27.539062 0.921875 -24.488281 0.921875 -19.96875 C 0.921875 -17.507812 1.015625 -14.957031 1.203125 -12.3125 C 1.285156 -10.976562 1.5625 -9.554688 2.03125 -8.046875 C 2.5 -6.535156 3.191406 -5.117188 4.109375 -3.796875 C 5.035156 -2.472656 6.222656 -1.378906 7.671875 -0.515625 C 9.128906 0.335938 10.90625 0.765625 13 0.765625 Z M 13 0.765625 "/></g></g></g><g fill="#392110" fill-opacity="1"><g transform="translate(263.831859, 258.287846)"><g><path d="M 12.875 -0.078125 C 14.53125 -0.078125 15.945312 -0.210938 17.125 -0.484375 C 19.582031 -1.148438 21.425781 -2.40625 22.65625 -4.25 C 23.882812 -6.09375 24.5 -8.085938 24.5 -10.234375 C 24.5 -11.835938 24.160156 -13.394531 23.484375 -14.90625 C 22.804688 -16.414062 21.785156 -17.691406 20.421875 -18.734375 C 20.203125 -18.890625 20.039062 -19.019531 19.9375 -19.125 C 19.832031 -19.238281 19.78125 -19.363281 19.78125 -19.5 C 19.78125 -19.65625 19.859375 -19.894531 20.015625 -20.21875 C 20.546875 -21.46875 20.8125 -22.707031 20.8125 -23.9375 C 20.8125 -25.84375 20.226562 -27.539062 19.0625 -29.03125 C 17.90625 -30.53125 16.285156 -31.578125 14.203125 -32.171875 C 13.160156 -32.429688 12.128906 -32.5625 11.109375 -32.5625 C 10.410156 -32.5625 9.710938 -32.535156 9.015625 -32.484375 C 8.328125 -32.429688 7.59375 -32.394531 6.8125 -32.375 C 5.507812 -32.3125 4.375 -31.96875 3.40625 -31.34375 C 2.445312 -30.71875 1.847656 -29.734375 1.609375 -28.390625 C 1.492188 -27.722656 1.425781 -24.4375 1.40625 -18.53125 L 1.359375 -15.84375 L 1.40625 -4.53125 C 1.40625 -3.007812 1.804688 -1.894531 2.609375 -1.1875 C 3.410156 -0.476562 4.289062 -0.125 5.25 -0.125 Z M 11.828125 -8.65625 C 11.691406 -8.65625 11.625 -8.738281 11.625 -8.90625 L 11.59375 -12.515625 C 11.59375 -12.859375 11.601562 -13.125 11.625 -13.3125 C 11.65625 -13.5 11.75 -13.59375 11.90625 -13.59375 C 12.414062 -13.570312 12.832031 -13.332031 13.15625 -12.875 C 13.476562 -12.414062 13.640625 -11.867188 13.640625 -11.234375 C 13.640625 -10.722656 13.507812 -10.234375 13.25 -9.765625 C 13 -9.296875 12.582031 -8.941406 12 -8.703125 Z M 11.671875 -20.890625 L 11.671875 -24.546875 C 12.523438 -24.546875 12.953125 -23.929688 12.953125 -22.703125 C 12.953125 -22.273438 12.867188 -21.863281 12.703125 -21.46875 C 12.546875 -21.082031 12.203125 -20.890625 11.671875 -20.890625 Z M 11.671875 -20.890625 "/></g></g></g></svg>