<svg xmlns="http://www.w3.org/2000/svg" xmlns:xlink="http://www.w3.org/1999/xlink" width="500" zoomAndPan="magnify" viewBox="0 0 375 374.999991" height="500" preserveAspectRatio="xMidYMid meet" version="1.0"><defs><g/><clipPath id="93b9754c4a"><path d="M 16.457031 0.496094 L 32.839844 0.496094 L 32.839844 78.507812 L 16.457031 78.507812 Z M 16.457031 0.496094 " clip-rule="nonzero"/></clipPath><clipPath id="f8f9de3a56"><path d="M 32.839844 8.6875 L 32.839844 70.308594 C 32.839844 72.480469 31.976562 74.5625 30.441406 76.097656 C 28.90625 77.636719 26.820312 78.5 24.648438 78.5 C 22.476562 78.5 20.390625 77.636719 18.855469 76.097656 C 17.320312 74.5625 16.457031 72.480469 16.457031 70.308594 L 16.457031 8.6875 C 16.457031 6.515625 17.320312 4.433594 18.855469 2.894531 C 20.390625 1.359375 22.476562 0.496094 24.648438 0.496094 C 26.820312 0.496094 28.90625 1.359375 30.441406 2.894531 C 31.976562 4.433594 32.839844 6.515625 32.839844 8.6875 Z M 32.839844 8.6875 " clip-rule="nonzero"/></clipPath><clipPath id="1d5a48dfde"><path d="M 0.457031 0.496094 L 16.839844 0.496094 L 16.839844 78.507812 L 0.457031 78.507812 Z M 0.457031 0.496094 " clip-rule="nonzero"/></clipPath><clipPath id="0efdca7df4"><path d="M 16.839844 8.6875 L 16.839844 70.308594 C 16.839844 72.480469 15.976562 74.5625 14.441406 76.097656 C 12.90625 77.636719 10.820312 78.5 8.648438 78.5 C 6.476562 78.5 4.390625 77.636719 2.855469 76.097656 C 1.320312 74.5625 0.457031 72.480469 0.457031 70.308594 L 0.457031 8.6875 C 0.457031 6.515625 1.320312 4.433594 2.855469 2.894531 C 4.390625 1.359375 6.476562 0.496094 8.648438 0.496094 C 10.820312 0.496094 12.90625 1.359375 14.441406 2.894531 C 15.976562 4.433594 16.839844 6.515625 16.839844 8.6875 Z M 16.839844 8.6875 " clip-rule="nonzero"/></clipPath><clipPath id="e881759035"><rect x="0" width="17" y="0" height="79"/></clipPath><clipPath id="27547973ea"><path d="M 0.269531 32.710938 L 32.613281 32.710938 L 32.613281 49.542969 L 0.269531 49.542969 Z M 0.269531 32.710938 " clip-rule="nonzero"/></clipPath><clipPath id="ddc92b6862"><path d="M 24.199219 49.542969 L 8.738281 49.542969 C 6.507812 49.542969 4.367188 48.65625 2.789062 47.078125 C 1.210938 45.5 0.324219 43.359375 0.324219 41.125 C 0.324219 38.894531 1.210938 36.753906 2.789062 35.175781 C 4.367188 33.597656 6.507812 32.710938 8.738281 32.710938 L 24.199219 32.710938 C 26.429688 32.710938 28.570312 33.597656 30.148438 35.175781 C 31.726562 36.753906 32.613281 38.894531 32.613281 41.125 C 32.613281 43.359375 31.726562 45.5 30.148438 47.078125 C 28.570312 48.65625 26.429688 49.542969 24.199219 49.542969 Z M 24.199219 49.542969 " clip-rule="nonzero"/></clipPath><clipPath id="e3bf93cd36"><path d="M 0.269531 0.710938 L 32.613281 0.710938 L 32.613281 17.542969 L 0.269531 17.542969 Z M 0.269531 0.710938 " clip-rule="nonzero"/></clipPath><clipPath id="aa14112797"><path d="M 24.199219 17.542969 L 8.738281 17.542969 C 6.507812 17.542969 4.367188 16.65625 2.789062 15.078125 C 1.210938 13.5 0.324219 11.359375 0.324219 9.125 C 0.324219 6.894531 1.210938 4.753906 2.789062 3.175781 C 4.367188 1.597656 6.507812 0.710938 8.738281 0.710938 L 24.199219 0.710938 C 26.429688 0.710938 28.570312 1.597656 30.148438 3.175781 C 31.726562 4.753906 32.613281 6.894531 32.613281 9.125 C 32.613281 11.359375 31.726562 13.5 30.148438 15.078125 C 28.570312 16.65625 26.429688 17.542969 24.199219 17.542969 Z M 24.199219 17.542969 " clip-rule="nonzero"/></clipPath><clipPath id="95f2d84c99"><rect x="0" width="33" y="0" height="18"/></clipPath><clipPath id="12863c8d8d"><path d="M 45.675781 0.472656 L 62.054688 0.472656 L 62.054688 34.511719 L 45.675781 34.511719 Z M 45.675781 0.472656 " clip-rule="nonzero"/></clipPath><clipPath id="dbcb8571fa"><path d="M 45.675781 26.324219 L 45.675781 8.6875 C 45.675781 6.515625 46.535156 4.429688 48.074219 2.894531 C 49.609375 1.359375 51.691406 0.496094 53.863281 0.496094 C 56.035156 0.496094 58.117188 1.359375 59.65625 2.894531 C 61.191406 4.429688 62.054688 6.515625 62.054688 8.6875 L 62.054688 26.324219 C 62.054688 28.496094 61.191406 30.578125 59.65625 32.113281 C 58.117188 33.648438 56.035156 34.511719 53.863281 34.511719 C 51.691406 34.511719 49.609375 33.648438 48.074219 32.113281 C 46.535156 30.578125 45.675781 28.496094 45.675781 26.324219 Z M 45.675781 26.324219 " clip-rule="nonzero"/></clipPath><clipPath id="3583479216"><path d="M 0.675781 0.472656 L 17.054688 0.472656 L 17.054688 34.511719 L 0.675781 34.511719 Z M 0.675781 0.472656 " clip-rule="nonzero"/></clipPath><clipPath id="a704319cba"><path d="M 0.675781 26.324219 L 0.675781 8.6875 C 0.675781 6.515625 1.535156 4.429688 3.074219 2.894531 C 4.609375 1.359375 6.691406 0.496094 8.863281 0.496094 C 11.035156 0.496094 13.117188 1.359375 14.65625 2.894531 C 16.191406 4.429688 17.054688 6.515625 17.054688 8.6875 L 17.054688 26.324219 C 17.054688 28.496094 16.191406 30.578125 14.65625 32.113281 C 13.117188 33.648438 11.035156 34.511719 8.863281 34.511719 C 6.691406 34.511719 4.609375 33.648438 3.074219 32.113281 C 1.535156 30.578125 0.675781 28.496094 0.675781 26.324219 Z M 0.675781 26.324219 " clip-rule="nonzero"/></clipPath><clipPath id="28f763eafb"><rect x="0" width="18" y="0" height="35"/></clipPath><clipPath id="e82f1168a5"><path d="M 25.847656 28.125 L 58.15625 28.125 L 58.15625 40.597656 L 25.847656 40.597656 Z M 25.847656 28.125 " clip-rule="nonzero"/></clipPath><clipPath id="82779481e3"><path d="M 51.917969 40.597656 L 32.101562 40.597656 C 28.660156 40.597656 25.867188 37.804688 25.867188 34.359375 C 25.867188 30.914062 28.660156 28.125 32.101562 28.125 L 51.917969 28.125 C 55.363281 28.125 58.15625 30.914062 58.15625 34.359375 C 58.15625 37.804688 55.363281 40.597656 51.917969 40.597656 Z M 51.917969 40.597656 " clip-rule="nonzero"/></clipPath><clipPath id="7e17e15dac"><path d="M 0.847656 0.125 L 33.15625 0.125 L 33.15625 12.597656 L 0.847656 12.597656 Z M 0.847656 0.125 " clip-rule="nonzero"/></clipPath><clipPath id="3f1806e0b2"><path d="M 26.917969 12.597656 L 7.101562 12.597656 C 3.660156 12.597656 0.867188 9.804688 0.867188 6.359375 C 0.867188 2.914062 3.660156 0.125 7.101562 0.125 L 26.917969 0.125 C 30.363281 0.125 33.15625 2.914062 33.15625 6.359375 C 33.15625 9.804688 30.363281 12.597656 26.917969 12.597656 Z M 26.917969 12.597656 " clip-rule="nonzero"/></clipPath><clipPath id="390a343e63"><rect x="0" width="34" y="0" height="13"/></clipPath><clipPath id="fca44f2461"><path d="M 45.753906 47.597656 L 62.164062 47.597656 L 62.164062 78.496094 L 45.753906 78.496094 Z M 45.753906 47.597656 " clip-rule="nonzero"/></clipPath><clipPath id="0780b06eb9"><path d="M 45.753906 70.289062 L 45.753906 55.855469 C 45.753906 53.679688 46.617188 51.589844 48.15625 50.050781 C 49.695312 48.511719 51.78125 47.648438 53.960938 47.648438 C 56.136719 47.648438 58.222656 48.511719 59.761719 50.050781 C 61.300781 51.589844 62.164062 53.679688 62.164062 55.855469 L 62.164062 70.289062 C 62.164062 72.464844 61.300781 74.554688 59.761719 76.09375 C 58.222656 77.632812 56.136719 78.496094 53.960938 78.496094 C 51.78125 78.496094 49.695312 77.632812 48.15625 76.09375 C 46.617188 74.554688 45.753906 72.464844 45.753906 70.289062 Z M 45.753906 70.289062 " clip-rule="nonzero"/></clipPath><clipPath id="73b650f493"><path d="M 0.753906 0.601562 L 17.164062 0.601562 L 17.164062 31.496094 L 0.753906 31.496094 Z M 0.753906 0.601562 " clip-rule="nonzero"/></clipPath><clipPath id="71951b0e25"><path d="M 0.753906 23.289062 L 0.753906 8.855469 C 0.753906 6.679688 1.617188 4.589844 3.15625 3.050781 C 4.695312 1.511719 6.78125 0.648438 8.960938 0.648438 C 11.136719 0.648438 13.222656 1.511719 14.761719 3.050781 C 16.300781 4.589844 17.164062 6.679688 17.164062 8.855469 L 17.164062 23.289062 C 17.164062 25.464844 16.300781 27.554688 14.761719 29.09375 C 13.222656 30.632812 11.136719 31.496094 8.960938 31.496094 C 6.78125 31.496094 4.695312 30.632812 3.15625 29.09375 C 1.617188 27.554688 0.753906 25.464844 0.753906 23.289062 Z M 0.753906 23.289062 " clip-rule="nonzero"/></clipPath><clipPath id="49fdc7d071"><rect x="0" width="18" y="0" height="32"/></clipPath><clipPath id="205a86f0b7"><path d="M 10 29 L 22 29 L 22 38 L 10 38 Z M 10 29 " clip-rule="nonzero"/></clipPath><clipPath id="086eabbafd"><path d="M 18.847656 39.890625 L 10.042969 37.492188 L 12.441406 28.683594 L 21.246094 31.082031 Z M 18.847656 39.890625 " clip-rule="nonzero"/></clipPath><clipPath id="25a5e8410b"><path d="M 21.246094 31.082031 C 20.617188 33.402344 19.058594 35.414062 16.972656 36.609375 C 14.886719 37.800781 12.363281 38.121094 10.042969 37.492188 L 11.265625 33 C 12.402344 33.308594 13.640625 33.152344 14.660156 32.566406 C 15.683594 31.980469 16.445312 30.996094 16.753906 29.859375 Z M 21.246094 31.082031 " clip-rule="nonzero"/></clipPath><clipPath id="3234959038"><path d="M 0.0390625 0.839844 L 11.320312 0.839844 L 11.320312 9 L 0.0390625 9 Z M 0.0390625 0.839844 " clip-rule="nonzero"/></clipPath><clipPath id="4c390115ec"><path d="M 8.847656 10.890625 L 0.0429688 8.492188 L 2.441406 -0.316406 L 11.246094 2.082031 Z M 8.847656 10.890625 " clip-rule="nonzero"/></clipPath><clipPath id="6e486d6077"><path d="M 11.246094 2.082031 C 10.617188 4.402344 9.058594 6.414062 6.972656 7.609375 C 4.886719 8.800781 2.363281 9.121094 0.0429688 8.492188 L 1.265625 4 C 2.402344 4.308594 3.640625 4.152344 4.660156 3.566406 C 5.683594 2.980469 6.445312 1.996094 6.753906 0.859375 Z M 11.246094 2.082031 " clip-rule="nonzero"/></clipPath><clipPath id="bf9b44fd4c"><rect x="0" width="12" y="0" height="9"/></clipPath><clipPath id="0340a3e950"><path d="M 12 44 L 22 44 L 22 55 L 12 55 Z M 12 44 " clip-rule="nonzero"/></clipPath><clipPath id="1084836283"><path d="M 22.199219 45.53125 L 21.15625 54.597656 L 12.089844 53.550781 L 13.132812 44.488281 Z M 22.199219 45.53125 " clip-rule="nonzero"/></clipPath><clipPath id="190414174f"><path d="M 13.132812 44.488281 C 15.523438 44.761719 17.746094 46 19.238281 47.882812 C 20.734375 49.765625 21.429688 52.210938 21.15625 54.597656 L 16.527344 54.066406 C 16.664062 52.894531 16.324219 51.699219 15.589844 50.773438 C 14.859375 49.851562 13.769531 49.246094 12.601562 49.113281 Z M 13.132812 44.488281 " clip-rule="nonzero"/></clipPath><clipPath id="60d574522b"><path d="M 0.441406 0.480469 L 9.558594 0.480469 L 9.558594 10.800781 L 0.441406 10.800781 Z M 0.441406 0.480469 " clip-rule="nonzero"/></clipPath><clipPath id="08ca7f5797"><path d="M 10.199219 1.53125 L 9.15625 10.597656 L 0.0898438 9.550781 L 1.132812 0.488281 Z M 10.199219 1.53125 " clip-rule="nonzero"/></clipPath><clipPath id="c5aa9a16c0"><path d="M 1.132812 0.488281 C 3.523438 0.761719 5.746094 2 7.238281 3.882812 C 8.734375 5.765625 9.429688 8.210938 9.15625 10.597656 L 4.527344 10.066406 C 4.664062 8.894531 4.324219 7.699219 3.589844 6.773438 C 2.859375 5.851562 1.769531 5.246094 0.601562 5.113281 Z M 1.132812 0.488281 " clip-rule="nonzero"/></clipPath><clipPath id="23024b2e2e"><rect x="0" width="10" y="0" height="11"/></clipPath><clipPath id="65b7d30b5f"><path d="M 28.054688 35.636719 L 37.183594 35.636719 L 37.183594 44.765625 L 28.054688 44.765625 Z M 28.054688 35.636719 " clip-rule="nonzero"/></clipPath><clipPath id="473c483641"><path d="M 28.054688 44.765625 C 28.054688 42.359375 29.027344 40.011719 30.726562 38.3125 C 32.429688 36.613281 34.777344 35.636719 37.183594 35.636719 L 37.183594 40.292969 C 36.003906 40.292969 34.851562 40.769531 34.019531 41.601562 C 33.1875 42.4375 32.710938 43.585938 32.710938 44.765625 Z M 28.054688 44.765625 " clip-rule="nonzero"/></clipPath><clipPath id="9d7a25798b"><path d="M 0.0546875 0.636719 L 9.183594 0.636719 L 9.183594 9.765625 L 0.0546875 9.765625 Z M 0.0546875 0.636719 " clip-rule="nonzero"/></clipPath><clipPath id="86a506172a"><path d="M 0.0546875 9.765625 C 0.0546875 7.359375 1.027344 5.011719 2.726562 3.3125 C 4.429688 1.613281 6.777344 0.636719 9.183594 0.636719 L 9.183594 5.292969 C 8.003906 5.292969 6.851562 5.769531 6.019531 6.601562 C 5.1875 7.4375 4.710938 8.585938 4.710938 9.765625 Z M 0.0546875 9.765625 " clip-rule="nonzero"/></clipPath><clipPath id="24b3f67411"><rect x="0" width="10" y="0" height="10"/></clipPath><clipPath id="e09c022214"><path d="M 27 24 L 38 24 L 38 33 L 27 33 Z M 27 24 " clip-rule="nonzero"/></clipPath><clipPath id="a6d24d9902"><path d="M 28.621094 33.566406 L 27.964844 24.460938 L 37.066406 23.804688 L 37.722656 32.910156 Z M 28.621094 33.566406 " clip-rule="nonzero"/></clipPath><clipPath id="c6ab9ea817"><path d="M 37.722656 32.910156 C 35.324219 33.082031 32.910156 32.28125 31.09375 30.707031 C 29.277344 29.132812 28.136719 26.859375 27.964844 24.460938 L 32.609375 24.128906 C 32.691406 25.300781 33.25 26.414062 34.140625 27.1875 C 35.03125 27.957031 36.214844 28.351562 37.386719 28.265625 Z M 37.722656 32.910156 " clip-rule="nonzero"/></clipPath><clipPath id="07eb2c222f"><path d="M 0.800781 0.078125 L 10.878906 0.078125 L 10.878906 9 L 0.800781 9 Z M 0.800781 0.078125 " clip-rule="nonzero"/></clipPath><clipPath id="84f931edd2"><path d="M 1.621094 9.566406 L 0.964844 0.460938 L 10.066406 -0.195312 L 10.722656 8.910156 Z M 1.621094 9.566406 " clip-rule="nonzero"/></clipPath><clipPath id="f54d1d8c95"><path d="M 10.722656 8.910156 C 8.324219 9.082031 5.910156 8.28125 4.09375 6.707031 C 2.277344 5.132812 1.136719 2.859375 0.964844 0.460938 L 5.609375 0.128906 C 5.691406 1.300781 6.25 2.414062 7.140625 3.1875 C 8.03125 3.957031 9.214844 4.351562 10.386719 4.265625 Z M 10.722656 8.910156 " clip-rule="nonzero"/></clipPath><clipPath id="85825a0b02"><rect x="0" width="11" y="0" height="9"/></clipPath><clipPath id="2383850a4a"><path d="M 52.664062 30.769531 L 62.050781 30.769531 L 62.050781 40.597656 L 52.664062 40.597656 Z M 52.664062 30.769531 " clip-rule="nonzero"/></clipPath><clipPath id="024cc6e800"><path d="M 62.050781 30.796875 C 62.050781 33.378906 61.050781 35.902344 59.300781 37.726562 C 57.554688 39.554688 55.136719 40.597656 52.664062 40.597656 L 52.664062 35.597656 C 53.875 35.597656 55.058594 35.085938 55.914062 34.191406 C 56.769531 33.296875 57.261719 32.0625 57.261719 30.796875 Z M 62.050781 30.796875 " clip-rule="nonzero"/></clipPath><clipPath id="c3e3bf5af3"><path d="M 0.664062 0.769531 L 10.050781 0.769531 L 10.050781 10.597656 L 0.664062 10.597656 Z M 0.664062 0.769531 " clip-rule="nonzero"/></clipPath><clipPath id="a531b0ad3f"><path d="M 10.050781 0.796875 C 10.050781 3.378906 9.050781 5.902344 7.300781 7.726562 C 5.554688 9.554688 3.136719 10.597656 0.664062 10.597656 L 0.664062 5.597656 C 1.875 5.597656 3.058594 5.085938 3.914062 4.191406 C 4.769531 3.296875 5.261719 2.0625 5.261719 0.796875 Z M 10.050781 0.796875 " clip-rule="nonzero"/></clipPath><clipPath id="a8f84d2535"><rect x="0" width="11" y="0" height="11"/></clipPath><clipPath id="2dd84df0b5"><path d="M 46.203125 20.789062 L 62.054688 20.789062 L 62.054688 31.25 L 46.203125 31.25 Z M 46.203125 20.789062 " clip-rule="nonzero"/></clipPath><clipPath id="384e8c0286"><path d="M 0.203125 0.789062 L 16.054688 0.789062 L 16.054688 11.25 L 0.203125 11.25 Z M 0.203125 0.789062 " clip-rule="nonzero"/></clipPath><clipPath id="06e5c8a723"><rect x="0" width="17" y="0" height="12"/></clipPath><clipPath id="e03355b36a"><path d="M 45.675781 47.566406 L 62.078125 47.566406 L 62.078125 64.101562 L 45.675781 64.101562 Z M 45.675781 47.566406 " clip-rule="nonzero"/></clipPath><clipPath id="2bdc803d12"><path d="M 62.078125 55.066406 L 62.078125 56.558594 C 62.078125 58.546875 61.289062 60.457031 59.882812 61.863281 C 58.476562 63.269531 56.566406 64.058594 54.578125 64.058594 L 53.175781 64.058594 C 51.183594 64.058594 49.277344 63.269531 47.871094 61.863281 C 46.464844 60.457031 45.675781 58.546875 45.675781 56.558594 L 45.675781 55.066406 C 45.675781 53.078125 46.464844 51.171875 47.871094 49.765625 C 49.277344 48.359375 51.183594 47.566406 53.175781 47.566406 L 54.578125 47.566406 C 56.566406 47.566406 58.476562 48.359375 59.882812 49.765625 C 61.289062 51.171875 62.078125 53.078125 62.078125 55.066406 Z M 62.078125 55.066406 " clip-rule="nonzero"/></clipPath><clipPath id="7f5aa80cd6"><path d="M 0.675781 0.566406 L 17.078125 0.566406 L 17.078125 17.101562 L 0.675781 17.101562 Z M 0.675781 0.566406 " clip-rule="nonzero"/></clipPath><clipPath id="03240406b8"><path d="M 17.078125 8.066406 L 17.078125 9.558594 C 17.078125 11.546875 16.289062 13.457031 14.882812 14.863281 C 13.476562 16.269531 11.566406 17.058594 9.578125 17.058594 L 8.175781 17.058594 C 6.183594 17.058594 4.277344 16.269531 2.871094 14.863281 C 1.464844 13.457031 0.675781 11.546875 0.675781 9.558594 L 0.675781 8.066406 C 0.675781 6.078125 1.464844 4.171875 2.871094 2.765625 C 4.277344 1.359375 6.183594 0.566406 8.175781 0.566406 L 9.578125 0.566406 C 11.566406 0.566406 13.476562 1.359375 14.882812 2.765625 C 16.289062 4.171875 17.078125 6.078125 17.078125 8.066406 Z M 17.078125 8.066406 " clip-rule="nonzero"/></clipPath><clipPath id="97133c22b5"><rect x="0" width="18" y="0" height="18"/></clipPath><clipPath id="1e78518ab1"><rect x="0" width="253" y="0" height="63"/></clipPath><clipPath id="2aab79532f"><rect x="0" width="323" y="0" height="79"/></clipPath></defs><rect x="-37.5" width="450" fill="#ffffff" y="-37.499999" height="449.999989" fill-opacity="1"/><rect x="-37.5" width="450" fill="#e2a03b" y="-37.499999" height="449.999989" fill-opacity="1"/><g transform="matrix(1, 0, 0, 1, 25, 148)"><g clip-path="url(#2aab79532f)"><g clip-path="url(#93b9754c4a)"><g clip-path="url(#f8f9de3a56)"><g transform="matrix(1, 0, 0, 1, 16, 0)"><g clip-path="url(#e881759035)"><g clip-path="url(#1d5a48dfde)"><g clip-path="url(#0efdca7df4)"><path fill="#392110" d="M 16.839844 0.496094 L 16.839844 78.507812 L 0.457031 78.507812 L 0.457031 0.496094 Z M 16.839844 0.496094 " fill-opacity="1" fill-rule="nonzero"/></g></g></g></g></g></g><g clip-path="url(#27547973ea)"><g clip-path="url(#ddc92b6862)"><g transform="matrix(1, 0, 0, 1, 0, 32)"><g clip-path="url(#95f2d84c99)"><g clip-path="url(#e3bf93cd36)"><g clip-path="url(#aa14112797)"><path fill="#392110" d="M 32.613281 17.542969 L 0.335938 17.542969 L 0.335938 0.710938 L 32.613281 0.710938 Z M 32.613281 17.542969 " fill-opacity="1" fill-rule="nonzero"/></g></g></g></g></g></g><g clip-path="url(#12863c8d8d)"><g clip-path="url(#dbcb8571fa)"><g transform="matrix(1, 0, 0, 1, 45, 0)"><g clip-path="url(#28f763eafb)"><g clip-path="url(#3583479216)"><g clip-path="url(#a704319cba)"><path fill="#392110" d="M 0.675781 34.511719 L 0.675781 0.472656 L 17.054688 0.472656 L 17.054688 34.511719 Z M 0.675781 34.511719 " fill-opacity="1" fill-rule="nonzero"/></g></g></g></g></g></g><g clip-path="url(#e82f1168a5)"><g clip-path="url(#82779481e3)"><g transform="matrix(1, 0, 0, 1, 25, 28)"><g clip-path="url(#390a343e63)"><g clip-path="url(#7e17e15dac)"><g clip-path="url(#3f1806e0b2)"><path fill="#392110" d="M 33.15625 12.597656 L 0.847656 12.597656 L 0.847656 0.125 L 33.15625 0.125 Z M 33.15625 12.597656 " fill-opacity="1" fill-rule="nonzero"/></g></g></g></g></g></g><g clip-path="url(#fca44f2461)"><g clip-path="url(#0780b06eb9)"><g transform="matrix(1, 0, 0, 1, 45, 47)"><g clip-path="url(#49fdc7d071)"><g clip-path="url(#73b650f493)"><g clip-path="url(#71951b0e25)"><path fill="#392110" d="M 0.753906 31.496094 L 0.753906 0.660156 L 17.164062 0.660156 L 17.164062 31.496094 Z M 0.753906 31.496094 " fill-opacity="1" fill-rule="nonzero"/></g></g></g></g></g></g><g clip-path="url(#205a86f0b7)"><g clip-path="url(#086eabbafd)"><g clip-path="url(#25a5e8410b)"><g transform="matrix(1, 0, 0, 1, 10, 29)"><g clip-path="url(#bf9b44fd4c)"><g clip-path="url(#3234959038)"><g clip-path="url(#4c390115ec)"><g clip-path="url(#6e486d6077)"><path fill="#392110" d="M 8.847656 10.890625 L 0.0429688 8.492188 L 2.441406 -0.316406 L 11.246094 2.082031 Z M 8.847656 10.890625 " fill-opacity="1" fill-rule="nonzero"/></g></g></g></g></g></g></g></g><g clip-path="url(#0340a3e950)"><g clip-path="url(#1084836283)"><g clip-path="url(#190414174f)"><g transform="matrix(1, 0, 0, 1, 12, 44)"><g clip-path="url(#23024b2e2e)"><g clip-path="url(#60d574522b)"><g clip-path="url(#08ca7f5797)"><g clip-path="url(#c5aa9a16c0)"><path fill="#392110" d="M 10.199219 1.53125 L 9.15625 10.597656 L 0.0898438 9.550781 L 1.132812 0.488281 Z M 10.199219 1.53125 " fill-opacity="1" fill-rule="nonzero"/></g></g></g></g></g></g></g></g><g clip-path="url(#65b7d30b5f)"><g clip-path="url(#473c483641)"><g transform="matrix(1, 0, 0, 1, 28, 35)"><g clip-path="url(#24b3f67411)"><g clip-path="url(#9d7a25798b)"><g clip-path="url(#86a506172a)"><path fill="#392110" d="M 0.0546875 0.636719 L 9.183594 0.636719 L 9.183594 9.765625 L 0.0546875 9.765625 Z M 0.0546875 0.636719 " fill-opacity="1" fill-rule="nonzero"/></g></g></g></g></g></g><g clip-path="url(#e09c022214)"><g clip-path="url(#a6d24d9902)"><g clip-path="url(#c6ab9ea817)"><g transform="matrix(1, 0, 0, 1, 27, 24)"><g clip-path="url(#85825a0b02)"><g clip-path="url(#07eb2c222f)"><g clip-path="url(#84f931edd2)"><g clip-path="url(#f54d1d8c95)"><path fill="#392110" d="M 1.621094 9.566406 L 0.964844 0.460938 L 10.066406 -0.195312 L 10.722656 8.910156 Z M 1.621094 9.566406 " fill-opacity="1" fill-rule="nonzero"/></g></g></g></g></g></g></g></g><g clip-path="url(#2383850a4a)"><g clip-path="url(#024cc6e800)"><g transform="matrix(1, 0, 0, 1, 52, 30)"><g clip-path="url(#a8f84d2535)"><g clip-path="url(#c3e3bf5af3)"><g clip-path="url(#a531b0ad3f)"><path fill="#392110" d="M 10.050781 10.597656 L 0.664062 10.597656 L 0.664062 0.804688 L 10.050781 0.804688 Z M 10.050781 10.597656 " fill-opacity="1" fill-rule="nonzero"/></g></g></g></g></g></g><g clip-path="url(#2dd84df0b5)"><g transform="matrix(1, 0, 0, 1, 46, 20)"><g clip-path="url(#06e5c8a723)"><g clip-path="url(#384e8c0286)"><path fill="#392110" d="M 0.203125 0.789062 L 16.058594 0.789062 L 16.058594 11.25 L 0.203125 11.25 Z M 0.203125 0.789062 " fill-opacity="1" fill-rule="nonzero"/></g></g></g></g><g clip-path="url(#e03355b36a)"><g clip-path="url(#2bdc803d12)"><g transform="matrix(1, 0, 0, 1, 45, 47)"><g clip-path="url(#97133c22b5)"><g clip-path="url(#7f5aa80cd6)"><g clip-path="url(#03240406b8)"><path fill="#392110" d="M 0.675781 0.566406 L 17.078125 0.566406 L 17.078125 17.035156 L 0.675781 17.035156 Z M 0.675781 0.566406 " fill-opacity="1" fill-rule="nonzero"/></g></g></g></g></g></g><g transform="matrix(1, 0, 0, 1, 70, 8)"><g clip-path="url(#1e78518ab1)"><g fill="#392110" fill-opacity="1"><g transform="translate(0.868514, 44.999987)"><g><path d="M 6.09375 0.640625 C 7.375 0.640625 8.597656 0.296875 9.765625 -0.390625 C 10.929688 -1.085938 11.582031 -2.203125 11.71875 -3.734375 C 11.738281 -5.046875 11.75 -6.140625 11.75 -7.015625 C 11.75 -7.898438 11.769531 -8.5625 11.8125 -9 C 11.851562 -9.445312 11.976562 -9.671875 12.1875 -9.671875 L 13.640625 -9.703125 C 13.878906 -9.703125 14.03125 -9.679688 14.09375 -9.640625 C 14.164062 -9.609375 14.203125 -9.535156 14.203125 -9.421875 L 14.203125 -8.0625 C 14.203125 -5.738281 14.269531 -4.039062 14.40625 -2.96875 C 14.613281 -1.789062 15.1875 -0.898438 16.125 -0.296875 C 17.0625 0.304688 18.101562 0.609375 19.25 0.609375 C 20.050781 0.609375 20.84375 0.429688 21.625 0.078125 C 23.332031 -0.671875 24.1875 -2.019531 24.1875 -3.96875 C 24.1875 -8.4375 24.210938 -12.085938 24.265625 -14.921875 C 24.296875 -17.328125 24.3125 -20.921875 24.3125 -25.703125 C 24.3125 -27.421875 24.039062 -28.75 23.5 -29.6875 C 22.539062 -31.363281 21.054688 -32.203125 19.046875 -32.203125 C 18.242188 -32.203125 17.53125 -32.085938 16.90625 -31.859375 C 16.28125 -31.640625 15.847656 -31.394531 15.609375 -31.125 C 15.015625 -30.375 14.644531 -29.441406 14.5 -28.328125 C 14.351562 -27.222656 14.28125 -26.164062 14.28125 -25.15625 L 14.359375 -19.8125 C 14.359375 -18.207031 14.222656 -17.40625 13.953125 -17.40625 L 12.71875 -17.375 C 12.34375 -17.375 12.113281 -17.414062 12.03125 -17.5 C 11.945312 -17.59375 11.90625 -17.789062 11.90625 -18.09375 L 12 -24.90625 L 11.953125 -27.390625 C 11.953125 -28.566406 11.644531 -29.519531 11.03125 -30.25 C 10.414062 -30.988281 9.644531 -31.523438 8.71875 -31.859375 C 7.800781 -32.203125 6.882812 -32.375 5.96875 -32.375 C 4.6875 -32.375 3.644531 -31.816406 2.84375 -30.703125 C 2.039062 -29.597656 1.613281 -28.109375 1.5625 -26.234375 L 1.40625 -11.515625 C 1.425781 -9.878906 1.4375 -7.898438 1.4375 -5.578125 C 1.4375 -4.234375 1.503906 -3.1875 1.640625 -2.4375 C 1.773438 -1.695312 2.109375 -1.046875 2.640625 -0.484375 C 3.523438 0.265625 4.675781 0.640625 6.09375 0.640625 Z M 6.09375 0.640625 "/></g></g></g><g fill="#392110" fill-opacity="1"><g transform="translate(27.215215, 44.999987)"><g><path d="M 8.625 0.875 C 9.769531 0.875 11.117188 0.847656 12.671875 0.796875 C 13.796875 0.773438 15.039062 0.753906 16.40625 0.734375 C 17.769531 0.722656 18.953125 0.3125 19.953125 -0.5 C 20.953125 -1.3125 21.453125 -2.457031 21.453125 -3.9375 C 21.453125 -5.40625 21.070312 -6.632812 20.3125 -7.625 C 19.550781 -8.613281 18.582031 -9.1875 17.40625 -9.34375 C 14.96875 -9.34375 13.054688 -9.359375 11.671875 -9.390625 C 11.484375 -9.410156 11.367188 -9.5 11.328125 -9.65625 C 11.285156 -9.820312 11.265625 -10.039062 11.265625 -10.3125 C 11.265625 -10.570312 11.289062 -10.753906 11.34375 -10.859375 C 11.40625 -10.972656 11.554688 -11.039062 11.796875 -11.0625 C 12.035156 -11.09375 12.4375 -11.125 13 -11.15625 L 14.84375 -11.234375 C 15.1875 -11.234375 15.671875 -11.234375 16.296875 -11.234375 C 16.929688 -11.234375 17.566406 -11.328125 18.203125 -11.515625 C 19.648438 -11.941406 20.375 -13.453125 20.375 -16.046875 C 20.375 -17.171875 20.160156 -18 19.734375 -18.53125 C 19.015625 -19.382812 17.835938 -19.8125 16.203125 -19.8125 C 14.441406 -19.8125 13.28125 -19.832031 12.71875 -19.875 C 12.15625 -19.914062 11.816406 -20 11.703125 -20.125 C 11.597656 -20.257812 11.546875 -20.460938 11.546875 -20.734375 L 11.546875 -20.890625 L 11.515625 -21.53125 C 11.515625 -21.71875 11.632812 -21.84375 11.875 -21.90625 C 12.40625 -21.90625 13.191406 -21.941406 14.234375 -22.015625 C 15.597656 -22.128906 16.800781 -22.1875 17.84375 -22.1875 C 19.050781 -22.1875 19.945312 -22.492188 20.53125 -23.109375 C 21.445312 -24.066406 21.90625 -25.304688 21.90625 -26.828125 C 21.90625 -28.242188 21.597656 -29.351562 20.984375 -30.15625 C 19.804688 -31.601562 17.929688 -32.328125 15.359375 -32.328125 L 5.734375 -32.328125 C 3.171875 -32.171875 1.753906 -31.113281 1.484375 -29.15625 C 1.429688 -28.726562 1.40625 -27.378906 1.40625 -25.109375 C 1.40625 -23.878906 1.410156 -22.617188 1.421875 -21.328125 C 1.429688 -20.046875 1.441406 -18.960938 1.453125 -18.078125 C 1.472656 -17.203125 1.5 -16.765625 1.53125 -16.765625 L 1.484375 -8.578125 C 1.484375 -5.828125 1.628906 -3.773438 1.921875 -2.421875 C 2.210938 -1.078125 2.867188 -0.191406 3.890625 0.234375 C 4.910156 0.660156 6.488281 0.875 8.625 0.875 Z M 8.625 0.875 "/></g></g></g><g fill="#392110" fill-opacity="1"><g transform="translate(49.912681, 44.999987)"><g><path d="M 6.140625 0.359375 C 7.078125 0.359375 7.957031 0.179688 8.78125 -0.171875 C 9.613281 -0.535156 10.289062 -1.195312 10.8125 -2.15625 C 11.332031 -3.125 11.59375 -4.488281 11.59375 -6.25 C 11.695312 -9.03125 11.75 -12.082031 11.75 -15.40625 C 11.75 -21.363281 11.679688 -25.585938 11.546875 -28.078125 C 11.441406 -29.359375 10.914062 -30.421875 9.96875 -31.265625 C 9.019531 -32.109375 7.847656 -32.53125 6.453125 -32.53125 C 5.066406 -32.53125 3.929688 -32.085938 3.046875 -31.203125 C 2.160156 -30.316406 1.65625 -29.164062 1.53125 -27.75 C 1.46875 -27.351562 1.421875 -26.957031 1.390625 -26.5625 C 1.367188 -26.175781 1.351562 -25.6875 1.34375 -25.09375 C 1.332031 -24.507812 1.328125 -23.660156 1.328125 -22.546875 L 1.4375 -7.140625 L 1.40625 -6.0625 C 1.40625 -4.132812 1.738281 -2.582031 2.40625 -1.40625 C 3.070312 -0.226562 4.316406 0.359375 6.140625 0.359375 Z M 6.140625 0.359375 "/></g></g></g><g fill="#392110" fill-opacity="1"><g transform="translate(63.787806, 44.999987)"><g><path d="M 6.65625 -11.234375 L 8.75 -11.265625 L 8.75 -11.3125 L 11.3125 -11.3125 C 12.164062 -11.3125 12.804688 -11.335938 13.234375 -11.390625 C 13.660156 -11.441406 14.085938 -11.578125 14.515625 -11.796875 C 15.242188 -12.171875 15.789062 -12.664062 16.15625 -13.28125 C 16.53125 -13.894531 16.71875 -14.546875 16.71875 -15.234375 C 16.71875 -16.222656 16.34375 -17.125 15.59375 -17.9375 C 14.851562 -18.757812 13.757812 -19.171875 12.3125 -19.171875 L 10.796875 -19.171875 C 8.835938 -19.171875 7.363281 -19.15625 6.375 -19.125 C 5.382812 -19.101562 4.660156 -19.050781 4.203125 -18.96875 C 3.753906 -18.882812 3.367188 -18.765625 3.046875 -18.609375 C 2.273438 -18.210938 1.707031 -17.707031 1.34375 -17.09375 C 0.976562 -16.476562 0.796875 -15.832031 0.796875 -15.15625 C 0.796875 -14.4375 1.003906 -13.753906 1.421875 -13.109375 C 1.835938 -12.472656 2.445312 -11.992188 3.25 -11.671875 C 4.257812 -11.378906 5.394531 -11.234375 6.65625 -11.234375 Z M 6.65625 -11.234375 "/></g></g></g><g fill="#392110" fill-opacity="1"><g transform="translate(81.312177, 44.999987)"><g><path d="M 5.859375 0.71875 C 11.921875 0.71875 16.425781 -1.070312 19.375 -4.65625 C 21.914062 -7.726562 23.195312 -11.601562 23.21875 -16.28125 C 23.21875 -18.925781 22.679688 -21.476562 21.609375 -23.9375 C 20.546875 -26.40625 18.832031 -28.410156 16.46875 -29.953125 C 14.101562 -31.503906 10.976562 -32.3125 7.09375 -32.375 C 5.707031 -32.375 4.457031 -31.789062 3.34375 -30.625 C 2.238281 -29.457031 1.632812 -28.046875 1.53125 -26.390625 C 1.445312 -24.390625 1.40625 -20.953125 1.40625 -16.078125 L 1.4375 -10.828125 C 1.4375 -7.347656 1.453125 -5.394531 1.484375 -4.96875 C 1.566406 -4.164062 1.796875 -3.328125 2.171875 -2.453125 C 2.546875 -1.585938 3.050781 -0.84375 3.6875 -0.21875 C 4.332031 0.40625 5.054688 0.71875 5.859375 0.71875 Z M 11.109375 -12.359375 C 11.023438 -12.359375 10.984375 -12.367188 10.984375 -12.390625 C 11.015625 -12.710938 11.03125 -15.082031 11.03125 -19.5 C 11.050781 -19.570312 11.101562 -19.609375 11.1875 -19.609375 C 11.375 -19.609375 11.632812 -19.488281 11.96875 -19.25 C 12.300781 -19.007812 12.601562 -18.617188 12.875 -18.078125 C 13.144531 -17.546875 13.28125 -16.816406 13.28125 -15.890625 C 13.28125 -15.003906 13.128906 -14.300781 12.828125 -13.78125 C 12.535156 -13.257812 12.207031 -12.890625 11.84375 -12.671875 C 11.488281 -12.460938 11.242188 -12.359375 11.109375 -12.359375 Z M 11.109375 -12.359375 "/></g></g></g><g fill="#392110" fill-opacity="1"><g transform="translate(104.771453, 44.999987)"><g><path d="M 3.40625 0.359375 C 4.476562 0.359375 5.414062 0.03125 6.21875 -0.625 C 7.019531 -1.28125 7.675781 -2.15625 8.1875 -3.25 C 8.238281 -3.40625 8.316406 -3.535156 8.421875 -3.640625 C 8.523438 -3.753906 8.914062 -3.8125 9.59375 -3.8125 L 12.546875 -3.765625 L 15.890625 -3.765625 C 16.523438 -3.765625 16.960938 -3.457031 17.203125 -2.84375 C 17.710938 -1.832031 18.378906 -1.078125 19.203125 -0.578125 C 20.035156 -0.0859375 20.878906 0.15625 21.734375 0.15625 C 22.535156 0.15625 23.269531 -0.03125 23.9375 -0.40625 C 24.613281 -0.78125 25.140625 -1.328125 25.515625 -2.046875 C 25.773438 -2.609375 25.90625 -3.171875 25.90625 -3.734375 C 25.90625 -4.421875 25.65625 -5.410156 25.15625 -6.703125 C 24.457031 -8.515625 23.28125 -11.945312 21.625 -17 C 20.445312 -20.507812 19.414062 -23.457031 18.53125 -25.84375 C 17.644531 -28.238281 16.859375 -29.878906 16.171875 -30.765625 C 15.179688 -31.859375 14.03125 -32.40625 12.71875 -32.40625 C 11.59375 -32.40625 10.578125 -31.976562 9.671875 -31.125 C 9.503906 -30.96875 9.351562 -30.796875 9.21875 -30.609375 C 8.957031 -30.234375 8.460938 -29.148438 7.734375 -27.359375 C 7.390625 -26.554688 4.570312 -19.484375 -0.71875 -6.140625 C -0.988281 -5.441406 -1.125 -4.742188 -1.125 -4.046875 C -1.125 -3.191406 -0.921875 -2.335938 -0.515625 -1.484375 C -0.171875 -0.785156 0.242188 -0.335938 0.734375 -0.140625 C 1.234375 0.0546875 1.710938 0.179688 2.171875 0.234375 L 2.484375 0.28125 C 2.804688 0.332031 3.113281 0.359375 3.40625 0.359375 Z M 12.546875 -11.90625 C 12.097656 -11.90625 11.875 -11.960938 11.875 -12.078125 C 12.007812 -12.335938 12.195312 -12.679688 12.4375 -13.109375 C 12.675781 -13.535156 12.863281 -13.925781 13 -14.28125 C 13.070312 -14.28125 13.140625 -14.265625 13.203125 -14.234375 C 13.410156 -13.597656 13.625 -13.078125 13.84375 -12.671875 C 14 -12.378906 14.078125 -12.179688 14.078125 -12.078125 C 14.078125 -12.023438 14.050781 -12 14 -12 Z M 12.546875 -11.90625 "/></g></g></g><g fill="#392110" fill-opacity="1"><g transform="translate(126.265001, 44.999987)"><g><path d="M 12.796875 0.359375 C 14.265625 0.359375 15.472656 -0.113281 16.421875 -1.0625 C 17.367188 -2.007812 17.882812 -3.335938 17.96875 -5.046875 L 18.015625 -11.515625 L 17.96875 -17.40625 C 17.96875 -19.382812 18.007812 -20.65625 18.09375 -21.21875 C 18.113281 -21.5625 18.21875 -21.789062 18.40625 -21.90625 C 18.59375 -22.03125 18.738281 -22.09375 18.84375 -22.09375 C 19.625 -22.09375 20.472656 -22.132812 21.390625 -22.21875 C 22.316406 -22.300781 23.128906 -22.53125 23.828125 -22.90625 C 25.429688 -23.84375 26.234375 -25.484375 26.234375 -27.828125 C 26.234375 -29.191406 25.867188 -30.226562 25.140625 -30.9375 C 24.421875 -31.644531 23.617188 -32.117188 22.734375 -32.359375 C 21.859375 -32.609375 21.148438 -32.734375 20.609375 -32.734375 L 6.65625 -32.734375 C 5.238281 -32.734375 3.875 -32.4375 2.5625 -31.84375 C 0.582031 -30.957031 -0.40625 -29.4375 -0.40625 -27.28125 C -0.40625 -26.125 -0.03125 -25.117188 0.71875 -24.265625 C 1.46875 -23.410156 2.234375 -22.835938 3.015625 -22.546875 C 3.410156 -22.378906 3.847656 -22.257812 4.328125 -22.1875 C 4.804688 -22.125 5.554688 -22.09375 6.578125 -22.09375 C 6.847656 -22.09375 7.125 -22.050781 7.40625 -21.96875 C 7.6875 -21.894531 7.835938 -21.695312 7.859375 -21.375 C 8.046875 -17.738281 8.140625 -12.753906 8.140625 -6.421875 L 8.140625 -4.65625 C 8.140625 -4.625 8.191406 -4.347656 8.296875 -3.828125 C 8.410156 -3.304688 8.625 -2.722656 8.9375 -2.078125 C 9.257812 -1.441406 9.726562 -0.875 10.34375 -0.375 C 10.957031 0.113281 11.773438 0.359375 12.796875 0.359375 Z M 12.796875 0.359375 "/></g></g></g><g fill="#392110" fill-opacity="1"><g transform="translate(148.801254, 44.999987)"><g><path d="M 3.40625 0.359375 C 4.476562 0.359375 5.414062 0.03125 6.21875 -0.625 C 7.019531 -1.28125 7.675781 -2.15625 8.1875 -3.25 C 8.238281 -3.40625 8.316406 -3.535156 8.421875 -3.640625 C 8.523438 -3.753906 8.914062 -3.8125 9.59375 -3.8125 L 12.546875 -3.765625 L 15.890625 -3.765625 C 16.523438 -3.765625 16.960938 -3.457031 17.203125 -2.84375 C 17.710938 -1.832031 18.378906 -1.078125 19.203125 -0.578125 C 20.035156 -0.0859375 20.878906 0.15625 21.734375 0.15625 C 22.535156 0.15625 23.269531 -0.03125 23.9375 -0.40625 C 24.613281 -0.78125 25.140625 -1.328125 25.515625 -2.046875 C 25.773438 -2.609375 25.90625 -3.171875 25.90625 -3.734375 C 25.90625 -4.421875 25.65625 -5.410156 25.15625 -6.703125 C 24.457031 -8.515625 23.28125 -11.945312 21.625 -17 C 20.445312 -20.507812 19.414062 -23.457031 18.53125 -25.84375 C 17.644531 -28.238281 16.859375 -29.878906 16.171875 -30.765625 C 15.179688 -31.859375 14.03125 -32.40625 12.71875 -32.40625 C 11.59375 -32.40625 10.578125 -31.976562 9.671875 -31.125 C 9.503906 -30.96875 9.351562 -30.796875 9.21875 -30.609375 C 8.957031 -30.234375 8.460938 -29.148438 7.734375 -27.359375 C 7.390625 -26.554688 4.570312 -19.484375 -0.71875 -6.140625 C -0.988281 -5.441406 -1.125 -4.742188 -1.125 -4.046875 C -1.125 -3.191406 -0.921875 -2.335938 -0.515625 -1.484375 C -0.171875 -0.785156 0.242188 -0.335938 0.734375 -0.140625 C 1.234375 0.0546875 1.710938 0.179688 2.171875 0.234375 L 2.484375 0.28125 C 2.804688 0.332031 3.113281 0.359375 3.40625 0.359375 Z M 12.546875 -11.90625 C 12.097656 -11.90625 11.875 -11.960938 11.875 -12.078125 C 12.007812 -12.335938 12.195312 -12.679688 12.4375 -13.109375 C 12.675781 -13.535156 12.863281 -13.925781 13 -14.28125 C 13.070312 -14.28125 13.140625 -14.265625 13.203125 -14.234375 C 13.410156 -13.597656 13.625 -13.078125 13.84375 -12.671875 C 14 -12.378906 14.078125 -12.179688 14.078125 -12.078125 C 14.078125 -12.023438 14.050781 -12 14 -12 Z M 12.546875 -11.90625 "/></g></g></g><g fill="#392110" fill-opacity="1"><g transform="translate(174.426131, 44.999987)"><g><path d="M 6.09375 0.640625 C 7.375 0.640625 8.597656 0.296875 9.765625 -0.390625 C 10.929688 -1.085938 11.582031 -2.203125 11.71875 -3.734375 C 11.738281 -5.046875 11.75 -6.140625 11.75 -7.015625 C 11.75 -7.898438 11.769531 -8.5625 11.8125 -9 C 11.851562 -9.445312 11.976562 -9.671875 12.1875 -9.671875 L 13.640625 -9.703125 C 13.878906 -9.703125 14.03125 -9.679688 14.09375 -9.640625 C 14.164062 -9.609375 14.203125 -9.535156 14.203125 -9.421875 L 14.203125 -8.0625 C 14.203125 -5.738281 14.269531 -4.039062 14.40625 -2.96875 C 14.613281 -1.789062 15.1875 -0.898438 16.125 -0.296875 C 17.0625 0.304688 18.101562 0.609375 19.25 0.609375 C 20.050781 0.609375 20.84375 0.429688 21.625 0.078125 C 23.332031 -0.671875 24.1875 -2.019531 24.1875 -3.96875 C 24.1875 -8.4375 24.210938 -12.085938 24.265625 -14.921875 C 24.296875 -17.328125 24.3125 -20.921875 24.3125 -25.703125 C 24.3125 -27.421875 24.039062 -28.75 23.5 -29.6875 C 22.539062 -31.363281 21.054688 -32.203125 19.046875 -32.203125 C 18.242188 -32.203125 17.53125 -32.085938 16.90625 -31.859375 C 16.28125 -31.640625 15.847656 -31.394531 15.609375 -31.125 C 15.015625 -30.375 14.644531 -29.441406 14.5 -28.328125 C 14.351562 -27.222656 14.28125 -26.164062 14.28125 -25.15625 L 14.359375 -19.8125 C 14.359375 -18.207031 14.222656 -17.40625 13.953125 -17.40625 L 12.71875 -17.375 C 12.34375 -17.375 12.113281 -17.414062 12.03125 -17.5 C 11.945312 -17.59375 11.90625 -17.789062 11.90625 -18.09375 L 12 -24.90625 L 11.953125 -27.390625 C 11.953125 -28.566406 11.644531 -29.519531 11.03125 -30.25 C 10.414062 -30.988281 9.644531 -31.523438 8.71875 -31.859375 C 7.800781 -32.203125 6.882812 -32.375 5.96875 -32.375 C 4.6875 -32.375 3.644531 -31.816406 2.84375 -30.703125 C 2.039062 -29.597656 1.613281 -28.109375 1.5625 -26.234375 L 1.40625 -11.515625 C 1.425781 -9.878906 1.4375 -7.898438 1.4375 -5.578125 C 1.4375 -4.234375 1.503906 -3.1875 1.640625 -2.4375 C 1.773438 -1.695312 2.109375 -1.046875 2.640625 -0.484375 C 3.523438 0.265625 4.675781 0.640625 6.09375 0.640625 Z M 6.09375 0.640625 "/></g></g></g><g fill="#392110" fill-opacity="1"><g transform="translate(200.772843, 44.999987)"><g><path d="M 13 0.765625 C 15.457031 0.765625 17.5625 0.101562 19.3125 -1.21875 C 21.0625 -2.539062 22.410156 -4.175781 23.359375 -6.125 C 24.304688 -8.082031 24.78125 -10.023438 24.78125 -11.953125 C 24.96875 -14.765625 25.0625 -17.25 25.0625 -19.40625 C 25.0625 -21.039062 25.035156 -22.488281 24.984375 -23.75 L 24.953125 -26.390625 C 24.953125 -27.671875 24.648438 -28.738281 24.046875 -29.59375 C 23.441406 -30.457031 22.734375 -31.09375 21.921875 -31.5 C 21.109375 -31.914062 20.363281 -32.125 19.6875 -32.125 C 18.4375 -32.125 17.320312 -31.5625 16.34375 -30.4375 C 15.363281 -29.320312 14.835938 -28.023438 14.765625 -26.546875 C 14.679688 -23.691406 14.640625 -20.992188 14.640625 -18.453125 C 14.640625 -15.773438 14.582031 -13.972656 14.46875 -13.046875 C 14.363281 -12.128906 14.003906 -11.671875 13.390625 -11.671875 C 12.804688 -11.671875 12.441406 -12.09375 12.296875 -12.9375 C 12.148438 -13.78125 12.078125 -14.816406 12.078125 -16.046875 L 12.078125 -18.734375 L 12.03125 -20.734375 L 12.078125 -23.390625 C 12.078125 -25.066406 11.914062 -26.519531 11.59375 -27.75 C 11.457031 -28.070312 11.253906 -28.503906 10.984375 -29.046875 C 9.941406 -31.046875 8.550781 -32.046875 6.8125 -32.046875 C 4.4375 -32.046875 2.820312 -31.070312 1.96875 -29.125 C 1.269531 -27.539062 0.921875 -24.488281 0.921875 -19.96875 C 0.921875 -17.507812 1.015625 -14.957031 1.203125 -12.3125 C 1.285156 -10.976562 1.5625 -9.554688 2.03125 -8.046875 C 2.5 -6.535156 3.191406 -5.117188 4.109375 -3.796875 C 5.035156 -2.472656 6.222656 -1.378906 7.671875 -0.515625 C 9.128906 0.335938 10.90625 0.765625 13 0.765625 Z M 13 0.765625 "/></g></g></g><g fill="#392110" fill-opacity="1"><g transform="translate(227.480445, 44.999987)"><g><path d="M 12.875 -0.078125 C 14.53125 -0.078125 15.945312 -0.210938 17.125 -0.484375 C 19.582031 -1.148438 21.425781 -2.40625 22.65625 -4.25 C 23.882812 -6.09375 24.5 -8.085938 24.5 -10.234375 C 24.5 -11.835938 24.160156 -13.394531 23.484375 -14.90625 C 22.804688 -16.414062 21.785156 -17.691406 20.421875 -18.734375 C 20.203125 -18.890625 20.039062 -19.019531 19.9375 -19.125 C 19.832031 -19.238281 19.78125 -19.363281 19.78125 -19.5 C 19.78125 -19.65625 19.859375 -19.894531 20.015625 -20.21875 C 20.546875 -21.46875 20.8125 -22.707031 20.8125 -23.9375 C 20.8125 -25.84375 20.226562 -27.539062 19.0625 -29.03125 C 17.90625 -30.53125 16.285156 -31.578125 14.203125 -32.171875 C 13.160156 -32.429688 12.128906 -32.5625 11.109375 -32.5625 C 10.410156 -32.5625 9.710938 -32.535156 9.015625 -32.484375 C 8.328125 -32.429688 7.59375 -32.394531 6.8125 -32.375 C 5.507812 -32.3125 4.375 -31.96875 3.40625 -31.34375 C 2.445312 -30.71875 1.847656 -29.734375 1.609375 -28.390625 C 1.492188 -27.722656 1.425781 -24.4375 1.40625 -18.53125 L 1.359375 -15.84375 L 1.40625 -4.53125 C 1.40625 -3.007812 1.804688 -1.894531 2.609375 -1.1875 C 3.410156 -0.476562 4.289062 -0.125 5.25 -0.125 Z M 11.828125 -8.65625 C 11.691406 -8.65625 11.625 -8.738281 11.625 -8.90625 L 11.59375 -12.515625 C 11.59375 -12.859375 11.601562 -13.125 11.625 -13.3125 C 11.65625 -13.5 11.75 -13.59375 11.90625 -13.59375 C 12.414062 -13.570312 12.832031 -13.332031 13.15625 -12.875 C 13.476562 -12.414062 13.640625 -11.867188 13.640625 -11.234375 C 13.640625 -10.722656 13.507812 -10.234375 13.25 -9.765625 C 13 -9.296875 12.582031 -8.941406 12 -8.703125 Z M 11.671875 -20.890625 L 11.671875 -24.546875 C 12.523438 -24.546875 12.953125 -23.929688 12.953125 -22.703125 C 12.953125 -22.273438 12.867188 -21.863281 12.703125 -21.46875 C 12.546875 -21.082031 12.203125 -20.890625 11.671875 -20.890625 Z M 11.671875 -20.890625 "/></g></g></g></g></g></g></g></svg>