<svg xmlns="http://www.w3.org/2000/svg" xmlns:xlink="http://www.w3.org/1999/xlink" width="400" zoomAndPan="magnify" viewBox="0 0 300 74.999997" height="100" preserveAspectRatio="xMidYMid meet" version="1.0"><defs><g/><clipPath id="5415828dcc"><path d="M 11.75 0.136719 L 23.242188 0.136719 L 23.242188 54.867188 L 11.75 54.867188 Z M 11.75 0.136719 " clip-rule="nonzero"/></clipPath><clipPath id="531f9eb384"><path d="M 23.242188 5.882812 L 23.242188 49.113281 C 23.242188 50.636719 22.636719 52.101562 21.558594 53.175781 C 20.480469 54.253906 19.019531 54.859375 17.496094 54.859375 C 15.972656 54.859375 14.507812 54.253906 13.433594 53.175781 C 12.355469 52.101562 11.75 50.636719 11.75 49.113281 L 11.75 5.882812 C 11.75 4.359375 12.355469 2.898438 13.433594 1.820312 C 14.507812 0.742188 15.972656 0.136719 17.496094 0.136719 C 19.019531 0.136719 20.480469 0.742188 21.558594 1.820312 C 22.636719 2.898438 23.242188 4.359375 23.242188 5.882812 Z M 23.242188 5.882812 " clip-rule="nonzero"/></clipPath><clipPath id="af303a1b57"><path d="M 0.75 0.136719 L 12.242188 0.136719 L 12.242188 54.867188 L 0.75 54.867188 Z M 0.75 0.136719 " clip-rule="nonzero"/></clipPath><clipPath id="3fe980e4cd"><path d="M 12.242188 5.882812 L 12.242188 49.113281 C 12.242188 50.636719 11.636719 52.101562 10.558594 53.175781 C 9.480469 54.253906 8.019531 54.859375 6.496094 54.859375 C 4.972656 54.859375 3.507812 54.253906 2.433594 53.175781 C 1.355469 52.101562 0.75 50.636719 0.75 49.113281 L 0.75 5.882812 C 0.75 4.359375 1.355469 2.898438 2.433594 1.820312 C 3.507812 0.742188 4.972656 0.136719 6.496094 0.136719 C 8.019531 0.136719 9.480469 0.742188 10.558594 1.820312 C 11.636719 2.898438 12.242188 4.359375 12.242188 5.882812 Z M 12.242188 5.882812 " clip-rule="nonzero"/></clipPath><clipPath id="3e6e7e8fa4"><rect x="0" width="13" y="0" height="55"/></clipPath><clipPath id="69b4c88bb1"><path d="M 0.390625 22.738281 L 23.085938 22.738281 L 23.085938 34.542969 L 0.390625 34.542969 Z M 0.390625 22.738281 " clip-rule="nonzero"/></clipPath><clipPath id="bfb071eca9"><path d="M 17.179688 34.542969 L 6.335938 34.542969 C 4.769531 34.542969 3.265625 33.921875 2.160156 32.816406 C 1.050781 31.707031 0.429688 30.207031 0.429688 28.640625 C 0.429688 27.074219 1.050781 25.574219 2.160156 24.464844 C 3.265625 23.359375 4.769531 22.738281 6.335938 22.738281 L 17.179688 22.738281 C 18.746094 22.738281 20.246094 23.359375 21.355469 24.464844 C 22.460938 25.574219 23.085938 27.074219 23.085938 28.640625 C 23.085938 30.207031 22.460938 31.707031 21.355469 32.816406 C 20.246094 33.921875 18.746094 34.542969 17.179688 34.542969 Z M 17.179688 34.542969 " clip-rule="nonzero"/></clipPath><clipPath id="9fa17d1676"><path d="M 0.390625 0.738281 L 23.085938 0.738281 L 23.085938 12.542969 L 0.390625 12.542969 Z M 0.390625 0.738281 " clip-rule="nonzero"/></clipPath><clipPath id="c9e05a2466"><path d="M 17.179688 12.542969 L 6.335938 12.542969 C 4.769531 12.542969 3.265625 11.921875 2.160156 10.816406 C 1.050781 9.707031 0.429688 8.207031 0.429688 6.640625 C 0.429688 5.074219 1.050781 3.574219 2.160156 2.464844 C 3.265625 1.359375 4.769531 0.738281 6.335938 0.738281 L 17.179688 0.738281 C 18.746094 0.738281 20.246094 1.359375 21.355469 2.464844 C 22.460938 3.574219 23.085938 5.074219 23.085938 6.640625 C 23.085938 8.207031 22.460938 9.707031 21.355469 10.816406 C 20.246094 11.921875 18.746094 12.542969 17.179688 12.542969 Z M 17.179688 12.542969 " clip-rule="nonzero"/></clipPath><clipPath id="6edeb5c62b"><rect x="0" width="24" y="0" height="13"/></clipPath><clipPath id="cfadb01a3d"><path d="M 32.246094 0.121094 L 43.738281 0.121094 L 43.738281 24 L 32.246094 24 Z M 32.246094 0.121094 " clip-rule="nonzero"/></clipPath><clipPath id="b9b9553b64"><path d="M 32.246094 18.253906 L 32.246094 5.882812 C 32.246094 4.359375 32.851562 2.894531 33.929688 1.820312 C 35.007812 0.742188 36.46875 0.136719 37.992188 0.136719 C 39.515625 0.136719 40.976562 0.742188 42.054688 1.820312 C 43.132812 2.894531 43.738281 4.359375 43.738281 5.882812 L 43.738281 18.253906 C 43.738281 19.777344 43.132812 21.242188 42.054688 22.316406 C 40.976562 23.394531 39.515625 24 37.992188 24 C 36.46875 24 35.007812 23.394531 33.929688 22.316406 C 32.851562 21.242188 32.246094 19.777344 32.246094 18.253906 Z M 32.246094 18.253906 " clip-rule="nonzero"/></clipPath><clipPath id="b0457d01b9"><path d="M 0.246094 0.121094 L 11.738281 0.121094 L 11.738281 24 L 0.246094 24 Z M 0.246094 0.121094 " clip-rule="nonzero"/></clipPath><clipPath id="3176b0f889"><path d="M 0.246094 18.253906 L 0.246094 5.882812 C 0.246094 4.359375 0.851562 2.894531 1.929688 1.820312 C 3.007812 0.742188 4.46875 0.136719 5.992188 0.136719 C 7.515625 0.136719 8.976562 0.742188 10.054688 1.820312 C 11.132812 2.894531 11.738281 4.359375 11.738281 5.882812 L 11.738281 18.253906 C 11.738281 19.777344 11.132812 21.242188 10.054688 22.316406 C 8.976562 23.394531 7.515625 24 5.992188 24 C 4.46875 24 3.007812 23.394531 1.929688 22.316406 C 0.851562 21.242188 0.246094 19.777344 0.246094 18.253906 Z M 0.246094 18.253906 " clip-rule="nonzero"/></clipPath><clipPath id="0bd5680956"><rect x="0" width="12" y="0" height="24"/></clipPath><clipPath id="64a3923617"><path d="M 18.335938 19.519531 L 41.003906 19.519531 L 41.003906 28.269531 L 18.335938 28.269531 Z M 18.335938 19.519531 " clip-rule="nonzero"/></clipPath><clipPath id="159da1d46f"><path d="M 36.628906 28.269531 L 22.726562 28.269531 C 20.308594 28.269531 18.351562 26.3125 18.351562 23.894531 C 18.351562 21.476562 20.308594 19.519531 22.726562 19.519531 L 36.628906 19.519531 C 39.042969 19.519531 41.003906 21.476562 41.003906 23.894531 C 41.003906 26.3125 39.042969 28.269531 36.628906 28.269531 Z M 36.628906 28.269531 " clip-rule="nonzero"/></clipPath><clipPath id="429cdec0b5"><path d="M 0.335938 0.519531 L 23.003906 0.519531 L 23.003906 9.269531 L 0.335938 9.269531 Z M 0.335938 0.519531 " clip-rule="nonzero"/></clipPath><clipPath id="952361a06c"><path d="M 18.628906 9.269531 L 4.726562 9.269531 C 2.308594 9.269531 0.351562 7.3125 0.351562 4.894531 C 0.351562 2.476562 2.308594 0.519531 4.726562 0.519531 L 18.628906 0.519531 C 21.042969 0.519531 23.003906 2.476562 23.003906 4.894531 C 23.003906 7.3125 21.042969 9.269531 18.628906 9.269531 Z M 18.628906 9.269531 " clip-rule="nonzero"/></clipPath><clipPath id="68a168b688"><rect x="0" width="24" y="0" height="10"/></clipPath><clipPath id="c276fe9e91"><path d="M 32.300781 33.179688 L 43.816406 33.179688 L 43.816406 54.859375 L 32.300781 54.859375 Z M 32.300781 33.179688 " clip-rule="nonzero"/></clipPath><clipPath id="6f57fa2270"><path d="M 32.300781 49.101562 L 32.300781 38.972656 C 32.300781 37.445312 32.910156 35.984375 33.988281 34.902344 C 35.066406 33.824219 36.53125 33.21875 38.058594 33.21875 C 39.585938 33.21875 41.050781 33.824219 42.128906 34.902344 C 43.210938 35.984375 43.816406 37.445312 43.816406 38.972656 L 43.816406 49.101562 C 43.816406 50.628906 43.210938 52.09375 42.128906 53.171875 C 41.050781 54.253906 39.585938 54.859375 38.058594 54.859375 C 36.53125 54.859375 35.066406 54.253906 33.988281 53.171875 C 32.910156 52.09375 32.300781 50.628906 32.300781 49.101562 Z M 32.300781 49.101562 " clip-rule="nonzero"/></clipPath><clipPath id="9c8b204882"><path d="M 0.300781 0.199219 L 11.816406 0.199219 L 11.816406 21.859375 L 0.300781 21.859375 Z M 0.300781 0.199219 " clip-rule="nonzero"/></clipPath><clipPath id="6ee3f3e04b"><path d="M 0.300781 16.101562 L 0.300781 5.972656 C 0.300781 4.445312 0.910156 2.984375 1.988281 1.902344 C 3.066406 0.824219 4.53125 0.21875 6.058594 0.21875 C 7.585938 0.21875 9.050781 0.824219 10.128906 1.902344 C 11.210938 2.984375 11.816406 4.445312 11.816406 5.972656 L 11.816406 16.101562 C 11.816406 17.628906 11.210938 19.09375 10.128906 20.171875 C 9.050781 21.253906 7.585938 21.859375 6.058594 21.859375 C 4.53125 21.859375 3.066406 21.253906 1.988281 20.171875 C 0.910156 19.09375 0.300781 17.628906 0.300781 16.101562 Z M 0.300781 16.101562 " clip-rule="nonzero"/></clipPath><clipPath id="0664942d4d"><rect x="0" width="12" y="0" height="22"/></clipPath><clipPath id="97174f9458"><path d="M 7 20 L 16 20 L 16 27 L 7 27 Z M 7 20 " clip-rule="nonzero"/></clipPath><clipPath id="5d9c2cfee8"><path d="M 13.425781 27.773438 L 7.25 26.089844 L 8.929688 19.914062 L 15.109375 21.59375 Z M 13.425781 27.773438 " clip-rule="nonzero"/></clipPath><clipPath id="5ca8bda529"><path d="M 15.109375 21.59375 C 14.664062 23.222656 13.574219 24.632812 12.109375 25.472656 C 10.644531 26.308594 8.875 26.535156 7.25 26.089844 L 8.105469 22.9375 C 8.902344 23.15625 9.769531 23.046875 10.488281 22.636719 C 11.207031 22.226562 11.738281 21.535156 11.957031 20.738281 Z M 15.109375 21.59375 " clip-rule="nonzero"/></clipPath><clipPath id="e62f1406d3"><path d="M 0.0390625 0.71875 L 8.199219 0.71875 L 8.199219 6.71875 L 0.0390625 6.71875 Z M 0.0390625 0.71875 " clip-rule="nonzero"/></clipPath><clipPath id="2f01800450"><path d="M 6.425781 7.773438 L 0.25 6.089844 L 1.929688 -0.0859375 L 8.109375 1.59375 Z M 6.425781 7.773438 " clip-rule="nonzero"/></clipPath><clipPath id="b678652fc5"><path d="M 8.109375 1.59375 C 7.664062 3.222656 6.574219 4.632812 5.109375 5.472656 C 3.644531 6.308594 1.875 6.535156 0.25 6.089844 L 1.105469 2.9375 C 1.902344 3.15625 2.769531 3.046875 3.488281 2.636719 C 4.207031 2.226562 4.738281 1.535156 4.957031 0.738281 Z M 8.109375 1.59375 " clip-rule="nonzero"/></clipPath><clipPath id="cd3828ca42"><rect x="0" width="9" y="0" height="7"/></clipPath><clipPath id="dd4a59b91a"><path d="M 9 31 L 16 31 L 16 39 L 9 39 Z M 9 31 " clip-rule="nonzero"/></clipPath><clipPath id="8a0707453e"><path d="M 15.777344 31.734375 L 15.042969 38.09375 L 8.683594 37.359375 L 9.417969 31 Z M 15.777344 31.734375 " clip-rule="nonzero"/></clipPath><clipPath id="a51ec15ccf"><path d="M 9.417969 31 C 11.09375 31.191406 12.652344 32.058594 13.699219 33.378906 C 14.746094 34.703125 15.238281 36.417969 15.042969 38.09375 L 11.800781 37.71875 C 11.894531 36.898438 11.652344 36.058594 11.140625 35.410156 C 10.628906 34.761719 9.863281 34.339844 9.042969 34.242188 Z M 9.417969 31 " clip-rule="nonzero"/></clipPath><clipPath id="7d83254d8c"><path d="M 0 0 L 6.441406 0 L 6.441406 7.238281 L 0 7.238281 Z M 0 0 " clip-rule="nonzero"/></clipPath><clipPath id="002569ca08"><path d="M 6.777344 0.734375 L 6.042969 7.09375 L -0.316406 6.359375 L 0.417969 0 Z M 6.777344 0.734375 " clip-rule="nonzero"/></clipPath><clipPath id="56b342f1a9"><path d="M 0.417969 0 C 2.09375 0.191406 3.652344 1.058594 4.699219 2.378906 C 5.746094 3.703125 6.238281 5.417969 6.042969 7.09375 L 2.800781 6.71875 C 2.894531 5.898438 2.652344 5.058594 2.140625 4.410156 C 1.628906 3.761719 0.863281 3.339844 0.0429688 3.242188 Z M 0.417969 0 " clip-rule="nonzero"/></clipPath><clipPath id="ed21835cd0"><rect x="0" width="7" y="0" height="8"/></clipPath><clipPath id="8e5d3ca437"><path d="M 19.886719 24.789062 L 26.289062 24.789062 L 26.289062 31.191406 L 19.886719 31.191406 Z M 19.886719 24.789062 " clip-rule="nonzero"/></clipPath><clipPath id="9cb2ca33ae"><path d="M 19.886719 31.191406 C 19.886719 29.507812 20.570312 27.859375 21.761719 26.664062 C 22.953125 25.472656 24.601562 24.789062 26.289062 24.789062 L 26.289062 28.058594 C 25.460938 28.058594 24.65625 28.390625 24.070312 28.976562 C 23.488281 29.558594 23.152344 30.367188 23.152344 31.191406 Z M 19.886719 31.191406 " clip-rule="nonzero"/></clipPath><clipPath id="64ed0a00df"><path d="M 0.886719 0.789062 L 7.289062 0.789062 L 7.289062 7.191406 L 0.886719 7.191406 Z M 0.886719 0.789062 " clip-rule="nonzero"/></clipPath><clipPath id="fafb9f724e"><path d="M 0.886719 7.191406 C 0.886719 5.507812 1.570312 3.859375 2.761719 2.664062 C 3.953125 1.472656 5.601562 0.789062 7.289062 0.789062 L 7.289062 4.058594 C 6.460938 4.058594 5.65625 4.390625 5.070312 4.976562 C 4.488281 5.558594 4.152344 6.367188 4.152344 7.191406 Z M 0.886719 7.191406 " clip-rule="nonzero"/></clipPath><clipPath id="70f889d7dc"><rect x="0" width="8" y="0" height="8"/></clipPath><clipPath id="f00cb870f8"><path d="M 19 16 L 27 16 L 27 23 L 19 23 Z M 19 16 " clip-rule="nonzero"/></clipPath><clipPath id="6ce91e101c"><path d="M 20.28125 23.335938 L 19.820312 16.949219 L 26.207031 16.488281 L 26.667969 22.875 Z M 20.28125 23.335938 " clip-rule="nonzero"/></clipPath><clipPath id="6e7279796b"><path d="M 26.667969 22.875 C 24.984375 22.996094 23.292969 22.433594 22.015625 21.332031 C 20.742188 20.226562 19.941406 18.632812 19.820312 16.949219 L 23.078125 16.714844 C 23.140625 17.539062 23.53125 18.320312 24.15625 18.859375 C 24.78125 19.402344 25.609375 19.675781 26.433594 19.617188 Z M 26.667969 22.875 " clip-rule="nonzero"/></clipPath><clipPath id="e7102ce33e"><path d="M 0.761719 0.640625 L 7.71875 0.640625 L 7.71875 7 L 0.761719 7 Z M 0.761719 0.640625 " clip-rule="nonzero"/></clipPath><clipPath id="1f7b941b9e"><path d="M 1.28125 7.335938 L 0.820312 0.949219 L 7.207031 0.488281 L 7.667969 6.875 Z M 1.28125 7.335938 " clip-rule="nonzero"/></clipPath><clipPath id="e12a8ae216"><path d="M 7.667969 6.875 C 5.984375 6.996094 4.292969 6.433594 3.015625 5.332031 C 1.742188 4.226562 0.941406 2.632812 0.820312 0.949219 L 4.078125 0.714844 C 4.140625 1.539062 4.53125 2.320312 5.15625 2.859375 C 5.78125 3.402344 6.609375 3.675781 7.433594 3.617188 Z M 7.667969 6.875 " clip-rule="nonzero"/></clipPath><clipPath id="286629e9ff"><rect x="0" width="8" y="0" height="7"/></clipPath><clipPath id="d5df4c3b96"><path d="M 37.148438 21.375 L 43.738281 21.375 L 43.738281 28.269531 L 37.148438 28.269531 Z M 37.148438 21.375 " clip-rule="nonzero"/></clipPath><clipPath id="96f1b58f6c"><path d="M 43.738281 21.394531 C 43.738281 23.207031 43.035156 24.976562 41.808594 26.257812 C 40.582031 27.539062 38.882812 28.269531 37.148438 28.269531 L 37.148438 24.761719 C 38 24.761719 38.832031 24.402344 39.429688 23.777344 C 40.03125 23.148438 40.375 22.28125 40.375 21.394531 Z M 43.738281 21.394531 " clip-rule="nonzero"/></clipPath><clipPath id="63e2242059"><path d="M 0.148438 0.375 L 6.738281 0.375 L 6.738281 7.269531 L 0.148438 7.269531 Z M 0.148438 0.375 " clip-rule="nonzero"/></clipPath><clipPath id="00f1195410"><path d="M 6.738281 0.394531 C 6.738281 2.207031 6.035156 3.976562 4.808594 5.257812 C 3.582031 6.539062 1.882812 7.269531 0.148438 7.269531 L 0.148438 3.761719 C 1 3.761719 1.832031 3.402344 2.429688 2.777344 C 3.03125 2.148438 3.375 1.28125 3.375 0.394531 Z M 6.738281 0.394531 " clip-rule="nonzero"/></clipPath><clipPath id="73bf965071"><rect x="0" width="7" y="0" height="8"/></clipPath><clipPath id="5619384276"><path d="M 32.617188 14.371094 L 43.738281 14.371094 L 43.738281 21.714844 L 32.617188 21.714844 Z M 32.617188 14.371094 " clip-rule="nonzero"/></clipPath><clipPath id="c3793e2c85"><path d="M 0.617188 0.371094 L 11.738281 0.371094 L 11.738281 7.714844 L 0.617188 7.714844 Z M 0.617188 0.371094 " clip-rule="nonzero"/></clipPath><clipPath id="9bf24972af"><rect x="0" width="12" y="0" height="8"/></clipPath><clipPath id="6b32e1ee71"><path d="M 32.246094 33.160156 L 43.753906 33.160156 L 43.753906 44.757812 L 32.246094 44.757812 Z M 32.246094 33.160156 " clip-rule="nonzero"/></clipPath><clipPath id="f134840581"><path d="M 43.753906 38.914062 L 43.753906 38.976562 C 43.753906 42.152344 41.179688 44.730469 38 44.730469 C 34.824219 44.730469 32.246094 42.152344 32.246094 38.976562 L 32.246094 38.914062 C 32.246094 35.738281 34.824219 33.160156 38 33.160156 C 41.179688 33.160156 43.753906 35.738281 43.753906 38.914062 Z M 43.753906 38.914062 " clip-rule="nonzero"/></clipPath><clipPath id="b1d09020c7"><path d="M 0.246094 0.160156 L 11.753906 0.160156 L 11.753906 11.757812 L 0.246094 11.757812 Z M 0.246094 0.160156 " clip-rule="nonzero"/></clipPath><clipPath id="768ede638a"><path d="M 11.753906 5.914062 L 11.753906 5.976562 C 11.753906 9.152344 9.179688 11.730469 6 11.730469 C 2.824219 11.730469 0.246094 9.152344 0.246094 5.976562 L 0.246094 5.914062 C 0.246094 2.738281 2.824219 0.160156 6 0.160156 C 9.179688 0.160156 11.753906 2.738281 11.753906 5.914062 Z M 11.753906 5.914062 " clip-rule="nonzero"/></clipPath><clipPath id="9dcf902335"><rect x="0" width="12" y="0" height="12"/></clipPath><clipPath id="5fc9f17c23"><path d="M 49 5 L 226.878906 5 L 226.878906 50 L 49 50 Z M 49 5 " clip-rule="nonzero"/></clipPath><clipPath id="b75742723e"><path d="M 160 9 L 177.878906 9 L 177.878906 32 L 160 32 Z M 160 9 " clip-rule="nonzero"/></clipPath><clipPath id="24a09955c9"><rect x="0" width="178" y="0" height="45"/></clipPath><clipPath id="24465ee1ee"><rect x="0" width="227" y="0" height="56"/></clipPath></defs><rect x="-30" width="360" fill="#ffffff" y="-7.5" height="89.999996" fill-opacity="1"/><rect x="-30" width="360" fill="#e2a03b" y="-7.5" height="89.999996" fill-opacity="1"/><g transform="matrix(1, 0, 0, 1, 34, 10)"><g clip-path="url(#24465ee1ee)"><g clip-path="url(#5415828dcc)"><g clip-path="url(#531f9eb384)"><g transform="matrix(1, 0, 0, 1, 11, -0.000000000000001776)"><g clip-path="url(#3e6e7e8fa4)"><g clip-path="url(#af303a1b57)"><g clip-path="url(#3fe980e4cd)"><path fill="#392110" d="M 12.242188 0.136719 L 12.242188 54.867188 L 0.75 54.867188 L 0.75 0.136719 Z M 12.242188 0.136719 " fill-opacity="1" fill-rule="nonzero"/></g></g></g></g></g></g><g clip-path="url(#69b4c88bb1)"><g clip-path="url(#bfb071eca9)"><g transform="matrix(1, 0, 0, 1, 0, 22)"><g clip-path="url(#6edeb5c62b)"><g clip-path="url(#9fa17d1676)"><g clip-path="url(#c9e05a2466)"><path fill="#392110" d="M 23.085938 12.542969 L 0.4375 12.542969 L 0.4375 0.738281 L 23.085938 0.738281 Z M 23.085938 12.542969 " fill-opacity="1" fill-rule="nonzero"/></g></g></g></g></g></g><g clip-path="url(#cfadb01a3d)"><g clip-path="url(#b9b9553b64)"><g transform="matrix(1, 0, 0, 1, 32, -0.000000000000001776)"><g clip-path="url(#0bd5680956)"><g clip-path="url(#b0457d01b9)"><g clip-path="url(#3176b0f889)"><path fill="#392110" d="M 0.246094 24 L 0.246094 0.121094 L 11.738281 0.121094 L 11.738281 24 Z M 0.246094 24 " fill-opacity="1" fill-rule="nonzero"/></g></g></g></g></g></g><g clip-path="url(#64a3923617)"><g clip-path="url(#159da1d46f)"><g transform="matrix(1, 0, 0, 1, 18, 19)"><g clip-path="url(#68a168b688)"><g clip-path="url(#429cdec0b5)"><g clip-path="url(#952361a06c)"><path fill="#392110" d="M 23.003906 9.269531 L 0.335938 9.269531 L 0.335938 0.519531 L 23.003906 0.519531 Z M 23.003906 9.269531 " fill-opacity="1" fill-rule="nonzero"/></g></g></g></g></g></g><g clip-path="url(#c276fe9e91)"><g clip-path="url(#6f57fa2270)"><g transform="matrix(1, 0, 0, 1, 32, 33)"><g clip-path="url(#0664942d4d)"><g clip-path="url(#9c8b204882)"><g clip-path="url(#6ee3f3e04b)"><path fill="#392110" d="M 0.300781 21.859375 L 0.300781 0.226562 L 11.816406 0.226562 L 11.816406 21.859375 Z M 0.300781 21.859375 " fill-opacity="1" fill-rule="nonzero"/></g></g></g></g></g></g><g clip-path="url(#97174f9458)"><g clip-path="url(#5d9c2cfee8)"><g clip-path="url(#5ca8bda529)"><g transform="matrix(1, 0, 0, 1, 7, 20)"><g clip-path="url(#cd3828ca42)"><g clip-path="url(#e62f1406d3)"><g clip-path="url(#2f01800450)"><g clip-path="url(#b678652fc5)"><path fill="#392110" d="M 6.425781 7.773438 L 0.25 6.089844 L 1.929688 -0.0859375 L 8.109375 1.59375 Z M 6.425781 7.773438 " fill-opacity="1" fill-rule="nonzero"/></g></g></g></g></g></g></g></g><g clip-path="url(#dd4a59b91a)"><g clip-path="url(#8a0707453e)"><g clip-path="url(#a51ec15ccf)"><g transform="matrix(1, 0, 0, 1, 9, 31)"><g clip-path="url(#ed21835cd0)"><g clip-path="url(#7d83254d8c)"><g clip-path="url(#002569ca08)"><g clip-path="url(#56b342f1a9)"><path fill="#392110" d="M 6.777344 0.734375 L 6.042969 7.09375 L -0.316406 6.359375 L 0.417969 0 Z M 6.777344 0.734375 " fill-opacity="1" fill-rule="nonzero"/></g></g></g></g></g></g></g></g><g clip-path="url(#8e5d3ca437)"><g clip-path="url(#9cb2ca33ae)"><g transform="matrix(1, 0, 0, 1, 19, 24)"><g clip-path="url(#70f889d7dc)"><g clip-path="url(#64ed0a00df)"><g clip-path="url(#fafb9f724e)"><path fill="#392110" d="M 0.886719 0.789062 L 7.289062 0.789062 L 7.289062 7.191406 L 0.886719 7.191406 Z M 0.886719 0.789062 " fill-opacity="1" fill-rule="nonzero"/></g></g></g></g></g></g><g clip-path="url(#f00cb870f8)"><g clip-path="url(#6ce91e101c)"><g clip-path="url(#6e7279796b)"><g transform="matrix(1, 0, 0, 1, 19, 16)"><g clip-path="url(#286629e9ff)"><g clip-path="url(#e7102ce33e)"><g clip-path="url(#1f7b941b9e)"><g clip-path="url(#e12a8ae216)"><path fill="#392110" d="M 1.28125 7.335938 L 0.820312 0.949219 L 7.207031 0.488281 L 7.667969 6.875 Z M 1.28125 7.335938 " fill-opacity="1" fill-rule="nonzero"/></g></g></g></g></g></g></g></g><g clip-path="url(#d5df4c3b96)"><g clip-path="url(#96f1b58f6c)"><g transform="matrix(1, 0, 0, 1, 37, 21)"><g clip-path="url(#73bf965071)"><g clip-path="url(#63e2242059)"><g clip-path="url(#00f1195410)"><path fill="#392110" d="M 6.738281 7.269531 L 0.148438 7.269531 L 0.148438 0.402344 L 6.738281 0.402344 Z M 6.738281 7.269531 " fill-opacity="1" fill-rule="nonzero"/></g></g></g></g></g></g><g clip-path="url(#5619384276)"><g transform="matrix(1, 0, 0, 1, 32, 14)"><g clip-path="url(#9bf24972af)"><g clip-path="url(#c3793e2c85)"><path fill="#392110" d="M 0.617188 0.371094 L 11.742188 0.371094 L 11.742188 7.714844 L 0.617188 7.714844 Z M 0.617188 0.371094 " fill-opacity="1" fill-rule="nonzero"/></g></g></g></g><g clip-path="url(#6b32e1ee71)"><g clip-path="url(#f134840581)"><g transform="matrix(1, 0, 0, 1, 32, 33)"><g clip-path="url(#9dcf902335)"><g clip-path="url(#b1d09020c7)"><g clip-path="url(#768ede638a)"><path fill="#392110" d="M 0.246094 0.160156 L 11.753906 0.160156 L 11.753906 11.714844 L 0.246094 11.714844 Z M 0.246094 0.160156 " fill-opacity="1" fill-rule="nonzero"/></g></g></g></g></g></g><g clip-path="url(#5fc9f17c23)"><g transform="matrix(1, 0, 0, 1, 49, 5)"><g clip-path="url(#24a09955c9)"><g fill="#392110" fill-opacity="1"><g transform="translate(0.922509, 31.971352)"><g><path d="M 4.28125 0.453125 C 5.175781 0.453125 6.03125 0.207031 6.84375 -0.28125 C 7.664062 -0.769531 8.125 -1.546875 8.21875 -2.609375 C 8.238281 -3.535156 8.25 -4.304688 8.25 -4.921875 C 8.25 -5.546875 8.257812 -6.007812 8.28125 -6.3125 C 8.3125 -6.625 8.40625 -6.78125 8.5625 -6.78125 L 9.5625 -6.8125 C 9.738281 -6.8125 9.847656 -6.796875 9.890625 -6.765625 C 9.941406 -6.734375 9.96875 -6.679688 9.96875 -6.609375 L 9.96875 -5.65625 C 9.96875 -4.019531 10.015625 -2.828125 10.109375 -2.078125 C 10.253906 -1.253906 10.65625 -0.628906 11.3125 -0.203125 C 11.96875 0.210938 12.695312 0.421875 13.5 0.421875 C 14.070312 0.421875 14.628906 0.300781 15.171875 0.0625 C 16.367188 -0.46875 16.96875 -1.414062 16.96875 -2.78125 C 16.96875 -5.914062 16.988281 -8.476562 17.03125 -10.46875 C 17.039062 -12.15625 17.046875 -14.675781 17.046875 -18.03125 C 17.046875 -19.238281 16.859375 -20.171875 16.484375 -20.828125 C 15.816406 -22.003906 14.773438 -22.59375 13.359375 -22.59375 C 12.796875 -22.59375 12.296875 -22.515625 11.859375 -22.359375 C 11.421875 -22.203125 11.117188 -22.03125 10.953125 -21.84375 C 10.535156 -21.3125 10.273438 -20.65625 10.171875 -19.875 C 10.066406 -19.101562 10.015625 -18.359375 10.015625 -17.640625 L 10.078125 -13.90625 C 10.078125 -12.78125 9.984375 -12.21875 9.796875 -12.21875 L 8.921875 -12.1875 C 8.660156 -12.1875 8.5 -12.21875 8.4375 -12.28125 C 8.382812 -12.34375 8.359375 -12.476562 8.359375 -12.6875 L 8.40625 -17.46875 L 8.390625 -19.21875 C 8.390625 -20.039062 8.171875 -20.707031 7.734375 -21.21875 C 7.304688 -21.738281 6.769531 -22.113281 6.125 -22.34375 C 5.476562 -22.582031 4.832031 -22.703125 4.1875 -22.703125 C 3.289062 -22.703125 2.5625 -22.3125 2 -21.53125 C 1.4375 -20.757812 1.132812 -19.71875 1.09375 -18.40625 L 0.984375 -8.078125 C 1.003906 -6.929688 1.015625 -5.539062 1.015625 -3.90625 C 1.015625 -2.96875 1.0625 -2.234375 1.15625 -1.703125 C 1.25 -1.179688 1.484375 -0.726562 1.859375 -0.34375 C 2.472656 0.1875 3.28125 0.453125 4.28125 0.453125 Z M 4.28125 0.453125 "/></g></g></g><g fill="#392110" fill-opacity="1"><g transform="translate(19.406883, 31.971352)"><g><path d="M 6.046875 0.625 C 6.859375 0.625 7.804688 0.601562 8.890625 0.5625 C 9.679688 0.539062 10.550781 0.523438 11.5 0.515625 C 12.457031 0.503906 13.289062 0.21875 14 -0.34375 C 14.707031 -0.914062 15.0625 -1.71875 15.0625 -2.75 C 15.0625 -3.789062 14.789062 -4.65625 14.25 -5.34375 C 13.71875 -6.039062 13.039062 -6.445312 12.21875 -6.5625 C 10.507812 -6.5625 9.164062 -6.566406 8.1875 -6.578125 C 8.050781 -6.597656 7.96875 -6.664062 7.9375 -6.78125 C 7.914062 -6.894531 7.90625 -7.046875 7.90625 -7.234375 C 7.90625 -7.421875 7.921875 -7.550781 7.953125 -7.625 C 7.992188 -7.695312 8.097656 -7.742188 8.265625 -7.765625 C 8.441406 -7.785156 8.726562 -7.804688 9.125 -7.828125 L 10.40625 -7.875 C 10.65625 -7.875 11 -7.875 11.4375 -7.875 C 11.875 -7.875 12.320312 -7.941406 12.78125 -8.078125 C 13.789062 -8.378906 14.296875 -9.4375 14.296875 -11.25 C 14.296875 -12.039062 14.144531 -12.625 13.84375 -13 C 13.332031 -13.601562 12.507812 -13.90625 11.375 -13.90625 C 10.132812 -13.90625 9.316406 -13.914062 8.921875 -13.9375 C 8.523438 -13.96875 8.289062 -14.03125 8.21875 -14.125 C 8.144531 -14.21875 8.109375 -14.359375 8.109375 -14.546875 L 8.109375 -14.65625 L 8.078125 -15.109375 C 8.078125 -15.242188 8.160156 -15.328125 8.328125 -15.359375 C 8.703125 -15.359375 9.253906 -15.390625 9.984375 -15.453125 C 10.941406 -15.523438 11.785156 -15.5625 12.515625 -15.5625 C 13.359375 -15.5625 13.988281 -15.773438 14.40625 -16.203125 C 15.039062 -16.878906 15.359375 -17.753906 15.359375 -18.828125 C 15.359375 -19.816406 15.144531 -20.59375 14.71875 -21.15625 C 13.894531 -22.175781 12.582031 -22.6875 10.78125 -22.6875 L 4.03125 -22.6875 C 2.226562 -22.570312 1.234375 -21.828125 1.046875 -20.453125 C 1.003906 -20.160156 0.984375 -19.210938 0.984375 -17.609375 C 0.984375 -16.753906 0.988281 -15.875 1 -14.96875 C 1.007812 -14.070312 1.019531 -13.3125 1.03125 -12.6875 C 1.039062 -12.070312 1.050781 -11.765625 1.0625 -11.765625 L 1.046875 -6.015625 C 1.046875 -4.085938 1.144531 -2.648438 1.34375 -1.703125 C 1.550781 -0.753906 2.007812 -0.128906 2.71875 0.171875 C 3.4375 0.472656 4.546875 0.625 6.046875 0.625 Z M 6.046875 0.625 "/></g></g></g><g fill="#392110" fill-opacity="1"><g transform="translate(35.331019, 31.971352)"><g><path d="M 4.3125 0.25 C 4.96875 0.25 5.582031 0.125 6.15625 -0.125 C 6.738281 -0.375 7.210938 -0.835938 7.578125 -1.515625 C 7.941406 -2.191406 8.125 -3.148438 8.125 -4.390625 C 8.207031 -6.335938 8.25 -8.476562 8.25 -10.8125 C 8.25 -14.988281 8.203125 -17.953125 8.109375 -19.703125 C 8.023438 -20.597656 7.648438 -21.34375 6.984375 -21.9375 C 6.328125 -22.53125 5.507812 -22.828125 4.53125 -22.828125 C 3.550781 -22.828125 2.75 -22.515625 2.125 -21.890625 C 1.507812 -21.273438 1.15625 -20.46875 1.0625 -19.46875 C 1.03125 -19.1875 1.003906 -18.910156 0.984375 -18.640625 C 0.960938 -18.367188 0.945312 -18.023438 0.9375 -17.609375 C 0.925781 -17.203125 0.921875 -16.601562 0.921875 -15.8125 L 1.015625 -5.015625 L 0.984375 -4.25 C 0.984375 -2.894531 1.21875 -1.804688 1.6875 -0.984375 C 2.15625 -0.160156 3.03125 0.25 4.3125 0.25 Z M 4.3125 0.25 "/></g></g></g><g fill="#392110" fill-opacity="1"><g transform="translate(45.065558, 31.971352)"><g><path d="M 4.671875 -7.875 L 6.140625 -7.90625 L 6.140625 -7.9375 L 7.9375 -7.9375 C 8.539062 -7.9375 8.988281 -7.953125 9.28125 -7.984375 C 9.582031 -8.023438 9.882812 -8.117188 10.1875 -8.265625 C 10.695312 -8.535156 11.082031 -8.882812 11.34375 -9.3125 C 11.601562 -9.75 11.734375 -10.207031 11.734375 -10.6875 C 11.734375 -11.382812 11.46875 -12.019531 10.9375 -12.59375 C 10.414062 -13.164062 9.648438 -13.453125 8.640625 -13.453125 L 7.5625 -13.453125 C 6.195312 -13.453125 5.164062 -13.441406 4.46875 -13.421875 C 3.78125 -13.398438 3.273438 -13.359375 2.953125 -13.296875 C 2.628906 -13.242188 2.359375 -13.164062 2.140625 -13.0625 C 1.597656 -12.78125 1.195312 -12.421875 0.9375 -11.984375 C 0.6875 -11.554688 0.5625 -11.109375 0.5625 -10.640625 C 0.5625 -10.128906 0.707031 -9.648438 1 -9.203125 C 1.289062 -8.753906 1.71875 -8.414062 2.28125 -8.1875 C 2.988281 -7.976562 3.785156 -7.875 4.671875 -7.875 Z M 4.671875 -7.875 "/></g></g></g><g fill="#392110" fill-opacity="1"><g transform="translate(57.360343, 31.971352)"><g><path d="M 4.109375 0.5 C 8.367188 0.5 11.53125 -0.753906 13.59375 -3.265625 C 15.375 -5.421875 16.273438 -8.140625 16.296875 -11.421875 C 16.296875 -13.285156 15.921875 -15.078125 15.171875 -16.796875 C 14.421875 -18.523438 13.210938 -19.929688 11.546875 -21.015625 C 9.890625 -22.109375 7.703125 -22.671875 4.984375 -22.703125 C 4.003906 -22.703125 3.125 -22.296875 2.34375 -21.484375 C 1.570312 -20.671875 1.144531 -19.679688 1.0625 -18.515625 C 1.007812 -17.109375 0.984375 -14.695312 0.984375 -11.28125 L 1.015625 -7.59375 C 1.015625 -5.15625 1.023438 -3.785156 1.046875 -3.484375 C 1.097656 -2.921875 1.253906 -2.332031 1.515625 -1.71875 C 1.773438 -1.113281 2.128906 -0.59375 2.578125 -0.15625 C 3.035156 0.28125 3.546875 0.5 4.109375 0.5 Z M 7.796875 -8.671875 C 7.734375 -8.671875 7.703125 -8.679688 7.703125 -8.703125 C 7.722656 -8.921875 7.734375 -10.578125 7.734375 -13.671875 C 7.753906 -13.734375 7.789062 -13.765625 7.84375 -13.765625 C 7.976562 -13.765625 8.160156 -13.675781 8.390625 -13.5 C 8.628906 -13.332031 8.84375 -13.0625 9.03125 -12.6875 C 9.21875 -12.3125 9.3125 -11.796875 9.3125 -11.140625 C 9.3125 -10.523438 9.207031 -10.035156 9 -9.671875 C 8.800781 -9.304688 8.570312 -9.046875 8.3125 -8.890625 C 8.0625 -8.742188 7.890625 -8.671875 7.796875 -8.671875 Z M 7.796875 -8.671875 "/></g></g></g><g fill="#392110" fill-opacity="1"><g transform="translate(73.818951, 31.971352)"><g><path d="M 2.390625 0.25 C 3.140625 0.25 3.796875 0.0195312 4.359375 -0.4375 C 4.921875 -0.894531 5.378906 -1.507812 5.734375 -2.28125 C 5.773438 -2.394531 5.832031 -2.488281 5.90625 -2.5625 C 5.976562 -2.632812 6.25 -2.671875 6.71875 -2.671875 L 8.8125 -2.640625 L 11.140625 -2.640625 C 11.585938 -2.640625 11.898438 -2.425781 12.078125 -2 C 12.429688 -1.28125 12.898438 -0.75 13.484375 -0.40625 C 14.066406 -0.0625 14.65625 0.109375 15.25 0.109375 C 15.8125 0.109375 16.328125 -0.0195312 16.796875 -0.28125 C 17.265625 -0.539062 17.628906 -0.925781 17.890625 -1.4375 C 18.078125 -1.832031 18.171875 -2.222656 18.171875 -2.609375 C 18.171875 -3.097656 17.992188 -3.796875 17.640625 -4.703125 C 17.148438 -5.972656 16.328125 -8.382812 15.171875 -11.9375 C 14.335938 -14.394531 13.613281 -16.460938 13 -18.140625 C 12.382812 -19.816406 11.832031 -20.960938 11.34375 -21.578125 C 10.644531 -22.347656 9.835938 -22.734375 8.921875 -22.734375 C 8.128906 -22.734375 7.414062 -22.4375 6.78125 -21.84375 C 6.664062 -21.726562 6.5625 -21.601562 6.46875 -21.46875 C 6.28125 -21.207031 5.9375 -20.445312 5.4375 -19.1875 C 5.1875 -18.625 3.207031 -13.664062 -0.5 -4.3125 C -0.6875 -3.820312 -0.78125 -3.332031 -0.78125 -2.84375 C -0.78125 -2.238281 -0.640625 -1.640625 -0.359375 -1.046875 C -0.117188 -0.554688 0.171875 -0.238281 0.515625 -0.09375 C 0.867188 0.0390625 1.203125 0.128906 1.515625 0.171875 L 1.75 0.203125 C 1.96875 0.234375 2.179688 0.25 2.390625 0.25 Z M 8.8125 -8.359375 C 8.488281 -8.359375 8.328125 -8.394531 8.328125 -8.46875 C 8.421875 -8.65625 8.550781 -8.898438 8.71875 -9.203125 C 8.894531 -9.503906 9.03125 -9.773438 9.125 -10.015625 C 9.175781 -10.015625 9.222656 -10.003906 9.265625 -9.984375 C 9.410156 -9.535156 9.554688 -9.171875 9.703125 -8.890625 C 9.816406 -8.679688 9.875 -8.539062 9.875 -8.46875 C 9.875 -8.425781 9.859375 -8.40625 9.828125 -8.40625 Z M 8.8125 -8.359375 "/></g></g></g><g fill="#392110" fill-opacity="1"><g transform="translate(88.89844, 31.971352)"><g><path d="M 8.984375 0.25 C 10.015625 0.25 10.859375 -0.0820312 11.515625 -0.75 C 12.179688 -1.414062 12.546875 -2.347656 12.609375 -3.546875 L 12.640625 -8.078125 L 12.609375 -12.21875 C 12.609375 -13.601562 12.632812 -14.492188 12.6875 -14.890625 C 12.707031 -15.128906 12.78125 -15.289062 12.90625 -15.375 C 13.039062 -15.457031 13.144531 -15.5 13.21875 -15.5 C 13.769531 -15.5 14.367188 -15.523438 15.015625 -15.578125 C 15.660156 -15.640625 16.226562 -15.800781 16.71875 -16.0625 C 17.84375 -16.71875 18.40625 -17.875 18.40625 -19.53125 C 18.40625 -20.488281 18.148438 -21.210938 17.640625 -21.703125 C 17.140625 -22.203125 16.578125 -22.535156 15.953125 -22.703125 C 15.335938 -22.878906 14.84375 -22.96875 14.46875 -22.96875 L 4.671875 -22.96875 C 3.679688 -22.96875 2.722656 -22.757812 1.796875 -22.34375 C 0.410156 -21.726562 -0.28125 -20.660156 -0.28125 -19.140625 C -0.28125 -18.328125 -0.0195312 -17.617188 0.5 -17.015625 C 1.03125 -16.421875 1.566406 -16.019531 2.109375 -15.8125 C 2.390625 -15.695312 2.695312 -15.613281 3.03125 -15.5625 C 3.375 -15.519531 3.898438 -15.5 4.609375 -15.5 C 4.796875 -15.5 4.988281 -15.472656 5.1875 -15.421875 C 5.382812 -15.367188 5.492188 -15.226562 5.515625 -15 C 5.648438 -12.445312 5.71875 -8.945312 5.71875 -4.5 L 5.71875 -3.265625 C 5.71875 -3.242188 5.753906 -3.050781 5.828125 -2.6875 C 5.898438 -2.320312 6.046875 -1.910156 6.265625 -1.453125 C 6.492188 -1.003906 6.820312 -0.609375 7.25 -0.265625 C 7.6875 0.078125 8.265625 0.25 8.984375 0.25 Z M 8.984375 0.25 "/></g></g></g><g fill="#392110" fill-opacity="1"><g transform="translate(104.709472, 31.971352)"><g><path d="M 2.390625 0.25 C 3.140625 0.25 3.796875 0.0195312 4.359375 -0.4375 C 4.921875 -0.894531 5.378906 -1.507812 5.734375 -2.28125 C 5.773438 -2.394531 5.832031 -2.488281 5.90625 -2.5625 C 5.976562 -2.632812 6.25 -2.671875 6.71875 -2.671875 L 8.8125 -2.640625 L 11.140625 -2.640625 C 11.585938 -2.640625 11.898438 -2.425781 12.078125 -2 C 12.429688 -1.28125 12.898438 -0.75 13.484375 -0.40625 C 14.066406 -0.0625 14.65625 0.109375 15.25 0.109375 C 15.8125 0.109375 16.328125 -0.0195312 16.796875 -0.28125 C 17.265625 -0.539062 17.628906 -0.925781 17.890625 -1.4375 C 18.078125 -1.832031 18.171875 -2.222656 18.171875 -2.609375 C 18.171875 -3.097656 17.992188 -3.796875 17.640625 -4.703125 C 17.148438 -5.972656 16.328125 -8.382812 15.171875 -11.9375 C 14.335938 -14.394531 13.613281 -16.460938 13 -18.140625 C 12.382812 -19.816406 11.832031 -20.960938 11.34375 -21.578125 C 10.644531 -22.347656 9.835938 -22.734375 8.921875 -22.734375 C 8.128906 -22.734375 7.414062 -22.4375 6.78125 -21.84375 C 6.664062 -21.726562 6.5625 -21.601562 6.46875 -21.46875 C 6.28125 -21.207031 5.9375 -20.445312 5.4375 -19.1875 C 5.1875 -18.625 3.207031 -13.664062 -0.5 -4.3125 C -0.6875 -3.820312 -0.78125 -3.332031 -0.78125 -2.84375 C -0.78125 -2.238281 -0.640625 -1.640625 -0.359375 -1.046875 C -0.117188 -0.554688 0.171875 -0.238281 0.515625 -0.09375 C 0.867188 0.0390625 1.203125 0.128906 1.515625 0.171875 L 1.75 0.203125 C 1.96875 0.234375 2.179688 0.25 2.390625 0.25 Z M 8.8125 -8.359375 C 8.488281 -8.359375 8.328125 -8.394531 8.328125 -8.46875 C 8.421875 -8.65625 8.550781 -8.898438 8.71875 -9.203125 C 8.894531 -9.503906 9.03125 -9.773438 9.125 -10.015625 C 9.175781 -10.015625 9.222656 -10.003906 9.265625 -9.984375 C 9.410156 -9.535156 9.554688 -9.171875 9.703125 -8.890625 C 9.816406 -8.679688 9.875 -8.539062 9.875 -8.46875 C 9.875 -8.425781 9.859375 -8.40625 9.828125 -8.40625 Z M 8.8125 -8.359375 "/></g></g></g><g fill="#392110" fill-opacity="1"><g transform="translate(122.687426, 31.971352)"><g><path d="M 4.28125 0.453125 C 5.175781 0.453125 6.03125 0.207031 6.84375 -0.28125 C 7.664062 -0.769531 8.125 -1.546875 8.21875 -2.609375 C 8.238281 -3.535156 8.25 -4.304688 8.25 -4.921875 C 8.25 -5.546875 8.257812 -6.007812 8.28125 -6.3125 C 8.3125 -6.625 8.40625 -6.78125 8.5625 -6.78125 L 9.5625 -6.8125 C 9.738281 -6.8125 9.847656 -6.796875 9.890625 -6.765625 C 9.941406 -6.734375 9.96875 -6.679688 9.96875 -6.609375 L 9.96875 -5.65625 C 9.96875 -4.019531 10.015625 -2.828125 10.109375 -2.078125 C 10.253906 -1.253906 10.65625 -0.628906 11.3125 -0.203125 C 11.96875 0.210938 12.695312 0.421875 13.5 0.421875 C 14.070312 0.421875 14.628906 0.300781 15.171875 0.0625 C 16.367188 -0.46875 16.96875 -1.414062 16.96875 -2.78125 C 16.96875 -5.914062 16.988281 -8.476562 17.03125 -10.46875 C 17.039062 -12.15625 17.046875 -14.675781 17.046875 -18.03125 C 17.046875 -19.238281 16.859375 -20.171875 16.484375 -20.828125 C 15.816406 -22.003906 14.773438 -22.59375 13.359375 -22.59375 C 12.796875 -22.59375 12.296875 -22.515625 11.859375 -22.359375 C 11.421875 -22.203125 11.117188 -22.03125 10.953125 -21.84375 C 10.535156 -21.3125 10.273438 -20.65625 10.171875 -19.875 C 10.066406 -19.101562 10.015625 -18.359375 10.015625 -17.640625 L 10.078125 -13.90625 C 10.078125 -12.78125 9.984375 -12.21875 9.796875 -12.21875 L 8.921875 -12.1875 C 8.660156 -12.1875 8.5 -12.21875 8.4375 -12.28125 C 8.382812 -12.34375 8.359375 -12.476562 8.359375 -12.6875 L 8.40625 -17.46875 L 8.390625 -19.21875 C 8.390625 -20.039062 8.171875 -20.707031 7.734375 -21.21875 C 7.304688 -21.738281 6.769531 -22.113281 6.125 -22.34375 C 5.476562 -22.582031 4.832031 -22.703125 4.1875 -22.703125 C 3.289062 -22.703125 2.5625 -22.3125 2 -21.53125 C 1.4375 -20.757812 1.132812 -19.71875 1.09375 -18.40625 L 0.984375 -8.078125 C 1.003906 -6.929688 1.015625 -5.539062 1.015625 -3.90625 C 1.015625 -2.96875 1.0625 -2.234375 1.15625 -1.703125 C 1.25 -1.179688 1.484375 -0.726562 1.859375 -0.34375 C 2.472656 0.1875 3.28125 0.453125 4.28125 0.453125 Z M 4.28125 0.453125 "/></g></g></g><g fill="#392110" fill-opacity="1"><g transform="translate(141.171808, 31.971352)"><g><path d="M 9.125 0.53125 C 10.84375 0.53125 12.316406 0.0664062 13.546875 -0.859375 C 14.773438 -1.785156 15.722656 -2.929688 16.390625 -4.296875 C 17.054688 -5.671875 17.390625 -7.035156 17.390625 -8.390625 C 17.523438 -10.359375 17.59375 -12.101562 17.59375 -13.625 C 17.59375 -14.769531 17.570312 -15.78125 17.53125 -16.65625 L 17.5 -18.515625 C 17.5 -19.421875 17.285156 -20.171875 16.859375 -20.765625 C 16.441406 -21.367188 15.945312 -21.816406 15.375 -22.109375 C 14.800781 -22.398438 14.28125 -22.546875 13.8125 -22.546875 C 12.9375 -22.546875 12.15625 -22.148438 11.46875 -21.359375 C 10.78125 -20.566406 10.410156 -19.65625 10.359375 -18.625 C 10.296875 -16.625 10.265625 -14.726562 10.265625 -12.9375 C 10.265625 -11.0625 10.226562 -9.800781 10.15625 -9.15625 C 10.082031 -8.507812 9.832031 -8.1875 9.40625 -8.1875 C 8.988281 -8.1875 8.726562 -8.484375 8.625 -9.078125 C 8.519531 -9.671875 8.46875 -10.394531 8.46875 -11.25 L 8.46875 -13.140625 L 8.4375 -14.546875 L 8.46875 -16.40625 C 8.46875 -17.582031 8.351562 -18.601562 8.125 -19.46875 C 8.03125 -19.695312 7.890625 -20 7.703125 -20.375 C 6.972656 -21.78125 6 -22.484375 4.78125 -22.484375 C 3.113281 -22.484375 1.976562 -21.800781 1.375 -20.4375 C 0.882812 -19.320312 0.640625 -17.179688 0.640625 -14.015625 C 0.640625 -12.285156 0.707031 -10.492188 0.84375 -8.640625 C 0.894531 -7.703125 1.082031 -6.703125 1.40625 -5.640625 C 1.738281 -4.578125 2.226562 -3.582031 2.875 -2.65625 C 3.53125 -1.726562 4.367188 -0.960938 5.390625 -0.359375 C 6.410156 0.234375 7.65625 0.53125 9.125 0.53125 Z M 9.125 0.53125 "/></g></g></g><g clip-path="url(#b75742723e)"><g fill="#392110" fill-opacity="1"><g transform="translate(159.909383, 31.971352)"><g><path d="M 9.03125 -0.0625 C 10.195312 -0.0625 11.191406 -0.15625 12.015625 -0.34375 C 13.742188 -0.8125 15.035156 -1.691406 15.890625 -2.984375 C 16.753906 -4.273438 17.1875 -5.671875 17.1875 -7.171875 C 17.1875 -8.296875 16.945312 -9.390625 16.46875 -10.453125 C 16 -11.515625 15.285156 -12.410156 14.328125 -13.140625 C 14.171875 -13.253906 14.054688 -13.347656 13.984375 -13.421875 C 13.910156 -13.492188 13.875 -13.578125 13.875 -13.671875 C 13.875 -13.785156 13.929688 -13.957031 14.046875 -14.1875 C 14.421875 -15.0625 14.609375 -15.929688 14.609375 -16.796875 C 14.609375 -18.128906 14.195312 -19.320312 13.375 -20.375 C 12.5625 -21.425781 11.425781 -22.15625 9.96875 -22.5625 C 9.226562 -22.75 8.503906 -22.84375 7.796875 -22.84375 C 7.304688 -22.84375 6.816406 -22.820312 6.328125 -22.78125 C 5.835938 -22.75 5.320312 -22.722656 4.78125 -22.703125 C 3.863281 -22.671875 3.066406 -22.429688 2.390625 -21.984375 C 1.710938 -21.546875 1.289062 -20.859375 1.125 -19.921875 C 1.050781 -19.453125 1.003906 -17.144531 0.984375 -13 L 0.953125 -11.109375 L 0.984375 -3.1875 C 0.984375 -2.113281 1.265625 -1.328125 1.828125 -0.828125 C 2.390625 -0.328125 3.007812 -0.078125 3.6875 -0.078125 Z M 8.296875 -6.078125 C 8.203125 -6.078125 8.15625 -6.132812 8.15625 -6.25 L 8.125 -8.78125 C 8.125 -9.019531 8.132812 -9.207031 8.15625 -9.34375 C 8.175781 -9.476562 8.242188 -9.546875 8.359375 -9.546875 C 8.710938 -9.523438 9 -9.351562 9.21875 -9.03125 C 9.445312 -8.71875 9.5625 -8.332031 9.5625 -7.875 C 9.5625 -7.519531 9.472656 -7.175781 9.296875 -6.84375 C 9.117188 -6.519531 8.820312 -6.273438 8.40625 -6.109375 Z M 8.1875 -14.65625 L 8.1875 -17.21875 C 8.789062 -17.21875 9.09375 -16.785156 9.09375 -15.921875 C 9.09375 -15.628906 9.035156 -15.34375 8.921875 -15.0625 C 8.804688 -14.789062 8.5625 -14.65625 8.1875 -14.65625 Z M 8.1875 -14.65625 "/></g></g></g></g></g></g></g></g></g></svg>