<svg xmlns="http://www.w3.org/2000/svg" xmlns:xlink="http://www.w3.org/1999/xlink" width="500" zoomAndPan="magnify" viewBox="0 0 375 374.999991" height="500" preserveAspectRatio="xMidYMid meet" version="1.0"><defs><clipPath id="520caffa34"><path d="M 147.246094 109.496094 L 180.011719 109.496094 L 180.011719 265.515625 L 147.246094 265.515625 Z M 147.246094 109.496094 " clip-rule="nonzero"/></clipPath><clipPath id="7e46233e7f"><path d="M 180.011719 125.875 L 180.011719 249.113281 C 180.011719 253.460938 178.289062 257.625 175.214844 260.699219 C 172.140625 263.769531 167.976562 265.496094 163.628906 265.496094 C 159.285156 265.496094 155.117188 263.769531 152.046875 260.699219 C 148.972656 257.625 147.246094 253.460938 147.246094 249.113281 L 147.246094 125.875 C 147.246094 121.53125 148.972656 117.363281 152.046875 114.292969 C 155.117188 111.21875 159.285156 109.496094 163.628906 109.496094 C 167.976562 109.496094 172.140625 111.21875 175.214844 114.292969 C 178.289062 117.363281 180.011719 121.53125 180.011719 125.875 Z M 180.011719 125.875 " clip-rule="nonzero"/></clipPath><clipPath id="9ecedc4881"><path d="M 0.246094 0.496094 L 33.011719 0.496094 L 33.011719 156.515625 L 0.246094 156.515625 Z M 0.246094 0.496094 " clip-rule="nonzero"/></clipPath><clipPath id="292c6e6810"><path d="M 33.011719 16.875 L 33.011719 140.113281 C 33.011719 144.460938 31.289062 148.625 28.214844 151.699219 C 25.140625 154.769531 20.976562 156.496094 16.628906 156.496094 C 12.285156 156.496094 8.117188 154.769531 5.046875 151.699219 C 1.972656 148.625 0.246094 144.460938 0.246094 140.113281 L 0.246094 16.875 C 0.246094 12.53125 1.972656 8.363281 5.046875 5.292969 C 8.117188 2.21875 12.285156 0.496094 16.628906 0.496094 C 20.976562 0.496094 25.140625 2.21875 28.214844 5.292969 C 31.289062 8.363281 33.011719 12.53125 33.011719 16.875 Z M 33.011719 16.875 " clip-rule="nonzero"/></clipPath><clipPath id="8b7ea539bf"><rect x="0" width="34" y="0" height="157"/></clipPath><clipPath id="7ea62de0c8"><path d="M 114.871094 173.921875 L 179.5625 173.921875 L 179.5625 207.582031 L 114.871094 207.582031 Z M 114.871094 173.921875 " clip-rule="nonzero"/></clipPath><clipPath id="25c03693a0"><path d="M 162.730469 207.582031 L 131.8125 207.582031 C 127.347656 207.582031 123.070312 205.808594 119.914062 202.652344 C 116.757812 199.496094 114.984375 195.214844 114.984375 190.753906 C 114.984375 186.289062 116.757812 182.007812 119.914062 178.851562 C 123.070312 175.695312 127.347656 173.921875 131.8125 173.921875 L 162.730469 173.921875 C 167.195312 173.921875 171.476562 175.695312 174.632812 178.851562 C 177.789062 182.007812 179.5625 186.289062 179.5625 190.753906 C 179.5625 195.214844 177.789062 199.496094 174.632812 202.652344 C 171.476562 205.808594 167.195312 207.582031 162.730469 207.582031 Z M 162.730469 207.582031 " clip-rule="nonzero"/></clipPath><clipPath id="e653b2bd9f"><path d="M 1 0.921875 L 65.5625 0.921875 L 65.5625 34.582031 L 1 34.582031 Z M 1 0.921875 " clip-rule="nonzero"/></clipPath><clipPath id="fb874656ed"><path d="M 48.730469 34.582031 L 17.8125 34.582031 C 13.347656 34.582031 9.070312 32.808594 5.914062 29.652344 C 2.757812 26.496094 0.984375 22.214844 0.984375 17.753906 C 0.984375 13.289062 2.757812 9.007812 5.914062 5.851562 C 9.070312 2.695312 13.347656 0.921875 17.8125 0.921875 L 48.730469 0.921875 C 53.195312 0.921875 57.476562 2.695312 60.632812 5.851562 C 63.789062 9.007812 65.5625 13.289062 65.5625 17.753906 C 65.5625 22.214844 63.789062 26.496094 60.632812 29.652344 C 57.476562 32.808594 53.195312 34.582031 48.730469 34.582031 Z M 48.730469 34.582031 " clip-rule="nonzero"/></clipPath><clipPath id="2bac9ba489"><rect x="0" width="66" y="0" height="35"/></clipPath><clipPath id="0f9830a471"><path d="M 205.679688 109.449219 L 238.441406 109.449219 L 238.441406 177.527344 L 205.679688 177.527344 Z M 205.679688 109.449219 " clip-rule="nonzero"/></clipPath><clipPath id="5f7d57eb40"><path d="M 205.679688 161.144531 L 205.679688 125.871094 C 205.679688 121.527344 207.40625 117.363281 210.480469 114.289062 C 213.550781 111.21875 217.71875 109.492188 222.0625 109.492188 C 226.40625 109.492188 230.570312 111.21875 233.644531 114.289062 C 236.714844 117.363281 238.441406 121.527344 238.441406 125.871094 L 238.441406 161.144531 C 238.441406 165.492188 236.714844 169.65625 233.644531 172.730469 C 230.570312 175.800781 226.40625 177.527344 222.0625 177.527344 C 217.71875 177.527344 213.550781 175.800781 210.480469 172.730469 C 207.40625 169.65625 205.679688 165.492188 205.679688 161.144531 Z M 205.679688 161.144531 " clip-rule="nonzero"/></clipPath><clipPath id="501cbd89e5"><path d="M 0.679688 0.449219 L 33.441406 0.449219 L 33.441406 68.527344 L 0.679688 68.527344 Z M 0.679688 0.449219 " clip-rule="nonzero"/></clipPath><clipPath id="e3eee06e37"><path d="M 0.679688 52.144531 L 0.679688 16.871094 C 0.679688 12.527344 2.40625 8.363281 5.480469 5.289062 C 8.550781 2.21875 12.71875 0.492188 17.0625 0.492188 C 21.40625 0.492188 25.570312 2.21875 28.644531 5.289062 C 31.714844 8.363281 33.441406 12.527344 33.441406 16.871094 L 33.441406 52.144531 C 33.441406 56.492188 31.714844 60.65625 28.644531 63.730469 C 25.570312 66.800781 21.40625 68.527344 17.0625 68.527344 C 12.71875 68.527344 8.550781 66.800781 5.480469 63.730469 C 2.40625 60.65625 0.679688 56.492188 0.679688 52.144531 Z M 0.679688 52.144531 " clip-rule="nonzero"/></clipPath><clipPath id="1a6b0af9d3"><rect x="0" width="34" y="0" height="69"/></clipPath><clipPath id="225adc83c0"><path d="M 166.03125 164.746094 L 230.644531 164.746094 L 230.644531 189.695312 L 166.03125 189.695312 Z M 166.03125 164.746094 " clip-rule="nonzero"/></clipPath><clipPath id="fbfb369436"><path d="M 218.171875 189.695312 L 178.539062 189.695312 C 171.652344 189.695312 166.066406 184.109375 166.066406 177.222656 C 166.066406 170.332031 171.652344 164.746094 178.539062 164.746094 L 218.171875 164.746094 C 225.058594 164.746094 230.644531 170.332031 230.644531 177.222656 C 230.644531 184.109375 225.058594 189.695312 218.171875 189.695312 Z M 218.171875 189.695312 " clip-rule="nonzero"/></clipPath><clipPath id="b74428e811"><path d="M 0.03125 0.746094 L 64.644531 0.746094 L 64.644531 25.695312 L 0.03125 25.695312 Z M 0.03125 0.746094 " clip-rule="nonzero"/></clipPath><clipPath id="c55ad6c311"><path d="M 52.171875 25.695312 L 12.539062 25.695312 C 5.652344 25.695312 0.0664062 20.109375 0.0664062 13.222656 C 0.0664062 6.332031 5.652344 0.746094 12.539062 0.746094 L 52.171875 0.746094 C 59.058594 0.746094 64.644531 6.332031 64.644531 13.222656 C 64.644531 20.109375 59.058594 25.695312 52.171875 25.695312 Z M 52.171875 25.695312 " clip-rule="nonzero"/></clipPath><clipPath id="cfd8893eb9"><rect x="0" width="65" y="0" height="26"/></clipPath><clipPath id="0abbc3f97b"><path d="M 205.839844 203.691406 L 238.664062 203.691406 L 238.664062 265.492188 L 205.839844 265.492188 Z M 205.839844 203.691406 " clip-rule="nonzero"/></clipPath><clipPath id="e3f5f3a745"><path d="M 205.839844 249.082031 L 205.839844 220.207031 C 205.839844 215.855469 207.570312 211.683594 210.648438 208.605469 C 213.722656 205.527344 217.898438 203.796875 222.25 203.796875 C 226.605469 203.796875 230.777344 205.527344 233.855469 208.605469 C 236.933594 211.683594 238.664062 215.855469 238.664062 220.207031 L 238.664062 249.082031 C 238.664062 253.433594 236.933594 257.609375 233.855469 260.6875 C 230.777344 263.761719 226.605469 265.492188 222.25 265.492188 C 217.898438 265.492188 213.722656 263.761719 210.648438 260.6875 C 207.570312 257.609375 205.839844 253.433594 205.839844 249.082031 Z M 205.839844 249.082031 " clip-rule="nonzero"/></clipPath><clipPath id="a4fe636efd"><path d="M 0.839844 0.761719 L 33.664062 0.761719 L 33.664062 62.492188 L 0.839844 62.492188 Z M 0.839844 0.761719 " clip-rule="nonzero"/></clipPath><clipPath id="967c4840db"><path d="M 0.839844 46.082031 L 0.839844 17.207031 C 0.839844 12.855469 2.570312 8.683594 5.648438 5.605469 C 8.722656 2.527344 12.898438 0.796875 17.25 0.796875 C 21.605469 0.796875 25.777344 2.527344 28.855469 5.605469 C 31.933594 8.683594 33.664062 12.855469 33.664062 17.207031 L 33.664062 46.082031 C 33.664062 50.433594 31.933594 54.609375 28.855469 57.6875 C 25.777344 60.761719 21.605469 62.492188 17.25 62.492188 C 12.898438 62.492188 8.722656 60.761719 5.648438 57.6875 C 2.570312 54.609375 0.839844 50.433594 0.839844 46.082031 Z M 0.839844 46.082031 " clip-rule="nonzero"/></clipPath><clipPath id="448e58a4af"><rect x="0" width="34" y="0" height="63"/></clipPath><clipPath id="44a6ee005f"><path d="M 134 168 L 157 168 L 157 185 L 134 185 Z M 134 168 " clip-rule="nonzero"/></clipPath><clipPath id="66e7b49ca9"><path d="M 152.03125 188.277344 L 134.421875 183.484375 L 139.214844 165.871094 L 156.828125 170.667969 Z M 152.03125 188.277344 " clip-rule="nonzero"/></clipPath><clipPath id="317329e76e"><path d="M 156.828125 170.667969 C 155.566406 175.304688 152.449219 179.328125 148.277344 181.714844 C 144.105469 184.101562 139.058594 184.746094 134.421875 183.484375 L 136.867188 174.496094 C 139.140625 175.117188 141.609375 174.800781 143.65625 173.632812 C 145.699219 172.464844 147.222656 170.492188 147.84375 168.21875 Z M 156.828125 170.667969 " clip-rule="nonzero"/></clipPath><clipPath id="27778614fb"><path d="M 0.398438 0 L 22.960938 0 L 22.960938 16.800781 L 0.398438 16.800781 Z M 0.398438 0 " clip-rule="nonzero"/></clipPath><clipPath id="7afcae8c68"><path d="M 18.03125 20.277344 L 0.421875 15.484375 L 5.214844 -2.128906 L 22.828125 2.667969 Z M 18.03125 20.277344 " clip-rule="nonzero"/></clipPath><clipPath id="8d27e76e72"><path d="M 22.828125 2.667969 C 21.566406 7.304688 18.449219 11.328125 14.277344 13.714844 C 10.105469 16.101562 5.058594 16.746094 0.421875 15.484375 L 2.867188 6.496094 C 5.140625 7.117188 7.609375 6.800781 9.65625 5.632812 C 11.699219 4.464844 13.222656 2.492188 13.84375 0.21875 Z M 22.828125 2.667969 " clip-rule="nonzero"/></clipPath><clipPath id="2005b1f504"><rect x="0" width="23" y="0" height="17"/></clipPath><clipPath id="eec54bc9e1"><path d="M 139 197 L 157 197 L 157 218 L 139 218 Z M 139 197 " clip-rule="nonzero"/></clipPath><clipPath id="21b9834d1f"><path d="M 158.734375 199.566406 L 156.640625 217.699219 L 138.511719 215.605469 L 140.601562 197.472656 Z M 158.734375 199.566406 " clip-rule="nonzero"/></clipPath><clipPath id="9aaa6b8c01"><path d="M 140.601562 197.472656 C 145.378906 198.023438 149.824219 200.496094 152.8125 204.265625 C 155.796875 208.03125 157.195312 212.921875 156.640625 217.699219 L 147.390625 216.628906 C 147.660156 214.292969 146.976562 211.894531 145.515625 210.050781 C 144.050781 208.203125 141.875 206.992188 139.535156 206.722656 Z M 140.601562 197.472656 " clip-rule="nonzero"/></clipPath><clipPath id="761fc0aa83"><path d="M 0.441406 0.28125 L 18 0.28125 L 18 20.921875 L 0.441406 20.921875 Z M 0.441406 0.28125 " clip-rule="nonzero"/></clipPath><clipPath id="476e371b7b"><path d="M 19.734375 2.566406 L 17.640625 20.699219 L -0.488281 18.605469 L 1.601562 0.472656 Z M 19.734375 2.566406 " clip-rule="nonzero"/></clipPath><clipPath id="a088eae13a"><path d="M 1.601562 0.472656 C 6.378906 1.023438 10.824219 3.496094 13.8125 7.265625 C 16.796875 11.03125 18.195312 15.921875 17.640625 20.699219 L 8.390625 19.628906 C 8.660156 17.292969 7.976562 14.894531 6.515625 13.050781 C 5.050781 11.203125 2.875 9.992188 0.535156 9.722656 Z M 1.601562 0.472656 " clip-rule="nonzero"/></clipPath><clipPath id="982c07b7e5"><rect x="0" width="18" y="0" height="21"/></clipPath><clipPath id="14fa0d8419"><path d="M 170.445312 179.777344 L 188.695312 179.777344 L 188.695312 198.027344 L 170.445312 198.027344 Z M 170.445312 179.777344 " clip-rule="nonzero"/></clipPath><clipPath id="b7de408b19"><path d="M 170.445312 198.027344 C 170.445312 193.222656 172.390625 188.519531 175.789062 185.121094 C 179.1875 181.722656 183.890625 179.777344 188.695312 179.777344 L 188.695312 189.085938 C 186.34375 189.085938 184.039062 190.042969 182.375 191.707031 C 180.710938 193.371094 179.757812 195.675781 179.757812 198.027344 Z M 170.445312 198.027344 " clip-rule="nonzero"/></clipPath><clipPath id="99abc19a57"><path d="M 0.445312 0.777344 L 18.695312 0.777344 L 18.695312 19.027344 L 0.445312 19.027344 Z M 0.445312 0.777344 " clip-rule="nonzero"/></clipPath><clipPath id="85bd2393b7"><path d="M 0.445312 19.027344 C 0.445312 14.222656 2.390625 9.519531 5.789062 6.121094 C 9.1875 2.722656 13.890625 0.777344 18.695312 0.777344 L 18.695312 10.085938 C 16.34375 10.085938 14.039062 11.042969 12.375 12.707031 C 10.710938 14.371094 9.757812 16.675781 9.757812 19.027344 Z M 0.445312 19.027344 " clip-rule="nonzero"/></clipPath><clipPath id="1fbbbc640b"><rect x="0" width="19" y="0" height="20"/></clipPath><clipPath id="36f5ba5158"><path d="M 170 156 L 190 156 L 190 175 L 170 175 Z M 170 156 " clip-rule="nonzero"/></clipPath><clipPath id="dc295dbc1d"><path d="M 171.574219 175.628906 L 170.261719 157.425781 L 188.46875 156.113281 L 189.777344 174.320312 Z M 171.574219 175.628906 " clip-rule="nonzero"/></clipPath><clipPath id="fbae40145e"><path d="M 189.777344 174.320312 C 184.984375 174.664062 180.15625 173.058594 176.519531 169.914062 C 172.886719 166.765625 170.605469 162.21875 170.261719 157.425781 L 179.550781 156.753906 C 179.71875 159.105469 180.835938 161.332031 182.617188 162.871094 C 184.394531 164.414062 186.761719 165.199219 189.109375 165.03125 Z M 189.777344 174.320312 " clip-rule="nonzero"/></clipPath><clipPath id="260515ac4a"><path d="M 0.160156 0.71875 L 19.839844 0.71875 L 19.839844 18.71875 L 0.160156 18.71875 Z M 0.160156 0.71875 " clip-rule="nonzero"/></clipPath><clipPath id="7814abbd5e"><path d="M 1.574219 19.628906 L 0.261719 1.425781 L 18.46875 0.113281 L 19.777344 18.320312 Z M 1.574219 19.628906 " clip-rule="nonzero"/></clipPath><clipPath id="39674fcd12"><path d="M 19.777344 18.320312 C 14.984375 18.664062 10.15625 17.058594 6.519531 13.914062 C 2.886719 10.765625 0.605469 6.21875 0.261719 1.425781 L 9.550781 0.753906 C 9.71875 3.105469 10.835938 5.332031 12.617188 6.871094 C 14.394531 8.414062 16.761719 9.199219 19.109375 9.03125 Z M 19.777344 18.320312 " clip-rule="nonzero"/></clipPath><clipPath id="79d5d1424c"><rect x="0" width="20" y="0" height="19"/></clipPath><clipPath id="d4170f1882"><path d="M 219.660156 170.039062 L 238.4375 170.039062 L 238.4375 189.699219 L 219.660156 189.699219 Z M 219.660156 170.039062 " clip-rule="nonzero"/></clipPath><clipPath id="211ca8bf8b"><path d="M 238.4375 170.09375 C 238.4375 175.257812 236.433594 180.304688 232.9375 183.957031 C 229.441406 187.605469 224.605469 189.699219 219.660156 189.699219 L 219.660156 179.695312 C 222.082031 179.695312 224.449219 178.671875 226.164062 176.882812 C 227.875 175.097656 228.855469 172.625 228.855469 170.09375 Z M 238.4375 170.09375 " clip-rule="nonzero"/></clipPath><clipPath id="99f73e4691"><path d="M 0.660156 0.0390625 L 19.4375 0.0390625 L 19.4375 19.699219 L 0.660156 19.699219 Z M 0.660156 0.0390625 " clip-rule="nonzero"/></clipPath><clipPath id="f1c5e29f36"><path d="M 19.4375 0.09375 C 19.4375 5.257812 17.433594 10.304688 13.9375 13.957031 C 10.441406 17.605469 5.605469 19.699219 0.660156 19.699219 L 0.660156 9.695312 C 3.082031 9.695312 5.449219 8.671875 7.164062 6.882812 C 8.875 5.097656 9.855469 2.625 9.855469 0.09375 Z M 19.4375 0.09375 " clip-rule="nonzero"/></clipPath><clipPath id="b34ba7a7b2"><rect x="0" width="20" y="0" height="20"/></clipPath><clipPath id="f19db77f26"><path d="M 206.738281 150.078125 L 238.441406 150.078125 L 238.441406 171.003906 L 206.738281 171.003906 Z M 206.738281 150.078125 " clip-rule="nonzero"/></clipPath><clipPath id="70a14c1aaf"><path d="M 0.738281 0.078125 L 32.441406 0.078125 L 32.441406 21.003906 L 0.738281 21.003906 Z M 0.738281 0.078125 " clip-rule="nonzero"/></clipPath><clipPath id="82d7b6ef38"><rect x="0" width="33" y="0" height="22"/></clipPath><clipPath id="fb35c1d95a"><path d="M 205.683594 203.636719 L 238.492188 203.636719 L 238.492188 236.703125 L 205.683594 236.703125 Z M 205.683594 203.636719 " clip-rule="nonzero"/></clipPath><clipPath id="e94a81ba08"><path d="M 238.492188 211.136719 L 238.492188 229.117188 C 238.492188 233.261719 235.132812 236.617188 230.992188 236.617188 L 213.183594 236.617188 C 209.039062 236.617188 205.683594 233.261719 205.683594 229.117188 L 205.683594 211.136719 C 205.683594 206.996094 209.039062 203.636719 213.183594 203.636719 L 230.992188 203.636719 C 235.132812 203.636719 238.492188 206.996094 238.492188 211.136719 Z M 238.492188 211.136719 " clip-rule="nonzero"/></clipPath><clipPath id="4b1aea6d2e"><path d="M 0.683594 0.636719 L 33.492188 0.636719 L 33.492188 33.640625 L 0.683594 33.640625 Z M 0.683594 0.636719 " clip-rule="nonzero"/></clipPath><clipPath id="2ad4ea802e"><path d="M 33.492188 8.136719 L 33.492188 26.117188 C 33.492188 30.261719 30.132812 33.617188 25.992188 33.617188 L 8.183594 33.617188 C 4.039062 33.617188 0.683594 30.261719 0.683594 26.117188 L 0.683594 8.136719 C 0.683594 3.996094 4.039062 0.636719 8.183594 0.636719 L 25.992188 0.636719 C 30.132812 0.636719 33.492188 3.996094 33.492188 8.136719 Z M 33.492188 8.136719 " clip-rule="nonzero"/></clipPath><clipPath id="757774fbf0"><rect x="0" width="34" y="0" height="34"/></clipPath></defs><rect x="-37.5" width="450" fill="#ffffff" y="-37.499999" height="449.999989" fill-opacity="1"/><rect x="-37.5" width="450" fill="#e2a03b" y="-37.499999" height="449.999989" fill-opacity="1"/><g clip-path="url(#520caffa34)"><g clip-path="url(#7e46233e7f)"><g transform="matrix(1, 0, 0, 1, 147, 109)"><g clip-path="url(#8b7ea539bf)"><g clip-path="url(#9ecedc4881)"><g clip-path="url(#292c6e6810)"><path fill="#392110" d="M 33.011719 0.496094 L 33.011719 156.515625 L 0.246094 156.515625 L 0.246094 0.496094 Z M 33.011719 0.496094 " fill-opacity="1" fill-rule="nonzero"/></g></g></g></g></g></g><g clip-path="url(#7ea62de0c8)"><g clip-path="url(#25c03693a0)"><g transform="matrix(1, 0, 0, 1, 114, 173)"><g clip-path="url(#2bac9ba489)"><g clip-path="url(#e653b2bd9f)"><g clip-path="url(#fb874656ed)"><path fill="#392110" d="M 65.5625 34.582031 L 1.003906 34.582031 L 1.003906 0.921875 L 65.5625 0.921875 Z M 65.5625 34.582031 " fill-opacity="1" fill-rule="nonzero"/></g></g></g></g></g></g><g clip-path="url(#0f9830a471)"><g clip-path="url(#5f7d57eb40)"><g transform="matrix(1, 0, 0, 1, 205, 109)"><g clip-path="url(#1a6b0af9d3)"><g clip-path="url(#501cbd89e5)"><g clip-path="url(#e3eee06e37)"><path fill="#392110" d="M 0.679688 68.527344 L 0.679688 0.449219 L 33.441406 0.449219 L 33.441406 68.527344 Z M 0.679688 68.527344 " fill-opacity="1" fill-rule="nonzero"/></g></g></g></g></g></g><g clip-path="url(#225adc83c0)"><g clip-path="url(#fbfb369436)"><g transform="matrix(1, 0, 0, 1, 166, 164)"><g clip-path="url(#cfd8893eb9)"><g clip-path="url(#b74428e811)"><g clip-path="url(#c55ad6c311)"><path fill="#392110" d="M 64.644531 25.695312 L 0.03125 25.695312 L 0.03125 0.746094 L 64.644531 0.746094 Z M 64.644531 25.695312 " fill-opacity="1" fill-rule="nonzero"/></g></g></g></g></g></g><g clip-path="url(#0abbc3f97b)"><g clip-path="url(#e3f5f3a745)"><g transform="matrix(1, 0, 0, 1, 205, 203)"><g clip-path="url(#448e58a4af)"><g clip-path="url(#a4fe636efd)"><g clip-path="url(#967c4840db)"><path fill="#392110" d="M 0.839844 62.492188 L 0.839844 0.820312 L 33.664062 0.820312 L 33.664062 62.492188 Z M 0.839844 62.492188 " fill-opacity="1" fill-rule="nonzero"/></g></g></g></g></g></g><g clip-path="url(#44a6ee005f)"><g clip-path="url(#66e7b49ca9)"><g clip-path="url(#317329e76e)"><g transform="matrix(1, 0, 0, 1, 134, 168)"><g clip-path="url(#2005b1f504)"><g clip-path="url(#27778614fb)"><g clip-path="url(#7afcae8c68)"><g clip-path="url(#8d27e76e72)"><path fill="#392110" d="M 18.03125 20.277344 L 0.421875 15.484375 L 5.214844 -2.128906 L 22.828125 2.667969 Z M 18.03125 20.277344 " fill-opacity="1" fill-rule="nonzero"/></g></g></g></g></g></g></g></g><g clip-path="url(#eec54bc9e1)"><g clip-path="url(#21b9834d1f)"><g clip-path="url(#9aaa6b8c01)"><g transform="matrix(1, 0, 0, 1, 139, 197)"><g clip-path="url(#982c07b7e5)"><g clip-path="url(#761fc0aa83)"><g clip-path="url(#476e371b7b)"><g clip-path="url(#a088eae13a)"><path fill="#392110" d="M 19.734375 2.566406 L 17.640625 20.699219 L -0.488281 18.605469 L 1.601562 0.472656 Z M 19.734375 2.566406 " fill-opacity="1" fill-rule="nonzero"/></g></g></g></g></g></g></g></g><g clip-path="url(#14fa0d8419)"><g clip-path="url(#b7de408b19)"><g transform="matrix(1, 0, 0, 1, 170, 179)"><g clip-path="url(#1fbbbc640b)"><g clip-path="url(#99abc19a57)"><g clip-path="url(#85bd2393b7)"><path fill="#392110" d="M 0.445312 0.777344 L 18.695312 0.777344 L 18.695312 19.027344 L 0.445312 19.027344 Z M 0.445312 0.777344 " fill-opacity="1" fill-rule="nonzero"/></g></g></g></g></g></g><g clip-path="url(#36f5ba5158)"><g clip-path="url(#dc295dbc1d)"><g clip-path="url(#fbae40145e)"><g transform="matrix(1, 0, 0, 1, 170, 156)"><g clip-path="url(#79d5d1424c)"><g clip-path="url(#260515ac4a)"><g clip-path="url(#7814abbd5e)"><g clip-path="url(#39674fcd12)"><path fill="#392110" d="M 1.574219 19.628906 L 0.261719 1.425781 L 18.46875 0.113281 L 19.777344 18.320312 Z M 1.574219 19.628906 " fill-opacity="1" fill-rule="nonzero"/></g></g></g></g></g></g></g></g><g clip-path="url(#d4170f1882)"><g clip-path="url(#211ca8bf8b)"><g transform="matrix(1, 0, 0, 1, 219, 170)"><g clip-path="url(#b34ba7a7b2)"><g clip-path="url(#99f73e4691)"><g clip-path="url(#f1c5e29f36)"><path fill="#392110" d="M 19.4375 19.699219 L 0.660156 19.699219 L 0.660156 0.113281 L 19.4375 0.113281 Z M 19.4375 19.699219 " fill-opacity="1" fill-rule="nonzero"/></g></g></g></g></g></g><g clip-path="url(#f19db77f26)"><g transform="matrix(1, 0, 0, 1, 206, 150)"><g clip-path="url(#82d7b6ef38)"><g clip-path="url(#70a14c1aaf)"><path fill="#392110" d="M 0.738281 0.078125 L 32.453125 0.078125 L 32.453125 21.003906 L 0.738281 21.003906 Z M 0.738281 0.078125 " fill-opacity="1" fill-rule="nonzero"/></g></g></g></g><g clip-path="url(#fb35c1d95a)"><g clip-path="url(#e94a81ba08)"><g transform="matrix(1, 0, 0, 1, 205, 203)"><g clip-path="url(#757774fbf0)"><g clip-path="url(#4b1aea6d2e)"><g clip-path="url(#2ad4ea802e)"><path fill="#392110" d="M 0.683594 0.636719 L 33.492188 0.636719 L 33.492188 33.574219 L 0.683594 33.574219 Z M 0.683594 0.636719 " fill-opacity="1" fill-rule="nonzero"/></g></g></g></g></g></g></svg>