<svg xmlns="http://www.w3.org/2000/svg" xmlns:xlink="http://www.w3.org/1999/xlink" width="512" zoomAndPan="magnify" viewBox="0 0 384 383.999986" height="512" preserveAspectRatio="xMidYMid meet" version="1.0"><defs><clipPath id="b3f72a6d91"><path d="M 0 0 L 383.964844 0 L 383.964844 384 L 0 384 Z M 0 0 " clip-rule="nonzero"/></clipPath><clipPath id="462bca420d"><path d="M 383.964844 38.398438 L 383.964844 345.601562 C 383.964844 355.785156 379.921875 365.554688 372.71875 372.753906 C 365.519531 379.953125 355.753906 384 345.570312 384 L 38.398438 384 C 28.214844 384 18.445312 379.953125 11.246094 372.753906 C 4.046875 365.554688 0 355.785156 0 345.601562 L 0 38.398438 C 0 17.191406 17.191406 0 38.398438 0 L 345.570312 0 C 355.753906 0 365.519531 4.046875 372.71875 11.246094 C 379.921875 18.445312 383.964844 28.214844 383.964844 38.398438 Z M 383.964844 38.398438 " clip-rule="nonzero"/></clipPath><clipPath id="e77b2bb580"><path d="M 0 0 L 383.964844 0 L 383.964844 384 L 0 384 Z M 0 0 " clip-rule="nonzero"/></clipPath><clipPath id="5513bf87e6"><path d="M 383.964844 38.398438 L 383.964844 345.601562 C 383.964844 355.785156 379.921875 365.554688 372.71875 372.753906 C 365.519531 379.953125 355.753906 384 345.570312 384 L 38.398438 384 C 28.214844 384 18.445312 379.953125 11.246094 372.753906 C 4.046875 365.554688 0 355.785156 0 345.601562 L 0 38.398438 C 0 17.191406 17.191406 0 38.398438 0 L 345.570312 0 C 355.753906 0 365.519531 4.046875 372.71875 11.246094 C 379.921875 18.445312 383.964844 28.214844 383.964844 38.398438 Z M 383.964844 38.398438 " clip-rule="nonzero"/></clipPath><clipPath id="8b5d4e48a8"><rect x="0" width="384" y="0" height="384"/></clipPath><clipPath id="ca990730de"><path d="M 52.636719 0.988281 L 105.148438 0.988281 L 105.148438 251.03125 L 52.636719 251.03125 Z M 52.636719 0.988281 " clip-rule="nonzero"/></clipPath><clipPath id="4aabbb9884"><path d="M 105.148438 27.242188 L 105.148438 224.746094 C 105.148438 231.710938 102.378906 238.386719 97.457031 243.3125 C 92.53125 248.234375 85.855469 251.003906 78.890625 251.003906 C 71.929688 251.003906 65.25 248.234375 60.324219 243.3125 C 55.402344 238.386719 52.636719 231.710938 52.636719 224.746094 L 52.636719 27.242188 C 52.636719 20.277344 55.402344 13.601562 60.324219 8.675781 C 65.25 3.753906 71.929688 0.988281 78.890625 0.988281 C 85.855469 0.988281 92.53125 3.753906 97.457031 8.675781 C 102.378906 13.601562 105.148438 20.277344 105.148438 27.242188 Z M 105.148438 27.242188 " clip-rule="nonzero"/></clipPath><clipPath id="ed6eeb3cad"><path d="M 0.636719 0.988281 L 53.148438 0.988281 L 53.148438 251.03125 L 0.636719 251.03125 Z M 0.636719 0.988281 " clip-rule="nonzero"/></clipPath><clipPath id="65ed426fbc"><path d="M 53.148438 27.242188 L 53.148438 224.746094 C 53.148438 231.710938 50.378906 238.386719 45.457031 243.3125 C 40.53125 248.234375 33.855469 251.003906 26.890625 251.003906 C 19.929688 251.003906 13.25 248.234375 8.324219 243.3125 C 3.402344 238.386719 0.636719 231.710938 0.636719 224.746094 L 0.636719 27.242188 C 0.636719 20.277344 3.402344 13.601562 8.324219 8.675781 C 13.25 3.753906 19.929688 0.988281 26.890625 0.988281 C 33.855469 0.988281 40.53125 3.753906 45.457031 8.675781 C 50.378906 13.601562 53.148438 20.277344 53.148438 27.242188 Z M 53.148438 27.242188 " clip-rule="nonzero"/></clipPath><clipPath id="34ea779e7c"><rect x="0" width="54" y="0" height="252"/></clipPath><clipPath id="1d1020a3b9"><path d="M 0.757812 104.238281 L 104.429688 104.238281 L 104.429688 158.179688 L 0.757812 158.179688 Z M 0.757812 104.238281 " clip-rule="nonzero"/></clipPath><clipPath id="8385c674e1"><path d="M 77.457031 158.179688 L 27.90625 158.179688 C 20.753906 158.179688 13.890625 155.339844 8.832031 150.28125 C 3.777344 145.222656 0.933594 138.363281 0.933594 131.210938 C 0.933594 124.054688 3.777344 117.195312 8.832031 112.136719 C 13.890625 107.078125 20.753906 104.238281 27.90625 104.238281 L 77.457031 104.238281 C 84.613281 104.238281 91.472656 107.078125 96.53125 112.136719 C 101.589844 117.195312 104.429688 124.054688 104.429688 131.210938 C 104.429688 138.363281 101.589844 145.222656 96.53125 150.28125 C 91.472656 155.339844 84.613281 158.179688 77.457031 158.179688 Z M 77.457031 158.179688 " clip-rule="nonzero"/></clipPath><clipPath id="f9a772a15c"><path d="M 0.921875 0.238281 L 104.429688 0.238281 L 104.429688 54.179688 L 0.921875 54.179688 Z M 0.921875 0.238281 " clip-rule="nonzero"/></clipPath><clipPath id="170e6cc0d7"><path d="M 77.457031 54.179688 L 27.90625 54.179688 C 20.753906 54.179688 13.890625 51.339844 8.832031 46.28125 C 3.777344 41.222656 0.933594 34.363281 0.933594 27.210938 C 0.933594 20.054688 3.777344 13.195312 8.832031 8.136719 C 13.890625 3.078125 20.753906 0.238281 27.90625 0.238281 L 77.457031 0.238281 C 84.613281 0.238281 91.472656 3.078125 96.53125 8.136719 C 101.589844 13.195312 104.429688 20.054688 104.429688 27.210938 C 104.429688 34.363281 101.589844 41.222656 96.53125 46.28125 C 91.472656 51.339844 84.613281 54.179688 77.457031 54.179688 Z M 77.457031 54.179688 " clip-rule="nonzero"/></clipPath><clipPath id="12d7ccdafb"><rect x="0" width="105" y="0" height="55"/></clipPath><clipPath id="ec43bf33ba"><path d="M 146.277344 0.914062 L 198.777344 0.914062 L 198.777344 110.019531 L 146.277344 110.019531 Z M 146.277344 0.914062 " clip-rule="nonzero"/></clipPath><clipPath id="88e306a3c7"><path d="M 146.277344 83.765625 L 146.277344 27.234375 C 146.277344 20.273438 149.042969 13.597656 153.964844 8.671875 C 158.886719 3.75 165.566406 0.984375 172.527344 0.984375 C 179.488281 0.984375 186.167969 3.75 191.089844 8.671875 C 196.011719 13.597656 198.777344 20.273438 198.777344 27.234375 L 198.777344 83.765625 C 198.777344 90.730469 196.011719 97.40625 191.089844 102.328125 C 186.167969 107.253906 179.488281 110.019531 172.527344 110.019531 C 165.566406 110.019531 158.886719 107.253906 153.964844 102.328125 C 149.042969 97.40625 146.277344 90.730469 146.277344 83.765625 Z M 146.277344 83.765625 " clip-rule="nonzero"/></clipPath><clipPath id="3a637b6367"><path d="M 0.277344 0.960938 L 52.777344 0.960938 L 52.777344 110.019531 L 0.277344 110.019531 Z M 0.277344 0.960938 " clip-rule="nonzero"/></clipPath><clipPath id="e3a3371abf"><path d="M 0.277344 83.765625 L 0.277344 27.234375 C 0.277344 20.273438 3.042969 13.597656 7.964844 8.671875 C 12.886719 3.75 19.566406 0.984375 26.527344 0.984375 C 33.488281 0.984375 40.167969 3.75 45.089844 8.671875 C 50.011719 13.597656 52.777344 20.273438 52.777344 27.234375 L 52.777344 83.765625 C 52.777344 90.730469 50.011719 97.40625 45.089844 102.328125 C 40.167969 107.253906 33.488281 110.019531 26.527344 110.019531 C 19.566406 110.019531 12.886719 107.253906 7.964844 102.328125 C 3.042969 97.40625 0.277344 90.730469 0.277344 83.765625 Z M 0.277344 83.765625 " clip-rule="nonzero"/></clipPath><clipPath id="febd3c6c74"><rect x="0" width="53" y="0" height="111"/></clipPath><clipPath id="b800c54f0a"><path d="M 82.746094 89.539062 L 186.296875 89.539062 L 186.296875 129.523438 L 82.746094 129.523438 Z M 82.746094 89.539062 " clip-rule="nonzero"/></clipPath><clipPath id="d99b0e4789"><path d="M 166.304688 129.523438 L 102.792969 129.523438 C 91.75 129.523438 82.800781 120.574219 82.800781 109.53125 C 82.800781 98.488281 91.75 89.539062 102.792969 89.539062 L 166.304688 89.539062 C 177.347656 89.539062 186.296875 98.488281 186.296875 109.53125 C 186.296875 120.574219 177.347656 129.523438 166.304688 129.523438 Z M 166.304688 129.523438 " clip-rule="nonzero"/></clipPath><clipPath id="abb1c50170"><path d="M 0.761719 0.539062 L 104.296875 0.539062 L 104.296875 40.523438 L 0.761719 40.523438 Z M 0.761719 0.539062 " clip-rule="nonzero"/></clipPath><clipPath id="c05d3e4b23"><path d="M 84.304688 40.523438 L 20.792969 40.523438 C 9.75 40.523438 0.800781 31.574219 0.800781 20.53125 C 0.800781 9.488281 9.75 0.539062 20.792969 0.539062 L 84.304688 0.539062 C 95.347656 0.539062 104.296875 9.488281 104.296875 20.53125 C 104.296875 31.574219 95.347656 40.523438 84.304688 40.523438 Z M 84.304688 40.523438 " clip-rule="nonzero"/></clipPath><clipPath id="af42cddda6"><rect x="0" width="105" y="0" height="41"/></clipPath><clipPath id="523f0b11a8"><path d="M 146.53125 152 L 199.132812 152 L 199.132812 251 L 146.53125 251 Z M 146.53125 152 " clip-rule="nonzero"/></clipPath><clipPath id="5a4955ec8c"><path d="M 146.53125 224.699219 L 146.53125 178.429688 C 146.53125 171.453125 149.300781 164.761719 154.234375 159.828125 C 159.164062 154.898438 165.855469 152.125 172.832031 152.125 C 179.808594 152.125 186.496094 154.898438 191.429688 159.828125 C 196.363281 164.761719 199.132812 171.453125 199.132812 178.429688 L 199.132812 224.699219 C 199.132812 231.675781 196.363281 238.363281 191.429688 243.296875 C 186.496094 248.230469 179.808594 251 172.832031 251 C 165.855469 251 159.164062 248.230469 154.234375 243.296875 C 149.300781 238.363281 146.53125 231.675781 146.53125 224.699219 Z M 146.53125 224.699219 " clip-rule="nonzero"/></clipPath><clipPath id="a324d389cc"><path d="M 0.53125 0 L 53.132812 0 L 53.132812 99 L 0.53125 99 Z M 0.53125 0 " clip-rule="nonzero"/></clipPath><clipPath id="183ee8a5e2"><path d="M 0.53125 72.699219 L 0.53125 26.429688 C 0.53125 19.453125 3.300781 12.761719 8.234375 7.828125 C 13.164062 2.898438 19.855469 0.125 26.832031 0.125 C 33.808594 0.125 40.496094 2.898438 45.429688 7.828125 C 50.363281 12.761719 53.132812 19.453125 53.132812 26.429688 L 53.132812 72.699219 C 53.132812 79.675781 50.363281 86.363281 45.429688 91.296875 C 40.496094 96.230469 33.808594 99 26.832031 99 C 19.855469 99 13.164062 96.230469 8.234375 91.296875 C 3.300781 86.363281 0.53125 79.675781 0.53125 72.699219 Z M 0.53125 72.699219 " clip-rule="nonzero"/></clipPath><clipPath id="d9b5beefd4"><rect x="0" width="54" y="0" height="99"/></clipPath><clipPath id="02e6cd00af"><path d="M 32 95 L 68 95 L 68 121 L 32 121 Z M 32 95 " clip-rule="nonzero"/></clipPath><clipPath id="8a93d4944c"><path d="M 60.304688 127.253906 L 32.078125 119.566406 L 39.765625 91.34375 L 67.988281 99.027344 Z M 60.304688 127.253906 " clip-rule="nonzero"/></clipPath><clipPath id="2584608638"><path d="M 67.988281 99.027344 C 65.964844 106.460938 60.976562 112.910156 54.289062 116.734375 C 47.601562 120.558594 39.511719 121.589844 32.078125 119.566406 L 36 105.167969 C 39.640625 106.160156 43.601562 105.652344 46.878906 103.78125 C 50.15625 101.90625 52.597656 98.75 53.589844 95.105469 Z M 67.988281 99.027344 " clip-rule="nonzero"/></clipPath><clipPath id="03ca10272a"><path d="M 0 0.0390625 L 36 0.0390625 L 36 26 L 0 26 Z M 0 0.0390625 " clip-rule="nonzero"/></clipPath><clipPath id="4412f6ebdc"><path d="M 28.304688 32.253906 L 0.078125 24.566406 L 7.765625 -3.65625 L 35.988281 4.027344 Z M 28.304688 32.253906 " clip-rule="nonzero"/></clipPath><clipPath id="f660aaf1ca"><path d="M 35.988281 4.027344 C 33.964844 11.460938 28.976562 17.910156 22.289062 21.734375 C 15.601562 25.558594 7.511719 26.589844 0.078125 24.566406 L 4 10.167969 C 7.640625 11.160156 11.601562 10.652344 14.878906 8.78125 C 18.15625 6.90625 20.597656 3.75 21.589844 0.105469 Z M 35.988281 4.027344 " clip-rule="nonzero"/></clipPath><clipPath id="332f7586f1"><rect x="0" width="36" y="0" height="26"/></clipPath><clipPath id="5769595566"><path d="M 40 141 L 68 141 L 68 175 L 40 175 Z M 40 141 " clip-rule="nonzero"/></clipPath><clipPath id="8f1d9beb6d"><path d="M 71.046875 145.335938 L 67.695312 174.398438 L 38.632812 171.042969 L 41.988281 141.984375 Z M 71.046875 145.335938 " clip-rule="nonzero"/></clipPath><clipPath id="16425f6eee"><path d="M 41.988281 141.984375 C 49.640625 142.867188 56.765625 146.832031 61.554688 152.867188 C 66.339844 158.902344 68.578125 166.746094 67.695312 174.398438 L 52.867188 172.6875 C 53.300781 168.9375 52.207031 165.097656 49.863281 162.140625 C 47.515625 159.183594 44.027344 157.242188 40.277344 156.808594 Z M 41.988281 141.984375 " clip-rule="nonzero"/></clipPath><clipPath id="be067df557"><path d="M 0.0390625 0.839844 L 28 0.839844 L 28 33.480469 L 0.0390625 33.480469 Z M 0.0390625 0.839844 " clip-rule="nonzero"/></clipPath><clipPath id="9acffa235a"><path d="M 31.046875 4.335938 L 27.695312 33.398438 L -1.367188 30.042969 L 1.988281 0.984375 Z M 31.046875 4.335938 " clip-rule="nonzero"/></clipPath><clipPath id="b0ab372726"><path d="M 1.988281 0.984375 C 9.640625 1.867188 16.765625 5.832031 21.554688 11.867188 C 26.339844 17.902344 28.578125 25.746094 27.695312 33.398438 L 12.867188 31.6875 C 13.300781 27.9375 12.207031 24.097656 9.863281 21.140625 C 7.515625 18.183594 4.027344 16.242188 0.277344 15.808594 Z M 1.988281 0.984375 " clip-rule="nonzero"/></clipPath><clipPath id="2be74bc619"><rect x="0" width="28" y="0" height="34"/></clipPath><clipPath id="e2d996afba"><path d="M 89.808594 113.621094 L 119.058594 113.621094 L 119.058594 142.875 L 89.808594 142.875 Z M 89.808594 113.621094 " clip-rule="nonzero"/></clipPath><clipPath id="a34a6e7072"><path d="M 89.808594 142.875 C 89.808594 135.167969 92.925781 127.636719 98.375 122.1875 C 103.824219 116.742188 111.355469 113.621094 119.058594 113.621094 L 119.058594 128.542969 C 115.285156 128.542969 111.597656 130.074219 108.929688 132.742188 C 106.257812 135.410156 104.730469 139.101562 104.730469 142.875 Z M 89.808594 142.875 " clip-rule="nonzero"/></clipPath><clipPath id="158730dbec"><path d="M 0.808594 0.621094 L 30.058594 0.621094 L 30.058594 29.875 L 0.808594 29.875 Z M 0.808594 0.621094 " clip-rule="nonzero"/></clipPath><clipPath id="2a39055f34"><path d="M 0.808594 29.875 C 0.808594 22.167969 3.925781 14.636719 9.375 9.1875 C 14.824219 3.742188 22.355469 0.621094 30.058594 0.621094 L 30.058594 15.542969 C 26.285156 15.542969 22.597656 17.074219 19.929688 19.742188 C 17.257812 22.410156 15.730469 26.101562 15.730469 29.875 Z M 0.808594 29.875 " clip-rule="nonzero"/></clipPath><clipPath id="17388d463b"><rect x="0" width="31" y="0" height="30"/></clipPath><clipPath id="6fbe5e70fe"><path d="M 89 76 L 121 76 L 121 105 L 89 105 Z M 89 76 " clip-rule="nonzero"/></clipPath><clipPath id="b5970f6dec"><path d="M 91.617188 106.980469 L 89.515625 77.804688 L 118.691406 75.703125 L 120.792969 104.882812 Z M 91.617188 106.980469 " clip-rule="nonzero"/></clipPath><clipPath id="9ecd9e8e47"><path d="M 120.792969 104.882812 C 113.109375 105.433594 105.371094 102.863281 99.546875 97.820312 C 93.722656 92.777344 90.070312 85.488281 89.515625 77.804688 L 104.402344 76.734375 C 104.671875 80.496094 106.460938 84.066406 109.3125 86.539062 C 112.167969 89.007812 115.957031 90.265625 119.722656 89.996094 Z M 120.792969 104.882812 " clip-rule="nonzero"/></clipPath><clipPath id="7bdee7adde"><path d="M 0.480469 0.558594 L 31.921875 0.558594 L 31.921875 29 L 0.480469 29 Z M 0.480469 0.558594 " clip-rule="nonzero"/></clipPath><clipPath id="140ab01689"><path d="M 2.617188 30.980469 L 0.515625 1.804688 L 29.691406 -0.296875 L 31.792969 28.882812 Z M 2.617188 30.980469 " clip-rule="nonzero"/></clipPath><clipPath id="382fc4759a"><path d="M 31.792969 28.882812 C 24.109375 29.433594 16.371094 26.863281 10.546875 21.820312 C 4.722656 16.777344 1.070312 9.488281 0.515625 1.804688 L 15.402344 0.734375 C 15.671875 4.496094 17.460938 8.066406 20.3125 10.539062 C 23.167969 13.007812 26.957031 14.265625 30.722656 13.996094 Z M 31.792969 28.882812 " clip-rule="nonzero"/></clipPath><clipPath id="0b742d1e0b"><rect x="0" width="32" y="0" height="29"/></clipPath><clipPath id="931b1c9467"><path d="M 168.675781 98.015625 L 198.769531 98.015625 L 198.769531 129.523438 L 168.675781 129.523438 Z M 168.675781 98.015625 " clip-rule="nonzero"/></clipPath><clipPath id="db3861b896"><path d="M 198.769531 98.105469 C 198.769531 106.378906 195.558594 114.46875 189.957031 120.320312 C 184.351562 126.171875 176.601562 129.523438 168.675781 129.523438 L 168.675781 113.496094 C 172.558594 113.496094 176.355469 111.851562 179.101562 108.988281 C 181.84375 106.121094 183.417969 102.160156 183.417969 98.105469 Z M 198.769531 98.105469 " clip-rule="nonzero"/></clipPath><clipPath id="472510974a"><path d="M 0.675781 0.015625 L 30.769531 0.015625 L 30.769531 31.523438 L 0.675781 31.523438 Z M 0.675781 0.015625 " clip-rule="nonzero"/></clipPath><clipPath id="d745a14915"><path d="M 30.769531 0.105469 C 30.769531 8.378906 27.558594 16.46875 21.957031 22.320312 C 16.351562 28.171875 8.601562 31.523438 0.675781 31.523438 L 0.675781 15.496094 C 4.558594 15.496094 8.355469 13.851562 11.101562 10.988281 C 13.84375 8.121094 15.417969 4.160156 15.417969 0.105469 Z M 30.769531 0.105469 " clip-rule="nonzero"/></clipPath><clipPath id="8b3b9e9b23"><rect x="0" width="31" y="0" height="32"/></clipPath><clipPath id="c83cd90a03"><path d="M 147.972656 66.027344 L 198.785156 66.027344 L 198.785156 99.5625 L 147.972656 99.5625 Z M 147.972656 66.027344 " clip-rule="nonzero"/></clipPath><clipPath id="6bcbe1f947"><path d="M 0.972656 0.0273438 L 51.785156 0.0273438 L 51.785156 33.5625 L 0.972656 33.5625 Z M 0.972656 0.0273438 " clip-rule="nonzero"/></clipPath><clipPath id="6ff554a9c2"><rect x="0" width="52" y="0" height="34"/></clipPath><clipPath id="e9513183b2"><path d="M 146.28125 151.859375 L 198.859375 151.859375 L 198.859375 204.851562 L 146.28125 204.851562 Z M 146.28125 151.859375 " clip-rule="nonzero"/></clipPath><clipPath id="fa223b6a45"><path d="M 198.859375 159.359375 L 198.859375 197.21875 C 198.859375 201.359375 195.503906 204.71875 191.359375 204.71875 L 153.78125 204.71875 C 149.636719 204.71875 146.28125 201.359375 146.28125 197.21875 L 146.28125 159.359375 C 146.28125 155.21875 149.636719 151.859375 153.78125 151.859375 L 191.359375 151.859375 C 195.503906 151.859375 198.859375 155.21875 198.859375 159.359375 Z M 198.859375 159.359375 " clip-rule="nonzero"/></clipPath><clipPath id="70a2420697"><path d="M 0.28125 0.859375 L 52.859375 0.859375 L 52.859375 53.71875 L 0.28125 53.71875 Z M 0.28125 0.859375 " clip-rule="nonzero"/></clipPath><clipPath id="0628c2fa29"><path d="M 52.859375 8.359375 L 52.859375 46.21875 C 52.859375 50.359375 49.503906 53.71875 45.359375 53.71875 L 7.78125 53.71875 C 3.636719 53.71875 0.28125 50.359375 0.28125 46.21875 L 0.28125 8.359375 C 0.28125 4.21875 3.636719 0.859375 7.78125 0.859375 L 45.359375 0.859375 C 49.503906 0.859375 52.859375 4.21875 52.859375 8.359375 Z M 52.859375 8.359375 " clip-rule="nonzero"/></clipPath><clipPath id="506350a97c"><rect x="0" width="53" y="0" height="54"/></clipPath><clipPath id="7e5be950df"><rect x="0" width="200" y="0" height="252"/></clipPath></defs><g clip-path="url(#b3f72a6d91)"><g clip-path="url(#462bca420d)"><g><g clip-path="url(#8b5d4e48a8)"><g clip-path="url(#e77b2bb580)"><g clip-path="url(#5513bf87e6)"><path fill="#f2e9e1" d="M 0 0 L 383.964844 0 L 383.964844 383.964844 L 0 383.964844 Z M 0 0 " fill-opacity="1" fill-rule="nonzero"/></g></g></g></g></g></g><g transform="matrix(1, 0, 0, 1, 79, 66)"><g clip-path="url(#7e5be950df)"><g clip-path="url(#ca990730de)"><g clip-path="url(#4aabbb9884)"><g transform="matrix(1, 0, 0, 1, 52, 0)"><g clip-path="url(#34ea779e7c)"><g clip-path="url(#ed6eeb3cad)"><g clip-path="url(#65ed426fbc)"><path fill="#393552" d="M 53.148438 0.988281 L 53.148438 251.03125 L 0.636719 251.03125 L 0.636719 0.988281 Z M 53.148438 0.988281 " fill-opacity="1" fill-rule="nonzero"/></g></g></g></g></g></g><g clip-path="url(#1d1020a3b9)"><g clip-path="url(#8385c674e1)"><g transform="matrix(1, 0, 0, 1, 0, 104)"><g clip-path="url(#12d7ccdafb)"><g clip-path="url(#f9a772a15c)"><g clip-path="url(#170e6cc0d7)"><path fill="#393552" d="M 104.429688 54.179688 L 0.96875 54.179688 L 0.96875 0.238281 L 104.429688 0.238281 Z M 104.429688 54.179688 " fill-opacity="1" fill-rule="nonzero"/></g></g></g></g></g></g><g clip-path="url(#ec43bf33ba)"><g clip-path="url(#88e306a3c7)"><g transform="matrix(1, 0, 0, 1, 146, 0)"><g clip-path="url(#febd3c6c74)"><g clip-path="url(#3a637b6367)"><g clip-path="url(#e3a3371abf)"><path fill="#393552" d="M 0.277344 110.019531 L 0.277344 0.914062 L 52.777344 0.914062 L 52.777344 110.019531 Z M 0.277344 110.019531 " fill-opacity="1" fill-rule="nonzero"/></g></g></g></g></g></g><g clip-path="url(#b800c54f0a)"><g clip-path="url(#d99b0e4789)"><g transform="matrix(1, 0, 0, 1, 82, 89)"><g clip-path="url(#af42cddda6)"><g clip-path="url(#abb1c50170)"><g clip-path="url(#c05d3e4b23)"><path fill="#393552" d="M 104.296875 40.523438 L 0.746094 40.523438 L 0.746094 0.539062 L 104.296875 0.539062 Z M 104.296875 40.523438 " fill-opacity="1" fill-rule="nonzero"/></g></g></g></g></g></g><g clip-path="url(#523f0b11a8)"><g clip-path="url(#5a4955ec8c)"><g transform="matrix(1, 0, 0, 1, 146, 152)"><g clip-path="url(#d9b5beefd4)"><g clip-path="url(#a324d389cc)"><g clip-path="url(#183ee8a5e2)"><path fill="#393552" d="M 0.53125 99 L 0.53125 0.164062 L 53.132812 0.164062 L 53.132812 99 Z M 0.53125 99 " fill-opacity="1" fill-rule="nonzero"/></g></g></g></g></g></g><g clip-path="url(#02e6cd00af)"><g clip-path="url(#8a93d4944c)"><g clip-path="url(#2584608638)"><g transform="matrix(1, 0, 0, 1, 32, 95)"><g clip-path="url(#332f7586f1)"><g clip-path="url(#03ca10272a)"><g clip-path="url(#4412f6ebdc)"><g clip-path="url(#f660aaf1ca)"><path fill="#393552" d="M 28.304688 32.253906 L 0.078125 24.566406 L 7.765625 -3.65625 L 35.988281 4.027344 Z M 28.304688 32.253906 " fill-opacity="1" fill-rule="nonzero"/></g></g></g></g></g></g></g></g><g clip-path="url(#5769595566)"><g clip-path="url(#8f1d9beb6d)"><g clip-path="url(#16425f6eee)"><g transform="matrix(1, 0, 0, 1, 40, 141)"><g clip-path="url(#2be74bc619)"><g clip-path="url(#be067df557)"><g clip-path="url(#9acffa235a)"><g clip-path="url(#b0ab372726)"><path fill="#393552" d="M 31.046875 4.335938 L 27.695312 33.398438 L -1.367188 30.042969 L 1.988281 0.984375 Z M 31.046875 4.335938 " fill-opacity="1" fill-rule="nonzero"/></g></g></g></g></g></g></g></g><g clip-path="url(#e2d996afba)"><g clip-path="url(#a34a6e7072)"><g transform="matrix(1, 0, 0, 1, 89, 113)"><g clip-path="url(#17388d463b)"><g clip-path="url(#158730dbec)"><g clip-path="url(#2a39055f34)"><path fill="#393552" d="M 0.808594 0.621094 L 30.058594 0.621094 L 30.058594 29.875 L 0.808594 29.875 Z M 0.808594 0.621094 " fill-opacity="1" fill-rule="nonzero"/></g></g></g></g></g></g><g clip-path="url(#6fbe5e70fe)"><g clip-path="url(#b5970f6dec)"><g clip-path="url(#9ecd9e8e47)"><g transform="matrix(1, 0, 0, 1, 89, 76)"><g clip-path="url(#0b742d1e0b)"><g clip-path="url(#7bdee7adde)"><g clip-path="url(#140ab01689)"><g clip-path="url(#382fc4759a)"><path fill="#393552" d="M 2.617188 30.980469 L 0.515625 1.804688 L 29.691406 -0.296875 L 31.792969 28.882812 Z M 2.617188 30.980469 " fill-opacity="1" fill-rule="nonzero"/></g></g></g></g></g></g></g></g><g clip-path="url(#931b1c9467)"><g clip-path="url(#db3861b896)"><g transform="matrix(1, 0, 0, 1, 168, 98)"><g clip-path="url(#8b3b9e9b23)"><g clip-path="url(#472510974a)"><g clip-path="url(#d745a14915)"><path fill="#393552" d="M 30.769531 31.523438 L 0.675781 31.523438 L 0.675781 0.132812 L 30.769531 0.132812 Z M 30.769531 31.523438 " fill-opacity="1" fill-rule="nonzero"/></g></g></g></g></g></g><g clip-path="url(#c83cd90a03)"><g transform="matrix(1, 0, 0, 1, 147, 66)"><g clip-path="url(#6ff554a9c2)"><g clip-path="url(#6bcbe1f947)"><path fill="#393552" d="M 0.972656 0.0273438 L 51.800781 0.0273438 L 51.800781 33.5625 L 0.972656 33.5625 Z M 0.972656 0.0273438 " fill-opacity="1" fill-rule="nonzero"/></g></g></g></g><g clip-path="url(#e9513183b2)"><g clip-path="url(#fa223b6a45)"><g transform="matrix(1, 0, 0, 1, 146, 151)"><g clip-path="url(#506350a97c)"><g clip-path="url(#70a2420697)"><g clip-path="url(#0628c2fa29)"><path fill="#393552" d="M 0.28125 0.859375 L 52.859375 0.859375 L 52.859375 53.648438 L 0.28125 53.648438 Z M 0.28125 0.859375 " fill-opacity="1" fill-rule="nonzero"/></g></g></g></g></g></g></g></g></svg>