<svg xmlns="http://www.w3.org/2000/svg" xmlns:xlink="http://www.w3.org/1999/xlink" width="500" zoomAndPan="magnify" viewBox="0 0 375 374.999991" height="500" preserveAspectRatio="xMidYMid meet" version="1.0"><defs><clipPath id="bdb057477f"><path d="M 42.949219 53.195312 L 332.542969 53.195312 L 332.542969 321.804688 L 42.949219 321.804688 Z M 42.949219 53.195312 " clip-rule="nonzero"/></clipPath><clipPath id="7a4520c69f"><path d="M 332.027344 90.691406 L 332.027344 284.308594 C 332.027344 305.015625 315.238281 321.804688 294.53125 321.804688 L 80.445312 321.804688 C 59.734375 321.804688 42.949219 305.015625 42.949219 284.308594 L 42.949219 90.691406 C 42.949219 69.984375 59.734375 53.195312 80.445312 53.195312 L 294.53125 53.195312 C 315.238281 53.195312 332.027344 69.984375 332.027344 90.691406 Z M 332.027344 90.691406 " clip-rule="nonzero"/></clipPath><clipPath id="ec63e495f0"><path d="M 0.949219 0.195312 L 290.160156 0.195312 L 290.160156 268.804688 L 0.949219 268.804688 Z M 0.949219 0.195312 " clip-rule="nonzero"/></clipPath><clipPath id="39c8a6c23e"><path d="M 290.027344 37.691406 L 290.027344 231.308594 C 290.027344 252.015625 273.238281 268.804688 252.53125 268.804688 L 38.445312 268.804688 C 17.734375 268.804688 0.949219 252.015625 0.949219 231.308594 L 0.949219 37.691406 C 0.949219 16.984375 17.734375 0.195312 38.445312 0.195312 L 252.53125 0.195312 C 273.238281 0.195312 290.027344 16.984375 290.027344 37.691406 Z M 290.027344 37.691406 " clip-rule="nonzero"/></clipPath><clipPath id="14a948b123"><rect x="0" width="291" y="0" height="269"/></clipPath><clipPath id="24ebfe6c6c"><path d="M 142.285156 99.792969 L 179.128906 99.792969 L 179.128906 275.21875 L 142.285156 275.21875 Z M 142.285156 99.792969 " clip-rule="nonzero"/></clipPath><clipPath id="53b7d680fe"><path d="M 179.128906 118.214844 L 179.128906 256.78125 C 179.128906 261.664062 177.1875 266.351562 173.734375 269.804688 C 170.277344 273.257812 165.59375 275.199219 160.707031 275.199219 C 155.820312 275.199219 151.136719 273.257812 147.683594 269.804688 C 144.226562 266.351562 142.285156 261.664062 142.285156 256.78125 L 142.285156 118.214844 C 142.285156 113.328125 144.226562 108.640625 147.683594 105.1875 C 151.136719 101.734375 155.820312 99.792969 160.707031 99.792969 C 165.59375 99.792969 170.277344 101.734375 173.734375 105.1875 C 177.1875 108.640625 179.128906 113.328125 179.128906 118.214844 Z M 179.128906 118.214844 " clip-rule="nonzero"/></clipPath><clipPath id="ecd7c69c9f"><path d="M 0.285156 0.792969 L 37.128906 0.792969 L 37.128906 176.21875 L 0.285156 176.21875 Z M 0.285156 0.792969 " clip-rule="nonzero"/></clipPath><clipPath id="bdac4589f1"><path d="M 37.128906 19.214844 L 37.128906 157.78125 C 37.128906 162.664062 35.1875 167.351562 31.734375 170.804688 C 28.277344 174.257812 23.59375 176.199219 18.707031 176.199219 C 13.820312 176.199219 9.136719 174.257812 5.683594 170.804688 C 2.226562 167.351562 0.285156 162.664062 0.285156 157.78125 L 0.285156 19.214844 C 0.285156 14.328125 2.226562 9.640625 5.683594 6.1875 C 9.136719 2.734375 13.820312 0.792969 18.707031 0.792969 C 23.59375 0.792969 28.277344 2.734375 31.734375 6.1875 C 35.1875 9.640625 37.128906 14.328125 37.128906 19.214844 Z M 37.128906 19.214844 " clip-rule="nonzero"/></clipPath><clipPath id="0d77178496"><rect x="0" width="38" y="0" height="177"/></clipPath><clipPath id="f2758ce5ad"><path d="M 106 172.230469 L 178.625 172.230469 L 178.625 210.078125 L 106 210.078125 Z M 106 172.230469 " clip-rule="nonzero"/></clipPath><clipPath id="d1d0db7dc9"><path d="M 159.703125 210.078125 L 124.9375 210.078125 C 119.917969 210.078125 115.105469 208.085938 111.554688 204.535156 C 108.007812 200.988281 106.011719 196.171875 106.011719 191.15625 C 106.011719 186.136719 108.007812 181.324219 111.554688 177.773438 C 115.105469 174.226562 119.917969 172.230469 124.9375 172.230469 L 159.703125 172.230469 C 164.71875 172.230469 169.535156 174.226562 173.082031 177.773438 C 176.632812 181.324219 178.625 186.136719 178.625 191.15625 C 178.625 196.171875 176.632812 200.988281 173.082031 204.535156 C 169.535156 208.085938 164.71875 210.078125 159.703125 210.078125 Z M 159.703125 210.078125 " clip-rule="nonzero"/></clipPath><clipPath id="d3ad005da3"><path d="M 0 0.230469 L 72.625 0.230469 L 72.625 38.078125 L 0 38.078125 Z M 0 0.230469 " clip-rule="nonzero"/></clipPath><clipPath id="6841b04167"><path d="M 53.703125 38.078125 L 18.9375 38.078125 C 13.917969 38.078125 9.105469 36.085938 5.554688 32.535156 C 2.007812 28.988281 0.0117188 24.171875 0.0117188 19.15625 C 0.0117188 14.136719 2.007812 9.324219 5.554688 5.773438 C 9.105469 2.226562 13.917969 0.230469 18.9375 0.230469 L 53.703125 0.230469 C 58.71875 0.230469 63.535156 2.226562 67.082031 5.773438 C 70.632812 9.324219 72.625 14.136719 72.625 19.15625 C 72.625 24.171875 70.632812 28.988281 67.082031 32.535156 C 63.535156 36.085938 58.71875 38.078125 53.703125 38.078125 Z M 53.703125 38.078125 " clip-rule="nonzero"/></clipPath><clipPath id="15e68917cb"><rect x="0" width="73" y="0" height="39"/></clipPath><clipPath id="836c01790c"><path d="M 207.984375 99.742188 L 244.816406 99.742188 L 244.816406 176.285156 L 207.984375 176.285156 Z M 207.984375 99.742188 " clip-rule="nonzero"/></clipPath><clipPath id="c80e83c1b6"><path d="M 207.984375 157.871094 L 207.984375 118.207031 C 207.984375 113.324219 209.925781 108.640625 213.378906 105.183594 C 216.832031 101.730469 221.515625 99.789062 226.402344 99.789062 C 231.285156 99.789062 235.96875 101.730469 239.425781 105.183594 C 242.878906 108.640625 244.816406 113.324219 244.816406 118.207031 L 244.816406 157.871094 C 244.816406 162.753906 242.878906 167.4375 239.425781 170.894531 C 235.96875 174.347656 231.285156 176.285156 226.402344 176.285156 C 221.515625 176.285156 216.832031 174.347656 213.378906 170.894531 C 209.925781 167.4375 207.984375 162.753906 207.984375 157.871094 Z M 207.984375 157.871094 " clip-rule="nonzero"/></clipPath><clipPath id="015c2bf615"><path d="M 0.984375 0.742188 L 37.816406 0.742188 L 37.816406 77.285156 L 0.984375 77.285156 Z M 0.984375 0.742188 " clip-rule="nonzero"/></clipPath><clipPath id="8994dcf928"><path d="M 0.984375 58.871094 L 0.984375 19.207031 C 0.984375 14.324219 2.925781 9.640625 6.378906 6.183594 C 9.832031 2.730469 14.515625 0.789062 19.402344 0.789062 C 24.285156 0.789062 28.96875 2.730469 32.425781 6.183594 C 35.878906 9.640625 37.816406 14.324219 37.816406 19.207031 L 37.816406 58.871094 C 37.816406 63.753906 35.878906 68.4375 32.425781 71.894531 C 28.96875 75.347656 24.285156 77.285156 19.402344 77.285156 C 14.515625 77.285156 9.832031 75.347656 6.378906 71.894531 C 2.925781 68.4375 0.984375 63.753906 0.984375 58.871094 Z M 0.984375 58.871094 " clip-rule="nonzero"/></clipPath><clipPath id="4d4a20ca27"><rect x="0" width="38" y="0" height="78"/></clipPath><clipPath id="bcbc3ec58a"><path d="M 163.410156 161.917969 L 236.0625 161.917969 L 236.0625 189.972656 L 163.410156 189.972656 Z M 163.410156 161.917969 " clip-rule="nonzero"/></clipPath><clipPath id="9bdd2bca00"><path d="M 222.035156 189.972656 L 177.476562 189.972656 C 169.730469 189.972656 163.449219 183.691406 163.449219 175.945312 C 163.449219 168.199219 169.730469 161.917969 177.476562 161.917969 L 222.035156 161.917969 C 229.78125 161.917969 236.0625 168.199219 236.0625 175.945312 C 236.0625 183.691406 229.78125 189.972656 222.035156 189.972656 Z M 222.035156 189.972656 " clip-rule="nonzero"/></clipPath><clipPath id="684367e041"><path d="M 0.441406 0.917969 L 73.0625 0.917969 L 73.0625 28.972656 L 0.441406 28.972656 Z M 0.441406 0.917969 " clip-rule="nonzero"/></clipPath><clipPath id="ec14a5e477"><path d="M 59.035156 28.972656 L 14.476562 28.972656 C 6.730469 28.972656 0.449219 22.691406 0.449219 14.945312 C 0.449219 7.199219 6.730469 0.917969 14.476562 0.917969 L 59.035156 0.917969 C 66.78125 0.917969 73.0625 7.199219 73.0625 14.945312 C 73.0625 22.691406 66.78125 28.972656 59.035156 28.972656 Z M 59.035156 28.972656 " clip-rule="nonzero"/></clipPath><clipPath id="858d35dce9"><rect x="0" width="74" y="0" height="29"/></clipPath><clipPath id="0c175f9436"><path d="M 208.160156 205.710938 L 245.066406 205.710938 L 245.066406 275.199219 L 208.160156 275.199219 Z M 208.160156 205.710938 " clip-rule="nonzero"/></clipPath><clipPath id="193b56849a"><path d="M 208.160156 256.746094 L 208.160156 224.28125 C 208.160156 219.390625 210.105469 214.695312 213.566406 211.234375 C 217.027344 207.773438 221.71875 205.828125 226.613281 205.828125 C 231.507812 205.828125 236.203125 207.773438 239.664062 211.234375 C 243.125 214.695312 245.066406 219.390625 245.066406 224.28125 L 245.066406 256.746094 C 245.066406 261.640625 243.125 266.332031 239.664062 269.792969 C 236.203125 273.253906 231.507812 275.199219 226.613281 275.199219 C 221.71875 275.199219 217.027344 273.253906 213.566406 269.792969 C 210.105469 266.332031 208.160156 261.640625 208.160156 256.746094 Z M 208.160156 256.746094 " clip-rule="nonzero"/></clipPath><clipPath id="e91305d1f5"><path d="M 0.160156 0.710938 L 37.066406 0.710938 L 37.066406 70.199219 L 0.160156 70.199219 Z M 0.160156 0.710938 " clip-rule="nonzero"/></clipPath><clipPath id="bace95caa1"><path d="M 0.160156 51.746094 L 0.160156 19.28125 C 0.160156 14.390625 2.105469 9.695312 5.566406 6.234375 C 9.027344 2.773438 13.71875 0.828125 18.613281 0.828125 C 23.507812 0.828125 28.203125 2.773438 31.664062 6.234375 C 35.125 9.695312 37.066406 14.390625 37.066406 19.28125 L 37.066406 51.746094 C 37.066406 56.640625 35.125 61.332031 31.664062 64.792969 C 28.203125 68.253906 23.507812 70.199219 18.613281 70.199219 C 13.71875 70.199219 9.027344 68.253906 5.566406 64.792969 C 2.105469 61.332031 0.160156 56.640625 0.160156 51.746094 Z M 0.160156 51.746094 " clip-rule="nonzero"/></clipPath><clipPath id="1178fae47d"><rect x="0" width="38" y="0" height="71"/></clipPath><clipPath id="0363e239c8"><path d="M 127 165 L 154 165 L 154 184 L 127 184 Z M 127 165 " clip-rule="nonzero"/></clipPath><clipPath id="4968a49c4d"><path d="M 147.667969 188.378906 L 127.863281 182.988281 L 133.257812 163.183594 L 153.058594 168.578125 Z M 147.667969 188.378906 " clip-rule="nonzero"/></clipPath><clipPath id="1fd0903e1c"><path d="M 153.058594 168.578125 C 151.640625 173.792969 148.136719 178.316406 143.445312 181 C 138.753906 183.683594 133.078125 184.40625 127.863281 182.988281 L 130.617188 172.882812 C 133.167969 173.582031 135.949219 173.226562 138.246094 171.910156 C 140.546875 170.597656 142.261719 168.378906 142.957031 165.824219 Z M 153.058594 168.578125 " clip-rule="nonzero"/></clipPath><clipPath id="899a0aebe8"><path d="M 0.679688 0.601562 L 26.121094 0.601562 L 26.121094 19 L 0.679688 19 Z M 0.679688 0.601562 " clip-rule="nonzero"/></clipPath><clipPath id="acfba12a71"><path d="M 20.667969 23.378906 L 0.863281 17.988281 L 6.257812 -1.816406 L 26.058594 3.578125 Z M 20.667969 23.378906 " clip-rule="nonzero"/></clipPath><clipPath id="942ed142f4"><path d="M 26.058594 3.578125 C 24.640625 8.792969 21.136719 13.316406 16.445312 16 C 11.753906 18.683594 6.078125 19.40625 0.863281 17.988281 L 3.617188 7.882812 C 6.167969 8.582031 8.949219 8.226562 11.246094 6.910156 C 13.546875 5.597656 15.261719 3.378906 15.957031 0.824219 Z M 26.058594 3.578125 " clip-rule="nonzero"/></clipPath><clipPath id="bc5da14da0"><rect x="0" width="27" y="0" height="19"/></clipPath><clipPath id="f591fa777c"><path d="M 133 198 L 153 198 L 153 222 L 133 222 Z M 133 198 " clip-rule="nonzero"/></clipPath><clipPath id="7c24969731"><path d="M 155.203125 201.066406 L 152.851562 221.453125 L 132.464844 219.101562 L 134.816406 198.714844 Z M 155.203125 201.066406 " clip-rule="nonzero"/></clipPath><clipPath id="1ab7559f52"><path d="M 134.816406 198.714844 C 140.1875 199.332031 145.183594 202.113281 148.542969 206.347656 C 151.902344 210.585938 153.472656 216.085938 152.851562 221.453125 L 142.449219 220.253906 C 142.753906 217.625 141.984375 214.929688 140.339844 212.855469 C 138.695312 210.78125 136.246094 209.417969 133.617188 209.113281 Z M 134.816406 198.714844 " clip-rule="nonzero"/></clipPath><clipPath id="a8ed9ea347"><path d="M 0.441406 0.480469 L 20 0.480469 L 20 23.519531 L 0.441406 23.519531 Z M 0.441406 0.480469 " clip-rule="nonzero"/></clipPath><clipPath id="f20e6f41ca"><path d="M 22.203125 3.066406 L 19.851562 23.453125 L -0.535156 21.101562 L 1.816406 0.714844 Z M 22.203125 3.066406 " clip-rule="nonzero"/></clipPath><clipPath id="48b25d72f9"><path d="M 1.816406 0.714844 C 7.1875 1.332031 12.183594 4.113281 15.542969 8.347656 C 18.902344 12.585938 20.472656 18.085938 19.851562 23.453125 L 9.449219 22.253906 C 9.753906 19.625 8.984375 16.929688 7.339844 14.855469 C 5.695312 12.78125 3.246094 11.417969 0.617188 11.113281 Z M 1.816406 0.714844 " clip-rule="nonzero"/></clipPath><clipPath id="1c9a77b3e5"><rect x="0" width="20" y="0" height="24"/></clipPath><clipPath id="004bf78d71"><path d="M 168.367188 178.816406 L 188.890625 178.816406 L 188.890625 199.339844 L 168.367188 199.339844 Z M 168.367188 178.816406 " clip-rule="nonzero"/></clipPath><clipPath id="543c3c680e"><path d="M 168.367188 199.339844 C 168.367188 193.933594 170.554688 188.648438 174.375 184.824219 C 178.199219 181.003906 183.484375 178.816406 188.890625 178.816406 L 188.890625 189.285156 C 186.242188 189.285156 183.652344 190.359375 181.78125 192.230469 C 179.910156 194.101562 178.835938 196.691406 178.835938 199.339844 Z M 168.367188 199.339844 " clip-rule="nonzero"/></clipPath><clipPath id="cca80af896"><path d="M 0.367188 0.816406 L 20.890625 0.816406 L 20.890625 21.339844 L 0.367188 21.339844 Z M 0.367188 0.816406 " clip-rule="nonzero"/></clipPath><clipPath id="9c75e34755"><path d="M 0.367188 21.339844 C 0.367188 15.933594 2.554688 10.648438 6.375 6.824219 C 10.199219 3.003906 15.484375 0.816406 20.890625 0.816406 L 20.890625 11.285156 C 18.242188 11.285156 15.652344 12.359375 13.78125 14.230469 C 11.910156 16.101562 10.835938 18.691406 10.835938 21.339844 Z M 0.367188 21.339844 " clip-rule="nonzero"/></clipPath><clipPath id="e87113592b"><rect x="0" width="21" y="0" height="22"/></clipPath><clipPath id="8f39821fe0"><path d="M 168 152 L 191 152 L 191 173 L 168 173 Z M 168 152 " clip-rule="nonzero"/></clipPath><clipPath id="b24de37a01"><path d="M 169.636719 174.15625 L 168.160156 153.6875 L 188.632812 152.210938 L 190.105469 172.683594 Z M 169.636719 174.15625 " clip-rule="nonzero"/></clipPath><clipPath id="b0fd46ebb1"><path d="M 190.105469 172.683594 C 184.714844 173.070312 179.285156 171.265625 175.199219 167.730469 C 171.113281 164.191406 168.550781 159.078125 168.160156 153.6875 L 178.605469 152.933594 C 178.792969 155.574219 180.050781 158.082031 182.050781 159.8125 C 184.054688 161.546875 186.710938 162.429688 189.351562 162.238281 Z M 190.105469 172.683594 " clip-rule="nonzero"/></clipPath><clipPath id="7429f8257d"><path d="M 0 0.878906 L 22.320312 0.878906 L 22.320312 21 L 0 21 Z M 0 0.878906 " clip-rule="nonzero"/></clipPath><clipPath id="beec677e99"><path d="M 1.636719 22.15625 L 0.160156 1.6875 L 20.632812 0.210938 L 22.105469 20.683594 Z M 1.636719 22.15625 " clip-rule="nonzero"/></clipPath><clipPath id="a831a6d2fe"><path d="M 22.105469 20.683594 C 16.714844 21.070312 11.285156 19.265625 7.199219 15.730469 C 3.113281 12.191406 0.550781 7.078125 0.160156 1.6875 L 10.605469 0.933594 C 10.792969 3.574219 12.050781 6.082031 14.050781 7.8125 C 16.054688 9.546875 18.710938 10.429688 21.351562 10.238281 Z M 22.105469 20.683594 " clip-rule="nonzero"/></clipPath><clipPath id="d12ce96f57"><rect x="0" width="23" y="0" height="21"/></clipPath><clipPath id="1d0ff03b29"><path d="M 223.699219 167.867188 L 244.8125 167.867188 L 244.8125 189.972656 L 223.699219 189.972656 Z M 223.699219 167.867188 " clip-rule="nonzero"/></clipPath><clipPath id="48685ef7b2"><path d="M 244.8125 167.929688 C 244.8125 173.734375 242.5625 179.410156 238.628906 183.515625 C 234.695312 187.621094 229.257812 189.972656 223.699219 189.972656 L 223.699219 178.726562 C 226.421875 178.726562 229.085938 177.574219 231.011719 175.5625 C 232.9375 173.554688 234.042969 170.773438 234.042969 167.929688 Z M 244.8125 167.929688 " clip-rule="nonzero"/></clipPath><clipPath id="de49343063"><path d="M 0.699219 0.867188 L 21.8125 0.867188 L 21.8125 22.972656 L 0.699219 22.972656 Z M 0.699219 0.867188 " clip-rule="nonzero"/></clipPath><clipPath id="36ce766978"><path d="M 21.8125 0.929688 C 21.8125 6.734375 19.5625 12.410156 15.628906 16.515625 C 11.695312 20.621094 6.257812 22.972656 0.699219 22.972656 L 0.699219 11.726562 C 3.421875 11.726562 6.085938 10.574219 8.011719 8.5625 C 9.9375 6.554688 11.042969 3.773438 11.042969 0.929688 Z M 21.8125 0.929688 " clip-rule="nonzero"/></clipPath><clipPath id="639ed1332b"><rect x="0" width="22" y="0" height="23"/></clipPath><clipPath id="c444c23712"><path d="M 209.171875 145.421875 L 244.824219 145.421875 L 244.824219 168.953125 L 209.171875 168.953125 Z M 209.171875 145.421875 " clip-rule="nonzero"/></clipPath><clipPath id="a3b38ccb05"><path d="M 0.171875 0.421875 L 35.824219 0.421875 L 35.824219 23.953125 L 0.171875 23.953125 Z M 0.171875 0.421875 " clip-rule="nonzero"/></clipPath><clipPath id="7b93849b96"><rect x="0" width="36" y="0" height="24"/></clipPath><clipPath id="8e2d9b2b35"><path d="M 207.988281 205.644531 L 244.875 205.644531 L 244.875 242.820312 L 207.988281 242.820312 Z M 207.988281 205.644531 " clip-rule="nonzero"/></clipPath><clipPath id="9fd2c40cb4"><path d="M 244.875 213.144531 L 244.875 235.226562 C 244.875 239.371094 241.519531 242.726562 237.375 242.726562 L 215.488281 242.726562 C 211.34375 242.726562 207.988281 239.371094 207.988281 235.226562 L 207.988281 213.144531 C 207.988281 209 211.34375 205.644531 215.488281 205.644531 L 237.375 205.644531 C 241.519531 205.644531 244.875 209 244.875 213.144531 Z M 244.875 213.144531 " clip-rule="nonzero"/></clipPath><clipPath id="edd38de302"><path d="M 0.988281 0.644531 L 37.875 0.644531 L 37.875 37.820312 L 0.988281 37.820312 Z M 0.988281 0.644531 " clip-rule="nonzero"/></clipPath><clipPath id="68026096e4"><path d="M 37.875 8.144531 L 37.875 30.226562 C 37.875 34.371094 34.519531 37.726562 30.375 37.726562 L 8.488281 37.726562 C 4.34375 37.726562 0.988281 34.371094 0.988281 30.226562 L 0.988281 8.144531 C 0.988281 4 4.34375 0.644531 8.488281 0.644531 L 30.375 0.644531 C 34.519531 0.644531 37.875 4 37.875 8.144531 Z M 37.875 8.144531 " clip-rule="nonzero"/></clipPath><clipPath id="898369f380"><rect x="0" width="38" y="0" height="38"/></clipPath></defs><g clip-path="url(#bdb057477f)"><g clip-path="url(#7a4520c69f)"><g transform="matrix(1, 0, 0, 1, 42, 53)"><g clip-path="url(#14a948b123)"><g clip-path="url(#ec63e495f0)"><g clip-path="url(#39c8a6c23e)"><path fill="#f2e9e1" d="M 0.949219 0.195312 L 290.542969 0.195312 L 290.542969 268.804688 L 0.949219 268.804688 Z M 0.949219 0.195312 " fill-opacity="1" fill-rule="nonzero"/></g></g></g></g></g></g><g clip-path="url(#24ebfe6c6c)"><g clip-path="url(#53b7d680fe)"><g transform="matrix(1, 0, 0, 1, 142, 99)"><g clip-path="url(#0d77178496)"><g clip-path="url(#ecd7c69c9f)"><g clip-path="url(#bdac4589f1)"><path fill="#393552" d="M 37.128906 0.792969 L 37.128906 176.21875 L 0.285156 176.21875 L 0.285156 0.792969 Z M 37.128906 0.792969 " fill-opacity="1" fill-rule="nonzero"/></g></g></g></g></g></g><g clip-path="url(#f2758ce5ad)"><g clip-path="url(#d1d0db7dc9)"><g transform="matrix(1, 0, 0, 1, 106, 172)"><g clip-path="url(#15e68917cb)"><g clip-path="url(#d3ad005da3)"><g clip-path="url(#6841b04167)"><path fill="#393552" d="M 72.625 38.078125 L 0.0351562 38.078125 L 0.0351562 0.230469 L 72.625 0.230469 Z M 72.625 38.078125 " fill-opacity="1" fill-rule="nonzero"/></g></g></g></g></g></g><g clip-path="url(#836c01790c)"><g clip-path="url(#c80e83c1b6)"><g transform="matrix(1, 0, 0, 1, 207, 99)"><g clip-path="url(#4d4a20ca27)"><g clip-path="url(#015c2bf615)"><g clip-path="url(#8994dcf928)"><path fill="#393552" d="M 0.984375 77.285156 L 0.984375 0.742188 L 37.816406 0.742188 L 37.816406 77.285156 Z M 0.984375 77.285156 " fill-opacity="1" fill-rule="nonzero"/></g></g></g></g></g></g><g clip-path="url(#bcbc3ec58a)"><g clip-path="url(#9bdd2bca00)"><g transform="matrix(1, 0, 0, 1, 163, 161)"><g clip-path="url(#858d35dce9)"><g clip-path="url(#684367e041)"><g clip-path="url(#ec14a5e477)"><path fill="#393552" d="M 73.0625 28.972656 L 0.410156 28.972656 L 0.410156 0.917969 L 73.0625 0.917969 Z M 73.0625 28.972656 " fill-opacity="1" fill-rule="nonzero"/></g></g></g></g></g></g><g clip-path="url(#0c175f9436)"><g clip-path="url(#193b56849a)"><g transform="matrix(1, 0, 0, 1, 208, 205)"><g clip-path="url(#1178fae47d)"><g clip-path="url(#e91305d1f5)"><g clip-path="url(#bace95caa1)"><path fill="#393552" d="M 0.160156 70.199219 L 0.160156 0.855469 L 37.066406 0.855469 L 37.066406 70.199219 Z M 0.160156 70.199219 " fill-opacity="1" fill-rule="nonzero"/></g></g></g></g></g></g><g clip-path="url(#0363e239c8)"><g clip-path="url(#4968a49c4d)"><g clip-path="url(#1fd0903e1c)"><g transform="matrix(1, 0, 0, 1, 127, 165)"><g clip-path="url(#bc5da14da0)"><g clip-path="url(#899a0aebe8)"><g clip-path="url(#acfba12a71)"><g clip-path="url(#942ed142f4)"><path fill="#393552" d="M 20.667969 23.378906 L 0.863281 17.988281 L 6.257812 -1.816406 L 26.058594 3.578125 Z M 20.667969 23.378906 " fill-opacity="1" fill-rule="nonzero"/></g></g></g></g></g></g></g></g><g clip-path="url(#f591fa777c)"><g clip-path="url(#7c24969731)"><g clip-path="url(#1ab7559f52)"><g transform="matrix(1, 0, 0, 1, 133, 198)"><g clip-path="url(#1c9a77b3e5)"><g clip-path="url(#a8ed9ea347)"><g clip-path="url(#f20e6f41ca)"><g clip-path="url(#48b25d72f9)"><path fill="#393552" d="M 22.203125 3.066406 L 19.851562 23.453125 L -0.535156 21.101562 L 1.816406 0.714844 Z M 22.203125 3.066406 " fill-opacity="1" fill-rule="nonzero"/></g></g></g></g></g></g></g></g><g clip-path="url(#004bf78d71)"><g clip-path="url(#543c3c680e)"><g transform="matrix(1, 0, 0, 1, 168, 178)"><g clip-path="url(#e87113592b)"><g clip-path="url(#cca80af896)"><g clip-path="url(#9c75e34755)"><path fill="#393552" d="M 0.367188 0.816406 L 20.890625 0.816406 L 20.890625 21.339844 L 0.367188 21.339844 Z M 0.367188 0.816406 " fill-opacity="1" fill-rule="nonzero"/></g></g></g></g></g></g><g clip-path="url(#8f39821fe0)"><g clip-path="url(#b24de37a01)"><g clip-path="url(#b0fd46ebb1)"><g transform="matrix(1, 0, 0, 1, 168, 152)"><g clip-path="url(#d12ce96f57)"><g clip-path="url(#7429f8257d)"><g clip-path="url(#beec677e99)"><g clip-path="url(#a831a6d2fe)"><path fill="#393552" d="M 1.636719 22.15625 L 0.160156 1.6875 L 20.632812 0.210938 L 22.105469 20.683594 Z M 1.636719 22.15625 " fill-opacity="1" fill-rule="nonzero"/></g></g></g></g></g></g></g></g><g clip-path="url(#1d0ff03b29)"><g clip-path="url(#48685ef7b2)"><g transform="matrix(1, 0, 0, 1, 223, 167)"><g clip-path="url(#639ed1332b)"><g clip-path="url(#de49343063)"><g clip-path="url(#36ce766978)"><path fill="#393552" d="M 21.8125 22.972656 L 0.699219 22.972656 L 0.699219 0.949219 L 21.8125 0.949219 Z M 21.8125 22.972656 " fill-opacity="1" fill-rule="nonzero"/></g></g></g></g></g></g><g clip-path="url(#c444c23712)"><g transform="matrix(1, 0, 0, 1, 209, 145)"><g clip-path="url(#7b93849b96)"><g clip-path="url(#a3b38ccb05)"><path fill="#393552" d="M 0.171875 0.421875 L 35.832031 0.421875 L 35.832031 23.953125 L 0.171875 23.953125 Z M 0.171875 0.421875 " fill-opacity="1" fill-rule="nonzero"/></g></g></g></g><g clip-path="url(#8e2d9b2b35)"><g clip-path="url(#9fd2c40cb4)"><g transform="matrix(1, 0, 0, 1, 207, 205)"><g clip-path="url(#898369f380)"><g clip-path="url(#edd38de302)"><g clip-path="url(#68026096e4)"><path fill="#393552" d="M 0.988281 0.644531 L 37.875 0.644531 L 37.875 37.675781 L 0.988281 37.675781 Z M 0.988281 0.644531 " fill-opacity="1" fill-rule="nonzero"/></g></g></g></g></g></g></svg>