<svg xmlns="http://www.w3.org/2000/svg" xmlns:xlink="http://www.w3.org/1999/xlink" width="512" zoomAndPan="magnify" viewBox="0 0 384 383.999986" height="512" preserveAspectRatio="xMidYMid meet" version="1.0"><defs><g/><clipPath id="a718b11bbb"><path d="M 0 0 L 384 0 L 384 384 L 0 384 Z M 0 0 " clip-rule="nonzero"/></clipPath><clipPath id="162822a926"><path d="M 192 0 C 85.960938 0 0 85.960938 0 192 C 0 298.039062 85.960938 384 192 384 C 298.039062 384 384 298.039062 384 192 C 384 85.960938 298.039062 0 192 0 Z M 192 0 " clip-rule="nonzero"/></clipPath><clipPath id="c0a0c24754"><path d="M 0 0 L 384 0 L 384 384 L 0 384 Z M 0 0 " clip-rule="nonzero"/></clipPath><clipPath id="5eab2ca315"><path d="M 192 0 C 85.960938 0 0 85.960938 0 192 C 0 298.039062 85.960938 384 192 384 C 298.039062 384 384 298.039062 384 192 C 384 85.960938 298.039062 0 192 0 Z M 192 0 " clip-rule="nonzero"/></clipPath><linearGradient x1="0.000000000000028422" gradientTransform="matrix(1.5, 0, 0, 1.5, 0.0000072, -0.000000000000042633)" y1="128" x2="256" gradientUnits="userSpaceOnUse" y2="128" id="e327931369"><stop stop-opacity="1" stop-color="rgb(8.628845%, 38.038635%, 45.878601%)" offset="0"/><stop stop-opacity="1" stop-color="rgb(8.772278%, 38.194275%, 45.951843%)" offset="0.015625"/><stop stop-opacity="1" stop-color="rgb(9.060669%, 38.50708%, 46.099854%)" offset="0.03125"/><stop stop-opacity="1" stop-color="rgb(9.34906%, 38.819885%, 46.246338%)" offset="0.046875"/><stop stop-opacity="1" stop-color="rgb(9.635925%, 39.13269%, 46.392822%)" offset="0.0625"/><stop stop-opacity="1" stop-color="rgb(9.924316%, 39.445496%, 46.540833%)" offset="0.078125"/><stop stop-opacity="1" stop-color="rgb(10.212708%, 39.756775%, 46.687317%)" offset="0.09375"/><stop stop-opacity="1" stop-color="rgb(10.501099%, 40.06958%, 46.835327%)" offset="0.109375"/><stop stop-opacity="1" stop-color="rgb(10.787964%, 40.382385%, 46.981812%)" offset="0.125"/><stop stop-opacity="1" stop-color="rgb(11.076355%, 40.69519%, 47.128296%)" offset="0.140625"/><stop stop-opacity="1" stop-color="rgb(11.364746%, 41.007996%, 47.276306%)" offset="0.15625"/><stop stop-opacity="1" stop-color="rgb(11.651611%, 41.319275%, 47.422791%)" offset="0.171875"/><stop stop-opacity="1" stop-color="rgb(11.940002%, 41.63208%, 47.569275%)" offset="0.1875"/><stop stop-opacity="1" stop-color="rgb(12.228394%, 41.944885%, 47.717285%)" offset="0.203125"/><stop stop-opacity="1" stop-color="rgb(12.516785%, 42.25769%, 47.86377%)" offset="0.21875"/><stop stop-opacity="1" stop-color="rgb(12.80365%, 42.570496%, 48.010254%)" offset="0.234375"/><stop stop-opacity="1" stop-color="rgb(13.092041%, 42.881775%, 48.158264%)" offset="0.25"/><stop stop-opacity="1" stop-color="rgb(13.380432%, 43.19458%, 48.304749%)" offset="0.265625"/><stop stop-opacity="1" stop-color="rgb(13.668823%, 43.507385%, 48.452759%)" offset="0.28125"/><stop stop-opacity="1" stop-color="rgb(13.955688%, 43.82019%, 48.599243%)" offset="0.296875"/><stop stop-opacity="1" stop-color="rgb(14.24408%, 44.132996%, 48.745728%)" offset="0.3125"/><stop stop-opacity="1" stop-color="rgb(14.532471%, 44.444275%, 48.893738%)" offset="0.328125"/><stop stop-opacity="1" stop-color="rgb(14.819336%, 44.75708%, 49.040222%)" offset="0.34375"/><stop stop-opacity="1" stop-color="rgb(15.107727%, 45.069885%, 49.186707%)" offset="0.359375"/><stop stop-opacity="1" stop-color="rgb(15.396118%, 45.38269%, 49.334717%)" offset="0.375"/><stop stop-opacity="1" stop-color="rgb(15.684509%, 45.695496%, 49.481201%)" offset="0.390625"/><stop stop-opacity="1" stop-color="rgb(15.971375%, 46.006775%, 49.627686%)" offset="0.40625"/><stop stop-opacity="1" stop-color="rgb(16.259766%, 46.31958%, 49.775696%)" offset="0.421875"/><stop stop-opacity="1" stop-color="rgb(16.548157%, 46.632385%, 49.92218%)" offset="0.4375"/><stop stop-opacity="1" stop-color="rgb(16.836548%, 46.94519%, 50.068665%)" offset="0.453125"/><stop stop-opacity="1" stop-color="rgb(17.123413%, 47.257996%, 50.216675%)" offset="0.46875"/><stop stop-opacity="1" stop-color="rgb(17.411804%, 47.569275%, 50.363159%)" offset="0.484375"/><stop stop-opacity="1" stop-color="rgb(17.700195%, 47.88208%, 50.511169%)" offset="0.5"/><stop stop-opacity="1" stop-color="rgb(17.987061%, 48.194885%, 50.657654%)" offset="0.515625"/><stop stop-opacity="1" stop-color="rgb(18.275452%, 48.50769%, 50.804138%)" offset="0.53125"/><stop stop-opacity="1" stop-color="rgb(18.563843%, 48.820496%, 50.952148%)" offset="0.546875"/><stop stop-opacity="1" stop-color="rgb(18.852234%, 49.131775%, 51.098633%)" offset="0.5625"/><stop stop-opacity="1" stop-color="rgb(19.139099%, 49.44458%, 51.245117%)" offset="0.578125"/><stop stop-opacity="1" stop-color="rgb(19.42749%, 49.757385%, 51.393127%)" offset="0.59375"/><stop stop-opacity="1" stop-color="rgb(19.715881%, 50.07019%, 51.539612%)" offset="0.609375"/><stop stop-opacity="1" stop-color="rgb(20.002747%, 50.382996%, 51.686096%)" offset="0.625"/><stop stop-opacity="1" stop-color="rgb(20.291138%, 50.694275%, 51.834106%)" offset="0.640625"/><stop stop-opacity="1" stop-color="rgb(20.579529%, 51.00708%, 51.980591%)" offset="0.65625"/><stop stop-opacity="1" stop-color="rgb(20.86792%, 51.319885%, 52.127075%)" offset="0.671875"/><stop stop-opacity="1" stop-color="rgb(21.154785%, 51.63269%, 52.275085%)" offset="0.6875"/><stop stop-opacity="1" stop-color="rgb(21.443176%, 51.945496%, 52.42157%)" offset="0.703125"/><stop stop-opacity="1" stop-color="rgb(21.731567%, 52.256775%, 52.56958%)" offset="0.71875"/><stop stop-opacity="1" stop-color="rgb(22.019958%, 52.56958%, 52.716064%)" offset="0.734375"/><stop stop-opacity="1" stop-color="rgb(22.306824%, 52.882385%, 52.862549%)" offset="0.75"/><stop stop-opacity="1" stop-color="rgb(22.595215%, 53.19519%, 53.010559%)" offset="0.765625"/><stop stop-opacity="1" stop-color="rgb(22.883606%, 53.507996%, 53.157043%)" offset="0.78125"/><stop stop-opacity="1" stop-color="rgb(23.170471%, 53.819275%, 53.303528%)" offset="0.796875"/><stop stop-opacity="1" stop-color="rgb(23.458862%, 54.13208%, 53.451538%)" offset="0.8125"/><stop stop-opacity="1" stop-color="rgb(23.747253%, 54.444885%, 53.598022%)" offset="0.828125"/><stop stop-opacity="1" stop-color="rgb(24.035645%, 54.75769%, 53.744507%)" offset="0.84375"/><stop stop-opacity="1" stop-color="rgb(24.32251%, 55.070496%, 53.892517%)" offset="0.859375"/><stop stop-opacity="1" stop-color="rgb(24.610901%, 55.381775%, 54.039001%)" offset="0.875"/><stop stop-opacity="1" stop-color="rgb(24.899292%, 55.69458%, 54.185486%)" offset="0.890625"/><stop stop-opacity="1" stop-color="rgb(25.186157%, 56.007385%, 54.333496%)" offset="0.90625"/><stop stop-opacity="1" stop-color="rgb(25.474548%, 56.32019%, 54.47998%)" offset="0.921875"/><stop stop-opacity="1" stop-color="rgb(25.762939%, 56.632996%, 54.627991%)" offset="0.9375"/><stop stop-opacity="1" stop-color="rgb(26.051331%, 56.944275%, 54.774475%)" offset="0.953125"/><stop stop-opacity="1" stop-color="rgb(26.338196%, 57.25708%, 54.920959%)" offset="0.96875"/><stop stop-opacity="1" stop-color="rgb(26.626587%, 57.569885%, 55.06897%)" offset="0.984375"/><stop stop-opacity="1" stop-color="rgb(26.914978%, 57.88269%, 55.215454%)" offset="1"/></linearGradient><clipPath id="26e39eb0ee"><rect x="0" width="384" y="0" height="384"/></clipPath><clipPath id="a96b8492c3"><path d="M 69.214844 73.796875 L 117.011719 73.796875 L 117.011719 301.390625 L 69.214844 301.390625 Z M 69.214844 73.796875 " clip-rule="nonzero"/></clipPath><clipPath id="39b0e91f5a"><path d="M 117.011719 97.695312 L 117.011719 277.46875 C 117.011719 283.804688 114.492188 289.882812 110.011719 294.367188 C 105.53125 298.847656 99.453125 301.367188 93.113281 301.367188 C 86.773438 301.367188 80.695312 298.847656 76.214844 294.367188 C 71.734375 289.882812 69.214844 283.804688 69.214844 277.46875 L 69.214844 97.695312 C 69.214844 91.355469 71.734375 85.277344 76.214844 80.796875 C 80.695312 76.3125 86.773438 73.796875 93.113281 73.796875 C 99.453125 73.796875 105.53125 76.3125 110.011719 80.796875 C 114.492188 85.277344 117.011719 91.355469 117.011719 97.695312 Z M 117.011719 97.695312 " clip-rule="nonzero"/></clipPath><clipPath id="086908b56d"><path d="M 0.214844 0.796875 L 48.011719 0.796875 L 48.011719 228.390625 L 0.214844 228.390625 Z M 0.214844 0.796875 " clip-rule="nonzero"/></clipPath><clipPath id="f8326dd4df"><path d="M 48.011719 24.695312 L 48.011719 204.46875 C 48.011719 210.804688 45.492188 216.882812 41.011719 221.367188 C 36.53125 225.847656 30.453125 228.367188 24.113281 228.367188 C 17.773438 228.367188 11.695312 225.847656 7.214844 221.367188 C 2.734375 216.882812 0.214844 210.804688 0.214844 204.46875 L 0.214844 24.695312 C 0.214844 18.355469 2.734375 12.277344 7.214844 7.796875 C 11.695312 3.3125 17.773438 0.796875 24.113281 0.796875 C 30.453125 0.796875 36.53125 3.3125 41.011719 7.796875 C 45.492188 12.277344 48.011719 18.355469 48.011719 24.695312 Z M 48.011719 24.695312 " clip-rule="nonzero"/></clipPath><clipPath id="713b5ffdb2"><rect x="0" width="49" y="0" height="229"/></clipPath><clipPath id="dc09586b6d"><path d="M 22 167.78125 L 116.351562 167.78125 L 116.351562 216.882812 L 22 216.882812 Z M 22 167.78125 " clip-rule="nonzero"/></clipPath><clipPath id="ba87ed15a8"><path d="M 91.804688 216.882812 L 46.699219 216.882812 C 40.1875 216.882812 33.945312 214.296875 29.339844 209.691406 C 24.734375 205.089844 22.148438 198.84375 22.148438 192.332031 C 22.148438 185.820312 24.734375 179.578125 29.339844 174.972656 C 33.945312 170.367188 40.1875 167.78125 46.699219 167.78125 L 91.804688 167.78125 C 98.3125 167.78125 104.558594 170.367188 109.164062 174.972656 C 113.765625 179.578125 116.351562 185.820312 116.351562 192.332031 C 116.351562 198.84375 113.765625 205.089844 109.164062 209.691406 C 104.558594 214.296875 98.3125 216.882812 91.804688 216.882812 Z M 91.804688 216.882812 " clip-rule="nonzero"/></clipPath><clipPath id="006aa849f8"><path d="M 0.078125 0.78125 L 94.351562 0.78125 L 94.351562 49.882812 L 0.078125 49.882812 Z M 0.078125 0.78125 " clip-rule="nonzero"/></clipPath><clipPath id="93290486d0"><path d="M 69.804688 49.882812 L 24.699219 49.882812 C 18.1875 49.882812 11.945312 47.296875 7.339844 42.691406 C 2.734375 38.089844 0.148438 31.84375 0.148438 25.332031 C 0.148438 18.820312 2.734375 12.578125 7.339844 7.972656 C 11.945312 3.367188 18.1875 0.78125 24.699219 0.78125 L 69.804688 0.78125 C 76.3125 0.78125 82.558594 3.367188 87.164062 7.972656 C 91.765625 12.578125 94.351562 18.820312 94.351562 25.332031 C 94.351562 31.84375 91.765625 38.089844 87.164062 42.691406 C 82.558594 47.296875 76.3125 49.882812 69.804688 49.882812 Z M 69.804688 49.882812 " clip-rule="nonzero"/></clipPath><clipPath id="165e69cca3"><rect x="0" width="95" y="0" height="50"/></clipPath><clipPath id="1df4df568c"><path d="M 154.457031 73.730469 L 202.242188 73.730469 L 202.242188 173.039062 L 154.457031 173.039062 Z M 154.457031 73.730469 " clip-rule="nonzero"/></clipPath><clipPath id="3b57ab64f2"><path d="M 154.457031 149.144531 L 154.457031 97.6875 C 154.457031 91.351562 156.972656 85.273438 161.453125 80.792969 C 165.933594 76.3125 172.011719 73.792969 178.347656 73.792969 C 184.6875 73.792969 190.761719 76.3125 195.246094 80.792969 C 199.726562 85.273438 202.242188 91.351562 202.242188 97.6875 L 202.242188 149.144531 C 202.242188 155.480469 199.726562 161.558594 195.246094 166.039062 C 190.761719 170.519531 184.6875 173.039062 178.347656 173.039062 C 172.011719 173.039062 165.933594 170.519531 161.453125 166.039062 C 156.972656 161.558594 154.457031 155.480469 154.457031 149.144531 Z M 154.457031 149.144531 " clip-rule="nonzero"/></clipPath><clipPath id="09685b2df2"><path d="M 0.457031 0.730469 L 48.242188 0.730469 L 48.242188 100.039062 L 0.457031 100.039062 Z M 0.457031 0.730469 " clip-rule="nonzero"/></clipPath><clipPath id="a4d2e7269d"><path d="M 0.457031 76.144531 L 0.457031 24.6875 C 0.457031 18.351562 2.972656 12.273438 7.453125 7.792969 C 11.933594 3.3125 18.011719 0.792969 24.347656 0.792969 C 30.6875 0.792969 36.761719 3.3125 41.246094 7.792969 C 45.726562 12.273438 48.242188 18.351562 48.242188 24.6875 L 48.242188 76.144531 C 48.242188 82.480469 45.726562 88.558594 41.246094 93.039062 C 36.761719 97.519531 30.6875 100.039062 24.347656 100.039062 C 18.011719 100.039062 11.933594 97.519531 7.453125 93.039062 C 2.972656 88.558594 0.457031 82.480469 0.457031 76.144531 Z M 0.457031 76.144531 " clip-rule="nonzero"/></clipPath><clipPath id="6c04765ad6"><rect x="0" width="49" y="0" height="101"/></clipPath><clipPath id="7f2bf3d427"><path d="M 96.617188 154.394531 L 190.871094 154.394531 L 190.871094 190.789062 L 96.617188 190.789062 Z M 96.617188 154.394531 " clip-rule="nonzero"/></clipPath><clipPath id="f4f7858398"><path d="M 172.671875 190.789062 L 114.863281 190.789062 C 104.8125 190.789062 96.664062 182.640625 96.664062 172.59375 C 96.664062 162.542969 104.8125 154.394531 114.863281 154.394531 L 172.671875 154.394531 C 182.722656 154.394531 190.871094 162.542969 190.871094 172.59375 C 190.871094 182.640625 182.722656 190.789062 172.671875 190.789062 Z M 172.671875 190.789062 " clip-rule="nonzero"/></clipPath><clipPath id="f40ba50d50"><path d="M 0.617188 0.394531 L 94.871094 0.394531 L 94.871094 36.789062 L 0.617188 36.789062 Z M 0.617188 0.394531 " clip-rule="nonzero"/></clipPath><clipPath id="ebdfdddd39"><path d="M 76.671875 36.789062 L 18.863281 36.789062 C 8.8125 36.789062 0.664062 28.640625 0.664062 18.59375 C 0.664062 8.542969 8.8125 0.394531 18.863281 0.394531 L 76.671875 0.394531 C 86.722656 0.394531 94.871094 8.542969 94.871094 18.59375 C 94.871094 28.640625 86.722656 36.789062 76.671875 36.789062 Z M 76.671875 36.789062 " clip-rule="nonzero"/></clipPath><clipPath id="78c883f0f3"><rect x="0" width="95" y="0" height="37"/></clipPath><clipPath id="d7a5591f61"><path d="M 154.6875 211.207031 L 202.566406 211.207031 L 202.566406 301.359375 L 154.6875 301.359375 Z M 154.6875 211.207031 " clip-rule="nonzero"/></clipPath><clipPath id="86e767c125"><path d="M 154.6875 277.417969 L 154.6875 235.300781 C 154.6875 228.953125 157.207031 222.863281 161.699219 218.371094 C 166.1875 213.882812 172.277344 211.359375 178.625 211.359375 C 184.976562 211.359375 191.066406 213.882812 195.554688 218.371094 C 200.042969 222.863281 202.566406 228.953125 202.566406 235.300781 L 202.566406 277.417969 C 202.566406 283.769531 200.042969 289.855469 195.554688 294.347656 C 191.066406 298.835938 184.976562 301.359375 178.625 301.359375 C 172.277344 301.359375 166.1875 298.835938 161.699219 294.347656 C 157.207031 289.855469 154.6875 283.769531 154.6875 277.417969 Z M 154.6875 277.417969 " clip-rule="nonzero"/></clipPath><clipPath id="a69a471652"><path d="M 0.6875 0.207031 L 48.566406 0.207031 L 48.566406 90.359375 L 0.6875 90.359375 Z M 0.6875 0.207031 " clip-rule="nonzero"/></clipPath><clipPath id="c855bb7d47"><path d="M 0.6875 66.417969 L 0.6875 24.300781 C 0.6875 17.953125 3.207031 11.863281 7.699219 7.371094 C 12.1875 2.882812 18.277344 0.359375 24.625 0.359375 C 30.976562 0.359375 37.066406 2.882812 41.554688 7.371094 C 46.042969 11.863281 48.566406 17.953125 48.566406 24.300781 L 48.566406 66.417969 C 48.566406 72.769531 46.042969 78.855469 41.554688 83.347656 C 37.066406 87.835938 30.976562 90.359375 24.625 90.359375 C 18.277344 90.359375 12.1875 87.835938 7.699219 83.347656 C 3.207031 78.855469 0.6875 72.769531 0.6875 66.417969 Z M 0.6875 66.417969 " clip-rule="nonzero"/></clipPath><clipPath id="b0845d6c6d"><rect x="0" width="49" y="0" height="91"/></clipPath><clipPath id="23fa575bf4"><path d="M 50 159 L 84 159 L 84 183 L 50 183 Z M 50 159 " clip-rule="nonzero"/></clipPath><clipPath id="ec193091e6"><path d="M 76.195312 188.722656 L 50.503906 181.726562 L 57.5 156.035156 L 83.191406 163.03125 Z M 76.195312 188.722656 " clip-rule="nonzero"/></clipPath><clipPath id="e20cadefa7"><path d="M 83.191406 163.03125 C 81.347656 169.796875 76.804688 175.667969 70.71875 179.148438 C 64.632812 182.628906 57.269531 183.570312 50.503906 181.726562 L 54.070312 168.621094 C 57.386719 169.523438 60.992188 169.0625 63.972656 167.355469 C 66.957031 165.652344 69.179688 162.777344 70.082031 159.460938 Z M 83.191406 163.03125 " clip-rule="nonzero"/></clipPath><clipPath id="f10df89892"><path d="M 0.398438 0.359375 L 33.28125 0.359375 L 33.28125 24 L 0.398438 24 Z M 0.398438 0.359375 " clip-rule="nonzero"/></clipPath><clipPath id="c2be2aef75"><path d="M 26.195312 29.722656 L 0.503906 22.726562 L 7.5 -2.964844 L 33.191406 4.03125 Z M 26.195312 29.722656 " clip-rule="nonzero"/></clipPath><clipPath id="250a15b977"><path d="M 33.191406 4.03125 C 31.347656 10.796875 26.804688 16.667969 20.71875 20.148438 C 14.632812 23.628906 7.269531 24.570312 0.503906 22.726562 L 4.070312 9.621094 C 7.386719 10.523438 10.992188 10.0625 13.972656 8.355469 C 16.957031 6.652344 19.179688 3.777344 20.082031 0.460938 Z M 33.191406 4.03125 " clip-rule="nonzero"/></clipPath><clipPath id="e116261987"><rect x="0" width="34" y="0" height="24"/></clipPath><clipPath id="4d00c87b29"><path d="M 57 202 L 84 202 L 84 232 L 57 232 Z M 57 202 " clip-rule="nonzero"/></clipPath><clipPath id="8ee9f409d4"><path d="M 85.972656 205.1875 L 82.917969 231.640625 L 56.46875 228.585938 L 59.523438 202.136719 Z M 85.972656 205.1875 " clip-rule="nonzero"/></clipPath><clipPath id="ef633055fd"><path d="M 59.523438 202.136719 C 66.488281 202.9375 72.972656 206.546875 77.332031 212.042969 C 81.6875 217.535156 83.722656 224.671875 82.917969 231.640625 L 69.425781 230.082031 C 69.820312 226.667969 68.820312 223.171875 66.6875 220.480469 C 64.554688 217.789062 61.375 216.023438 57.964844 215.628906 Z M 59.523438 202.136719 " clip-rule="nonzero"/></clipPath><clipPath id="124ed3dd51"><path d="M 0.839844 0.078125 L 26.761719 0.078125 L 26.761719 29.839844 L 0.839844 29.839844 Z M 0.839844 0.078125 " clip-rule="nonzero"/></clipPath><clipPath id="27b28e5c5e"><path d="M 28.972656 3.1875 L 25.917969 29.640625 L -0.53125 26.585938 L 2.523438 0.136719 Z M 28.972656 3.1875 " clip-rule="nonzero"/></clipPath><clipPath id="d3b1592ee8"><path d="M 2.523438 0.136719 C 9.488281 0.9375 15.972656 4.546875 20.332031 10.042969 C 24.6875 15.535156 26.722656 22.671875 25.917969 29.640625 L 12.425781 28.082031 C 12.820312 24.667969 11.820312 21.171875 9.6875 18.480469 C 7.554688 15.789062 4.375 14.023438 0.964844 13.628906 Z M 2.523438 0.136719 " clip-rule="nonzero"/></clipPath><clipPath id="980f1ba653"><rect x="0" width="27" y="0" height="30"/></clipPath><clipPath id="89a1901431"><path d="M 103.050781 176.320312 L 129.679688 176.320312 L 129.679688 202.945312 L 103.050781 202.945312 Z M 103.050781 176.320312 " clip-rule="nonzero"/></clipPath><clipPath id="a1713f1080"><path d="M 103.050781 202.945312 C 103.050781 195.933594 105.894531 189.078125 110.851562 184.117188 C 115.808594 179.160156 122.667969 176.320312 129.679688 176.320312 L 129.679688 189.902344 C 126.242188 189.902344 122.886719 191.292969 120.457031 193.722656 C 118.027344 196.152344 116.636719 199.511719 116.636719 202.945312 Z M 103.050781 202.945312 " clip-rule="nonzero"/></clipPath><clipPath id="75a4b238af"><path d="M 0.0507812 0.320312 L 26.679688 0.320312 L 26.679688 26.945312 L 0.0507812 26.945312 Z M 0.0507812 0.320312 " clip-rule="nonzero"/></clipPath><clipPath id="14a8393194"><path d="M 0.0507812 26.945312 C 0.0507812 19.933594 2.894531 13.078125 7.851562 8.117188 C 12.808594 3.160156 19.667969 0.320312 26.679688 0.320312 L 26.679688 13.902344 C 23.242188 13.902344 19.886719 15.292969 17.457031 17.722656 C 15.027344 20.152344 13.636719 23.511719 13.636719 26.945312 Z M 0.0507812 26.945312 " clip-rule="nonzero"/></clipPath><clipPath id="d11e4199d6"><rect x="0" width="27" y="0" height="27"/></clipPath><clipPath id="658a81a9c3"><path d="M 102 142 L 132 142 L 132 169 L 102 169 Z M 102 142 " clip-rule="nonzero"/></clipPath><clipPath id="ac2aa37909"><path d="M 104.699219 170.269531 L 102.785156 143.714844 L 129.34375 141.800781 L 131.257812 168.359375 Z M 104.699219 170.269531 " clip-rule="nonzero"/></clipPath><clipPath id="d29417fc13"><path d="M 131.257812 168.359375 C 124.261719 168.863281 117.21875 166.523438 111.917969 161.933594 C 106.617188 157.34375 103.289062 150.707031 102.785156 143.714844 L 116.335938 142.738281 C 116.582031 146.164062 118.210938 149.414062 120.808594 151.664062 C 123.40625 153.910156 126.855469 155.058594 130.28125 154.808594 Z M 131.257812 168.359375 " clip-rule="nonzero"/></clipPath><clipPath id="5919a1f59d"><path d="M 0.71875 0.558594 L 29.28125 0.558594 L 29.28125 26.960938 L 0.71875 26.960938 Z M 0.71875 0.558594 " clip-rule="nonzero"/></clipPath><clipPath id="bd25cf8e15"><path d="M 2.699219 28.269531 L 0.785156 1.714844 L 27.34375 -0.199219 L 29.257812 26.359375 Z M 2.699219 28.269531 " clip-rule="nonzero"/></clipPath><clipPath id="60b128aa68"><path d="M 29.257812 26.359375 C 22.261719 26.863281 15.21875 24.523438 9.917969 19.933594 C 4.617188 15.34375 1.289062 8.707031 0.785156 1.714844 L 14.335938 0.738281 C 14.582031 4.164062 16.210938 7.414062 18.808594 9.664062 C 21.40625 11.910156 24.855469 13.058594 28.28125 12.808594 Z M 29.257812 26.359375 " clip-rule="nonzero"/></clipPath><clipPath id="2bea1ff720"><rect x="0" width="30" y="0" height="27"/></clipPath><clipPath id="d9dc821191"><path d="M 174.84375 162.117188 L 202.238281 162.117188 L 202.238281 190.792969 L 174.84375 190.792969 Z M 174.84375 162.117188 " clip-rule="nonzero"/></clipPath><clipPath id="1566ed7b5c"><path d="M 202.238281 162.195312 C 202.238281 169.726562 199.316406 177.089844 194.214844 182.417969 C 189.113281 187.742188 182.058594 190.792969 174.84375 190.792969 L 174.84375 176.203125 C 178.378906 176.203125 181.832031 174.710938 184.332031 172.101562 C 186.832031 169.492188 188.261719 165.886719 188.261719 162.195312 Z M 202.238281 162.195312 " clip-rule="nonzero"/></clipPath><clipPath id="d93a777a5e"><path d="M 0.84375 0.117188 L 28.238281 0.117188 L 28.238281 28.792969 L 0.84375 28.792969 Z M 0.84375 0.117188 " clip-rule="nonzero"/></clipPath><clipPath id="201fee38f5"><path d="M 28.238281 0.195312 C 28.238281 7.726562 25.316406 15.089844 20.214844 20.417969 C 15.113281 25.742188 8.058594 28.792969 0.84375 28.792969 L 0.84375 14.203125 C 4.378906 14.203125 7.832031 12.710938 10.332031 10.101562 C 12.832031 7.492188 14.261719 3.886719 14.261719 0.195312 Z M 28.238281 0.195312 " clip-rule="nonzero"/></clipPath><clipPath id="20a34b98e6"><rect x="0" width="29" y="0" height="29"/></clipPath><clipPath id="f5cde9cb0f"><path d="M 155.996094 132.996094 L 202.246094 132.996094 L 202.246094 163.523438 L 155.996094 163.523438 Z M 155.996094 132.996094 " clip-rule="nonzero"/></clipPath><clipPath id="da6911dccc"><path d="M 0.996094 0.996094 L 47.246094 0.996094 L 47.246094 31.523438 L 0.996094 31.523438 Z M 0.996094 0.996094 " clip-rule="nonzero"/></clipPath><clipPath id="ba80b7e5e1"><rect x="0" width="48" y="0" height="32"/></clipPath><clipPath id="3c392f0f76"><path d="M 154.457031 211.125 L 202.316406 211.125 L 202.316406 259.359375 L 154.457031 259.359375 Z M 154.457031 211.125 " clip-rule="nonzero"/></clipPath><clipPath id="dbc01dddb7"><path d="M 202.316406 218.625 L 202.316406 251.738281 C 202.316406 253.726562 201.523438 255.636719 200.117188 257.042969 C 198.710938 258.449219 196.804688 259.238281 194.816406 259.238281 L 161.957031 259.238281 C 159.964844 259.238281 158.058594 258.449219 156.652344 257.042969 C 155.246094 255.636719 154.457031 253.726562 154.457031 251.738281 L 154.457031 218.625 C 154.457031 216.636719 155.246094 214.730469 156.652344 213.324219 C 158.058594 211.917969 159.964844 211.125 161.957031 211.125 L 194.816406 211.125 C 196.804688 211.125 198.710938 211.917969 200.117188 213.324219 C 201.523438 214.730469 202.316406 216.636719 202.316406 218.625 Z M 202.316406 218.625 " clip-rule="nonzero"/></clipPath><clipPath id="4bc256e581"><path d="M 0.457031 0.125 L 48.316406 0.125 L 48.316406 48.359375 L 0.457031 48.359375 Z M 0.457031 0.125 " clip-rule="nonzero"/></clipPath><clipPath id="6d037d30f1"><path d="M 48.316406 7.625 L 48.316406 40.738281 C 48.316406 42.726562 47.523438 44.636719 46.117188 46.042969 C 44.710938 47.449219 42.804688 48.238281 40.816406 48.238281 L 7.957031 48.238281 C 5.964844 48.238281 4.058594 47.449219 2.652344 46.042969 C 1.246094 44.636719 0.457031 42.726562 0.457031 40.738281 L 0.457031 7.625 C 0.457031 5.636719 1.246094 3.730469 2.652344 2.324219 C 4.058594 0.917969 5.964844 0.125 7.957031 0.125 L 40.816406 0.125 C 42.804688 0.125 44.710938 0.917969 46.117188 2.324219 C 47.523438 3.730469 48.316406 5.636719 48.316406 7.625 Z M 48.316406 7.625 " clip-rule="nonzero"/></clipPath><clipPath id="782b1ff1eb"><rect x="0" width="49" y="0" height="49"/></clipPath><clipPath id="8d5190cbe7"><rect x="0" width="384" y="0" height="384"/></clipPath></defs><g><g clip-path="url(#8d5190cbe7)"><g clip-path="url(#a718b11bbb)"><g clip-path="url(#162822a926)"><g><g clip-path="url(#26e39eb0ee)"><g clip-path="url(#c0a0c24754)"><g clip-path="url(#5eab2ca315)"><rect x="-139.776" fill="url(#e327931369)" width="663.552" y="-139.775995" height="663.551975"/></g></g></g></g></g></g><g clip-path="url(#a96b8492c3)"><g clip-path="url(#39b0e91f5a)"><g transform="matrix(1, 0, 0, 1, 69, 73)"><g clip-path="url(#713b5ffdb2)"><g clip-path="url(#086908b56d)"><g clip-path="url(#f8326dd4df)"><path fill="#ffffff" d="M 48.011719 0.796875 L 48.011719 228.390625 L 0.214844 228.390625 L 0.214844 0.796875 Z M 48.011719 0.796875 " fill-opacity="1" fill-rule="nonzero"/></g></g></g></g></g></g><g clip-path="url(#dc09586b6d)"><g clip-path="url(#ba87ed15a8)"><g transform="matrix(1, 0, 0, 1, 22, 167)"><g clip-path="url(#165e69cca3)"><g clip-path="url(#006aa849f8)"><g clip-path="url(#93290486d0)"><path fill="#ffffff" d="M 94.351562 49.882812 L 0.179688 49.882812 L 0.179688 0.78125 L 94.351562 0.78125 Z M 94.351562 49.882812 " fill-opacity="1" fill-rule="nonzero"/></g></g></g></g></g></g><g clip-path="url(#1df4df568c)"><g clip-path="url(#3b57ab64f2)"><g transform="matrix(1, 0, 0, 1, 154, 73)"><g clip-path="url(#6c04765ad6)"><g clip-path="url(#09685b2df2)"><g clip-path="url(#a4d2e7269d)"><path fill="#fefefe" d="M 0.457031 100.039062 L 0.457031 0.730469 L 48.242188 0.730469 L 48.242188 100.039062 Z M 0.457031 100.039062 " fill-opacity="1" fill-rule="nonzero"/></g></g></g></g></g></g><g clip-path="url(#7f2bf3d427)"><g clip-path="url(#f4f7858398)"><g transform="matrix(1, 0, 0, 1, 96, 154)"><g clip-path="url(#78c883f0f3)"><g clip-path="url(#f40ba50d50)"><g clip-path="url(#ebdfdddd39)"><path fill="#ffffff" d="M 94.871094 36.789062 L 0.617188 36.789062 L 0.617188 0.394531 L 94.871094 0.394531 Z M 94.871094 36.789062 " fill-opacity="1" fill-rule="nonzero"/></g></g></g></g></g></g><g clip-path="url(#d7a5591f61)"><g clip-path="url(#86e767c125)"><g transform="matrix(1, 0, 0, 1, 154, 211)"><g clip-path="url(#b0845d6c6d)"><g clip-path="url(#a69a471652)"><g clip-path="url(#c855bb7d47)"><path fill="#fefefe" d="M 0.6875 90.359375 L 0.6875 0.394531 L 48.566406 0.394531 L 48.566406 90.359375 Z M 0.6875 90.359375 " fill-opacity="1" fill-rule="nonzero"/></g></g></g></g></g></g><g clip-path="url(#23fa575bf4)"><g clip-path="url(#ec193091e6)"><g clip-path="url(#e20cadefa7)"><g transform="matrix(1, 0, 0, 1, 50, 159)"><g clip-path="url(#e116261987)"><g clip-path="url(#f10df89892)"><g clip-path="url(#c2be2aef75)"><g clip-path="url(#250a15b977)"><path fill="#ffffff" d="M 26.195312 29.722656 L 0.503906 22.726562 L 7.5 -2.964844 L 33.191406 4.03125 Z M 26.195312 29.722656 " fill-opacity="1" fill-rule="nonzero"/></g></g></g></g></g></g></g></g><g clip-path="url(#4d00c87b29)"><g clip-path="url(#8ee9f409d4)"><g clip-path="url(#ef633055fd)"><g transform="matrix(1, 0, 0, 1, 57, 202)"><g clip-path="url(#980f1ba653)"><g clip-path="url(#124ed3dd51)"><g clip-path="url(#27b28e5c5e)"><g clip-path="url(#d3b1592ee8)"><path fill="#fefefe" d="M 28.972656 3.1875 L 25.917969 29.640625 L -0.53125 26.585938 L 2.523438 0.136719 Z M 28.972656 3.1875 " fill-opacity="1" fill-rule="nonzero"/></g></g></g></g></g></g></g></g><g clip-path="url(#89a1901431)"><g clip-path="url(#a1713f1080)"><g transform="matrix(1, 0, 0, 1, 103, 176)"><g clip-path="url(#d11e4199d6)"><g clip-path="url(#75a4b238af)"><g clip-path="url(#14a8393194)"><path fill="#ffffff" d="M 0.0507812 0.320312 L 26.679688 0.320312 L 26.679688 26.945312 L 0.0507812 26.945312 Z M 0.0507812 0.320312 " fill-opacity="1" fill-rule="nonzero"/></g></g></g></g></g></g><g clip-path="url(#658a81a9c3)"><g clip-path="url(#ac2aa37909)"><g clip-path="url(#d29417fc13)"><g transform="matrix(1, 0, 0, 1, 102, 142)"><g clip-path="url(#2bea1ff720)"><g clip-path="url(#5919a1f59d)"><g clip-path="url(#bd25cf8e15)"><g clip-path="url(#60b128aa68)"><path fill="#ffffff" d="M 2.699219 28.269531 L 0.785156 1.714844 L 27.34375 -0.199219 L 29.257812 26.359375 Z M 2.699219 28.269531 " fill-opacity="1" fill-rule="nonzero"/></g></g></g></g></g></g></g></g><g clip-path="url(#d9dc821191)"><g clip-path="url(#1566ed7b5c)"><g transform="matrix(1, 0, 0, 1, 174, 162)"><g clip-path="url(#20a34b98e6)"><g clip-path="url(#d93a777a5e)"><g clip-path="url(#201fee38f5)"><path fill="#fefefe" d="M 28.238281 28.792969 L 0.84375 28.792969 L 0.84375 0.222656 L 28.238281 0.222656 Z M 28.238281 28.792969 " fill-opacity="1" fill-rule="nonzero"/></g></g></g></g></g></g><g clip-path="url(#f5cde9cb0f)"><g transform="matrix(1, 0, 0, 1, 155, 132)"><g clip-path="url(#ba80b7e5e1)"><g clip-path="url(#da6911dccc)"><path fill="#fefefe" d="M 0.996094 0.996094 L 47.257812 0.996094 L 47.257812 31.523438 L 0.996094 31.523438 Z M 0.996094 0.996094 " fill-opacity="1" fill-rule="nonzero"/></g></g></g></g><g clip-path="url(#3c392f0f76)"><g clip-path="url(#dbc01dddb7)"><g transform="matrix(1, 0, 0, 1, 154, 211)"><g clip-path="url(#782b1ff1eb)"><g clip-path="url(#4bc256e581)"><g clip-path="url(#6d037d30f1)"><path fill="#fefefe" d="M 0.457031 0.125 L 48.316406 0.125 L 48.316406 48.171875 L 0.457031 48.171875 Z M 0.457031 0.125 " fill-opacity="1" fill-rule="nonzero"/></g></g></g></g></g></g><g fill="#ffffff" fill-opacity="1"><g transform="translate(225.956077, 133.340563)"><g><path d="M 8.890625 0.9375 C 10.765625 0.9375 12.550781 0.429688 14.25 -0.578125 C 15.945312 -1.597656 16.894531 -3.21875 17.09375 -5.4375 C 17.125 -7.351562 17.140625 -8.953125 17.140625 -10.234375 C 17.140625 -11.523438 17.171875 -12.492188 17.234375 -13.140625 C 17.296875 -13.785156 17.476562 -14.109375 17.78125 -14.109375 L 19.890625 -14.15625 C 20.242188 -14.15625 20.46875 -14.125 20.5625 -14.0625 C 20.664062 -14.007812 20.71875 -13.90625 20.71875 -13.75 L 20.71875 -11.765625 C 20.71875 -8.367188 20.8125 -5.890625 21 -4.328125 C 21.3125 -2.609375 22.148438 -1.3125 23.515625 -0.4375 C 24.890625 0.4375 26.414062 0.875 28.09375 0.875 C 29.257812 0.875 30.410156 0.617188 31.546875 0.109375 C 34.035156 -0.972656 35.28125 -2.941406 35.28125 -5.796875 C 35.28125 -12.304688 35.320312 -17.628906 35.40625 -21.765625 C 35.4375 -25.273438 35.453125 -30.523438 35.453125 -37.515625 C 35.453125 -40.003906 35.066406 -41.929688 34.296875 -43.296875 C 32.890625 -45.753906 30.722656 -46.984375 27.796875 -46.984375 C 26.628906 -46.984375 25.585938 -46.816406 24.671875 -46.484375 C 23.753906 -46.160156 23.117188 -45.800781 22.765625 -45.40625 C 21.898438 -44.3125 21.359375 -42.953125 21.140625 -41.328125 C 20.929688 -39.710938 20.828125 -38.164062 20.828125 -36.6875 L 20.953125 -28.90625 C 20.953125 -26.5625 20.753906 -25.390625 20.359375 -25.390625 L 18.546875 -25.34375 C 18.003906 -25.34375 17.671875 -25.410156 17.546875 -25.546875 C 17.429688 -25.679688 17.375 -25.960938 17.375 -26.390625 L 17.5 -36.34375 L 17.4375 -39.96875 C 17.4375 -41.6875 16.988281 -43.082031 16.09375 -44.15625 C 15.195312 -45.226562 14.070312 -46.003906 12.71875 -46.484375 C 11.375 -46.972656 10.039062 -47.21875 8.71875 -47.21875 C 6.84375 -47.21875 5.320312 -46.40625 4.15625 -44.78125 C 2.988281 -43.164062 2.363281 -40.992188 2.28125 -38.265625 L 2.046875 -16.796875 C 2.085938 -14.410156 2.109375 -11.523438 2.109375 -8.140625 C 2.109375 -6.179688 2.203125 -4.65625 2.390625 -3.5625 C 2.585938 -2.476562 3.078125 -1.523438 3.859375 -0.703125 C 5.148438 0.390625 6.828125 0.9375 8.890625 0.9375 Z M 8.890625 0.9375 "/></g></g></g><g fill="#ffffff" fill-opacity="1"><g transform="translate(264.389299, 133.340563)"><g><path d="M 12.578125 1.28125 C 14.253906 1.28125 16.222656 1.242188 18.484375 1.171875 C 20.128906 1.128906 21.945312 1.097656 23.9375 1.078125 C 25.925781 1.054688 27.648438 0.453125 29.109375 -0.734375 C 30.578125 -1.921875 31.3125 -3.585938 31.3125 -5.734375 C 31.3125 -7.878906 30.753906 -9.671875 29.640625 -11.109375 C 28.523438 -12.554688 27.109375 -13.398438 25.390625 -13.640625 C 21.847656 -13.640625 19.0625 -13.65625 17.03125 -13.6875 C 16.757812 -13.726562 16.59375 -13.863281 16.53125 -14.09375 C 16.46875 -14.332031 16.4375 -14.644531 16.4375 -15.03125 C 16.4375 -15.425781 16.472656 -15.703125 16.546875 -15.859375 C 16.628906 -16.015625 16.847656 -16.109375 17.203125 -16.140625 C 17.554688 -16.179688 18.140625 -16.222656 18.953125 -16.265625 L 21.65625 -16.390625 C 22.15625 -16.390625 22.863281 -16.390625 23.78125 -16.390625 C 24.695312 -16.390625 25.625 -16.523438 26.5625 -16.796875 C 28.664062 -17.421875 29.71875 -19.625 29.71875 -23.40625 C 29.71875 -25.039062 29.410156 -26.25 28.796875 -27.03125 C 27.734375 -28.28125 26.015625 -28.90625 23.640625 -28.90625 C 21.066406 -28.90625 19.367188 -28.929688 18.546875 -28.984375 C 17.734375 -29.046875 17.25 -29.175781 17.09375 -29.375 C 16.9375 -29.570312 16.859375 -29.863281 16.859375 -30.25 L 16.859375 -30.484375 L 16.796875 -31.421875 C 16.796875 -31.691406 16.972656 -31.867188 17.328125 -31.953125 C 18.097656 -31.953125 19.242188 -32.007812 20.765625 -32.125 C 22.753906 -32.28125 24.515625 -32.359375 26.046875 -32.359375 C 27.796875 -32.359375 29.097656 -32.804688 29.953125 -33.703125 C 31.285156 -35.109375 31.953125 -36.921875 31.953125 -39.140625 C 31.953125 -41.210938 31.503906 -42.832031 30.609375 -44 C 28.890625 -46.101562 26.15625 -47.15625 22.40625 -47.15625 L 8.375 -47.15625 C 4.625 -46.925781 2.554688 -45.390625 2.171875 -42.546875 C 2.085938 -41.921875 2.046875 -39.945312 2.046875 -36.625 C 2.046875 -34.832031 2.054688 -33 2.078125 -31.125 C 2.097656 -29.257812 2.117188 -27.679688 2.140625 -26.390625 C 2.160156 -25.097656 2.1875 -24.453125 2.21875 -24.453125 L 2.171875 -12.515625 C 2.171875 -8.503906 2.382812 -5.507812 2.8125 -3.53125 C 3.238281 -1.5625 4.191406 -0.269531 5.671875 0.34375 C 7.160156 0.96875 9.460938 1.28125 12.578125 1.28125 Z M 12.578125 1.28125 "/></g></g></g><g fill="#ffffff" fill-opacity="1"><g transform="translate(297.499202, 133.340563)"><g><path d="M 8.953125 0.53125 C 10.316406 0.53125 11.601562 0.269531 12.8125 -0.25 C 14.019531 -0.78125 15.003906 -1.75 15.765625 -3.15625 C 16.523438 -4.5625 16.90625 -6.550781 16.90625 -9.125 C 17.0625 -13.1875 17.140625 -17.632812 17.140625 -22.46875 C 17.140625 -31.164062 17.046875 -37.328125 16.859375 -40.953125 C 16.703125 -42.828125 15.929688 -44.378906 14.546875 -45.609375 C 13.160156 -46.835938 11.453125 -47.453125 9.421875 -47.453125 C 7.390625 -47.453125 5.726562 -46.804688 4.4375 -45.515625 C 3.15625 -44.234375 2.414062 -42.5625 2.21875 -40.5 C 2.144531 -39.90625 2.085938 -39.328125 2.046875 -38.765625 C 2.003906 -38.203125 1.972656 -37.488281 1.953125 -36.625 C 1.941406 -35.769531 1.9375 -34.523438 1.9375 -32.890625 L 2.109375 -10.421875 L 2.046875 -8.828125 C 2.046875 -6.023438 2.53125 -3.765625 3.5 -2.046875 C 4.476562 -0.328125 6.296875 0.53125 8.953125 0.53125 Z M 8.953125 0.53125 "/></g></g></g><g fill="#ffffff" fill-opacity="1"><g transform="translate(225.956077, 214.301122)"><g><path d="M 8.546875 1.046875 C 17.398438 1.046875 23.972656 -1.5625 28.265625 -6.78125 C 31.972656 -11.269531 33.84375 -16.925781 33.875 -23.75 C 33.875 -27.613281 33.09375 -31.335938 31.53125 -34.921875 C 29.976562 -38.515625 27.472656 -41.441406 24.015625 -43.703125 C 20.566406 -45.972656 16.015625 -47.144531 10.359375 -47.21875 C 8.328125 -47.21875 6.5 -46.367188 4.875 -44.671875 C 3.257812 -42.972656 2.375 -40.914062 2.21875 -38.5 C 2.101562 -35.570312 2.046875 -30.5625 2.046875 -23.46875 L 2.109375 -15.796875 C 2.109375 -10.722656 2.128906 -7.875 2.171875 -7.25 C 2.285156 -6.082031 2.613281 -4.863281 3.15625 -3.59375 C 3.707031 -2.332031 4.445312 -1.242188 5.375 -0.328125 C 6.3125 0.585938 7.367188 1.046875 8.546875 1.046875 Z M 16.203125 -18.015625 C 16.085938 -18.015625 16.03125 -18.035156 16.03125 -18.078125 C 16.070312 -18.546875 16.09375 -22 16.09375 -28.4375 C 16.132812 -28.550781 16.210938 -28.609375 16.328125 -28.609375 C 16.597656 -28.609375 16.976562 -28.429688 17.46875 -28.078125 C 17.957031 -27.734375 18.394531 -27.171875 18.78125 -26.390625 C 19.175781 -25.609375 19.375 -24.535156 19.375 -23.171875 C 19.375 -21.878906 19.15625 -20.851562 18.71875 -20.09375 C 18.289062 -19.332031 17.8125 -18.796875 17.28125 -18.484375 C 16.757812 -18.171875 16.398438 -18.015625 16.203125 -18.015625 Z M 16.203125 -18.015625 "/></g></g></g><g fill="#ffffff" fill-opacity="1"><g transform="translate(260.177271, 214.301122)"><g><path d="M 4.96875 0.53125 C 6.53125 0.53125 7.894531 0.0507812 9.0625 -0.90625 C 10.238281 -1.863281 11.195312 -3.140625 11.9375 -4.734375 C 12.007812 -4.972656 12.125 -5.171875 12.28125 -5.328125 C 12.4375 -5.484375 13.003906 -5.5625 13.984375 -5.5625 L 18.3125 -5.5 L 23.171875 -5.5 C 24.109375 -5.5 24.753906 -5.050781 25.109375 -4.15625 C 25.847656 -2.675781 26.820312 -1.570312 28.03125 -0.84375 C 29.238281 -0.125 30.46875 0.234375 31.71875 0.234375 C 32.882812 0.234375 33.953125 -0.0351562 34.921875 -0.578125 C 35.898438 -1.128906 36.664062 -1.929688 37.21875 -2.984375 C 37.601562 -3.804688 37.796875 -4.625 37.796875 -5.4375 C 37.796875 -6.457031 37.425781 -7.898438 36.6875 -9.765625 C 35.675781 -12.421875 33.960938 -17.4375 31.546875 -24.8125 C 29.828125 -29.914062 28.320312 -34.210938 27.03125 -37.703125 C 25.75 -41.203125 24.597656 -43.59375 23.578125 -44.875 C 22.140625 -46.476562 20.460938 -47.28125 18.546875 -47.28125 C 16.910156 -47.28125 15.429688 -46.65625 14.109375 -45.40625 C 13.867188 -45.175781 13.648438 -44.921875 13.453125 -44.640625 C 13.066406 -44.097656 12.347656 -42.519531 11.296875 -39.90625 C 10.785156 -38.738281 6.671875 -28.421875 -1.046875 -8.953125 C -1.441406 -7.941406 -1.640625 -6.925781 -1.640625 -5.90625 C -1.640625 -4.65625 -1.347656 -3.410156 -0.765625 -2.171875 C -0.253906 -1.148438 0.359375 -0.492188 1.078125 -0.203125 C 1.804688 0.0859375 2.5 0.269531 3.15625 0.34375 L 3.625 0.40625 C 4.09375 0.488281 4.539062 0.53125 4.96875 0.53125 Z M 18.3125 -17.375 C 17.65625 -17.375 17.328125 -17.453125 17.328125 -17.609375 C 17.515625 -18.003906 17.785156 -18.515625 18.140625 -19.140625 C 18.492188 -19.765625 18.765625 -20.328125 18.953125 -20.828125 C 19.078125 -20.828125 19.175781 -20.804688 19.25 -20.765625 C 19.5625 -19.835938 19.875 -19.078125 20.1875 -18.484375 C 20.414062 -18.054688 20.53125 -17.765625 20.53125 -17.609375 C 20.53125 -17.535156 20.492188 -17.5 20.421875 -17.5 Z M 18.3125 -17.375 "/></g></g></g><g fill="#ffffff" fill-opacity="1"><g transform="translate(291.530961, 214.301122)"><g><path d="M 18.671875 0.53125 C 20.816406 0.53125 22.582031 -0.160156 23.96875 -1.546875 C 25.351562 -2.929688 26.101562 -4.875 26.21875 -7.375 L 26.28125 -16.796875 L 26.21875 -25.390625 C 26.21875 -28.273438 26.273438 -30.128906 26.390625 -30.953125 C 26.429688 -31.460938 26.585938 -31.800781 26.859375 -31.96875 C 27.128906 -32.144531 27.34375 -32.234375 27.5 -32.234375 C 28.632812 -32.234375 29.875 -32.289062 31.21875 -32.40625 C 32.5625 -32.53125 33.742188 -32.863281 34.765625 -33.40625 C 37.097656 -34.769531 38.265625 -37.171875 38.265625 -40.609375 C 38.265625 -42.597656 37.738281 -44.109375 36.6875 -45.140625 C 35.632812 -46.179688 34.460938 -46.875 33.171875 -47.21875 C 31.890625 -47.570312 30.859375 -47.75 30.078125 -47.75 L 9.71875 -47.75 C 7.644531 -47.75 5.65625 -47.320312 3.75 -46.46875 C 0.863281 -45.175781 -0.578125 -42.953125 -0.578125 -39.796875 C -0.578125 -38.117188 -0.0351562 -36.65625 1.046875 -35.40625 C 2.140625 -34.15625 3.253906 -33.316406 4.390625 -32.890625 C 4.972656 -32.648438 5.613281 -32.476562 6.3125 -32.375 C 7.019531 -32.28125 8.113281 -32.234375 9.59375 -32.234375 C 9.988281 -32.234375 10.390625 -32.175781 10.796875 -32.0625 C 11.203125 -31.945312 11.425781 -31.65625 11.46875 -31.1875 C 11.738281 -25.882812 11.875 -18.609375 11.875 -9.359375 L 11.875 -6.78125 C 11.875 -6.75 11.953125 -6.351562 12.109375 -5.59375 C 12.265625 -4.832031 12.578125 -3.984375 13.046875 -3.046875 C 13.515625 -2.109375 14.195312 -1.273438 15.09375 -0.546875 C 15.988281 0.171875 17.179688 0.53125 18.671875 0.53125 Z M 18.671875 0.53125 "/></g></g></g><g fill="#ffffff" fill-opacity="1"><g transform="translate(324.405696, 214.301122)"><g><path d="M 4.96875 0.53125 C 6.53125 0.53125 7.894531 0.0507812 9.0625 -0.90625 C 10.238281 -1.863281 11.195312 -3.140625 11.9375 -4.734375 C 12.007812 -4.972656 12.125 -5.171875 12.28125 -5.328125 C 12.4375 -5.484375 13.003906 -5.5625 13.984375 -5.5625 L 18.3125 -5.5 L 23.171875 -5.5 C 24.109375 -5.5 24.753906 -5.050781 25.109375 -4.15625 C 25.847656 -2.675781 26.820312 -1.570312 28.03125 -0.84375 C 29.238281 -0.125 30.46875 0.234375 31.71875 0.234375 C 32.882812 0.234375 33.953125 -0.0351562 34.921875 -0.578125 C 35.898438 -1.128906 36.664062 -1.929688 37.21875 -2.984375 C 37.601562 -3.804688 37.796875 -4.625 37.796875 -5.4375 C 37.796875 -6.457031 37.425781 -7.898438 36.6875 -9.765625 C 35.675781 -12.421875 33.960938 -17.4375 31.546875 -24.8125 C 29.828125 -29.914062 28.320312 -34.210938 27.03125 -37.703125 C 25.75 -41.203125 24.597656 -43.59375 23.578125 -44.875 C 22.140625 -46.476562 20.460938 -47.28125 18.546875 -47.28125 C 16.910156 -47.28125 15.429688 -46.65625 14.109375 -45.40625 C 13.867188 -45.175781 13.648438 -44.921875 13.453125 -44.640625 C 13.066406 -44.097656 12.347656 -42.519531 11.296875 -39.90625 C 10.785156 -38.738281 6.671875 -28.421875 -1.046875 -8.953125 C -1.441406 -7.941406 -1.640625 -6.925781 -1.640625 -5.90625 C -1.640625 -4.65625 -1.347656 -3.410156 -0.765625 -2.171875 C -0.253906 -1.148438 0.359375 -0.492188 1.078125 -0.203125 C 1.804688 0.0859375 2.5 0.269531 3.15625 0.34375 L 3.625 0.40625 C 4.09375 0.488281 4.539062 0.53125 4.96875 0.53125 Z M 18.3125 -17.375 C 17.65625 -17.375 17.328125 -17.453125 17.328125 -17.609375 C 17.515625 -18.003906 17.785156 -18.515625 18.140625 -19.140625 C 18.492188 -19.765625 18.765625 -20.328125 18.953125 -20.828125 C 19.078125 -20.828125 19.175781 -20.804688 19.25 -20.765625 C 19.5625 -19.835938 19.875 -19.078125 20.1875 -18.484375 C 20.414062 -18.054688 20.53125 -17.765625 20.53125 -17.609375 C 20.53125 -17.535156 20.492188 -17.5 20.421875 -17.5 Z M 18.3125 -17.375 "/></g></g></g><g fill="#ffffff" fill-opacity="1"><g transform="translate(225.956077, 295.261681)"><g><path d="M 8.890625 0.9375 C 10.765625 0.9375 12.550781 0.429688 14.25 -0.578125 C 15.945312 -1.597656 16.894531 -3.21875 17.09375 -5.4375 C 17.125 -7.351562 17.140625 -8.953125 17.140625 -10.234375 C 17.140625 -11.523438 17.171875 -12.492188 17.234375 -13.140625 C 17.296875 -13.785156 17.476562 -14.109375 17.78125 -14.109375 L 19.890625 -14.15625 C 20.242188 -14.15625 20.46875 -14.125 20.5625 -14.0625 C 20.664062 -14.007812 20.71875 -13.90625 20.71875 -13.75 L 20.71875 -11.765625 C 20.71875 -8.367188 20.8125 -5.890625 21 -4.328125 C 21.3125 -2.609375 22.148438 -1.3125 23.515625 -0.4375 C 24.890625 0.4375 26.414062 0.875 28.09375 0.875 C 29.257812 0.875 30.410156 0.617188 31.546875 0.109375 C 34.035156 -0.972656 35.28125 -2.941406 35.28125 -5.796875 C 35.28125 -12.304688 35.320312 -17.628906 35.40625 -21.765625 C 35.4375 -25.273438 35.453125 -30.523438 35.453125 -37.515625 C 35.453125 -40.003906 35.066406 -41.929688 34.296875 -43.296875 C 32.890625 -45.753906 30.722656 -46.984375 27.796875 -46.984375 C 26.628906 -46.984375 25.585938 -46.816406 24.671875 -46.484375 C 23.753906 -46.160156 23.117188 -45.800781 22.765625 -45.40625 C 21.898438 -44.3125 21.359375 -42.953125 21.140625 -41.328125 C 20.929688 -39.710938 20.828125 -38.164062 20.828125 -36.6875 L 20.953125 -28.90625 C 20.953125 -26.5625 20.753906 -25.390625 20.359375 -25.390625 L 18.546875 -25.34375 C 18.003906 -25.34375 17.671875 -25.410156 17.546875 -25.546875 C 17.429688 -25.679688 17.375 -25.960938 17.375 -26.390625 L 17.5 -36.34375 L 17.4375 -39.96875 C 17.4375 -41.6875 16.988281 -43.082031 16.09375 -44.15625 C 15.195312 -45.226562 14.070312 -46.003906 12.71875 -46.484375 C 11.375 -46.972656 10.039062 -47.21875 8.71875 -47.21875 C 6.84375 -47.21875 5.320312 -46.40625 4.15625 -44.78125 C 2.988281 -43.164062 2.363281 -40.992188 2.28125 -38.265625 L 2.046875 -16.796875 C 2.085938 -14.410156 2.109375 -11.523438 2.109375 -8.140625 C 2.109375 -6.179688 2.203125 -4.65625 2.390625 -3.5625 C 2.585938 -2.476562 3.078125 -1.523438 3.859375 -0.703125 C 5.148438 0.390625 6.828125 0.9375 8.890625 0.9375 Z M 8.890625 0.9375 "/></g></g></g><g fill="#ffffff" fill-opacity="1"><g transform="translate(264.389299, 295.261681)"><g><path d="M 18.953125 1.109375 C 22.546875 1.109375 25.617188 0.144531 28.171875 -1.78125 C 30.734375 -3.71875 32.703125 -6.109375 34.078125 -8.953125 C 35.460938 -11.796875 36.15625 -14.625 36.15625 -17.4375 C 36.4375 -21.53125 36.578125 -25.160156 36.578125 -28.328125 C 36.578125 -30.703125 36.535156 -32.804688 36.453125 -34.640625 L 36.390625 -38.5 C 36.390625 -40.375 35.953125 -41.9375 35.078125 -43.1875 C 34.203125 -44.4375 33.164062 -45.363281 31.96875 -45.96875 C 30.78125 -46.570312 29.703125 -46.875 28.734375 -46.875 C 26.898438 -46.875 25.269531 -46.050781 23.84375 -44.40625 C 22.414062 -42.769531 21.644531 -40.878906 21.53125 -38.734375 C 21.414062 -34.554688 21.359375 -30.617188 21.359375 -26.921875 C 21.359375 -23.015625 21.28125 -20.390625 21.125 -19.046875 C 20.96875 -17.703125 20.441406 -17.03125 19.546875 -17.03125 C 18.679688 -17.03125 18.140625 -17.644531 17.921875 -18.875 C 17.710938 -20.101562 17.609375 -21.613281 17.609375 -23.40625 L 17.609375 -27.328125 L 17.546875 -30.25 L 17.609375 -34.109375 C 17.609375 -36.566406 17.375 -38.695312 16.90625 -40.5 C 16.71875 -40.957031 16.425781 -41.578125 16.03125 -42.359375 C 14.507812 -45.285156 12.484375 -46.75 9.953125 -46.75 C 6.472656 -46.75 4.113281 -45.328125 2.875 -42.484375 C 1.851562 -40.179688 1.34375 -35.734375 1.34375 -29.140625 C 1.34375 -25.546875 1.476562 -21.820312 1.75 -17.96875 C 1.875 -16.007812 2.273438 -13.925781 2.953125 -11.71875 C 3.640625 -9.519531 4.65625 -7.457031 6 -5.53125 C 7.34375 -3.601562 9.078125 -2.015625 11.203125 -0.765625 C 13.328125 0.484375 15.910156 1.109375 18.953125 1.109375 Z M 18.953125 1.109375 "/></g></g></g><g fill="#ffffff" fill-opacity="1"><g transform="translate(303.349, 295.261681)"><g><path d="M 18.78125 -0.109375 C 21.195312 -0.109375 23.265625 -0.304688 24.984375 -0.703125 C 28.578125 -1.679688 31.269531 -3.515625 33.0625 -6.203125 C 34.851562 -8.890625 35.75 -11.796875 35.75 -14.921875 C 35.75 -17.265625 35.25 -19.535156 34.25 -21.734375 C 33.257812 -23.941406 31.769531 -25.804688 29.78125 -27.328125 C 29.46875 -27.554688 29.234375 -27.75 29.078125 -27.90625 C 28.921875 -28.0625 28.84375 -28.238281 28.84375 -28.4375 C 28.84375 -28.675781 28.960938 -29.023438 29.203125 -29.484375 C 29.984375 -31.316406 30.375 -33.132812 30.375 -34.9375 C 30.375 -37.707031 29.523438 -40.179688 27.828125 -42.359375 C 26.128906 -44.546875 23.757812 -46.066406 20.71875 -46.921875 C 19.195312 -47.316406 17.691406 -47.515625 16.203125 -47.515625 C 15.191406 -47.515625 14.175781 -47.472656 13.15625 -47.390625 C 12.144531 -47.316406 11.078125 -47.257812 9.953125 -47.21875 C 8.035156 -47.144531 6.375 -46.648438 4.96875 -45.734375 C 3.570312 -44.816406 2.695312 -43.378906 2.34375 -41.421875 C 2.1875 -40.453125 2.085938 -35.65625 2.046875 -27.03125 L 1.984375 -23.109375 L 2.046875 -6.609375 C 2.046875 -4.390625 2.628906 -2.757812 3.796875 -1.71875 C 4.972656 -0.6875 6.265625 -0.171875 7.671875 -0.171875 Z M 17.265625 -12.640625 C 17.066406 -12.640625 16.96875 -12.753906 16.96875 -12.984375 L 16.90625 -18.25 C 16.90625 -18.757812 16.925781 -19.148438 16.96875 -19.421875 C 17.007812 -19.703125 17.144531 -19.84375 17.375 -19.84375 C 18.113281 -19.800781 18.71875 -19.445312 19.1875 -18.78125 C 19.65625 -18.113281 19.890625 -17.316406 19.890625 -16.390625 C 19.890625 -15.640625 19.703125 -14.921875 19.328125 -14.234375 C 18.960938 -13.554688 18.351562 -13.046875 17.5 -12.703125 Z M 17.03125 -30.484375 L 17.03125 -35.8125 C 18.28125 -35.8125 18.90625 -34.914062 18.90625 -33.125 C 18.90625 -32.5 18.785156 -31.898438 18.546875 -31.328125 C 18.316406 -30.765625 17.8125 -30.484375 17.03125 -30.484375 Z M 17.03125 -30.484375 "/></g></g></g></g></g></svg>